<svg width="651" height="650" viewBox="0 0 651 650" fill="none" xmlns="http://www.w3.org/2000/svg">
<path d="M118.394 0.466145C113.967 1.43091 110.9 4.48191 110.016 8.71002C109.275 12.2478 111.119 16.3264 158.469 115.311C185.461 171.938 208.843 221.324 210.292 225.14C229.664 275.218 217.551 332.667 179.43 370.894C176.223 374.186 138.931 406.731 96.7697 443.211C54.5221 479.673 15.8937 513.019 10.9338 517.385C2.70354 524.49 1.8658 525.485 1.10736 529.109C0.403097 532.474 0.617107 533.6 2.59152 536.625C4.56593 539.65 5.50934 540.298 8.86885 541.001C13.5205 541.975 0.293998 548.033 129.031 486.259C180.006 461.801 225.186 440.544 229.255 439.144C244.893 433.59 262.248 431.007 279.868 431.452C291.241 431.671 313.724 436.376 324.834 440.863C340.691 447.153 358.86 459.152 371.055 471.341C373.741 473.975 409.386 515.03 450.341 562.509C522.6 646.442 524.855 648.986 528.473 649.743C535.278 651.167 542.186 645.227 541.192 638.805C540.928 637.488 518.785 590.343 491.911 534.011C465.037 477.68 441.841 428.693 440.51 425.172C434.004 408.139 430.865 389.198 431.552 370.878C431.933 361.321 432.452 357.557 435.753 343.927C439.81 327.123 442.587 319.868 450.078 306.845C455.269 297.934 464.615 285.93 472.383 278.459C475.902 274.962 516.899 239.319 563.323 199.228C616.446 153.333 648.311 125.236 649.225 123.446C651.108 119.607 649.621 114.252 645.697 111.089C643.248 109.046 642.318 108.761 639.485 108.979C637.378 109.168 597.4 127.912 534.635 158.008C478.857 184.794 430.728 207.686 427.764 208.957C409.467 216.476 387.132 220.088 366.465 218.735C354.579 217.959 330.005 211.645 319.434 206.731C304.533 199.739 289.252 188.976 279.044 178.463C276.617 175.884 241.398 135.369 200.906 88.256C160.309 41.2116 126.319 2.12467 125.29 1.45887C122.836 -0.135415 121.871 -0.247451 118.394 0.466145Z" fill="#C6F45C"/>
</svg>
