<svg width="831" height="822" viewBox="0 0 831 822" fill="none" xmlns="http://www.w3.org/2000/svg">
<path d="M647.334 0.706767C637.82 -1.17847 625.246 1.03834 616.548 6.1804C611.405 9.1894 588.678 32.7127 502.644 123.484C443.627 185.844 393.169 238.72 390.553 240.806C383.959 245.989 369.306 250.157 360.241 249.301C355.765 248.906 337.451 243.433 314.725 235.932C159.854 184.261 53.9512 149.849 49.0049 149.478C40.03 148.98 28.6878 151.933 21.1752 156.871C15.2723 160.643 13.4847 162.616 8.26019 171.355C3.90641 178.638 1.85408 183.343 1.01063 188.314C-0.476408 197.159 2.81142 211.747 7.78935 218.677C9.96432 221.651 63.3195 271.493 126.376 329.264C210.609 406.537 242.026 436.117 244.807 440.365C249.248 447.43 252.086 460.229 251.068 468.289C250.647 471.536 227.245 540.434 199.071 621.384C160.999 730.333 147.694 770.135 147.299 775.374C147.013 779.157 148.008 786.139 149.514 790.994C154.37 806.52 167.231 817.555 184.916 821.283C193.669 823.169 209.911 819.647 217.155 814.396C220.307 812.174 271.057 759.32 330.074 696.96C389.09 634.6 439.706 581.97 442.546 580.018C449.655 574.99 461.78 571.745 470.554 572.579C475.68 572.905 523.28 588.129 626.049 622.189C707.525 649.147 777.403 671.605 781.342 672.135C790.9 673.438 806.47 668.753 813.846 662.517C821.156 656.392 828.39 644.291 830.324 634.953C832.325 625.503 829.373 611.115 823.745 603.492C821.256 600.027 773.256 555.212 705.561 492.995C631.39 425.082 590.068 386.388 587.489 382.565C582.578 375.523 579.429 363.754 580.178 355.381C580.53 351.485 599.385 295.534 631.862 202.555C659.947 122.008 683.327 53.4013 683.927 50.1096C685.504 41.6229 682.509 28.5782 677.261 20.5741C671.295 11.2283 658.639 2.90205 647.334 0.706767Z" fill="#2CCCD3"/>
</svg>
