<svg width="303" height="328" viewBox="0 0 303 328" fill="none" xmlns="http://www.w3.org/2000/svg">
<mask id="path-1-inside-1_1_173" fill="white">
<path fill-rule="evenodd" clip-rule="evenodd" d="M151 50.0001C165.912 50.0001 178 37.9117 178 23.0001C178 22.6653 177.994 22.3319 177.982 22.0001L293 22.0001C298.523 22.0001 303 26.4772 303 32.0001V318C303 323.523 298.523 328 293 328H10C4.47716 328 0 323.523 0 318L0 32.0001C0 26.4772 4.47715 22.0001 10 22.0001L124.018 22.0001C124.006 22.3319 124 22.6653 124 23.0001C124 37.9117 136.088 50.0001 151 50.0001Z"/>
</mask>
<path fill-rule="evenodd" clip-rule="evenodd" d="M151 50.0001C165.912 50.0001 178 37.9117 178 23.0001C178 22.6653 177.994 22.3319 177.982 22.0001L293 22.0001C298.523 22.0001 303 26.4772 303 32.0001V318C303 323.523 298.523 328 293 328H10C4.47716 328 0 323.523 0 318L0 32.0001C0 26.4772 4.47715 22.0001 10 22.0001L124.018 22.0001C124.006 22.3319 124 22.6653 124 23.0001C124 37.9117 136.088 50.0001 151 50.0001Z" fill="white"/>
<path d="M177.982 22.0001V21.0001H176.945L176.982 22.0365L177.982 22.0001ZM293 22.0001V23.0001V22.0001ZM124.018 22.0001L125.018 22.0365L125.055 21.0001H124.018V22.0001ZM177 23.0001C177 37.3595 165.359 49.0001 151 49.0001V51.0001C166.464 51.0001 179 38.464 179 23.0001H177ZM176.982 22.0365C176.994 22.3562 177 22.6774 177 23.0001H179C179 22.6531 178.994 22.3076 178.981 21.9637L176.982 22.0365ZM177.982 23.0001H293V21.0001H177.982V23.0001ZM293 23.0001C297.971 23.0001 302 27.0295 302 32.0001H304C304 25.9249 299.075 21.0001 293 21.0001V23.0001ZM302 32.0001V318H304V32.0001H302ZM302 318C302 322.971 297.971 327 293 327V329C299.075 329 304 324.075 304 318H302ZM293 327H10V329H293V327ZM10 327C5.02944 327 1 322.971 1 318H-1C-1 324.075 3.92488 329 10 329V327ZM1 318L1 32.0001H-1L-1 318H1ZM1 32.0001C1 27.0295 5.02944 23.0001 10 23.0001V21.0001C3.92487 21.0001 -1 25.9249 -1 32.0001H1ZM10 23.0001H124.018V21.0001H10V23.0001ZM125 23.0001C125 22.6774 125.006 22.3562 125.018 22.0365L123.019 21.9637C123.006 22.3076 123 22.6531 123 23.0001H125ZM151 49.0001C136.641 49.0001 125 37.3595 125 23.0001H123C123 38.464 135.536 51.0001 151 51.0001V49.0001Z" fill="black" fill-opacity="0.15" mask="url(#path-1-inside-1_1_173)"/>
<path d="M25.9 68.8401C27.3133 67.4401 29.0533 66.7401 31.12 66.7401C33.1867 66.7401 34.92 67.4401 36.32 68.8401C37.7333 70.2267 38.44 71.9467 38.44 74.0001C38.44 76.0534 37.7333 77.7801 36.32 79.1801C34.92 80.5667 33.1867 81.2601 31.12 81.2601C29.0533 81.2601 27.3133 80.5667 25.9 79.1801C24.5 77.7801 23.8 76.0534 23.8 74.0001C23.8 71.9467 24.5 70.2267 25.9 68.8401ZM33.9 71.1201C33.1667 70.3601 32.24 69.9801 31.12 69.9801C30 69.9801 29.0733 70.3601 28.34 71.1201C27.6067 71.8667 27.24 72.8267 27.24 74.0001C27.24 75.1734 27.6067 76.1401 28.34 76.9001C29.0733 77.6467 30 78.0201 31.12 78.0201C32.24 78.0201 33.1667 77.6467 33.9 76.9001C34.6333 76.1401 35 75.1734 35 74.0001C35 72.8267 34.6333 71.8667 33.9 71.1201ZM45.7905 81.2601C44.1238 81.2601 42.7438 80.7134 41.6505 79.6201C40.5705 78.5134 40.0305 77.1401 40.0305 75.5001C40.0305 73.8601 40.5705 72.4934 41.6505 71.4001C42.7438 70.2934 44.1305 69.7401 45.8105 69.7401C47.2371 69.7401 48.4771 70.1534 49.5305 70.9801C50.5838 71.7934 51.1905 72.9134 51.3505 74.3401H47.8505C47.6105 73.3667 46.9305 72.8801 45.8105 72.8801C45.0771 72.8801 44.5038 73.1201 44.0905 73.6001C43.6771 74.0801 43.4705 74.7134 43.4705 75.5001C43.4705 76.2867 43.6771 76.9201 44.0905 77.4001C44.5171 77.8801 45.0838 78.1201 45.7905 78.1201C46.2838 78.1201 46.7171 78.0001 47.0905 77.7601C47.4771 77.5067 47.7305 77.1334 47.8505 76.6401H51.3505C51.1771 78.0934 50.5571 79.2267 49.4905 80.0401C48.4371 80.8534 47.2038 81.2601 45.7905 81.2601ZM62.1453 70.0001V73.2001H58.9453V81.0001H55.5453V73.2001H52.3453V70.0001H58.9453H62.1453ZM71.4308 70.0001H74.8308L74.8108 81.0001H71.4108V79.8201C70.6241 80.7801 69.5908 81.2601 68.3108 81.2601C66.8974 81.2601 65.7174 80.7201 64.7708 79.6401C63.8241 78.5601 63.3508 77.1801 63.3508 75.5001C63.3508 73.8201 63.8241 72.4401 64.7708 71.3601C65.7308 70.2801 66.9041 69.7401 68.2908 69.7401C69.6108 69.7401 70.6574 70.2401 71.4308 71.2401V70.0001ZM67.4508 77.3401C67.8908 77.7934 68.4441 78.0201 69.1108 78.0201C69.7774 78.0201 70.3308 77.7934 70.7708 77.3401C71.2108 76.8734 71.4308 76.2601 71.4308 75.5001C71.4308 74.7534 71.2108 74.1467 70.7708 73.6801C70.3308 73.2134 69.7774 72.9801 69.1108 72.9801C68.4441 72.9801 67.8908 73.2134 67.4508 73.6801C67.0108 74.1467 66.7908 74.7534 66.7908 75.5001C66.7908 76.2601 67.0108 76.8734 67.4508 77.3401ZM84.972 75.0201C86.2387 75.4201 86.872 76.3467 86.872 77.8001C86.872 78.9201 86.492 79.7334 85.732 80.2401C84.972 80.7467 83.9987 81.0001 82.812 81.0001H76.832V70.0001H82.332C82.892 70.0001 83.3854 70.0401 83.812 70.1201C84.252 70.1867 84.672 70.3134 85.072 70.5001C85.472 70.6867 85.7787 70.9734 85.992 71.3601C86.2054 71.7334 86.312 72.2001 86.312 72.7601C86.312 73.2934 86.1987 73.7267 85.972 74.0601C85.7454 74.3934 85.412 74.7134 84.972 75.0201ZM82.872 73.4401C82.872 73.1467 82.8054 72.9401 82.672 72.8201C82.552 72.7001 82.3387 72.6401 82.032 72.6401H80.232V74.2001H82.052C82.3587 74.2001 82.572 74.1467 82.692 74.0401C82.812 73.9201 82.872 73.7201 82.872 73.4401ZM82.552 78.3601C82.872 78.3601 83.0987 78.3001 83.232 78.1801C83.3654 78.0467 83.432 77.8134 83.432 77.4801C83.432 77.1467 83.3654 76.9201 83.232 76.8001C83.0987 76.6667 82.872 76.6001 82.552 76.6001H80.232V78.3601H82.552ZM91.3303 70.0001H99.7703V81.0001H96.3703V73.2001H94.2303L93.6703 76.6801C93.177 79.7334 91.7903 81.2601 89.5103 81.2601C89.0836 81.2601 88.5703 81.2001 87.9703 81.0801V78.0201C88.3703 78.0734 88.6436 78.1001 88.7903 78.1001C89.257 78.1001 89.597 77.9801 89.8103 77.7401C90.037 77.4867 90.2036 77.0201 90.3103 76.3401L91.3303 70.0001ZM105.973 70.0001H111.813V81.0001H108.413V77.3801H107.593L105.333 81.0001H101.173L104.033 77.0001C102.553 76.4667 101.813 75.4134 101.813 73.8401C101.813 73.1467 101.94 72.5401 102.193 72.0201C102.447 71.4867 102.787 71.0867 103.213 70.8201C103.64 70.5401 104.08 70.3334 104.533 70.2001C105 70.0667 105.48 70.0001 105.973 70.0001ZM106.193 73.0401C105.567 73.0401 105.253 73.2867 105.253 73.7801C105.253 74.3267 105.567 74.6001 106.193 74.6001H108.413V73.0401H106.193ZM119.205 68.8801C118.271 68.8801 117.465 68.5867 116.785 68.0001C116.118 67.4134 115.785 66.6201 115.785 65.6201V65.0001H118.425V65.5401C118.425 65.7801 118.498 65.9734 118.645 66.1201C118.791 66.2667 118.978 66.3401 119.205 66.3401C119.431 66.3401 119.611 66.2667 119.745 66.1201C119.891 65.9734 119.965 65.7801 119.965 65.5401V65.0001H122.605V65.6201C122.605 66.6201 122.265 67.4134 121.585 68.0001C120.918 68.5867 120.125 68.8801 119.205 68.8801ZM120.725 70.0001H124.585V81.0001H121.185V77.7201L121.365 74.7401L117.665 81.0001H113.805V70.0001H117.205V73.2801L117.025 76.2201L120.725 70.0001ZM135.778 70.0001V73.2001H132.578V81.0001H129.178V73.2001H125.978V70.0001H132.578H135.778ZM142.784 69.7401C144.584 69.7401 146.024 70.3667 147.104 71.6201C148.184 72.8601 148.637 74.3934 148.464 76.2201H140.444C140.524 77.0201 140.784 77.6267 141.224 78.0401C141.677 78.4401 142.224 78.6401 142.864 78.6401C143.33 78.6401 143.737 78.5334 144.084 78.3201C144.43 78.0934 144.67 77.7867 144.804 77.4001H148.304C147.944 78.6934 147.264 79.6601 146.264 80.3001C145.277 80.9401 144.144 81.2601 142.864 81.2601C141.13 81.2601 139.717 80.7134 138.624 79.6201C137.53 78.5267 136.984 77.1534 136.984 75.5001C136.984 73.8601 137.524 72.4934 138.604 71.4001C139.697 70.2934 141.09 69.7401 142.784 69.7401ZM142.764 72.3601C141.604 72.3601 140.864 72.9601 140.544 74.1601H144.924C144.804 73.6134 144.557 73.1801 144.184 72.8601C143.824 72.5267 143.35 72.3601 142.764 72.3601ZM25.48 99.4001C26.6 98.2934 27.96 97.7401 29.56 97.7401C31.16 97.7401 32.52 98.2934 33.64 99.4001C34.76 100.493 35.32 101.86 35.32 103.5C35.32 105.153 34.7667 106.527 33.66 107.62C32.5533 108.713 31.1867 109.26 29.56 109.26C27.9467 109.26 26.58 108.713 25.46 107.62C24.3533 106.513 23.8 105.14 23.8 103.5C23.8 101.86 24.36 100.493 25.48 99.4001ZM31.22 101.68C30.78 101.213 30.2267 100.98 29.56 100.98C28.8933 100.98 28.34 101.213 27.9 101.68C27.46 102.147 27.24 102.753 27.24 103.5C27.24 104.26 27.46 104.873 27.9 105.34C28.34 105.793 28.8933 106.02 29.56 106.02C30.2267 106.02 30.78 105.793 31.22 105.34C31.66 104.873 31.88 104.26 31.88 103.5C31.88 102.753 31.66 102.147 31.22 101.68ZM46.325 98.0001V101.2H43.125V109H39.725V101.2H36.525V98.0001H43.125H46.325ZM56.2105 103.2C57.2905 103.667 57.8305 104.533 57.8305 105.8C57.8305 106.947 57.3705 107.813 56.4505 108.4C55.5305 108.973 54.3105 109.26 52.7905 109.26C49.6305 109.26 47.8105 107.92 47.3305 105.24H50.7705C50.8505 105.773 51.0371 106.147 51.3305 106.36C51.6371 106.573 52.0971 106.68 52.7105 106.68C53.3105 106.68 53.7371 106.593 53.9905 106.42C54.2571 106.247 54.3905 105.967 54.3905 105.58C54.3905 105.273 54.2971 105.047 54.1105 104.9C53.9238 104.753 53.5905 104.68 53.1105 104.68H51.4305V102.1H52.8705C53.3105 102.1 53.6171 102.033 53.7905 101.9C53.9638 101.767 54.0505 101.553 54.0505 101.26C54.0505 100.927 53.9371 100.68 53.7105 100.52C53.4838 100.347 53.1038 100.26 52.5705 100.26C51.5971 100.26 51.0571 100.66 50.9505 101.46H47.5105C47.9238 98.9801 49.6238 97.7401 52.6105 97.7401C54.0505 97.7401 55.2238 98.0201 56.1305 98.5801C57.0371 99.1401 57.4905 99.9467 57.4905 101C57.4905 101.96 57.0638 102.693 56.2105 103.2ZM65.3673 101.04C65.874 101.04 66.3473 101.1 66.7873 101.22C67.2273 101.34 67.654 101.54 68.0673 101.82C68.494 102.087 68.8273 102.487 69.0673 103.02C69.3073 103.553 69.4273 104.187 69.4273 104.92C69.4273 105.653 69.3007 106.3 69.0473 106.86C68.794 107.407 68.454 107.833 68.0273 108.14C67.6007 108.433 67.154 108.653 66.6873 108.8C66.234 108.933 65.7607 109 65.2673 109H59.5273V98.0001H62.9273V101.04H65.3673ZM70.7873 98.0001H74.1873V109H70.7873V98.0001ZM65.1473 105.76C65.7073 105.76 65.9873 105.48 65.9873 104.92C65.9873 104.32 65.7073 104.02 65.1473 104.02H62.9273V105.76H65.1473ZM84.3275 103.02C85.5942 103.42 86.2275 104.347 86.2275 105.8C86.2275 106.92 85.8475 107.733 85.0875 108.24C84.3275 108.747 83.3542 109 82.1675 109H76.1875V98.0001H81.6875C82.2475 98.0001 82.7408 98.0401 83.1675 98.1201C83.6075 98.1867 84.0275 98.3134 84.4275 98.5001C84.8275 98.6867 85.1342 98.9734 85.3475 99.3601C85.5608 99.7334 85.6675 100.2 85.6675 100.76C85.6675 101.293 85.5542 101.727 85.3275 102.06C85.1008 102.393 84.7675 102.713 84.3275 103.02ZM82.2275 101.44C82.2275 101.147 82.1608 100.94 82.0275 100.82C81.9075 100.7 81.6942 100.64 81.3875 100.64H79.5875V102.2H81.4075C81.7142 102.2 81.9275 102.147 82.0475 102.04C82.1675 101.92 82.2275 101.72 82.2275 101.44ZM81.9075 106.36C82.2275 106.36 82.4542 106.3 82.5875 106.18C82.7208 106.047 82.7875 105.813 82.7875 105.48C82.7875 105.147 82.7208 104.92 82.5875 104.8C82.4542 104.667 82.2275 104.6 81.9075 104.6H79.5875V106.36H81.9075ZM95.4019 99.4001C96.5219 98.2934 97.8819 97.7401 99.4819 97.7401C101.082 97.7401 102.442 98.2934 103.562 99.4001C104.682 100.493 105.242 101.86 105.242 103.5C105.242 105.153 104.689 106.527 103.582 107.62C102.475 108.713 101.109 109.26 99.4819 109.26C97.8685 109.26 96.5019 108.713 95.3819 107.62C94.2752 106.513 93.7219 105.14 93.7219 103.5C93.7219 101.86 94.2819 100.493 95.4019 99.4001ZM101.142 101.68C100.702 101.213 100.149 100.98 99.4819 100.98C98.8152 100.98 98.2619 101.213 97.8219 101.68C97.3819 102.147 97.1619 102.753 97.1619 103.5C97.1619 104.26 97.3819 104.873 97.8219 105.34C98.2619 105.793 98.8152 106.02 99.4819 106.02C100.149 106.02 100.702 105.793 101.142 105.34C101.582 104.873 101.802 104.26 101.802 103.5C101.802 102.753 101.582 102.147 101.142 101.68ZM122.243 98.0001V101.2H119.043V109H115.643V101.2H112.443V98.0001H119.043H122.243ZM125.128 99.4001C126.248 98.2934 127.608 97.7401 129.208 97.7401C130.808 97.7401 132.168 98.2934 133.288 99.4001C134.408 100.493 134.968 101.86 134.968 103.5C134.968 105.153 134.415 106.527 133.308 107.62C132.202 108.713 130.835 109.26 129.208 109.26C127.595 109.26 126.228 108.713 125.108 107.62C124.002 106.513 123.448 105.14 123.448 103.5C123.448 101.86 124.008 100.493 125.128 99.4001ZM130.868 101.68C130.428 101.213 129.875 100.98 129.208 100.98C128.542 100.98 127.988 101.213 127.548 101.68C127.108 102.147 126.888 102.753 126.888 103.5C126.888 104.26 127.108 104.873 127.548 105.34C127.988 105.793 128.542 106.02 129.208 106.02C129.875 106.02 130.428 105.793 130.868 105.34C131.308 104.873 131.528 104.26 131.528 103.5C131.528 102.753 131.308 102.147 130.868 101.68ZM144.913 103.02C146.18 103.42 146.813 104.347 146.813 105.8C146.813 106.92 146.433 107.733 145.673 108.24C144.913 108.747 143.94 109 142.753 109H136.773V98.0001H142.273C142.833 98.0001 143.327 98.0401 143.753 98.1201C144.193 98.1867 144.613 98.3134 145.013 98.5001C145.413 98.6867 145.72 98.9734 145.933 99.3601C146.147 99.7334 146.253 100.2 146.253 100.76C146.253 101.293 146.14 101.727 145.913 102.06C145.687 102.393 145.353 102.713 144.913 103.02ZM142.813 101.44C142.813 101.147 142.747 100.94 142.613 100.82C142.493 100.7 142.28 100.64 141.973 100.64H140.173V102.2H141.993C142.3 102.2 142.513 102.147 142.633 102.04C142.753 101.92 142.813 101.72 142.813 101.44ZM142.493 106.36C142.813 106.36 143.04 106.3 143.173 106.18C143.307 106.047 143.373 105.813 143.373 105.48C143.373 105.147 143.307 104.92 143.173 104.8C143.04 104.667 142.813 104.6 142.493 104.6H140.173V106.36H142.493ZM156.392 98.0001H159.792L159.772 109H156.372V107.82C155.585 108.78 154.552 109.26 153.272 109.26C151.858 109.26 150.678 108.72 149.732 107.64C148.785 106.56 148.312 105.18 148.312 103.5C148.312 101.82 148.785 100.44 149.732 99.3601C150.692 98.2801 151.865 97.7401 153.252 97.7401C154.572 97.7401 155.618 98.2401 156.392 99.2401V98.0001ZM152.412 105.34C152.852 105.793 153.405 106.02 154.072 106.02C154.738 106.02 155.292 105.793 155.732 105.34C156.172 104.873 156.392 104.26 156.392 103.5C156.392 102.753 156.172 102.147 155.732 101.68C155.292 101.213 154.738 100.98 154.072 100.98C153.405 100.98 152.852 101.213 152.412 101.68C151.972 102.147 151.752 102.753 151.752 103.5C151.752 104.26 151.972 104.873 152.412 105.34ZM168.433 97.7401C169.82 97.7401 170.986 98.2801 171.933 99.3601C172.893 100.44 173.373 101.82 173.373 103.5C173.373 105.18 172.9 106.56 171.953 107.64C171.006 108.72 169.826 109.26 168.413 109.26C167.133 109.26 166.093 108.78 165.293 107.82V114H161.893V98.0001H165.293V99.2401C166.066 98.2401 167.113 97.7401 168.433 97.7401ZM165.953 105.34C166.393 105.793 166.946 106.02 167.613 106.02C168.28 106.02 168.833 105.793 169.273 105.34C169.713 104.873 169.933 104.26 169.933 103.5C169.933 102.753 169.713 102.147 169.273 101.68C168.833 101.213 168.28 100.98 167.613 100.98C166.946 100.98 166.393 101.213 165.953 101.68C165.513 102.147 165.293 102.753 165.293 103.5C165.293 104.26 165.513 104.873 165.953 105.34ZM180.772 97.7401C182.572 97.7401 184.012 98.3667 185.092 99.6201C186.172 100.86 186.625 102.393 186.452 104.22H178.432C178.512 105.02 178.772 105.627 179.212 106.04C179.665 106.44 180.212 106.64 180.852 106.64C181.319 106.64 181.725 106.533 182.072 106.32C182.419 106.093 182.659 105.787 182.792 105.4H186.292C185.932 106.693 185.252 107.66 184.252 108.3C183.265 108.94 182.132 109.26 180.852 109.26C179.119 109.26 177.705 108.713 176.612 107.62C175.519 106.527 174.972 105.153 174.972 103.5C174.972 101.86 175.512 100.493 176.592 99.4001C177.685 98.2934 179.079 97.7401 180.772 97.7401ZM180.752 100.36C179.592 100.36 178.852 100.96 178.532 102.16H182.912C182.792 101.613 182.545 101.18 182.172 100.86C181.812 100.527 181.339 100.36 180.752 100.36Z" fill="black"/>
<path d="M31.078 126.2H32.24V136H31.078V131.492H25.394V136H24.232V126.2H25.394V130.386H31.078V126.2ZM40.7667 128.3H41.9287V136H40.7667V134.446C40.1647 135.482 39.1287 136.154 37.7987 136.154C35.6987 136.154 34.2007 134.474 34.2007 132.15C34.2007 129.812 35.7127 128.146 37.7987 128.146C39.1287 128.146 40.1787 128.832 40.7667 129.882V128.3ZM38.0227 135.048C39.5907 135.048 40.7807 133.844 40.7807 132.15C40.7807 130.456 39.5907 129.252 38.0227 129.252C36.4547 129.252 35.3767 130.47 35.3767 132.15C35.3767 133.844 36.4687 135.048 38.0227 135.048ZM50.9829 128.3V136H49.8209V129.392H45.1589V136H43.9969V128.3H45.1589H50.9829ZM58.5777 128.3H60.0057V136H58.8437V132.304L58.9137 129.714L54.4757 136H53.0477V128.3H54.2097V131.996L54.1397 134.572L58.5777 128.3ZM71.0175 128.3H72.1795V136H71.0175H66.5375H62.5895H62.0575V128.3H63.2195V134.908H66.5375V128.3H67.6995V134.908H71.0175V128.3ZM79.7691 128.3H81.1971V136H80.0351V132.304L80.1051 129.714L75.6671 136H74.2391V128.3H75.4011V131.996L75.3311 134.572L79.7691 128.3ZM91.1142 136.154C88.8602 136.154 87.1382 134.446 87.1382 132.15C87.1382 129.854 88.8602 128.146 91.1142 128.146C92.9062 128.146 94.4462 129.224 94.8522 130.988H93.6482C93.2842 129.896 92.3042 129.224 91.1142 129.224C89.4902 129.224 88.3142 130.456 88.3142 132.15C88.3142 133.858 89.5042 135.076 91.1142 135.076C92.3042 135.076 93.2842 134.39 93.6482 133.312H94.8522C94.4322 135.104 92.8782 136.154 91.1142 136.154ZM101.482 131.898C102.504 132.178 102.966 132.906 102.966 133.816C102.966 135.146 102.084 136 100.264 136H96.4696V128.3H99.9136C101.706 128.3 102.602 128.944 102.602 130.26C102.602 131.002 102.196 131.534 101.482 131.898ZM101.426 130.456C101.426 129.728 101.104 129.238 99.8296 129.238H97.6316V131.59H99.8016C101.02 131.59 101.426 131.086 101.426 130.456ZM100.194 135.062C101.468 135.062 101.804 134.46 101.804 133.718C101.804 133.018 101.398 132.458 100.166 132.458H97.6316V135.062H100.194ZM108.231 128.146C110.429 128.146 112.207 129.84 112.207 132.15C112.207 134.46 110.457 136.154 108.231 136.154C106.019 136.154 104.269 134.446 104.269 132.15C104.269 129.84 106.047 128.146 108.231 128.146ZM108.231 129.252C106.691 129.252 105.445 130.442 105.445 132.15C105.445 133.844 106.677 135.048 108.231 135.048C109.799 135.048 111.031 133.844 111.031 132.15C111.031 130.456 109.785 129.252 108.231 129.252ZM117.428 126.942C116.196 126.942 115.188 126.13 115.188 124.814V124.562H116.14V124.786C116.14 125.542 116.658 126.032 117.428 126.032C118.212 126.032 118.73 125.542 118.73 124.786V124.562H119.682V124.814C119.682 126.13 118.66 126.942 117.428 126.942ZM119.486 128.3H120.914V136H119.752V132.304L119.822 129.714L115.384 136H113.956V128.3H115.118V131.996L115.048 134.572L119.486 128.3ZM132.763 128.3H134.009L128.815 139.5H127.569L129.613 135.062L126.491 128.3H127.737L130.229 133.816L132.763 128.3ZM141.301 128.3H142.463V136H141.301V132.612H136.569V136H135.407V128.3H136.569V131.506H141.301V128.3ZM150.07 128.3H151.498V136H150.336V132.304L150.406 129.714L145.968 136H144.54V128.3H145.702V131.996L145.632 134.572L150.07 128.3ZM160.354 136H158.828L154.712 132.29V136H153.55V128.3H154.712V131.73L158.464 128.3H159.99L155.944 131.954L160.354 136ZM167.273 128.3H168.435V136H167.273V134.446C166.671 135.482 165.635 136.154 164.305 136.154C162.205 136.154 160.707 134.474 160.707 132.15C160.707 129.812 162.219 128.146 164.305 128.146C165.635 128.146 166.685 128.832 167.273 129.882V128.3ZM164.529 135.048C166.097 135.048 167.287 133.844 167.287 132.15C167.287 130.456 166.097 129.252 164.529 129.252C162.961 129.252 161.883 130.47 161.883 132.15C161.883 133.844 162.975 135.048 164.529 135.048ZM172.243 128.3H177.479V136H176.317V129.392H173.223L172.649 133.004C172.271 135.328 171.515 136.154 170.297 136.154C170.101 136.154 169.863 136.14 169.667 136.112V135.048C169.793 135.062 169.947 135.076 170.073 135.076C170.857 135.076 171.221 134.614 171.501 132.934L172.243 128.3ZM183.208 130.848C184.944 130.848 185.924 131.688 185.924 133.382C185.924 135.062 184.888 136 183.152 136H179.554V128.3H180.716V130.848H183.208ZM183.124 134.894C184.384 134.894 184.748 134.222 184.748 133.382C184.748 132.514 184.412 131.884 183.152 131.884H180.716V134.894H183.124ZM193.569 128.3H194.731V136H193.569V132.612H188.837V136H187.675V128.3H188.837V131.506H193.569V128.3ZM200.447 130.848C202.183 130.848 203.163 131.688 203.163 133.382C203.163 135.062 202.127 136 200.391 136H196.807V128.3H197.969V130.848H200.447ZM204.381 128.3H205.543V136H204.381V128.3ZM200.377 134.894C201.637 134.894 201.987 134.222 201.987 133.382C201.987 132.514 201.651 131.884 200.391 131.884H197.969V134.894H200.377ZM211.094 126.942C209.862 126.942 208.854 126.13 208.854 124.814V124.562H209.806V124.786C209.806 125.542 210.324 126.032 211.094 126.032C211.878 126.032 212.396 125.542 212.396 124.786V124.562H213.348V124.814C213.348 126.13 212.326 126.942 211.094 126.942ZM213.152 128.3H214.58V136H213.418V132.304L213.488 129.714L209.05 136H207.622V128.3H208.784V131.996L208.714 134.572L213.152 128.3ZM227.633 136H226.107L221.991 132.29V136H220.829V128.3H221.991V131.73L225.743 128.3H227.269L223.223 131.954L227.633 136ZM231.948 128.146C234.146 128.146 235.924 129.84 235.924 132.15C235.924 134.46 234.174 136.154 231.948 136.154C229.736 136.154 227.986 134.446 227.986 132.15C227.986 129.84 229.764 128.146 231.948 128.146ZM231.948 129.252C230.408 129.252 229.162 130.442 229.162 132.15C229.162 133.844 230.394 135.048 231.948 135.048C233.516 135.048 234.748 133.844 234.748 132.15C234.748 130.456 233.502 129.252 231.948 129.252ZM244.575 134.908H245.975V138.058H244.813V136H243.413H237.547V138.058H236.385V134.908H237.701C238.121 134.614 238.415 133.9 238.639 132.486L239.311 128.3H244.575V134.908ZM239.003 134.908H243.413V129.392H240.305L239.801 132.514C239.605 133.718 239.353 134.46 239.003 134.908ZM249.564 135.412C249.578 135.636 249.536 135.944 248.402 138.408H247.576L248.5 136.126C248.164 136.042 247.94 135.762 247.94 135.384C247.94 134.908 248.29 134.586 248.752 134.586C249.088 134.586 249.55 134.768 249.564 135.412ZM31.022 149.3V157H29.86V150.392H25.198V157H24.036V149.3H25.198H31.022ZM36.7408 149.146C38.9388 149.146 40.7168 150.84 40.7168 153.15C40.7168 155.46 38.9668 157.154 36.7408 157.154C34.5288 157.154 32.7788 155.446 32.7788 153.15C32.7788 150.84 34.5568 149.146 36.7408 149.146ZM36.7408 150.252C35.2008 150.252 33.9548 151.442 33.9548 153.15C33.9548 154.844 35.1868 156.048 36.7408 156.048C38.3088 156.048 39.5408 154.844 39.5408 153.15C39.5408 151.456 38.2948 150.252 36.7408 150.252ZM43.8912 149.3H49.1272V157H47.9652V150.392H44.8712L44.2972 154.004C43.9192 156.328 43.1632 157.154 41.9452 157.154C41.7492 157.154 41.5112 157.14 41.3152 157.112V156.048C41.4412 156.062 41.5952 156.076 41.7212 156.076C42.5052 156.076 42.8692 155.614 43.1492 153.934L43.8912 149.3ZM56.802 149.3H58.048L52.854 160.5H51.608L53.652 156.062L50.53 149.3H51.776L54.268 154.816L56.802 149.3ZM64.5942 149.3H65.7562V157H64.5942V154.214C64.0062 154.466 63.1942 154.648 62.3262 154.648C60.5342 154.648 59.3302 153.85 59.3302 151.806V149.3H60.4922V151.54C60.4922 152.996 61.0662 153.598 62.5222 153.598C63.2642 153.598 64.1182 153.444 64.5942 153.15V149.3ZM71.453 149.146C73.847 149.146 75.401 150.966 75.303 153.5H68.709C68.821 155.096 69.955 156.062 71.509 156.062C72.573 156.062 73.455 155.614 73.917 154.718H75.121C74.477 156.356 73.077 157.154 71.467 157.154C69.185 157.154 67.519 155.53 67.519 153.178C67.519 150.84 69.157 149.146 71.453 149.146ZM71.453 150.238C70.039 150.238 69.031 151.148 68.765 152.408H74.043C73.791 151.12 72.839 150.238 71.453 150.238ZM82.8948 149.3H84.0568V157H82.8948V153.612H78.1628V157H77.0008V149.3H78.1628V152.506H82.8948V149.3ZM92.0277 149.3H93.1897V157H92.0277V153.612H87.2957V157H86.1337V149.3H87.2957V152.506H92.0277V149.3ZM98.9065 151.848C100.642 151.848 101.622 152.688 101.622 154.382C101.622 156.062 100.586 157 98.8505 157H95.2665V149.3H96.4285V151.848H98.9065ZM102.84 149.3H104.002V157H102.84V149.3ZM98.8365 155.894C100.096 155.894 100.446 155.222 100.446 154.382C100.446 153.514 100.11 152.884 98.8505 152.884H96.4285V155.894H98.8365ZM109.553 147.942C108.321 147.942 107.313 147.13 107.313 145.814V145.562H108.265V145.786C108.265 146.542 108.783 147.032 109.553 147.032C110.337 147.032 110.855 146.542 110.855 145.786V145.562H111.807V145.814C111.807 147.13 110.785 147.942 109.553 147.942ZM111.611 149.3H113.039V157H111.877V153.304L111.947 150.714L107.509 157H106.081V149.3H107.243V152.996L107.173 155.572L111.611 149.3ZM126.274 149.3V157H125.112V150.392H120.45V157H119.288V149.3H120.45H126.274ZM132.539 149.146C134.625 149.146 136.137 150.812 136.137 153.15C136.137 155.474 134.625 157.154 132.525 157.154C131.195 157.154 130.159 156.482 129.571 155.446V160.5H128.409V149.3H129.571V150.882C130.159 149.832 131.209 149.146 132.539 149.146ZM132.315 156.048C133.869 156.048 134.961 154.844 134.961 153.15C134.961 151.47 133.869 150.252 132.315 150.252C130.747 150.252 129.557 151.456 129.557 153.15C129.557 154.844 130.747 156.048 132.315 156.048ZM143.425 149.3H144.853V157H143.691V153.304L143.761 150.714L139.323 157H137.895V149.3H139.057V152.996L138.987 155.572L143.425 149.3ZM155.302 149.146C157.388 149.146 158.9 150.812 158.9 153.15C158.9 155.474 157.388 157.154 155.288 157.154C153.958 157.154 152.922 156.482 152.334 155.446V160.5H151.172V149.3H152.334V150.882C152.922 149.832 153.972 149.146 155.302 149.146ZM155.078 156.048C156.632 156.048 157.724 154.844 157.724 153.15C157.724 151.47 156.632 150.252 155.078 150.252C153.51 150.252 152.32 151.456 152.32 153.15C152.32 154.844 153.51 156.048 155.078 156.048ZM164.285 149.146C166.679 149.146 168.233 150.966 168.135 153.5H161.541C161.653 155.096 162.787 156.062 164.341 156.062C165.405 156.062 166.287 155.614 166.749 154.718H167.953C167.309 156.356 165.909 157.154 164.299 157.154C162.017 157.154 160.351 155.53 160.351 153.178C160.351 150.84 161.989 149.146 164.285 149.146ZM164.285 150.238C162.871 150.238 161.863 151.148 161.597 152.408H166.875C166.623 151.12 165.671 150.238 164.285 150.238ZM174.845 149.3V150.392H170.995V157H169.833V149.3H174.845ZM181.775 149.3H183.203V157H182.041V153.304L182.111 150.714L177.673 157H176.245V149.3H177.407V152.996L177.337 155.572L181.775 149.3ZM188.923 157.154C186.669 157.154 184.947 155.446 184.947 153.15C184.947 150.854 186.669 149.146 188.923 149.146C190.715 149.146 192.255 150.224 192.661 151.988H191.457C191.093 150.896 190.113 150.224 188.923 150.224C187.299 150.224 186.123 151.456 186.123 153.15C186.123 154.858 187.313 156.076 188.923 156.076C190.113 156.076 191.093 155.39 191.457 154.312H192.661C192.241 156.104 190.687 157.154 188.923 157.154ZM199.842 149.3V150.392H197.182V157H196.02V150.392H193.36V149.3H197.182H199.842ZM205.437 149.146C207.523 149.146 209.035 150.812 209.035 153.15C209.035 155.474 207.523 157.154 205.423 157.154C204.093 157.154 203.057 156.482 202.469 155.446V160.5H201.307V149.3H202.469V150.882C203.057 149.832 204.107 149.146 205.437 149.146ZM205.213 156.048C206.767 156.048 207.859 154.844 207.859 153.15C207.859 151.47 206.767 150.252 205.213 150.252C203.645 150.252 202.455 151.456 202.455 153.15C202.455 154.844 203.645 156.048 205.213 156.048ZM217.052 149.3H218.214V157H217.052V155.446C216.45 156.482 215.414 157.154 214.084 157.154C211.984 157.154 210.486 155.474 210.486 153.15C210.486 150.812 211.998 149.146 214.084 149.146C215.414 149.146 216.464 149.832 217.052 150.882V149.3ZM214.308 156.048C215.876 156.048 217.066 154.844 217.066 153.15C217.066 151.456 215.876 150.252 214.308 150.252C212.74 150.252 211.662 151.47 211.662 153.15C211.662 154.844 212.754 156.048 214.308 156.048ZM227.072 155.908H228.472V159.058H227.31V157H225.91H220.66H220.282V149.3H221.444V155.908H225.91V149.3H227.072V155.908ZM235.396 149.3H236.824V157H235.662V153.304L235.732 150.714L231.294 157H229.866V149.3H231.028V152.996L230.958 155.572L235.396 149.3ZM244.406 149.3H245.834V157H244.672V153.304L244.742 150.714L240.304 157H238.876V149.3H240.038V152.996L239.968 155.572L244.406 149.3ZM250.07 156.412C250.084 156.636 250.042 156.944 248.908 159.408H248.082L249.006 157.126C248.67 157.042 248.446 156.762 248.446 156.384C248.446 155.908 248.796 155.586 249.258 155.586C249.594 155.586 250.056 155.768 250.07 156.412ZM28.026 170.426C30.056 170.426 31.582 171.924 31.582 174.178C31.582 176.572 29.874 178.154 27.676 178.154C25.52 178.154 23.756 176.656 23.728 173.688C23.728 168.06 26.22 167.066 30.672 167.066V168.158C26.892 168.158 25.184 168.83 24.932 172.288C25.506 171.056 26.738 170.426 28.026 170.426ZM27.634 177.146C29.188 177.146 30.42 175.998 30.42 174.234C30.42 172.554 29.286 171.434 27.76 171.434C26.248 171.434 24.904 172.526 24.904 174.22C24.904 175.998 26.08 177.146 27.634 177.146ZM36.9725 170.146C39.3665 170.146 40.9205 171.966 40.8225 174.5H34.2285C34.3405 176.096 35.4745 177.062 37.0285 177.062C38.0925 177.062 38.9745 176.614 39.4365 175.718H40.6405C39.9965 177.356 38.5965 178.154 36.9865 178.154C34.7045 178.154 33.0385 176.53 33.0385 174.178C33.0385 171.84 34.6765 170.146 36.9725 170.146ZM36.9725 171.238C35.5585 171.238 34.5505 172.148 34.2845 173.408H39.5625C39.3105 172.12 38.3585 171.238 36.9725 171.238ZM47.5464 173.926C48.4844 174.234 48.8764 175.004 48.8764 175.844C48.8764 177.23 47.6724 178.154 45.6564 178.154C43.3604 178.154 42.2544 177.118 41.9464 175.508H43.1224C43.3884 176.726 44.2284 177.244 45.6144 177.244C47.0704 177.244 47.7004 176.6 47.7004 175.76C47.7004 175.158 47.4204 174.472 46.0904 174.472H44.5364V173.548H45.7684C47.0704 173.548 47.4484 173.058 47.4484 172.414C47.4484 171.686 46.9304 171.042 45.5024 171.042C44.5364 171.042 43.6404 171.378 43.3604 172.372H42.1844C42.4924 171.028 43.5704 170.146 45.5304 170.146C47.5044 170.146 48.6244 171.056 48.6244 172.344C48.6244 173.1 48.2464 173.632 47.5464 173.926ZM61.6743 170.3V178H60.5123V171.392H55.8503V178H54.6883V170.3H55.8503H61.6743ZM67.9391 170.146C70.0251 170.146 71.5371 171.812 71.5371 174.15C71.5371 176.474 70.0251 178.154 67.9251 178.154C66.5951 178.154 65.5591 177.482 64.9711 176.446V181.5H63.8091V170.3H64.9711V171.882C65.5591 170.832 66.6091 170.146 67.9391 170.146ZM67.7151 177.048C69.2691 177.048 70.3611 175.844 70.3611 174.15C70.3611 172.47 69.2691 171.252 67.7151 171.252C66.1471 171.252 64.9571 172.456 64.9571 174.15C64.9571 175.844 66.1471 177.048 67.7151 177.048ZM76.9498 170.146C79.1478 170.146 80.9258 171.84 80.9258 174.15C80.9258 176.46 79.1758 178.154 76.9498 178.154C74.7378 178.154 72.9878 176.446 72.9878 174.15C72.9878 171.84 74.7658 170.146 76.9498 170.146ZM76.9498 171.252C75.4098 171.252 74.1638 172.442 74.1638 174.15C74.1638 175.844 75.3958 177.048 76.9498 177.048C78.5178 177.048 79.7498 175.844 79.7498 174.15C79.7498 172.456 78.5038 171.252 76.9498 171.252ZM86.6647 170.426C88.6947 170.426 90.2207 171.924 90.2207 174.178C90.2207 176.572 88.5127 178.154 86.3147 178.154C84.1587 178.154 82.3947 176.656 82.3667 173.688C82.3667 168.06 84.8587 167.066 89.3107 167.066V168.158C85.5307 168.158 83.8227 168.83 83.5707 172.288C84.1447 171.056 85.3767 170.426 86.6647 170.426ZM86.2727 177.146C87.8267 177.146 89.0587 175.998 89.0587 174.234C89.0587 172.554 87.9247 171.434 86.3987 171.434C84.8867 171.434 83.5427 172.526 83.5427 174.22C83.5427 175.998 84.7187 177.146 86.2727 177.146ZM95.6112 170.146C98.0052 170.146 99.5592 171.966 99.4612 174.5H92.8672C92.9792 176.096 94.1132 177.062 95.6672 177.062C96.7312 177.062 97.6132 176.614 98.0752 175.718H99.2792C98.6352 177.356 97.2352 178.154 95.6252 178.154C93.3432 178.154 91.6772 176.53 91.6772 174.178C91.6772 171.84 93.3152 170.146 95.6112 170.146ZM95.6112 171.238C94.1972 171.238 93.1892 172.148 92.9232 173.408H98.2012C97.9492 172.12 96.9972 171.238 95.6112 171.238ZM102.817 170.3H108.053V178H106.891V171.392H103.797L103.223 175.004C102.845 177.328 102.089 178.154 100.871 178.154C100.675 178.154 100.437 178.14 100.241 178.112V177.048C100.367 177.062 100.521 177.076 100.647 177.076C101.431 177.076 101.795 176.614 102.075 174.934L102.817 170.3ZM113.782 170.146C115.98 170.146 117.758 171.84 117.758 174.15C117.758 176.46 116.008 178.154 113.782 178.154C111.57 178.154 109.82 176.446 109.82 174.15C109.82 171.84 111.598 170.146 113.782 170.146ZM113.782 171.252C112.242 171.252 110.996 172.442 110.996 174.15C110.996 175.844 112.228 177.048 113.782 177.048C115.35 177.048 116.582 175.844 116.582 174.15C116.582 172.456 115.336 171.252 113.782 171.252ZM124.519 173.898C125.541 174.178 126.003 174.906 126.003 175.816C126.003 177.146 125.121 178 123.301 178H119.507V170.3H122.951C124.743 170.3 125.639 170.944 125.639 172.26C125.639 173.002 125.233 173.534 124.519 173.898ZM124.463 172.456C124.463 171.728 124.141 171.238 122.867 171.238H120.669V173.59H122.839C124.057 173.59 124.463 173.086 124.463 172.456ZM123.231 177.062C124.505 177.062 124.841 176.46 124.841 175.718C124.841 175.018 124.435 174.458 123.203 174.458H120.669V177.062H123.231ZM136.823 173.898C137.845 174.178 138.307 174.906 138.307 175.816C138.307 177.146 137.425 178 135.605 178H131.811V170.3H135.255C137.047 170.3 137.943 170.944 137.943 172.26C137.943 173.002 137.537 173.534 136.823 173.898ZM136.767 172.456C136.767 171.728 136.445 171.238 135.171 171.238H132.973V173.59H135.143C136.361 173.59 136.767 173.086 136.767 172.456ZM135.535 177.062C136.809 177.062 137.145 176.46 137.145 175.718C137.145 175.018 136.739 174.458 135.507 174.458H132.973V177.062H135.535ZM147.77 170.146C149.968 170.146 151.746 171.84 151.746 174.15C151.746 176.46 149.996 178.154 147.77 178.154C145.558 178.154 143.808 176.446 143.808 174.15C143.808 171.84 145.586 170.146 147.77 170.146ZM147.77 171.252C146.23 171.252 144.984 172.442 144.984 174.15C144.984 175.844 146.216 177.048 147.77 177.048C149.338 177.048 150.57 175.844 150.57 174.15C150.57 172.456 149.324 171.252 147.77 171.252ZM159.059 170.3V171.392H156.399V178H155.237V171.392H152.577V170.3H156.399H159.059ZM165.234 173.926C166.172 174.234 166.564 175.004 166.564 175.844C166.564 177.23 165.36 178.154 163.344 178.154C161.048 178.154 159.942 177.118 159.634 175.508H160.81C161.076 176.726 161.916 177.244 163.302 177.244C164.758 177.244 165.388 176.6 165.388 175.76C165.388 175.158 165.108 174.472 163.778 174.472H162.224V173.548H163.456C164.758 173.548 165.136 173.058 165.136 172.414C165.136 171.686 164.618 171.042 163.19 171.042C162.224 171.042 161.328 171.378 161.048 172.372H159.872C160.18 171.028 161.258 170.146 163.218 170.146C165.192 170.146 166.312 171.056 166.312 172.344C166.312 173.1 165.934 173.632 165.234 173.926ZM171.819 172.848C173.555 172.848 174.535 173.688 174.535 175.382C174.535 177.062 173.499 178 171.763 178H168.179V170.3H169.341V172.848H171.819ZM175.753 170.3H176.915V178H175.753V170.3ZM171.749 176.894C173.009 176.894 173.359 176.222 173.359 175.382C173.359 174.514 173.023 173.884 171.763 173.884H169.341V176.894H171.749ZM184.005 173.898C185.027 174.178 185.489 174.906 185.489 175.816C185.489 177.146 184.607 178 182.787 178H178.993V170.3H182.437C184.229 170.3 185.125 170.944 185.125 172.26C185.125 173.002 184.719 173.534 184.005 173.898ZM183.949 172.456C183.949 171.728 183.627 171.238 182.353 171.238H180.155V173.59H182.325C183.543 173.59 183.949 173.086 183.949 172.456ZM182.717 177.062C183.991 177.062 184.327 176.46 184.327 175.718C184.327 175.018 183.921 174.458 182.689 174.458H180.155V177.062H182.717ZM190.672 170.146C193.066 170.146 194.62 171.966 194.522 174.5H187.928C188.04 176.096 189.174 177.062 190.728 177.062C191.792 177.062 192.674 176.614 193.136 175.718H194.34C193.696 177.356 192.296 178.154 190.686 178.154C188.404 178.154 186.738 176.53 186.738 174.178C186.738 171.84 188.376 170.146 190.672 170.146ZM190.672 171.238C189.258 171.238 188.25 172.148 187.984 173.408H193.262C193.01 172.12 192.058 171.238 190.672 171.238ZM27.69 191.146C29.888 191.146 31.666 192.84 31.666 195.15C31.666 197.46 29.916 199.154 27.69 199.154C25.478 199.154 23.728 197.446 23.728 195.15C23.728 192.84 25.506 191.146 27.69 191.146ZM27.69 192.252C26.15 192.252 24.904 193.442 24.904 195.15C24.904 196.844 26.136 198.048 27.69 198.048C29.258 198.048 30.49 196.844 30.49 195.15C30.49 193.456 29.244 192.252 27.69 192.252ZM44.4162 199H42.8902L38.7742 195.29V199H37.6122V191.3H38.7742V194.73L42.5262 191.3H44.0522L40.0062 194.954L44.4162 199ZM51.2512 191.3H52.4972L47.3032 202.5H46.0572L48.1012 198.062L44.9792 191.3H46.2252L48.7172 196.816L51.2512 191.3ZM60.8814 191.3V199H59.7194V192.392H55.0574V199H53.8954V191.3H55.0574H60.8814ZM64.8502 191.3H70.0862V199H68.9242V192.392H65.8302L65.2562 196.004C64.8782 198.328 64.1222 199.154 62.9042 199.154C62.7082 199.154 62.4702 199.14 62.2742 199.112V198.048C62.4002 198.062 62.5542 198.076 62.6802 198.076C63.4642 198.076 63.8282 197.614 64.1082 195.934L64.8502 191.3ZM75.787 191.146C78.181 191.146 79.735 192.966 79.637 195.5H73.043C73.155 197.096 74.289 198.062 75.843 198.062C76.907 198.062 77.789 197.614 78.251 196.718H79.455C78.811 198.356 77.411 199.154 75.801 199.154C73.519 199.154 71.853 197.53 71.853 195.178C71.853 192.84 73.491 191.146 75.787 191.146ZM75.787 192.238C74.373 192.238 73.365 193.148 73.099 194.408H78.377C78.125 193.12 77.173 192.238 75.787 192.238ZM87.2288 191.3H88.3908V199H87.2288V195.612H82.4968V199H81.3348V191.3H82.4968V194.506H87.2288V191.3ZM96.3616 191.3H97.5236V199H96.3616V195.612H91.6296V199H90.4676V191.3H91.6296V194.506H96.3616V191.3ZM103.254 191.146C105.452 191.146 107.23 192.84 107.23 195.15C107.23 197.46 105.48 199.154 103.254 199.154C101.042 199.154 99.2925 197.446 99.2925 195.15C99.2925 192.84 101.07 191.146 103.254 191.146ZM103.254 192.252C101.714 192.252 100.468 193.442 100.468 195.15C100.468 196.844 101.7 198.048 103.254 198.048C104.822 198.048 106.054 196.844 106.054 195.15C106.054 193.456 104.808 192.252 103.254 192.252ZM115.531 191.3H116.959V199H115.797V195.304L115.867 192.588L112.983 196.662H112.941L110.057 192.588L110.141 195.304V199H108.979V191.3H110.407L112.969 194.884L115.531 191.3ZM130.211 191.3V199H129.049V192.392H124.387V199H123.225V191.3H124.387H130.211ZM136.476 191.146C138.562 191.146 140.074 192.812 140.074 195.15C140.074 197.474 138.562 199.154 136.462 199.154C135.132 199.154 134.096 198.482 133.508 197.446V202.5H132.346V191.3H133.508V192.882C134.096 191.832 135.146 191.146 136.476 191.146ZM136.252 198.048C137.806 198.048 138.898 196.844 138.898 195.15C138.898 193.47 137.806 192.252 136.252 192.252C134.684 192.252 133.494 193.456 133.494 195.15C133.494 196.844 134.684 198.048 136.252 198.048ZM145.487 191.146C147.685 191.146 149.463 192.84 149.463 195.15C149.463 197.46 147.713 199.154 145.487 199.154C143.275 199.154 141.525 197.446 141.525 195.15C141.525 192.84 143.303 191.146 145.487 191.146ZM145.487 192.252C143.947 192.252 142.701 193.442 142.701 195.15C142.701 196.844 143.933 198.048 145.487 198.048C147.055 198.048 148.287 196.844 148.287 195.15C148.287 193.456 147.041 192.252 145.487 192.252ZM158.115 197.908H159.515V201.058H158.353V199H156.953H151.087V201.058H149.925V197.908H151.241C151.661 197.614 151.955 196.9 152.179 195.486L152.851 191.3H158.115V197.908ZM152.543 197.908H156.953V192.392H153.845L153.341 195.514C153.145 196.718 152.893 197.46 152.543 197.908ZM166.355 191.3H167.601L162.407 202.5H161.161L163.205 198.062L160.083 191.3H161.329L163.821 196.816L166.355 191.3ZM175.803 199H174.277L170.161 195.29V199H168.999V191.3H170.161V194.73L173.913 191.3H175.439L171.393 194.954L175.803 199ZM183.012 191.3V192.392H180.352V199H179.19V192.392H176.53V191.3H180.352H183.012ZM187.787 191.146C190.181 191.146 191.735 192.966 191.637 195.5H185.043C185.155 197.096 186.289 198.062 187.843 198.062C188.907 198.062 189.789 197.614 190.251 196.718H191.455C190.811 198.356 189.411 199.154 187.801 199.154C185.519 199.154 183.853 197.53 183.853 195.178C183.853 192.84 185.491 191.146 187.787 191.146ZM187.787 192.238C186.373 192.238 185.365 193.148 185.099 194.408H190.377C190.125 193.12 189.173 192.238 187.787 192.238ZM203.426 191.3H204.588V199H203.426V195.612H198.694V199H197.532V191.3H198.694V194.506H203.426V191.3ZM212.923 191.3H214.085V199H212.923V197.446C212.321 198.482 211.285 199.154 209.955 199.154C207.855 199.154 206.357 197.474 206.357 195.15C206.357 192.812 207.869 191.146 209.955 191.146C211.285 191.146 212.335 191.832 212.923 192.882V191.3ZM210.179 198.048C211.747 198.048 212.937 196.844 212.937 195.15C212.937 193.456 211.747 192.252 210.179 192.252C208.611 192.252 207.533 193.47 207.533 195.15C207.533 196.844 208.625 198.048 210.179 198.048ZM225.194 189.046C228.036 189.046 230.234 191.216 230.234 194.1C230.234 196.984 228.036 199.154 225.18 199.154C222.338 199.154 220.126 196.984 220.126 194.1C220.126 191.216 222.338 189.046 225.194 189.046ZM225.18 190.152C222.996 190.152 221.302 191.846 221.302 194.1C221.302 196.354 222.996 198.048 225.18 198.048C227.364 198.048 229.058 196.368 229.058 194.1C229.058 191.832 227.364 190.152 225.18 190.152ZM233.007 197.908L237.935 197.894V199H231.537V197.894L236.409 192.392L231.803 192.406V191.3H237.893V192.406L233.007 197.908ZM243.2 191.146C245.398 191.146 247.176 192.84 247.176 195.15C247.176 197.46 245.426 199.154 243.2 199.154C240.988 199.154 239.238 197.446 239.238 195.15C239.238 192.84 241.016 191.146 243.2 191.146ZM243.2 192.252C241.66 192.252 240.414 193.442 240.414 195.15C240.414 196.844 241.646 198.048 243.2 198.048C244.768 198.048 246 196.844 246 195.15C246 193.456 244.754 192.252 243.2 192.252ZM252.845 191.146C254.581 191.146 255.631 192.238 255.631 194.114V199H254.469V194.338C254.469 192.952 253.783 192.252 252.523 192.252C250.955 192.252 250.087 193.358 250.087 195.052V199H248.925V191.3H250.087V192.826C250.605 191.79 251.501 191.146 252.845 191.146ZM259.804 198.412C259.818 198.636 259.776 198.944 258.642 201.408H257.816L258.74 199.126C258.404 199.042 258.18 198.762 258.18 198.384C258.18 197.908 258.53 197.586 258.992 197.586C259.328 197.586 259.79 197.768 259.804 198.412ZM35.278 210.2H36.482L33.752 220H32.282L31.288 216.458L30.084 211.6H29.874L28.67 216.458L27.69 220H26.206L23.476 210.2H24.68L25.982 214.89L26.962 218.81L27.928 214.89L29.23 210.2H30.728L32.03 214.89L33.01 218.824L33.99 214.89L35.278 210.2ZM38.3369 208.912C38.7989 208.912 39.1489 209.248 39.1489 209.682C39.1489 210.13 38.7989 210.466 38.3369 210.466C37.8749 210.466 37.5249 210.13 37.5249 209.682C37.5249 209.248 37.8749 208.912 38.3369 208.912ZM37.7489 220V212.3H38.9109V220H37.7489ZM41.0175 220V209.22H42.1795V220H41.0175ZM50.5297 209.22H51.6917V220H50.5297V218.446C49.9417 219.482 48.8917 220.154 47.5617 220.154C45.4617 220.154 43.9637 218.474 43.9637 216.15C43.9637 213.812 45.4757 212.146 47.5617 212.146C48.8917 212.146 49.9417 212.832 50.5297 213.882V209.22ZM47.7857 219.048C49.3537 219.048 50.5437 217.844 50.5437 216.15C50.5437 214.456 49.3537 213.252 47.7857 213.252C46.2317 213.252 45.1397 214.47 45.1397 216.15C45.1397 217.844 46.2317 219.048 47.7857 219.048ZM57.8887 212.146C59.9747 212.146 61.4867 213.812 61.4867 216.15C61.4867 218.474 59.9747 220.154 57.8747 220.154C56.5447 220.154 55.5087 219.482 54.9207 218.446V220H53.7587V209.22H54.9207V213.882C55.5087 212.832 56.5587 212.146 57.8887 212.146ZM57.6647 219.048C59.2187 219.048 60.3107 217.844 60.3107 216.15C60.3107 214.47 59.2187 213.252 57.6647 213.252C56.0967 213.252 54.9067 214.456 54.9067 216.15C54.9067 217.844 56.0967 219.048 57.6647 219.048ZM66.8729 212.146C69.2669 212.146 70.8209 213.966 70.7229 216.5H64.1289C64.2409 218.096 65.3749 219.062 66.9289 219.062C67.9929 219.062 68.8749 218.614 69.3369 217.718H70.5409C69.8969 219.356 68.4969 220.154 66.8869 220.154C64.6049 220.154 62.9389 218.53 62.9389 216.178C62.9389 213.84 64.5769 212.146 66.8729 212.146ZM66.8729 213.238C65.4589 213.238 64.4509 214.148 64.1849 215.408H69.4629C69.2109 214.12 68.2589 213.238 66.8729 213.238ZM76.3268 212.146C76.5088 212.146 76.6908 212.16 76.8028 212.174V213.364C76.6768 213.35 76.5088 213.336 76.3128 213.336C74.7028 213.336 73.5828 214.386 73.5828 216.36V220H72.4208V212.3H73.5828V214.022C74.0448 212.874 74.9688 212.146 76.3268 212.146ZM82.11 212.146C82.292 212.146 82.474 212.16 82.586 212.174V213.364C82.46 213.35 82.292 213.336 82.096 213.336C80.486 213.336 79.366 214.386 79.366 216.36V220H78.204V212.3H79.366V214.022C79.828 212.874 80.752 212.146 82.11 212.146ZM84.5752 208.912C85.0372 208.912 85.3872 209.248 85.3872 209.682C85.3872 210.13 85.0372 210.466 84.5752 210.466C84.1132 210.466 83.7632 210.13 83.7632 209.682C83.7632 209.248 84.1132 208.912 84.5752 208.912ZM83.9872 220V212.3H85.1492V220H83.9872ZM90.8397 212.146C93.2337 212.146 94.7877 213.966 94.6897 216.5H88.0957C88.2077 218.096 89.3417 219.062 90.8957 219.062C91.9597 219.062 92.8417 218.614 93.3037 217.718H94.5077C93.8637 219.356 92.4637 220.154 90.8537 220.154C88.5717 220.154 86.9057 218.53 86.9057 216.178C86.9057 213.84 88.5437 212.146 90.8397 212.146ZM90.8397 213.238C89.4257 213.238 88.4177 214.148 88.1517 215.408H93.4297C93.1777 214.12 92.2257 213.238 90.8397 213.238ZM99.6496 220.154C97.6336 220.154 96.2336 219.216 95.9256 217.592H97.1156C97.4236 218.67 98.2216 219.048 99.6496 219.048C100.798 219.048 101.638 218.642 101.638 217.9C101.638 217.144 100.784 216.99 99.3696 216.64C97.2416 216.108 96.3176 215.73 96.3176 214.47C96.3176 212.986 97.6196 212.146 99.4396 212.146C101.246 212.146 102.408 212.972 102.716 214.358H101.54C101.246 213.574 100.504 213.252 99.4676 213.252C98.2216 213.252 97.4936 213.728 97.4936 214.386C97.4936 215.002 98.1096 215.17 99.6636 215.562C101.638 216.052 102.828 216.36 102.828 217.802C102.828 219.384 101.386 220.154 99.6496 220.154ZM114.168 212.3H115.596V220H114.434V216.304L114.504 213.714L110.066 220H108.638V212.3H109.8V215.996L109.73 218.572L114.168 212.3ZM119.551 212.3H124.787V220H123.625V213.392H120.531L119.957 217.004C119.579 219.328 118.823 220.154 117.605 220.154C117.409 220.154 117.171 220.14 116.975 220.112V219.048C117.101 219.062 117.255 219.076 117.381 219.076C118.165 219.076 118.529 218.614 118.809 216.934L119.551 212.3ZM132.392 212.3H133.82V220H132.658V216.304L132.728 213.714L128.29 220H126.862V212.3H128.024V215.996L127.954 218.572L132.392 212.3ZM143.205 210.2H147.083V220H145.921V216.276H143.891L140.951 220H139.509L142.547 216.234C140.825 215.982 139.887 214.82 139.887 213.224C139.887 211.46 141.035 210.2 143.205 210.2ZM143.317 215.226H145.921V211.306H143.317C141.763 211.306 141.063 212.146 141.063 213.252C141.063 214.358 141.763 215.226 143.317 215.226ZM155.246 212.3H156.408V220H155.246V216.612H150.514V220H149.352V212.3H150.514V215.506H155.246V212.3ZM165.839 218.908H167.239V222.058H166.077V220H164.677H158.811V222.058H157.649V218.908H158.965C159.385 218.614 159.679 217.9 159.903 216.486L160.575 212.3H165.839V218.908ZM160.267 218.908H164.677V213.392H161.569L161.065 216.514C160.869 217.718 160.617 218.46 160.267 218.908ZM171.955 212.146C174.349 212.146 175.903 213.966 175.805 216.5H169.211C169.323 218.096 170.457 219.062 172.011 219.062C173.075 219.062 173.957 218.614 174.419 217.718H175.623C174.979 219.356 173.579 220.154 171.969 220.154C169.687 220.154 168.021 218.53 168.021 216.178C168.021 213.84 169.659 212.146 171.955 212.146ZM171.955 213.238C170.541 213.238 169.533 214.148 169.267 215.408H174.545C174.293 214.12 173.341 213.238 171.955 213.238ZM184.307 220H182.781L178.665 216.29V220H177.503V212.3H178.665V215.73L182.417 212.3H183.943L179.897 215.954L184.307 220ZM188.636 220.154C186.382 220.154 184.66 218.446 184.66 216.15C184.66 213.854 186.382 212.146 188.636 212.146C190.428 212.146 191.968 213.224 192.374 214.988H191.17C190.806 213.896 189.826 213.224 188.636 213.224C187.012 213.224 185.836 214.456 185.836 216.15C185.836 217.858 187.026 219.076 188.636 219.076C189.826 219.076 190.806 218.39 191.17 217.312H192.374C191.954 219.104 190.4 220.154 188.636 220.154ZM205.958 210.2H207.386V220H206.224V211.698L202.906 216.71H202.794L199.476 211.698V220H198.314V210.2H199.742L202.85 214.876L205.958 210.2ZM215.917 212.3H217.079V220H215.917V218.446C215.315 219.482 214.279 220.154 212.949 220.154C210.849 220.154 209.351 218.474 209.351 216.15C209.351 213.812 210.863 212.146 212.949 212.146C214.279 212.146 215.329 212.832 215.917 213.882V212.3ZM213.173 219.048C214.741 219.048 215.931 217.844 215.931 216.15C215.931 214.456 214.741 213.252 213.173 213.252C211.605 213.252 210.527 214.47 210.527 216.15C210.527 217.844 211.619 219.048 213.173 219.048ZM223.347 212.146C225.433 212.146 226.945 213.812 226.945 216.15C226.945 218.474 225.433 220.154 223.333 220.154C222.003 220.154 220.967 219.482 220.379 218.446V223.5H219.217V212.3H220.379V213.882C220.967 212.832 222.017 212.146 223.347 212.146ZM223.123 219.048C224.677 219.048 225.769 217.844 225.769 216.15C225.769 214.47 224.677 213.252 223.123 213.252C221.555 213.252 220.365 214.456 220.365 216.15C220.365 217.844 221.555 219.048 223.123 219.048ZM235.508 220H233.982L229.866 216.29V220H228.704V212.3H229.866V215.73L233.618 212.3H235.144L231.098 215.954L235.508 220ZM239.795 212.146C242.189 212.146 243.743 213.966 243.645 216.5H237.051C237.163 218.096 238.297 219.062 239.851 219.062C240.915 219.062 241.797 218.614 242.259 217.718H243.463C242.819 219.356 241.419 220.154 239.809 220.154C237.527 220.154 235.861 218.53 235.861 216.178C235.861 213.84 237.499 212.146 239.795 212.146ZM239.795 213.238C238.381 213.238 237.373 214.148 237.107 215.408H242.385C242.133 214.12 241.181 213.238 239.795 213.238ZM250.907 212.3V213.392H248.247V220H247.085V213.392H244.425V212.3H248.247H250.907ZM255.682 212.146C258.076 212.146 259.63 213.966 259.532 216.5H252.938C253.05 218.096 254.184 219.062 255.738 219.062C256.802 219.062 257.684 218.614 258.146 217.718H259.35C258.706 219.356 257.306 220.154 255.696 220.154C253.414 220.154 251.748 218.53 251.748 216.178C251.748 213.84 253.386 212.146 255.682 212.146ZM255.682 213.238C254.268 213.238 253.26 214.148 252.994 215.408H258.272C258.02 214.12 257.068 213.238 255.682 213.238ZM261.991 218.586C262.453 218.586 262.803 218.922 262.803 219.37C262.803 219.818 262.453 220.154 261.991 220.154C261.529 220.154 261.179 219.818 261.179 219.37C261.179 218.922 261.529 218.586 261.991 218.586ZM28.306 231.046C31.19 231.046 33.262 233.202 33.262 236.1C33.262 238.998 31.19 241.154 28.306 241.154C26.052 241.154 24.232 239.852 23.616 237.878H24.862C25.422 239.208 26.738 240.048 28.32 240.048C30.364 240.048 31.848 238.606 32.072 236.618H27.564V235.512H32.058C31.806 233.566 30.336 232.152 28.306 232.152C26.738 232.152 25.422 232.992 24.862 234.322H23.616C24.232 232.348 26.038 231.046 28.306 231.046ZM40.9476 233.3V234.392H38.2876V241H37.1256V234.392H34.4656V233.3H38.2876H40.9476ZM45.7505 233.146C47.9485 233.146 49.7265 234.84 49.7265 237.15C49.7265 239.46 47.9765 241.154 45.7505 241.154C43.5385 241.154 41.7885 239.446 41.7885 237.15C41.7885 234.84 43.5665 233.146 45.7505 233.146ZM45.7505 234.252C44.2105 234.252 42.9645 235.442 42.9645 237.15C42.9645 238.844 44.1965 240.048 45.7505 240.048C47.3185 240.048 48.5505 238.844 48.5505 237.15C48.5505 235.456 47.3045 234.252 45.7505 234.252ZM59.6627 233.426C61.6927 233.426 63.2187 234.924 63.2187 237.178C63.2187 239.572 61.5107 241.154 59.3127 241.154C57.1567 241.154 55.3927 239.656 55.3647 236.688C55.3647 231.06 57.8567 230.066 62.3087 230.066V231.158C58.5287 231.158 56.8207 231.83 56.5687 235.288C57.1427 234.056 58.3747 233.426 59.6627 233.426ZM59.2707 240.146C60.8247 240.146 62.0567 238.998 62.0567 237.234C62.0567 235.554 60.9227 234.434 59.3967 234.434C57.8847 234.434 56.5407 235.526 56.5407 237.22C56.5407 238.998 57.7167 240.146 59.2707 240.146ZM70.0501 233.3H71.2961L66.1021 244.5H64.8561L66.9001 240.062L63.7781 233.3H65.0241L67.5161 238.816L70.0501 233.3ZM78.9817 239.908H80.3817V243.058H79.2197V241H77.8197H71.9537V243.058H70.7917V239.908H72.1077C72.5277 239.614 72.8217 238.9 73.0457 237.486L73.7177 233.3H78.9817V239.908ZM73.4097 239.908H77.8197V234.392H74.7117L74.2077 237.514C74.0117 238.718 73.7597 239.46 73.4097 239.908ZM85.0975 233.146C87.4915 233.146 89.0455 234.966 88.9475 237.5H82.3535C82.4655 239.096 83.5995 240.062 85.1535 240.062C86.2175 240.062 87.0995 239.614 87.5615 238.718H88.7655C88.1215 240.356 86.7215 241.154 85.1115 241.154C82.8295 241.154 81.1635 239.53 81.1635 237.178C81.1635 234.84 82.8015 233.146 85.0975 233.146ZM85.0975 234.238C83.6835 234.238 82.6755 235.148 82.4095 236.408H87.6875C87.4355 235.12 86.4835 234.238 85.0975 234.238ZM96.2093 233.3V234.392H93.5493V241H92.3873V234.392H89.7273V233.3H93.5493H96.2093ZM105.456 233.146C107.654 233.146 109.432 234.84 109.432 237.15C109.432 239.46 107.682 241.154 105.456 241.154C103.244 241.154 101.494 239.446 101.494 237.15C101.494 234.84 103.272 233.146 105.456 233.146ZM105.456 234.252C103.916 234.252 102.67 235.442 102.67 237.15C102.67 238.844 103.902 240.048 105.456 240.048C107.024 240.048 108.256 238.844 108.256 237.15C108.256 235.456 107.01 234.252 105.456 234.252ZM116.207 236.926C117.145 237.234 117.537 238.004 117.537 238.844C117.537 240.23 116.333 241.154 114.317 241.154C112.021 241.154 110.915 240.118 110.607 238.508H111.783C112.049 239.726 112.889 240.244 114.275 240.244C115.731 240.244 116.361 239.6 116.361 238.76C116.361 238.158 116.081 237.472 114.751 237.472H113.197V236.548H114.429C115.731 236.548 116.109 236.058 116.109 235.414C116.109 234.686 115.591 234.042 114.163 234.042C113.197 234.042 112.301 234.378 112.021 235.372H110.845C111.153 234.028 112.231 233.146 114.191 233.146C116.165 233.146 117.285 234.056 117.285 235.344C117.285 236.1 116.907 236.632 116.207 236.926ZM125.045 233.3H126.207V241H125.045V237.612H120.313V241H119.151V233.3H120.313V236.506H125.045V233.3ZM134.542 233.3H135.704V241H134.542V239.446C133.94 240.482 132.904 241.154 131.574 241.154C129.474 241.154 127.976 239.474 127.976 237.15C127.976 234.812 129.488 233.146 131.574 233.146C132.904 233.146 133.954 233.832 134.542 234.882V233.3ZM131.798 240.048C133.366 240.048 134.556 238.844 134.556 237.15C134.556 235.456 133.366 234.252 131.798 234.252C130.23 234.252 129.152 235.47 129.152 237.15C129.152 238.844 130.244 240.048 131.798 240.048ZM142.756 233.3H143.918V241H142.756V238.214C142.168 238.466 141.356 238.648 140.488 238.648C138.696 238.648 137.492 237.85 137.492 235.806V233.3H138.654V235.54C138.654 236.996 139.228 237.598 140.684 237.598C141.426 237.598 142.28 237.444 142.756 237.15V233.3ZM152.247 233.3H153.409V241H152.247V239.446C151.645 240.482 150.609 241.154 149.279 241.154C147.179 241.154 145.681 239.474 145.681 237.15C145.681 234.812 147.193 233.146 149.279 233.146C150.609 233.146 151.659 233.832 152.247 234.882V233.3ZM149.503 240.048C151.071 240.048 152.261 238.844 152.261 237.15C152.261 235.456 151.071 234.252 149.503 234.252C147.935 234.252 146.857 235.47 146.857 237.15C146.857 238.844 147.949 240.048 149.503 240.048ZM161.287 233.3V234.392H158.627V241H157.465V234.392H154.805V233.3H158.627H161.287ZM166.336 235.848C168.072 235.848 169.052 236.688 169.052 238.382C169.052 240.062 168.016 241 166.28 241H162.682V233.3H163.844V235.848H166.336ZM166.252 239.894C167.512 239.894 167.876 239.222 167.876 238.382C167.876 237.514 167.54 236.884 166.28 236.884H163.844V239.894H166.252ZM172.988 240.412C173.002 240.636 172.96 240.944 171.826 243.408H171L171.924 241.126C171.588 241.042 171.364 240.762 171.364 240.384C171.364 239.908 171.714 239.586 172.176 239.586C172.512 239.586 172.974 239.768 172.988 240.412ZM184.442 233.3H185.604V241H184.442V238.214C183.854 238.466 183.042 238.648 182.174 238.648C180.382 238.648 179.178 237.85 179.178 235.806V233.3H180.34V235.54C180.34 236.996 180.914 237.598 182.37 237.598C183.112 237.598 183.966 237.444 184.442 237.15V233.3ZM193.485 233.3V234.392H190.825V241H189.663V234.392H187.003V233.3H190.825H193.485ZM198.288 233.146C200.486 233.146 202.264 234.84 202.264 237.15C202.264 239.46 200.514 241.154 198.288 241.154C196.076 241.154 194.326 239.446 194.326 237.15C194.326 234.84 196.104 233.146 198.288 233.146ZM198.288 234.252C196.748 234.252 195.502 235.442 195.502 237.15C195.502 238.844 196.734 240.048 198.288 240.048C199.856 240.048 201.088 238.844 201.088 237.15C201.088 235.456 199.842 234.252 198.288 234.252ZM215.728 239.908H217.128V243.058H215.966V241H214.566H208.7V243.058H207.538V239.908H208.854C209.274 239.614 209.568 238.9 209.792 237.486L210.464 233.3H215.728V239.908ZM210.156 239.908H214.566V234.392H211.458L210.954 237.514C210.758 238.718 210.506 239.46 210.156 239.908ZM224.421 233.3H225.583V241H224.421V239.446C223.819 240.482 222.783 241.154 221.453 241.154C219.353 241.154 217.855 239.474 217.855 237.15C217.855 234.812 219.367 233.146 221.453 233.146C222.783 233.146 223.833 233.832 224.421 234.882V233.3ZM221.677 240.048C223.245 240.048 224.435 238.844 224.435 237.15C224.435 235.456 223.245 234.252 221.677 234.252C220.109 234.252 219.031 235.47 219.031 237.15C219.031 238.844 220.123 240.048 221.677 240.048ZM233.545 233.3H234.707V241H233.545V237.612H228.813V241H227.651V233.3H228.813V236.506H233.545V233.3ZM242.678 233.3H243.84V241H242.678V237.612H237.946V241H236.784V233.3H237.946V236.506H242.678V233.3ZM249.557 235.848C251.293 235.848 252.273 236.688 252.273 238.382C252.273 240.062 251.237 241 249.501 241H245.917V233.3H247.079V235.848H249.557ZM253.491 233.3H254.653V241H253.491V233.3ZM249.487 239.894C250.747 239.894 251.097 239.222 251.097 238.382C251.097 237.514 250.761 236.884 249.501 236.884H247.079V239.894H249.487ZM260.203 231.942C258.971 231.942 257.963 231.13 257.963 229.814V229.562H258.915V229.786C258.915 230.542 259.433 231.032 260.203 231.032C260.987 231.032 261.505 230.542 261.505 229.786V229.562H262.457V229.814C262.457 231.13 261.435 231.942 260.203 231.942ZM262.261 233.3H263.689V241H262.527V237.304L262.597 234.714L258.159 241H256.731V233.3H257.893V236.996L257.823 239.572L262.261 233.3ZM27.69 254.146C29.888 254.146 31.666 255.84 31.666 258.15C31.666 260.46 29.916 262.154 27.69 262.154C25.478 262.154 23.728 260.446 23.728 258.15C23.728 255.84 25.506 254.146 27.69 254.146ZM27.69 255.252C26.15 255.252 24.904 256.442 24.904 258.15C24.904 259.844 26.136 261.048 27.69 261.048C29.258 261.048 30.49 259.844 30.49 258.15C30.49 256.456 29.244 255.252 27.69 255.252ZM38.9788 254.3V255.392H36.3188V262H35.1568V255.392H32.4968V254.3H36.3188H38.9788ZM45.1538 257.926C46.0918 258.234 46.4838 259.004 46.4838 259.844C46.4838 261.23 45.2798 262.154 43.2638 262.154C40.9678 262.154 39.8618 261.118 39.5538 259.508H40.7298C40.9958 260.726 41.8358 261.244 43.2218 261.244C44.6778 261.244 45.3078 260.6 45.3078 259.76C45.3078 259.158 45.0278 258.472 43.6978 258.472H42.1438V257.548H43.3758C44.6778 257.548 45.0558 257.058 45.0558 256.414C45.0558 255.686 44.5378 255.042 43.1098 255.042C42.1438 255.042 41.2478 255.378 40.9678 256.372H39.7918C40.0998 255.028 41.1778 254.146 43.1378 254.146C45.1118 254.146 46.2318 255.056 46.2318 256.344C46.2318 257.1 45.8538 257.632 45.1538 257.926ZM51.7385 256.848C53.4745 256.848 54.4545 257.688 54.4545 259.382C54.4545 261.062 53.4185 262 51.6825 262H48.0985V254.3H49.2605V256.848H51.7385ZM55.6725 254.3H56.8345V262H55.6725V254.3ZM51.6685 260.894C52.9285 260.894 53.2785 260.222 53.2785 259.382C53.2785 258.514 52.9425 257.884 51.6825 257.884H49.2605V260.894H51.6685ZM63.925 257.898C64.947 258.178 65.409 258.906 65.409 259.816C65.409 261.146 64.527 262 62.707 262H58.913V254.3H62.357C64.149 254.3 65.045 254.944 65.045 256.26C65.045 257.002 64.639 257.534 63.925 257.898ZM63.869 256.456C63.869 255.728 63.547 255.238 62.273 255.238H60.075V257.59H62.245C63.463 257.59 63.869 257.086 63.869 256.456ZM62.637 261.062C63.911 261.062 64.247 260.46 64.247 259.718C64.247 259.018 63.841 258.458 62.609 258.458H60.075V261.062H62.637ZM76.8176 254.3H78.0636L72.8696 265.5H71.6236L73.6676 261.062L70.5456 254.3H71.7916L74.2836 259.816L76.8176 254.3ZM84.6098 254.3H85.7718V262H84.6098V259.214C84.0218 259.466 83.2098 259.648 82.3418 259.648C80.5498 259.648 79.3458 258.85 79.3458 256.806V254.3H80.5078V256.54C80.5078 257.996 81.0818 258.598 82.5378 258.598C83.2798 258.598 84.1338 258.444 84.6098 258.15V254.3ZM94.1006 254.3H95.2626V262H94.1006V260.446C93.4986 261.482 92.4626 262.154 91.1326 262.154C89.0326 262.154 87.5346 260.474 87.5346 258.15C87.5346 255.812 89.0466 254.146 91.1326 254.146C92.4626 254.146 93.5126 254.832 94.1006 255.882V254.3ZM91.3566 261.048C92.9246 261.048 94.1146 259.844 94.1146 258.15C94.1146 256.456 92.9246 255.252 91.3566 255.252C89.7886 255.252 88.7106 256.47 88.7106 258.15C88.7106 259.844 89.8026 261.048 91.3566 261.048ZM100.999 262.154C98.7449 262.154 97.0229 260.446 97.0229 258.15C97.0229 255.854 98.7449 254.146 100.999 254.146C102.791 254.146 104.331 255.224 104.737 256.988H103.533C103.169 255.896 102.189 255.224 100.999 255.224C99.3749 255.224 98.1989 256.456 98.1989 258.15C98.1989 259.858 99.3889 261.076 100.999 261.076C102.189 261.076 103.169 260.39 103.533 259.312H104.737C104.317 261.104 102.763 262.154 100.999 262.154ZM111.918 254.3V255.392H109.258V262H108.096V255.392H105.436V254.3H109.258H111.918ZM118.325 257.898C119.347 258.178 119.809 258.906 119.809 259.816C119.809 261.146 118.927 262 117.107 262H113.313V254.3H116.757C118.549 254.3 119.445 254.944 119.445 256.26C119.445 257.002 119.039 257.534 118.325 257.898ZM118.269 256.456C118.269 255.728 117.947 255.238 116.673 255.238H114.475V257.59H116.645C117.863 257.59 118.269 257.086 118.269 256.456ZM117.037 261.062C118.311 261.062 118.647 260.46 118.647 259.718C118.647 259.018 118.241 258.458 117.009 258.458H114.475V261.062H117.037ZM126.857 254.3H128.103L122.909 265.5H121.663L123.707 261.062L120.585 254.3H121.831L124.323 259.816L126.857 254.3ZM132.676 254.146C135.07 254.146 136.624 255.966 136.526 258.5H129.932C130.044 260.096 131.178 261.062 132.732 261.062C133.796 261.062 134.678 260.614 135.14 259.718H136.344C135.7 261.356 134.3 262.154 132.69 262.154C130.408 262.154 128.742 260.53 128.742 258.178C128.742 255.84 130.38 254.146 132.676 254.146ZM132.676 255.238C131.262 255.238 130.254 256.148 129.988 257.408H135.266C135.014 256.12 134.062 255.238 132.676 255.238ZM143.787 254.3V255.392H141.127V262H139.965V255.392H137.305V254.3H141.127H143.787ZM154.392 257.898C155.414 258.178 155.876 258.906 155.876 259.816C155.876 261.146 154.994 262 153.174 262H149.38V254.3H152.824C154.616 254.3 155.512 254.944 155.512 256.26C155.512 257.002 155.106 257.534 154.392 257.898ZM154.336 256.456C154.336 255.728 154.014 255.238 152.74 255.238H150.542V257.59H152.712C153.93 257.59 154.336 257.086 154.336 256.456ZM153.104 261.062C154.378 261.062 154.714 260.46 154.714 259.718C154.714 259.018 154.308 258.458 153.076 258.458H150.542V261.062H153.104ZM167.942 254.3H169.104V262H167.942V260.446C167.34 261.482 166.304 262.154 164.974 262.154C162.874 262.154 161.376 260.474 161.376 258.15C161.376 255.812 162.888 254.146 164.974 254.146C166.304 254.146 167.354 254.832 167.942 255.882V254.3ZM165.198 261.048C166.766 261.048 167.956 259.844 167.956 258.15C167.956 256.456 166.766 255.252 165.198 255.252C163.63 255.252 162.552 256.47 162.552 258.15C162.552 259.844 163.644 261.048 165.198 261.048ZM177.977 262H176.451L172.335 258.29V262H171.173V254.3H172.335V257.73L176.087 254.3H177.613L173.567 257.954L177.977 262ZM186.166 260.908H187.566V264.058H186.404V262H185.004H179.754H179.376V254.3H180.538V260.908H185.004V254.3H186.166V260.908ZM194.49 254.3H195.918V262H194.756V258.304L194.826 255.714L190.388 262H188.96V254.3H190.122V257.996L190.052 260.572L194.49 254.3ZM203.5 254.3H204.928V262H203.766V258.304L203.836 255.714L199.398 262H197.97V254.3H199.132V257.996L199.062 260.572L203.5 254.3ZM207.987 260.586C208.449 260.586 208.799 260.922 208.799 261.37C208.799 261.818 208.449 262.154 207.987 262.154C207.525 262.154 207.175 261.818 207.175 261.37C207.175 260.922 207.525 260.586 207.987 260.586Z" fill="black"/>
<circle cx="151" cy="23.0001" r="21" fill="#685BC7"/>
<path d="M150.322 25.2101V19.7801C149.402 22.6201 148.792 24.4301 148.492 25.2101H150.322ZM145.702 29.0201V25.6301C147.682 20.2101 149.352 15.5101 150.712 11.5301H154.222V25.2101H156.292V29.0201H154.222V34.0001H150.322V29.0201H145.702Z" fill="white"/>
</svg>
