<svg width="303" height="326" viewBox="0 0 303 326" fill="none" xmlns="http://www.w3.org/2000/svg">
<g clip-path="url(#clip0_137_612)">
<path fill-rule="evenodd" clip-rule="evenodd" d="M151 47.999C165.912 47.999 178 35.9107 178 20.999C178 20.6642 177.994 20.3309 177.982 19.999L293 19.999C298.523 19.999 303 24.4762 303 29.999V315.999C303 321.522 298.523 325.999 293 325.999H10C4.47716 325.999 0 321.522 0 315.999V29.999C0 24.4762 4.47715 19.999 10 19.999L124.018 19.999C124.006 20.3309 124 20.6642 124 20.999C124 35.9107 136.088 47.999 151 47.999Z" fill="white"/>
<path fill-rule="evenodd" clip-rule="evenodd" d="M179 20.999C179 36.463 166.464 48.999 151 48.999C135.536 48.999 123 36.463 123 20.999H10C5.02944 20.999 1 25.0285 1 29.999V315.999C1 320.97 5.02944 324.999 10 324.999H293C297.971 324.999 302 320.97 302 315.999V29.999C302 25.0285 297.971 20.999 293 20.999H179ZM178 20.999C178 20.6642 177.994 20.3309 177.982 19.999H293C298.523 19.999 303 24.4762 303 29.999V315.999C303 321.522 298.523 325.999 293 325.999H10C4.47716 325.999 0 321.522 0 315.999V29.999C0 24.4762 4.47715 19.999 10 19.999H124.018C124.006 20.3309 124 20.6642 124 20.999C124 35.9107 136.088 47.999 151 47.999C165.912 47.999 178 35.9107 178 20.999Z" fill="black" fill-opacity="0.15"/>
<path d="M17.7604 147.013C17.6131 144.808 19.2805 142.902 21.4847 142.755L267.459 126.314C269.663 126.167 271.569 127.834 271.716 130.038L282.717 294.616C282.864 296.82 281.197 298.726 278.992 298.874L33.0186 315.315C30.8144 315.462 28.9081 313.795 28.7608 311.59L17.7604 147.013Z" fill="#685BC7"/>
<mask id="mask0_137_612" style="mask-type:alpha" maskUnits="userSpaceOnUse" x="17" y="126" width="266" height="190">
<path d="M17.7604 147.013C17.6131 144.808 19.2805 142.902 21.4847 142.755L267.459 126.314C269.663 126.167 271.569 127.834 271.716 130.038L282.717 294.616C282.864 296.82 281.197 298.726 278.992 298.874L33.0186 315.315C30.8144 315.462 28.9081 313.795 28.7608 311.59L17.7604 147.013Z" fill="#685BC7"/>
</mask>
<g mask="url(#mask0_137_612)">
<path d="M177.928 329.477C197.231 319.767 213.407 307.264 227.82 290.843C236.979 280.443 244.481 269.127 250.178 257.253L251.748 253.946L254.166 254.249C273.04 256.48 293.441 254.831 312.577 249.516C317.151 248.233 328.694 244.343 328.825 244.027C328.846 243.92 326.032 236.77 322.562 228.124L316.234 212.379L312.553 213.682C296.454 219.371 281.429 221.664 265.737 220.861L260.983 220.612L261.385 215.76C262.476 201.709 260.852 187.51 256.598 173.916C254.887 168.469 250.108 157.78 247.394 153.308C239.771 140.822 230.601 131.306 220.136 125.048C208.33 118.007 196.016 115.567 183.466 117.746C180.901 118.192 179.666 118.608 174.364 120.816C169.034 123.036 167.869 123.619 165.618 125.212C156.891 131.304 151.301 138.088 147.594 147.036C143.497 156.933 142.934 166.276 145.735 177.953C146.881 182.751 150.344 190.908 153.339 195.82C165.339 215.592 186.19 232.398 212.324 243.335L217.893 245.7L217.475 246.661C216.249 249.301 211.829 256.22 208.529 260.642C199.709 272.408 187.494 283.884 175.822 291.398C162.426 299.959 147.575 306.209 131.639 309.93C103.443 316.529 73.784 314.269 44.5735 303.336L39.3412 301.386L32.8513 317.096L26.373 332.834L30.6077 334.511C68.6202 349.674 110.911 351.916 148.767 340.835C158.048 338.117 170.107 333.422 177.928 329.477ZM214.346 206.518C198.179 197.656 186.033 186.103 180.519 174.279C176.493 165.635 177.502 159.251 183.702 154.245C185.811 152.548 189.406 151.116 191.713 151.072C199.738 150.843 209.64 157.793 216.705 168.546C219.145 172.28 223.052 180.876 224.484 185.652C226.796 193.404 227.836 201.719 227.55 210.39L227.471 212.716L223.143 210.816C220.759 209.81 216.802 207.855 214.346 206.518Z" fill="white" fill-opacity="0.2"/>
</g>
<path d="M80.1154 264.433L223.753 254.833L225.679 283.656L82.0419 293.257L80.1154 264.433Z" fill="#FBE122"/>
<path d="M82.3502 261.871L226.468 252.238L228.394 281.062L84.2768 290.695L82.3502 261.871Z" fill="white"/>
<path fill-rule="evenodd" clip-rule="evenodd" d="M225.537 253.303L83.4147 262.802L85.2079 289.63L227.33 280.131L225.537 253.303ZM82.3502 261.871L84.2768 290.695L228.394 281.062L226.468 252.238L82.3502 261.871Z" fill="black"/>
<path d="M119.89 276.109C119.06 276.165 118.352 275.937 117.768 275.425C117.188 274.914 116.871 274.243 116.815 273.412C116.76 272.582 116.985 271.875 117.491 271.291C118.003 270.706 118.673 270.386 119.504 270.33C120.142 270.288 120.716 270.428 121.224 270.753C121.731 271.071 122.093 271.518 122.307 272.091L121.341 272.156C121.17 271.836 120.927 271.59 120.611 271.419C120.294 271.242 119.942 271.167 119.553 271.193C118.984 271.231 118.526 271.454 118.179 271.862C117.837 272.27 117.686 272.766 117.725 273.352C117.764 273.937 117.98 274.409 118.373 274.768C118.771 275.126 119.255 275.286 119.824 275.248C120.213 275.222 120.552 275.103 120.843 274.891C121.133 274.674 121.342 274.395 121.468 274.056L122.434 273.991C122.298 274.588 121.999 275.081 121.539 275.47C121.078 275.854 120.528 276.067 119.89 276.109Z" fill="black"/>
<path d="M127.546 275.501L126.381 275.579L124.178 273.69L124.314 275.718L123.412 275.778L123.118 271.388L124.02 271.327L124.147 273.227L125.92 271.2L127.077 271.123L125.069 273.35L127.546 275.501Z" fill="black"/>
<path d="M129.632 270.856C130.27 270.813 130.822 270.996 131.288 271.403C131.759 271.81 132.016 272.34 132.06 272.995C132.103 273.649 131.922 274.209 131.515 274.675C131.107 275.14 130.582 275.395 129.938 275.438C129.299 275.48 128.745 275.298 128.274 274.892C127.808 274.479 127.553 273.948 127.51 273.299C127.466 272.644 127.65 272.084 128.063 271.618C128.475 271.152 128.998 270.898 129.632 270.856ZM130.682 272.061C130.403 271.807 130.072 271.692 129.689 271.718C129.306 271.744 128.991 271.901 128.743 272.19C128.5 272.474 128.392 272.823 128.42 273.238C128.448 273.659 128.601 273.993 128.88 274.242C129.158 274.49 129.492 274.602 129.88 274.576C130.269 274.55 130.584 274.395 130.827 274.112C131.07 273.828 131.178 273.476 131.15 273.056C131.122 272.641 130.966 272.309 130.682 272.061Z" fill="black"/>
<path d="M136.886 270.467L137.18 274.858L136.278 274.918L136.041 271.374L133.774 271.525L134.011 275.069L133.109 275.13L132.815 270.739L133.717 270.679L136.886 270.467Z" fill="black"/>
<path d="M140.946 270.196L142.008 270.125L142.301 274.515L141.399 274.576L141.276 272.74L141.24 271.347L139.284 274.717L138.222 274.788L137.929 270.398L138.831 270.337L138.954 272.173L138.99 273.558L140.946 270.196Z" fill="black"/>
<path d="M145.526 269.794C146.106 269.755 146.602 269.938 147.014 270.344C147.426 270.749 147.654 271.284 147.699 271.95C147.744 272.62 147.589 273.184 147.235 273.64C146.885 274.091 146.415 274.336 145.825 274.376C145.159 274.42 144.63 274.178 144.236 273.648L144.419 276.378L143.517 276.438L143.09 270.053L143.992 269.992L144.042 270.743C144.361 270.155 144.856 269.838 145.526 269.794ZM145.575 273.527C145.959 273.501 146.264 273.347 146.491 273.065C146.718 272.782 146.817 272.431 146.789 272.01C146.761 271.59 146.615 271.255 146.353 271.005C146.09 270.755 145.767 270.643 145.384 270.669C144.996 270.695 144.683 270.852 144.446 271.141C144.208 271.424 144.103 271.773 144.131 272.188C144.159 272.608 144.31 272.943 144.583 273.192C144.856 273.441 145.187 273.553 145.575 273.527Z" fill="black"/>
<path d="M150.585 269.456C151.223 269.413 151.775 269.595 152.241 270.002C152.712 270.409 152.969 270.94 153.013 271.594C153.057 272.249 152.875 272.809 152.468 273.274C152.061 273.74 151.535 273.994 150.891 274.037C150.253 274.08 149.698 273.898 149.227 273.491C148.761 273.079 148.506 272.548 148.463 271.898C148.419 271.244 148.604 270.684 149.016 270.218C149.429 269.752 149.952 269.498 150.585 269.456ZM151.636 270.66C151.357 270.406 151.026 270.292 150.642 270.318C150.259 270.343 149.944 270.501 149.696 270.79C149.453 271.073 149.345 271.423 149.373 271.838C149.401 272.258 149.554 272.593 149.833 272.841C150.112 273.09 150.445 273.201 150.833 273.175C151.222 273.149 151.538 272.995 151.781 272.711C152.024 272.428 152.131 272.076 152.103 271.655C152.075 271.24 151.919 270.908 151.636 270.66Z" fill="black"/>
<path d="M156.898 271.174C157.451 271.298 157.747 271.644 157.785 272.213C157.813 272.623 157.695 272.946 157.433 273.183C157.171 273.414 156.792 273.547 156.297 273.58L154.062 273.729L153.768 269.339L155.812 269.202C156.844 269.133 157.385 269.469 157.435 270.208C157.46 270.586 157.281 270.908 156.898 271.174ZM156.536 270.437C156.523 270.251 156.461 270.113 156.348 270.024C156.235 269.936 156.048 269.9 155.788 269.918L154.718 269.989L154.792 271.091L155.845 271.02C156.329 270.988 156.56 270.793 156.536 270.437ZM156.194 272.873C156.454 272.856 156.634 272.79 156.734 272.677C156.838 272.557 156.884 272.399 156.87 272.202C156.844 271.809 156.589 271.628 156.105 271.66L154.835 271.745L154.916 272.958L156.194 272.873Z" fill="black"/>
<path d="M161.862 268.798L162.764 268.738L163.057 273.128L162.155 273.188L162.106 272.454C161.792 273.031 161.3 273.342 160.629 273.386C160.039 273.426 159.537 273.246 159.126 272.845C158.719 272.44 158.493 271.902 158.449 271.231C158.404 270.566 158.559 270.005 158.913 269.548C159.268 269.092 159.735 268.844 160.315 268.805C160.985 268.76 161.518 269.008 161.912 269.548L161.862 268.798ZM160.763 272.512C161.152 272.486 161.465 272.331 161.702 272.048C161.94 271.765 162.045 271.413 162.017 270.993C161.989 270.577 161.838 270.245 161.565 269.996C161.292 269.742 160.961 269.628 160.572 269.654C160.189 269.68 159.884 269.834 159.657 270.116C159.43 270.398 159.33 270.75 159.359 271.17C159.387 271.591 159.532 271.926 159.795 272.175C160.057 272.425 160.38 272.537 160.763 272.512Z" fill="black"/>
<path d="M167.249 268.438L167.305 269.284L165.876 269.38L166.113 272.924L165.211 272.984L164.974 269.44L163.538 269.536L163.481 268.69L165.82 268.533L167.249 268.438Z" fill="black"/>
<path d="M170.226 269.618C170.705 269.586 171.094 269.683 171.392 269.909C171.696 270.129 171.864 270.489 171.898 270.99C171.931 271.495 171.808 271.888 171.527 272.169C171.247 272.45 170.87 272.606 170.396 272.637L168.257 272.78L167.963 268.39L168.865 268.33L168.957 269.703L170.226 269.618ZM170.314 271.777C170.793 271.745 171.018 271.503 170.988 271.05C170.973 270.832 170.909 270.668 170.794 270.558C170.68 270.448 170.493 270.402 170.232 270.419L169.01 270.501L169.101 271.858L170.314 271.777Z" fill="black"/>
<path fill-rule="evenodd" clip-rule="evenodd" d="M187.734 267.857L190.324 269.131L187.926 270.737L187.847 269.547L179.772 270.086L179.739 269.587L187.813 269.048L187.734 267.857Z" fill="black"/>
<path d="M69.3621 162.974C69.8936 163.129 70.3097 163.432 70.6105 163.883C70.9106 164.324 71.0813 164.854 71.1226 165.472C71.1873 166.44 70.9084 167.215 70.2859 167.798C69.6733 168.38 68.8283 168.708 67.7507 168.78L63.0212 169.096L62.321 158.619L67.0504 158.303C68.0083 158.239 68.7972 158.422 69.4173 158.851C70.0473 159.28 70.3923 159.944 70.4523 160.842C70.515 161.78 70.1516 162.49 69.3621 162.974ZM67.9081 161.463C67.8881 161.163 67.7946 160.964 67.6276 160.865C67.4606 160.766 67.2075 160.728 66.8683 160.751L65.0274 160.874L65.1324 162.445L67.0781 162.315C67.6667 162.276 67.9434 161.992 67.9081 161.463ZM67.5288 166.359C67.9279 166.332 68.1976 166.244 68.3379 166.094C68.4876 165.934 68.5527 165.709 68.5334 165.42C68.5127 165.111 68.4232 164.896 68.2649 164.776C68.1059 164.647 67.8218 164.595 67.4127 164.623L65.2875 164.765L65.4035 166.501L67.5288 166.359Z" fill="white"/>
<path d="M77.9488 159.829L80.4932 159.659L81.0284 167.892L78.4841 168.062L78.4251 167.179C77.8844 167.937 77.1351 168.348 76.1773 168.412C75.1196 168.482 74.2096 168.137 73.4471 167.377C72.6847 166.616 72.2615 165.607 72.1774 164.349C72.0934 163.092 72.3786 162.036 73.033 161.18C73.6974 160.324 74.5484 159.861 75.5861 159.792C76.5739 159.726 77.3821 160.048 78.0109 160.757L77.9488 159.829ZM75.3376 165.521C75.6896 165.839 76.115 165.98 76.6139 165.947C77.1128 165.914 77.5155 165.717 77.8221 165.355C78.128 164.984 78.262 164.514 78.2239 163.945C78.1866 163.387 77.9916 162.944 77.639 162.616C77.2864 162.289 76.8607 162.142 76.3618 162.176C75.8629 162.209 75.4605 162.411 75.1546 162.782C74.8486 163.154 74.7143 163.619 74.7517 164.177C74.7897 164.746 74.985 165.194 75.3376 165.521Z" fill="white"/>
<path d="M91.0007 158.957L93.545 158.787L94.0952 167.019L91.5509 167.189L87.0459 167.49L83.873 167.702L82.541 167.791L81.9908 159.559L84.5351 159.389L84.9252 165.226L86.8859 165.095L86.4957 159.258L89.04 159.088L89.4302 164.925L91.3908 164.794L91.0007 158.957Z" fill="white"/>
<path d="M105.292 158.002L108.001 157.821L103.548 170.145L100.839 170.326L102.653 165.304L99.0808 158.417L101.79 158.236L103.813 162.415L105.292 158.002Z" fill="white"/>
<path d="M114.657 157.376L117.201 157.206L117.752 165.437L115.207 165.608L115.008 162.629L111.94 162.834L112.139 165.813L109.595 165.983L109.045 157.751L111.589 157.581L111.78 160.44L114.848 160.235L114.657 157.376Z" fill="white"/>
<path d="M123.87 156.76L126.758 156.567L127.308 164.799L124.764 164.969L124.6 162.514L124.586 160.275L122.13 165.145L119.241 165.338L118.691 157.106L121.235 156.936L121.399 159.391L121.412 161.6L123.87 156.76Z" fill="white"/>
<path d="M137.466 164.12L134.248 164.335L131.118 161.147L131.344 164.529L128.8 164.699L128.25 156.467L130.794 156.297L131.013 159.575L133.503 156.116L136.721 155.901L133.466 160.058L137.466 164.12Z" fill="white"/>
<path d="M142.814 155.494L145.358 155.324L145.893 163.556L143.349 163.727L143.29 162.844C142.749 163.601 142 164.012 141.042 164.076C139.985 164.147 139.075 163.802 138.312 163.041C137.55 162.28 137.126 161.271 137.042 160.014C136.958 158.757 137.244 157.7 137.898 156.845C138.562 155.989 139.413 155.526 140.451 155.456C141.439 155.39 142.247 155.712 142.876 156.422L142.814 155.494ZM140.203 161.186C140.555 161.503 140.98 161.645 141.479 161.612C141.978 161.578 142.381 161.381 142.687 161.02C142.993 160.648 143.127 160.178 143.089 159.61C143.052 159.051 142.857 158.608 142.504 158.281C142.151 157.954 141.726 157.807 141.227 157.84C140.728 157.873 140.326 158.076 140.02 158.447C139.714 158.818 139.579 159.283 139.617 159.842C139.655 160.411 139.85 160.859 140.203 161.186Z" fill="white"/>
<path d="M148.921 155.086L155.237 154.664L155.787 162.895L153.243 163.065L152.853 157.228L151.251 157.335L151.006 159.968C150.79 162.277 149.829 163.489 148.122 163.603C147.803 163.624 147.416 163.605 146.961 163.545L146.808 161.255C147.11 161.275 147.316 161.282 147.426 161.274C147.775 161.251 148.023 161.144 148.171 160.954C148.328 160.753 148.429 160.395 148.475 159.881L148.921 155.086Z" fill="white"/>
<path d="M161.288 156.544C161.667 156.519 162.025 156.54 162.36 156.608C162.695 156.676 163.025 156.804 163.348 156.993C163.68 157.171 163.95 157.454 164.156 157.841C164.362 158.228 164.484 158.696 164.521 159.245C164.557 159.793 164.495 160.284 164.333 160.715C164.171 161.137 163.938 161.473 163.634 161.724C163.329 161.965 163.006 162.152 162.664 162.285C162.332 162.408 161.981 162.481 161.612 162.506L157.301 162.794L156.736 154.563L159.28 154.393L159.432 156.668L161.288 156.544ZM161.36 160.087C161.779 160.059 161.974 159.836 161.946 159.417C161.916 158.968 161.692 158.757 161.273 158.785L159.596 158.897L159.684 160.199L161.36 160.087Z" fill="white"/>
<path d="M171.133 153.601L173.677 153.431L174.227 161.663L171.683 161.833L171.484 158.854L168.416 159.059L168.615 162.038L166.07 162.208L165.52 153.976L168.065 153.806L168.256 156.665L171.324 156.46L171.133 153.601Z" fill="white"/>
<path d="M179.689 155.314C180.068 155.289 180.425 155.31 180.761 155.378C181.096 155.446 181.425 155.574 181.748 155.763C182.081 155.941 182.351 156.224 182.557 156.611C182.763 156.998 182.885 157.466 182.921 158.015C182.958 158.564 182.895 159.054 182.734 159.486C182.572 159.907 182.339 160.244 182.035 160.494C181.73 160.735 181.407 160.922 181.065 161.055C180.732 161.178 180.381 161.251 180.012 161.276L175.717 161.563L175.167 153.331L177.711 153.161L177.863 155.436L179.689 155.314ZM183.593 152.768L186.137 152.598L186.687 160.83L184.143 161L183.593 152.768ZM179.76 158.857C180.179 158.829 180.375 158.606 180.347 158.187C180.317 157.738 180.092 157.527 179.673 157.555L178.012 157.666L178.099 158.968L179.76 158.857Z" fill="white"/>
<path d="M191.619 151.39C190.92 151.437 190.302 151.257 189.764 150.852C189.236 150.447 188.947 149.87 188.897 149.121L188.866 148.657L190.841 148.525L190.868 148.93C190.88 149.109 190.945 149.25 191.062 149.353C191.179 149.455 191.322 149.501 191.492 149.489C191.661 149.478 191.793 149.414 191.885 149.298C191.987 149.18 192.033 149.032 192.021 148.852L191.994 148.448L193.969 148.316L194 148.78C194.05 149.529 193.835 150.139 193.356 150.612C192.886 151.085 192.307 151.344 191.619 151.39ZM192.812 152.152L195.701 151.959L196.251 160.191L193.707 160.361L193.543 157.906L193.528 155.667L191.073 160.537L188.184 160.73L187.634 152.498L190.178 152.328L190.342 154.783L190.355 156.992L192.812 152.152Z" fill="white"/>
<path d="M210.896 159.212L207.678 159.427L204.548 156.238L204.774 159.621L202.23 159.791L201.68 151.559L204.224 151.389L204.443 154.667L206.933 151.208L210.151 150.993L206.896 155.149L210.896 159.212Z" fill="white"/>
<path d="M211.524 151.954C212.307 151.069 213.297 150.587 214.495 150.507C215.692 150.427 216.737 150.773 217.631 151.546C218.524 152.308 219.011 153.302 219.093 154.53C219.176 155.767 218.83 156.822 218.057 157.696C217.284 158.569 216.288 159.047 215.071 159.128C213.864 159.209 212.813 158.868 211.921 158.106C211.037 157.333 210.554 156.333 210.472 155.106C210.39 153.879 210.741 152.828 211.524 151.954ZM215.934 153.373C215.581 153.046 215.156 152.899 214.657 152.932C214.158 152.965 213.755 153.168 213.449 153.539C213.144 153.91 213.009 154.375 213.047 154.934C213.085 155.503 213.28 155.95 213.633 156.278C213.985 156.595 214.41 156.737 214.909 156.704C215.408 156.67 215.81 156.473 216.117 156.112C216.423 155.74 216.557 155.27 216.519 154.702C216.482 154.143 216.287 153.7 215.934 153.373Z" fill="white"/>
<path d="M228.887 155.604L230.384 155.504L230.679 159.919L228.135 160.089L228 158.069L222.522 158.435L222.657 160.455L220.113 160.625L219.818 156.21L221.314 156.11C221.491 155.908 221.607 155.534 221.66 154.989L222.106 150.194L228.497 149.767L228.887 155.604ZM223.963 155.933L226.343 155.774L226.113 152.332L224.437 152.444L224.199 154.955C224.171 155.298 224.093 155.624 223.963 155.933Z" fill="white"/>
<path d="M47.7941 188.61C47.6468 186.406 49.3142 184.5 51.5184 184.352L243.228 171.539C245.432 171.391 247.339 173.059 247.486 175.263L251.595 236.739C251.742 238.943 250.075 240.849 247.871 240.997L56.161 253.811C53.9568 253.958 52.0505 252.29 51.9031 250.086L47.7941 188.61Z" fill="white"/>
<path d="M115.115 211.741L109.77 194.76L115.507 194.377L118.686 205.94L120.197 194.063L125.685 193.696L122.598 211.241L128.714 230.777L122.877 231.167L119.187 217.934L117.24 231.544L111.553 231.924L115.115 211.741Z" fill="black"/>
<path d="M133.161 204.422L127.923 204.772L127.609 200.082C127.489 198.286 127.833 196.676 128.64 195.253C129.478 193.794 130.928 192.995 132.99 192.857L134.386 192.764C136.615 192.615 138.319 193.119 139.499 194.276C140.679 195.434 141.341 197.093 141.485 199.255L141.769 203.496C141.978 206.622 141.326 208.62 139.814 209.489C140.767 209.76 141.483 210.213 141.959 210.849C142.436 211.485 142.718 212.452 142.805 213.749L143.415 222.879C143.566 225.14 143.087 226.976 141.979 228.387C140.902 229.762 139.365 230.516 137.37 230.649L135.823 230.753C133.562 230.904 131.86 230.433 130.718 229.34C129.609 228.245 128.99 226.733 128.861 224.804L128.357 217.271L133.945 216.897L134.352 222.984C134.45 224.447 135.047 225.142 136.145 225.069C137.176 225 137.642 224.234 137.545 222.77L137.028 215.037C136.979 214.306 136.846 213.813 136.628 213.561C136.444 213.306 136.036 213.199 135.404 213.242L132.361 213.445L131.974 207.658L134.618 207.481C135.284 207.437 135.707 207.275 135.889 206.995C136.071 206.716 136.133 206.144 136.075 205.279L135.728 200.091C135.677 199.326 135.525 198.801 135.272 198.518C135.053 198.232 134.677 198.106 134.145 198.142C133.646 198.175 133.29 198.35 133.077 198.664C132.895 198.944 132.83 199.466 132.881 200.231L133.161 204.422Z" fill="black"/>
<path d="M145.928 229.626L143.447 192.509L156.268 191.652L156.629 197.04L149.445 197.52L150.098 207.298L155.785 206.918L156.162 212.556L150.475 212.936L151.565 229.249L145.928 229.626Z" fill="black"/>
<path d="M168.522 221.251L167.995 213.368C167.899 211.938 167.336 211.258 166.305 211.327C165.739 211.364 165.351 211.557 165.141 211.906C164.961 212.218 164.898 212.774 164.952 213.572L165.478 221.454C165.561 222.685 166.117 223.266 167.148 223.197C168.146 223.13 168.604 222.481 168.522 221.251ZM167.245 203.647L166.845 197.66C166.816 197.228 166.76 196.897 166.678 196.669C166.627 196.405 166.479 196.181 166.232 195.997C166.017 195.778 165.694 195.683 165.261 195.711C164.829 195.74 164.504 195.879 164.287 196.127C164.1 196.34 164 196.581 163.984 196.849C163.966 197.084 163.972 197.418 164.001 197.85L164.398 203.787C164.482 205.051 165.007 205.651 165.971 205.586C166.903 205.524 167.327 204.877 167.245 203.647ZM172.399 196.788L172.772 202.375C172.917 204.537 172.225 206.187 170.698 207.325C172.631 208.265 173.678 209.932 173.838 212.326L174.435 221.256C174.571 223.285 174.1 224.987 173.023 226.362C171.976 227.701 170.289 228.449 167.961 228.605L166.913 228.675C164.585 228.83 162.812 228.297 161.595 227.076C160.41 225.852 159.749 224.209 159.612 222.147L159.021 213.317C158.87 211.055 159.619 209.268 161.269 207.955C159.692 206.858 158.837 205.311 158.704 203.316L158.317 197.529C158.199 195.766 158.598 194.236 159.513 192.939C160.429 191.641 162.034 190.916 164.329 190.763L165.327 190.696C167.555 190.547 169.258 191.034 170.436 192.158C171.611 193.249 172.265 194.792 172.399 196.788Z" fill="black"/>
<path d="M180.37 201.266L175.132 201.616L174.819 196.927C174.699 195.131 175.042 193.521 175.849 192.097C176.687 190.638 178.137 189.84 180.199 189.702L181.596 189.608C183.824 189.46 185.528 189.964 186.708 191.121C187.888 192.278 188.55 193.938 188.694 196.1L188.978 200.34C189.187 203.466 188.535 205.464 187.023 206.334C187.977 206.604 188.692 207.057 189.169 207.694C189.645 208.33 189.927 209.297 190.014 210.594L190.624 219.723C190.775 221.985 190.297 223.821 189.188 225.231C188.111 226.606 186.574 227.36 184.579 227.494L183.032 227.597C180.771 227.748 179.069 227.278 177.927 226.185C176.818 225.089 176.199 223.577 176.07 221.648L175.567 214.115L181.154 213.742L181.561 219.828C181.659 221.291 182.256 221.987 183.354 221.913C184.385 221.844 184.852 221.078 184.754 219.615L184.237 211.882C184.188 211.15 184.055 210.658 183.838 210.405C183.653 210.15 183.245 210.044 182.614 210.086L179.57 210.29L179.184 204.503L181.828 204.326C182.493 204.281 182.916 204.119 183.098 203.84C183.28 203.561 183.342 202.988 183.284 202.124L182.937 196.935C182.886 196.17 182.734 195.646 182.481 195.362C182.262 195.076 181.886 194.951 181.354 194.987C180.855 195.02 180.499 195.194 180.286 195.509C180.104 195.788 180.039 196.311 180.09 197.076L180.37 201.266Z" fill="black"/>
<path d="M36.58 64.999V78.999H33.18V68.239H27.8V78.999H24.4V64.999H27.8H36.58Z" fill="black"/>
<path d="M40.4605 69.399C41.5805 68.2924 42.9405 67.739 44.5405 67.739C46.1405 67.739 47.5005 68.2924 48.6205 69.399C49.7405 70.4924 50.3005 71.859 50.3005 73.499C50.3005 75.1524 49.7472 76.5257 48.6405 77.619C47.5338 78.7124 46.1672 79.259 44.5405 79.259C42.9272 79.259 41.5605 78.7124 40.4405 77.619C39.3338 76.5124 38.7805 75.139 38.7805 73.499C38.7805 71.859 39.3405 70.4924 40.4605 69.399ZM46.2005 71.679C45.7605 71.2124 45.2072 70.979 44.5405 70.979C43.8738 70.979 43.3205 71.2124 42.8805 71.679C42.4405 72.1457 42.2205 72.7524 42.2205 73.499C42.2205 74.259 42.4405 74.8724 42.8805 75.339C43.3205 75.7924 43.8738 76.019 44.5405 76.019C45.2072 76.019 45.7605 75.7924 46.2005 75.339C46.6405 74.8724 46.8605 74.259 46.8605 73.499C46.8605 72.7524 46.6405 72.1457 46.2005 71.679Z" fill="black"/>
<path d="M54.6702 67.999H63.1102V78.999H59.7102V71.199H57.5702L57.0102 74.679C56.5168 77.7324 55.1302 79.259 52.8502 79.259C52.4235 79.259 51.9102 79.199 51.3102 79.079V76.019C51.7102 76.0724 51.9835 76.099 52.1302 76.099C52.5968 76.099 52.9368 75.979 53.1502 75.739C53.3768 75.4857 53.5435 75.019 53.6502 74.339L54.6702 67.999Z" fill="black"/>
<path d="M72.8133 67.999H76.4333L69.4133 83.999H65.7933L68.6533 77.479L64.5133 67.999H68.1333L70.4533 73.739L72.8133 67.999Z" fill="black"/>
<path d="M84.4481 67.999H87.8481V78.999H84.4481V75.679C83.7548 75.9324 83.0081 76.059 82.2081 76.059C81.6082 76.059 81.0548 75.999 80.5481 75.879C80.0548 75.7457 79.5881 75.539 79.1481 75.259C78.7081 74.979 78.3615 74.5724 78.1081 74.039C77.8548 73.5057 77.7281 72.8657 77.7281 72.119V67.999H81.1281V71.219C81.1281 71.8857 81.2415 72.3524 81.4681 72.619C81.7081 72.8857 82.1881 73.019 82.9081 73.019C83.5615 73.019 84.0748 72.9124 84.4481 72.699V67.999Z" fill="black"/>
<path d="M97.7199 67.999H101.12L101.1 78.999H97.6999V77.819C96.9132 78.779 95.8799 79.259 94.5999 79.259C93.1865 79.259 92.0065 78.719 91.0599 77.639C90.1132 76.559 89.6399 75.179 89.6399 73.499C89.6399 71.819 90.1132 70.439 91.0599 69.359C92.0199 68.279 93.1932 67.739 94.5799 67.739C95.8999 67.739 96.9465 68.239 97.7199 69.239V67.999ZM93.7399 75.339C94.1799 75.7924 94.7332 76.019 95.3999 76.019C96.0665 76.019 96.6199 75.7924 97.0599 75.339C97.4999 74.8724 97.7199 74.259 97.7199 73.499C97.7199 72.7524 97.4999 72.1457 97.0599 71.679C96.6199 71.2124 96.0665 70.979 95.3999 70.979C94.7332 70.979 94.1799 71.2124 93.7399 71.679C93.2999 72.1457 93.0799 72.7524 93.0799 73.499C93.0799 74.259 93.2999 74.8724 93.7399 75.339Z" fill="black"/>
<path d="M108.521 66.879C107.588 66.879 106.781 66.5857 106.101 65.999C105.434 65.4124 105.101 64.619 105.101 63.619V62.999H107.741V63.539C107.741 63.779 107.814 63.9724 107.961 64.119C108.108 64.2657 108.294 64.339 108.521 64.339C108.748 64.339 108.928 64.2657 109.061 64.119C109.208 63.9724 109.281 63.779 109.281 63.539V62.999H111.921V63.619C111.921 64.619 111.581 65.4124 110.901 65.999C110.234 66.5857 109.441 66.879 108.521 66.879ZM110.041 67.999H113.901V78.999H110.501V75.719L110.681 72.739L106.981 78.999H103.121V67.999H106.521V71.279L106.341 74.219L110.041 67.999Z" fill="black"/>
<path d="M125.095 67.999V71.199H121.895V78.999H118.495V71.199H115.295V67.999H121.895H125.095Z" fill="black"/>
<path d="M132.1 67.739C133.9 67.739 135.34 68.3657 136.42 69.619C137.5 70.859 137.953 72.3924 137.78 74.219H129.76C129.84 75.019 130.1 75.6257 130.54 76.039C130.993 76.439 131.54 76.639 132.18 76.639C132.647 76.639 133.053 76.5324 133.4 76.319C133.747 76.0924 133.987 75.7857 134.12 75.399H137.62C137.26 76.6924 136.58 77.659 135.58 78.299C134.593 78.939 133.46 79.259 132.18 79.259C130.447 79.259 129.033 78.7124 127.94 77.619C126.847 76.5257 126.3 75.1524 126.3 73.499C126.3 71.859 126.84 70.4924 127.92 69.399C129.013 68.2924 130.407 67.739 132.1 67.739ZM132.08 70.359C130.92 70.359 130.18 70.959 129.86 72.159H134.24C134.12 71.6124 133.873 71.179 133.5 70.859C133.14 70.5257 132.667 70.359 132.08 70.359Z" fill="black"/>
<path d="M31.7 95.999H35.32L28.3 111.999H24.68L27.54 105.479L23.4 95.999H27.02L29.34 101.739L31.7 95.999Z" fill="black"/>
<path d="M44.2149 95.999H47.6149V106.999H44.2149V103.019H40.1149V106.999H36.7149V95.999H40.1149V99.819H44.2149V95.999Z" fill="black"/>
<path d="M56.5255 95.999H60.3855V106.999H56.9855V103.719L57.1655 100.739L53.4655 106.999H49.6055V95.999H53.0055V99.279L52.8255 102.219L56.5255 95.999Z" fill="black"/>
<path d="M73.9589 106.999H69.6589L65.7789 102.479V106.999H62.3789V95.999H65.7789V100.379L69.3989 95.999H73.6989L68.9989 101.239L73.9589 106.999Z" fill="black"/>
<path d="M81.841 95.999H85.241L85.221 106.999H81.821V105.819C81.0343 106.779 80.001 107.259 78.721 107.259C77.3076 107.259 76.1276 106.719 75.181 105.639C74.2343 104.559 73.761 103.179 73.761 101.499C73.761 99.819 74.2343 98.439 75.181 97.359C76.141 96.279 77.3143 95.739 78.701 95.739C80.021 95.739 81.0676 96.239 81.841 97.239V95.999ZM77.861 103.339C78.301 103.792 78.8543 104.019 79.521 104.019C80.1876 104.019 80.741 103.792 81.181 103.339C81.621 102.872 81.841 102.259 81.841 101.499C81.841 100.752 81.621 100.146 81.181 99.679C80.741 99.2124 80.1876 98.979 79.521 98.979C78.8543 98.979 78.301 99.2124 77.861 99.679C77.421 100.146 77.201 100.752 77.201 101.499C77.201 102.259 77.421 102.872 77.861 103.339Z" fill="black"/>
<path d="M90.0022 95.999H98.4422V106.999H95.0422V99.199H92.9022L92.3422 102.679C91.8489 105.732 90.4622 107.259 88.1822 107.259C87.7555 107.259 87.2422 107.199 86.6422 107.079V104.019C87.0422 104.072 87.3155 104.099 87.4622 104.099C87.9289 104.099 88.2689 103.979 88.4822 103.739C88.7089 103.486 88.8755 103.019 88.9822 102.339L90.0022 95.999Z" fill="black"/>
<path d="M106.325 99.039C106.832 99.039 107.305 99.099 107.745 99.219C108.185 99.339 108.612 99.539 109.025 99.819C109.452 100.086 109.785 100.486 110.025 101.019C110.265 101.552 110.385 102.186 110.385 102.919C110.385 103.652 110.259 104.299 110.005 104.859C109.752 105.406 109.412 105.832 108.985 106.139C108.559 106.432 108.112 106.652 107.645 106.799C107.192 106.932 106.719 106.999 106.225 106.999H100.465L100.445 95.999H103.845V99.039H106.325ZM106.105 103.759C106.665 103.759 106.945 103.479 106.945 102.919C106.945 102.319 106.665 102.019 106.105 102.019H103.865V103.759H106.105Z" fill="black"/>
<path d="M119.684 95.999H123.084V106.999H119.684V103.019H115.584V106.999H112.184V95.999H115.584V99.819H119.684V95.999Z" fill="black"/>
<path d="M130.914 99.039C131.421 99.039 131.894 99.099 132.334 99.219C132.774 99.339 133.201 99.539 133.614 99.819C134.041 100.086 134.374 100.486 134.614 101.019C134.854 101.552 134.974 102.186 134.974 102.919C134.974 103.652 134.848 104.299 134.594 104.859C134.341 105.406 134.001 105.832 133.574 106.139C133.148 106.432 132.701 106.652 132.234 106.799C131.781 106.932 131.308 106.999 130.814 106.999H125.074V95.999H128.474V99.039H130.914ZM136.334 95.999H139.734V106.999H136.334V95.999ZM130.694 103.759C131.254 103.759 131.534 103.479 131.534 102.919C131.534 102.319 131.254 102.019 130.694 102.019H128.474V103.759H130.694Z" fill="black"/>
<path d="M147.134 94.879C146.201 94.879 145.394 94.5857 144.714 93.999C144.048 93.4124 143.714 92.619 143.714 91.619V90.999H146.354V91.539C146.354 91.779 146.428 91.9724 146.574 92.119C146.721 92.2657 146.908 92.339 147.134 92.339C147.361 92.339 147.541 92.2657 147.674 92.119C147.821 91.9724 147.894 91.779 147.894 91.539V90.999H150.534V91.619C150.534 92.619 150.194 93.4124 149.514 93.999C148.848 94.5857 148.054 94.879 147.134 94.879ZM148.654 95.999H152.514V106.999H149.114V103.719L149.294 100.739L145.594 106.999H141.734V95.999H145.134V99.279L144.954 102.219L148.654 95.999Z" fill="black"/>
<path d="M172.084 106.999H167.784L163.904 102.479V106.999H160.504V95.999H163.904V100.379L167.524 95.999H171.824L167.124 101.239L172.084 106.999Z" fill="black"/>
<path d="M173.566 97.399C174.686 96.2924 176.046 95.739 177.646 95.739C179.246 95.739 180.606 96.2924 181.726 97.399C182.846 98.4924 183.406 99.859 183.406 101.499C183.406 103.152 182.853 104.526 181.746 105.619C180.639 106.712 179.273 107.259 177.646 107.259C176.033 107.259 174.666 106.712 173.546 105.619C172.439 104.512 171.886 103.139 171.886 101.499C171.886 99.859 172.446 98.4924 173.566 97.399ZM179.306 99.679C178.866 99.2124 178.313 98.979 177.646 98.979C176.979 98.979 176.426 99.2124 175.986 99.679C175.546 100.146 175.326 100.752 175.326 101.499C175.326 102.259 175.546 102.872 175.986 103.339C176.426 103.792 176.979 104.019 177.646 104.019C178.313 104.019 178.866 103.792 179.306 103.339C179.746 102.872 179.966 102.259 179.966 101.499C179.966 100.752 179.746 100.146 179.306 99.679Z" fill="black"/>
<path d="M196.34 103.799H198.34V109.699H194.94V106.999H187.62V109.699H184.22V103.799H186.22C186.474 103.546 186.66 103.059 186.78 102.339L187.8 95.999H196.34V103.799ZM189.76 103.799H192.94V99.199H190.7L190.16 102.519C190.094 102.972 189.96 103.399 189.76 103.799Z" fill="black"/>
</g>
<path d="M172 20.999C172 32.597 162.598 41.999 151 41.999C139.402 41.999 130 32.597 130 20.999C130 9.40104 139.402 -0.000976562 151 -0.000976562C162.598 -0.000976562 172 9.40104 172 20.999Z" fill="#685BC7"/>
<path d="M150.546 16.549H146.886V13.669C146.886 12.489 147.196 11.489 147.816 10.669C148.456 9.82903 149.466 9.40903 150.846 9.40903H151.686C153.146 9.40903 154.236 9.79903 154.956 10.579C155.696 11.339 156.066 12.379 156.066 13.699V16.189C156.066 17.929 155.586 19.059 154.626 19.579C155.726 19.939 156.276 20.789 156.276 22.129V27.709C156.276 29.149 155.876 30.279 155.076 31.099C154.296 31.919 153.216 32.329 151.836 32.329H150.996C149.476 32.329 148.366 31.949 147.666 31.189C146.986 30.429 146.646 29.469 146.646 28.309V23.809H150.546V27.349C150.546 28.049 150.826 28.399 151.386 28.399C151.926 28.399 152.196 28.049 152.196 27.349V22.999C152.196 22.659 152.146 22.429 152.046 22.309C151.966 22.169 151.766 22.099 151.446 22.099H149.376V18.109H151.236C151.576 18.109 151.796 18.039 151.896 17.899C152.016 17.759 152.076 17.499 152.076 17.119V14.059C152.076 13.659 152.016 13.389 151.896 13.249C151.796 13.109 151.596 13.039 151.296 13.039C151.036 13.039 150.846 13.109 150.726 13.249C150.606 13.389 150.546 13.659 150.546 14.059V16.549Z" fill="white"/>
<defs>
<clipPath id="clip0_137_612">
<rect width="303" height="306" fill="white" transform="translate(0 19.999)"/>
</clipPath>
</defs>
</svg>
