<svg width="303" height="326" viewBox="0 0 303 326" fill="none" xmlns="http://www.w3.org/2000/svg">
<g clip-path="url(#clip0_137_604)">
<path fill-rule="evenodd" clip-rule="evenodd" d="M151 47.999C165.912 47.999 178 35.9107 178 20.999C178 20.6642 177.994 20.3309 177.982 19.999L293 19.999C298.523 19.999 303 24.4762 303 29.999V315.999C303 321.522 298.523 325.999 293 325.999H10C4.47716 325.999 0 321.522 0 315.999L0 29.999C0 24.4762 4.47715 19.999 10 19.999L124.018 19.999C124.006 20.3309 124 20.6642 124 20.999C124 35.9107 136.088 47.999 151 47.999Z" fill="white"/>
<path fill-rule="evenodd" clip-rule="evenodd" d="M179 20.999C179 36.463 166.464 48.999 151 48.999C135.536 48.999 123 36.463 123 20.999H10C5.02944 20.999 1 25.0285 1 29.999L1 315.999C1 320.97 5.02944 324.999 10 324.999H293C297.971 324.999 302 320.97 302 315.999V29.999C302 25.0285 297.971 20.999 293 20.999H179ZM178 20.999C178 20.6642 177.994 20.3309 177.982 19.999H293C298.523 19.999 303 24.4762 303 29.999V315.999C303 321.522 298.523 325.999 293 325.999H10C4.47716 325.999 0 321.522 0 315.999L0 29.999C0 24.4762 4.47715 19.999 10 19.999H124.018C124.006 20.3309 124 20.6642 124 20.999C124 35.9107 136.088 47.999 151 47.999C165.912 47.999 178 35.9107 178 20.999Z" fill="black" fill-opacity="0.15"/>
<path d="M25.9 66.839C27.3134 65.439 29.0534 64.739 31.12 64.739C33.1867 64.739 34.92 65.439 36.32 66.839C37.7334 68.2257 38.44 69.9457 38.44 71.999C38.44 74.0524 37.7334 75.779 36.32 77.179C34.92 78.5657 33.1867 79.259 31.12 79.259C29.0534 79.259 27.3134 78.5657 25.9 77.179C24.5 75.779 23.8 74.0524 23.8 71.999C23.8 69.9457 24.5 68.2257 25.9 66.839ZM33.9 69.119C33.1667 68.359 32.24 67.979 31.12 67.979C30 67.979 29.0734 68.359 28.34 69.119C27.6067 69.8657 27.24 70.8257 27.24 71.999C27.24 73.1724 27.6067 74.139 28.34 74.899C29.0734 75.6457 30 76.019 31.12 76.019C32.24 76.019 33.1667 75.6457 33.9 74.899C34.6334 74.139 35 73.1724 35 71.999C35 70.8257 34.6334 69.8657 33.9 69.119Z" fill="black"/>
<path d="M45.7905 79.259C44.1239 79.259 42.7439 78.7124 41.6505 77.619C40.5705 76.5124 40.0305 75.139 40.0305 73.499C40.0305 71.859 40.5705 70.4924 41.6505 69.399C42.7439 68.2924 44.1305 67.739 45.8105 67.739C47.2372 67.739 48.4772 68.1524 49.5305 68.979C50.5839 69.7924 51.1905 70.9124 51.3505 72.339H47.8505C47.6105 71.3657 46.9305 70.879 45.8105 70.879C45.0772 70.879 44.5039 71.119 44.0905 71.599C43.6772 72.079 43.4705 72.7124 43.4705 73.499C43.4705 74.2857 43.6772 74.919 44.0905 75.399C44.5172 75.879 45.0839 76.119 45.7905 76.119C46.2839 76.119 46.7172 75.999 47.0905 75.759C47.4772 75.5057 47.7305 75.1324 47.8505 74.639H51.3505C51.1772 76.0924 50.5572 77.2257 49.4905 78.039C48.4372 78.8524 47.2039 79.259 45.7905 79.259Z" fill="black"/>
<path d="M62.1454 67.999V71.199H58.9454V78.999H55.5454V71.199H52.3454V67.999H58.9454H62.1454Z" fill="black"/>
<path d="M71.4308 67.999H74.8308L74.8108 78.999H71.4108V77.819C70.6242 78.779 69.5908 79.259 68.3108 79.259C66.8975 79.259 65.7175 78.719 64.7708 77.639C63.8242 76.559 63.3508 75.179 63.3508 73.499C63.3508 71.819 63.8242 70.439 64.7708 69.359C65.7308 68.279 66.9042 67.739 68.2908 67.739C69.6108 67.739 70.6575 68.239 71.4308 69.239V67.999ZM67.4508 75.339C67.8908 75.7924 68.4442 76.019 69.1108 76.019C69.7775 76.019 70.3308 75.7924 70.7708 75.339C71.2108 74.8724 71.4308 74.259 71.4308 73.499C71.4308 72.7524 71.2108 72.1457 70.7708 71.679C70.3308 71.2124 69.7775 70.979 69.1108 70.979C68.4442 70.979 67.8908 71.2124 67.4508 71.679C67.0108 72.1457 66.7908 72.7524 66.7908 73.499C66.7908 74.259 67.0108 74.8724 67.4508 75.339Z" fill="black"/>
<path d="M84.9721 73.019C86.2387 73.419 86.8721 74.3457 86.8721 75.799C86.8721 76.919 86.4921 77.7324 85.7321 78.239C84.9721 78.7457 83.9987 78.999 82.8121 78.999H76.8321V67.999H82.3321C82.8921 67.999 83.3854 68.039 83.8121 68.119C84.2521 68.1857 84.6721 68.3124 85.0721 68.499C85.4721 68.6857 85.7787 68.9724 85.9921 69.359C86.2054 69.7324 86.3121 70.199 86.3121 70.759C86.3121 71.2924 86.1987 71.7257 85.9721 72.059C85.7454 72.3924 85.4121 72.7124 84.9721 73.019ZM82.8721 71.439C82.8721 71.1457 82.8054 70.939 82.6721 70.819C82.5521 70.699 82.3387 70.639 82.0321 70.639H80.2321V72.199H82.0521C82.3587 72.199 82.5721 72.1457 82.6921 72.039C82.8121 71.919 82.8721 71.719 82.8721 71.439ZM82.5521 76.359C82.8721 76.359 83.0987 76.299 83.2321 76.179C83.3654 76.0457 83.4321 75.8124 83.4321 75.479C83.4321 75.1457 83.3654 74.919 83.2321 74.799C83.0987 74.6657 82.8721 74.599 82.5521 74.599H80.2321V76.359H82.5521Z" fill="black"/>
<path d="M91.3304 67.999H99.7704V78.999H96.3704V71.199H94.2304L93.6704 74.679C93.177 77.7324 91.7904 79.259 89.5104 79.259C89.0837 79.259 88.5704 79.199 87.9704 79.079V76.019C88.3704 76.0724 88.6437 76.099 88.7904 76.099C89.257 76.099 89.597 75.979 89.8104 75.739C90.037 75.4857 90.2037 75.019 90.3104 74.339L91.3304 67.999Z" fill="black"/>
<path d="M105.973 67.999H111.813V78.999H108.413V75.379H107.593L105.333 78.999H101.173L104.033 74.999C102.553 74.4657 101.813 73.4124 101.813 71.839C101.813 71.1457 101.94 70.539 102.193 70.019C102.447 69.4857 102.787 69.0857 103.213 68.819C103.64 68.539 104.08 68.3324 104.533 68.199C105 68.0657 105.48 67.999 105.973 67.999ZM106.193 71.039C105.567 71.039 105.253 71.2857 105.253 71.779C105.253 72.3257 105.567 72.599 106.193 72.599H108.413V71.039H106.193Z" fill="black"/>
<path d="M119.205 66.879C118.271 66.879 117.465 66.5857 116.785 65.999C116.118 65.4124 115.785 64.619 115.785 63.619V62.999H118.425V63.539C118.425 63.779 118.498 63.9724 118.645 64.119C118.791 64.2657 118.978 64.339 119.205 64.339C119.431 64.339 119.611 64.2657 119.745 64.119C119.891 63.9724 119.965 63.779 119.965 63.539V62.999H122.605V63.619C122.605 64.619 122.265 65.4124 121.585 65.999C120.918 66.5857 120.125 66.879 119.205 66.879ZM120.725 67.999H124.585V78.999H121.185V75.719L121.365 72.739L117.665 78.999H113.805V67.999H117.205V71.279L117.025 74.219L120.725 67.999Z" fill="black"/>
<path d="M135.778 67.999V71.199H132.578V78.999H129.178V71.199H125.978V67.999H132.578H135.778Z" fill="black"/>
<path d="M142.784 67.739C144.584 67.739 146.024 68.3657 147.104 69.619C148.184 70.859 148.637 72.3924 148.464 74.219H140.444C140.524 75.019 140.784 75.6257 141.224 76.039C141.677 76.439 142.224 76.639 142.864 76.639C143.33 76.639 143.737 76.5324 144.084 76.319C144.43 76.0924 144.67 75.7857 144.804 75.399H148.304C147.944 76.6924 147.264 77.659 146.264 78.299C145.277 78.939 144.144 79.259 142.864 79.259C141.13 79.259 139.717 78.7124 138.624 77.619C137.53 76.5257 136.984 75.1524 136.984 73.499C136.984 71.859 137.524 70.4924 138.604 69.399C139.697 68.2924 141.09 67.739 142.784 67.739ZM142.764 70.359C141.604 70.359 140.864 70.959 140.544 72.159H144.924C144.804 71.6124 144.557 71.179 144.184 70.859C143.824 70.5257 143.35 70.359 142.764 70.359Z" fill="black"/>
<path d="M25.48 97.399C26.6 96.2924 27.96 95.739 29.56 95.739C31.16 95.739 32.52 96.2924 33.64 97.399C34.76 98.4924 35.3201 99.859 35.3201 101.499C35.3201 103.152 34.7667 104.526 33.66 105.619C32.5534 106.712 31.1867 107.259 29.56 107.259C27.9467 107.259 26.58 106.712 25.46 105.619C24.3534 104.512 23.8 103.139 23.8 101.499C23.8 99.859 24.36 98.4924 25.48 97.399ZM31.22 99.679C30.78 99.2124 30.2267 98.979 29.56 98.979C28.8934 98.979 28.34 99.2124 27.9 99.679C27.46 100.146 27.24 100.752 27.24 101.499C27.24 102.259 27.46 102.872 27.9 103.339C28.34 103.792 28.8934 104.019 29.56 104.019C30.2267 104.019 30.78 103.792 31.22 103.339C31.66 102.872 31.88 102.259 31.88 101.499C31.88 100.752 31.66 100.146 31.22 99.679Z" fill="black"/>
<path d="M46.3251 95.999V99.199H43.125V106.999H39.725V99.199H36.525V95.999H43.125H46.3251Z" fill="black"/>
<path d="M56.2105 101.199C57.2905 101.666 57.8305 102.532 57.8305 103.799C57.8305 104.946 57.3705 105.812 56.4505 106.399C55.5305 106.972 54.3105 107.259 52.7905 107.259C49.6305 107.259 47.8105 105.919 47.3305 103.239H50.7705C50.8505 103.772 51.0372 104.146 51.3305 104.359C51.6372 104.572 52.0972 104.679 52.7105 104.679C53.3105 104.679 53.7372 104.592 53.9905 104.419C54.2572 104.246 54.3905 103.966 54.3905 103.579C54.3905 103.272 54.2972 103.046 54.1105 102.899C53.9239 102.752 53.5905 102.679 53.1105 102.679H51.4305V100.099H52.8705C53.3105 100.099 53.6172 100.032 53.7905 99.899C53.9639 99.7657 54.0505 99.5524 54.0505 99.259C54.0505 98.9257 53.9372 98.679 53.7105 98.519C53.4839 98.3457 53.1039 98.259 52.5705 98.259C51.5972 98.259 51.0572 98.659 50.9505 99.459H47.5105C47.9239 96.979 49.6239 95.739 52.6105 95.739C54.0505 95.739 55.2239 96.019 56.1305 96.579C57.0372 97.139 57.4905 97.9457 57.4905 98.999C57.4905 99.959 57.0639 100.692 56.2105 101.199Z" fill="black"/>
<path d="M65.3674 99.039C65.8741 99.039 66.3474 99.099 66.7874 99.219C67.2274 99.339 67.6541 99.539 68.0674 99.819C68.4941 100.086 68.8274 100.486 69.0674 101.019C69.3074 101.552 69.4274 102.186 69.4274 102.919C69.4274 103.652 69.3007 104.299 69.0474 104.859C68.7941 105.406 68.4541 105.832 68.0274 106.139C67.6007 106.432 67.1541 106.652 66.6874 106.799C66.2341 106.932 65.7607 106.999 65.2674 106.999H59.5274V95.999H62.9274V99.039H65.3674ZM70.7874 95.999H74.1874V106.999H70.7874V95.999ZM65.1474 103.759C65.7074 103.759 65.9874 103.479 65.9874 102.919C65.9874 102.319 65.7074 102.019 65.1474 102.019H62.9274V103.759H65.1474Z" fill="black"/>
<path d="M84.3275 101.019C85.5942 101.419 86.2276 102.346 86.2276 103.799C86.2276 104.919 85.8475 105.732 85.0876 106.239C84.3276 106.746 83.3542 106.999 82.1675 106.999H76.1875V95.999H81.6875C82.2476 95.999 82.7409 96.039 83.1675 96.119C83.6075 96.1857 84.0275 96.3124 84.4276 96.499C84.8276 96.6857 85.1342 96.9724 85.3475 97.359C85.5609 97.7324 85.6675 98.199 85.6675 98.759C85.6675 99.2924 85.5542 99.7257 85.3275 100.059C85.1009 100.392 84.7675 100.712 84.3275 101.019ZM82.2276 99.439C82.2276 99.1457 82.1609 98.939 82.0275 98.819C81.9076 98.699 81.6942 98.639 81.3876 98.639H79.5876V100.199H81.4076C81.7142 100.199 81.9276 100.146 82.0476 100.039C82.1675 99.919 82.2276 99.719 82.2276 99.439ZM81.9076 104.359C82.2276 104.359 82.4542 104.299 82.5876 104.179C82.7209 104.046 82.7876 103.812 82.7876 103.479C82.7876 103.146 82.7209 102.919 82.5876 102.799C82.4542 102.666 82.2276 102.599 81.9076 102.599H79.5876V104.359H81.9076Z" fill="black"/>
<path d="M95.4019 97.399C96.5219 96.2924 97.8819 95.739 99.4819 95.739C101.082 95.739 102.442 96.2924 103.562 97.399C104.682 98.4924 105.242 99.859 105.242 101.499C105.242 103.152 104.689 104.526 103.582 105.619C102.475 106.712 101.109 107.259 99.4819 107.259C97.8686 107.259 96.5019 106.712 95.3819 105.619C94.2753 104.512 93.7219 103.139 93.7219 101.499C93.7219 99.859 94.2819 98.4924 95.4019 97.399ZM101.142 99.679C100.702 99.2124 100.149 98.979 99.4819 98.979C98.8153 98.979 98.2619 99.2124 97.8219 99.679C97.3819 100.146 97.1619 100.752 97.1619 101.499C97.1619 102.259 97.3819 102.872 97.8219 103.339C98.2619 103.792 98.8153 104.019 99.4819 104.019C100.149 104.019 100.702 103.792 101.142 103.339C101.582 102.872 101.802 102.259 101.802 101.499C101.802 100.752 101.582 100.146 101.142 99.679Z" fill="black"/>
<path d="M122.243 95.999V99.199H119.043V106.999H115.643V99.199H112.443V95.999H119.043H122.243Z" fill="black"/>
<path d="M125.128 97.399C126.248 96.2924 127.608 95.739 129.208 95.739C130.808 95.739 132.168 96.2924 133.288 97.399C134.408 98.4924 134.968 99.859 134.968 101.499C134.968 103.152 134.415 104.526 133.308 105.619C132.202 106.712 130.835 107.259 129.208 107.259C127.595 107.259 126.228 106.712 125.108 105.619C124.002 104.512 123.448 103.139 123.448 101.499C123.448 99.859 124.008 98.4924 125.128 97.399ZM130.868 99.679C130.428 99.2124 129.875 98.979 129.208 98.979C128.542 98.979 127.988 99.2124 127.548 99.679C127.108 100.146 126.888 100.752 126.888 101.499C126.888 102.259 127.108 102.872 127.548 103.339C127.988 103.792 128.542 104.019 129.208 104.019C129.875 104.019 130.428 103.792 130.868 103.339C131.308 102.872 131.528 102.259 131.528 101.499C131.528 100.752 131.308 100.146 130.868 99.679Z" fill="black"/>
<path d="M144.913 101.019C146.18 101.419 146.813 102.346 146.813 103.799C146.813 104.919 146.433 105.732 145.673 106.239C144.913 106.746 143.94 106.999 142.753 106.999H136.773V95.999H142.273C142.833 95.999 143.327 96.039 143.753 96.119C144.193 96.1857 144.613 96.3124 145.013 96.499C145.413 96.6857 145.72 96.9724 145.933 97.359C146.147 97.7324 146.253 98.199 146.253 98.759C146.253 99.2924 146.14 99.7257 145.913 100.059C145.687 100.392 145.353 100.712 144.913 101.019ZM142.813 99.439C142.813 99.1457 142.747 98.939 142.613 98.819C142.493 98.699 142.28 98.639 141.973 98.639H140.173V100.199H141.993C142.3 100.199 142.513 100.146 142.633 100.039C142.753 99.919 142.813 99.719 142.813 99.439ZM142.493 104.359C142.813 104.359 143.04 104.299 143.173 104.179C143.307 104.046 143.373 103.812 143.373 103.479C143.373 103.146 143.307 102.919 143.173 102.799C143.04 102.666 142.813 102.599 142.493 102.599H140.173V104.359H142.493Z" fill="black"/>
<path d="M156.392 95.999H159.792L159.772 106.999H156.372V105.819C155.585 106.779 154.552 107.259 153.272 107.259C151.858 107.259 150.678 106.719 149.732 105.639C148.785 104.559 148.312 103.179 148.312 101.499C148.312 99.819 148.785 98.439 149.732 97.359C150.692 96.279 151.865 95.739 153.252 95.739C154.572 95.739 155.618 96.239 156.392 97.239V95.999ZM152.412 103.339C152.852 103.792 153.405 104.019 154.072 104.019C154.738 104.019 155.292 103.792 155.732 103.339C156.172 102.872 156.392 102.259 156.392 101.499C156.392 100.752 156.172 100.146 155.732 99.679C155.292 99.2124 154.738 98.979 154.072 98.979C153.405 98.979 152.852 99.2124 152.412 99.679C151.972 100.146 151.752 100.752 151.752 101.499C151.752 102.259 151.972 102.872 152.412 103.339Z" fill="black"/>
<path d="M168.433 95.739C169.82 95.739 170.986 96.279 171.933 97.359C172.893 98.439 173.373 99.819 173.373 101.499C173.373 103.179 172.9 104.559 171.953 105.639C171.006 106.719 169.826 107.259 168.413 107.259C167.133 107.259 166.093 106.779 165.293 105.819V111.999H161.893V95.999H165.293V97.239C166.066 96.239 167.113 95.739 168.433 95.739ZM165.953 103.339C166.393 103.792 166.946 104.019 167.613 104.019C168.28 104.019 168.833 103.792 169.273 103.339C169.713 102.872 169.933 102.259 169.933 101.499C169.933 100.752 169.713 100.146 169.273 99.679C168.833 99.2124 168.28 98.979 167.613 98.979C166.946 98.979 166.393 99.2124 165.953 99.679C165.513 100.146 165.293 100.752 165.293 101.499C165.293 102.259 165.513 102.872 165.953 103.339Z" fill="black"/>
<path d="M180.772 95.739C182.572 95.739 184.012 96.3657 185.092 97.619C186.172 98.859 186.625 100.392 186.452 102.219H178.432C178.512 103.019 178.772 103.626 179.212 104.039C179.665 104.439 180.212 104.639 180.852 104.639C181.319 104.639 181.725 104.532 182.072 104.319C182.419 104.092 182.659 103.786 182.792 103.399H186.292C185.932 104.692 185.252 105.659 184.252 106.299C183.265 106.939 182.132 107.259 180.852 107.259C179.119 107.259 177.705 106.712 176.612 105.619C175.519 104.526 174.972 103.152 174.972 101.499C174.972 99.859 175.512 98.4924 176.592 97.399C177.685 96.2924 179.079 95.739 180.772 95.739ZM180.752 98.359C179.592 98.359 178.852 98.959 178.532 100.159H182.912C182.792 99.6124 182.545 99.179 182.172 98.859C181.812 98.5257 181.339 98.359 180.752 98.359Z" fill="black"/>
<path d="M31.078 124.199H32.24V133.999H31.078V129.491H25.394V133.999H24.232V124.199H25.394V128.385H31.078V124.199Z" fill="black"/>
<path d="M40.7666 126.299H41.9286V133.999H40.7666V132.445C40.1646 133.481 39.1286 134.153 37.7986 134.153C35.6986 134.153 34.2006 132.473 34.2006 130.149C34.2006 127.811 35.7126 126.145 37.7986 126.145C39.1286 126.145 40.1786 126.831 40.7666 127.881V126.299ZM38.0226 133.047C39.5906 133.047 40.7806 131.843 40.7806 130.149C40.7806 128.455 39.5906 127.251 38.0226 127.251C36.4546 127.251 35.3766 128.469 35.3766 130.149C35.3766 131.843 36.4686 133.047 38.0226 133.047Z" fill="black"/>
<path d="M50.9829 126.299V133.999H49.8209V127.391H45.1589V133.999H43.9969V126.299H45.1589H50.9829Z" fill="black"/>
<path d="M58.5777 126.299H60.0057V133.999H58.8437V130.303L58.9137 127.713L54.4757 133.999H53.0477V126.299H54.2097V129.995L54.1397 132.571L58.5777 126.299Z" fill="black"/>
<path d="M71.0174 126.299H72.1794V133.999H71.0174H66.5374H62.5894H62.0574V126.299H63.2194V132.907H66.5374V126.299H67.6994V132.907H71.0174V126.299Z" fill="black"/>
<path d="M79.7691 126.299H81.1971V133.999H80.0351V130.303L80.1051 127.713L75.6671 133.999H74.2391V126.299H75.4011V129.995L75.3311 132.571L79.7691 126.299Z" fill="black"/>
<path d="M89.0588 126.299V127.391H86.3988V133.999H85.2368V127.391H82.5768V126.299H86.3988H89.0588Z" fill="black"/>
<path d="M93.8338 126.145C96.2278 126.145 97.7818 127.965 97.6838 130.499H91.0898C91.2018 132.095 92.3358 133.061 93.8898 133.061C94.9538 133.061 95.8358 132.613 96.2978 131.717H97.5018C96.8578 133.355 95.4578 134.153 93.8478 134.153C91.5658 134.153 89.8998 132.529 89.8998 130.177C89.8998 127.839 91.5378 126.145 93.8338 126.145ZM93.8338 127.237C92.4198 127.237 91.4118 128.147 91.1458 129.407H96.4238C96.1718 128.119 95.2198 127.237 93.8338 127.237Z" fill="black"/>
<path d="M107.247 134.153C104.993 134.153 103.271 132.445 103.271 130.149C103.271 127.853 104.993 126.145 107.247 126.145C109.039 126.145 110.579 127.223 110.985 128.987H109.781C109.417 127.895 108.437 127.223 107.247 127.223C105.623 127.223 104.447 128.455 104.447 130.149C104.447 131.857 105.637 133.075 107.247 133.075C108.437 133.075 109.417 132.389 109.781 131.311H110.985C110.565 133.103 109.011 134.153 107.247 134.153Z" fill="black"/>
<path d="M117.614 129.897C118.636 130.177 119.098 130.905 119.098 131.815C119.098 133.145 118.216 133.999 116.396 133.999H112.602V126.299H116.046C117.838 126.299 118.734 126.943 118.734 128.259C118.734 129.001 118.328 129.533 117.614 129.897ZM117.558 128.455C117.558 127.727 117.236 127.237 115.962 127.237H113.764V129.589H115.934C117.152 129.589 117.558 129.085 117.558 128.455ZM116.326 133.061C117.6 133.061 117.936 132.459 117.936 131.717C117.936 131.017 117.53 130.457 116.298 130.457H113.764V133.061H116.326Z" fill="black"/>
<path d="M124.364 126.145C126.562 126.145 128.34 127.839 128.34 130.149C128.34 132.459 126.59 134.153 124.364 134.153C122.152 134.153 120.402 132.445 120.402 130.149C120.402 127.839 122.18 126.145 124.364 126.145ZM124.364 127.251C122.824 127.251 121.578 128.441 121.578 130.149C121.578 131.843 122.81 133.047 124.364 133.047C125.932 133.047 127.164 131.843 127.164 130.149C127.164 128.455 125.918 127.251 124.364 127.251Z" fill="black"/>
<path d="M133.561 124.941C132.329 124.941 131.321 124.129 131.321 122.813V122.561H132.273V122.785C132.273 123.541 132.791 124.031 133.561 124.031C134.345 124.031 134.863 123.541 134.863 122.785V122.561H135.815V122.813C135.815 124.129 134.793 124.941 133.561 124.941ZM135.619 126.299H137.047V133.999H135.885V130.303L135.955 127.713L131.517 133.999H130.089V126.299H131.251V129.995L131.181 132.571L135.619 126.299Z" fill="black"/>
<path d="M148.896 126.299H150.142L144.948 137.499H143.702L145.746 133.061L142.624 126.299H143.87L146.362 131.815L148.896 126.299Z" fill="black"/>
<path d="M157.434 126.299H158.596V133.999H157.434V130.611H152.702V133.999H151.54V126.299H152.702V129.505H157.434V126.299Z" fill="black"/>
<path d="M166.203 126.299H167.631V133.999H166.469V130.303L166.539 127.713L162.101 133.999H160.673V126.299H161.835V129.995L161.765 132.571L166.203 126.299Z" fill="black"/>
<path d="M176.486 133.999H174.96L170.844 130.289V133.999H169.682V126.299H170.844V129.729L174.596 126.299H176.122L172.076 129.953L176.486 133.999Z" fill="black"/>
<path d="M183.405 126.299H184.567V133.999H183.405V132.445C182.803 133.481 181.767 134.153 180.437 134.153C178.337 134.153 176.839 132.473 176.839 130.149C176.839 127.811 178.351 126.145 180.437 126.145C181.767 126.145 182.817 126.831 183.405 127.881V126.299ZM180.661 133.047C182.229 133.047 183.419 131.843 183.419 130.149C183.419 128.455 182.229 127.251 180.661 127.251C179.093 127.251 178.015 128.469 178.015 130.149C178.015 131.843 179.107 133.047 180.661 133.047Z" fill="black"/>
<path d="M188.376 126.299H193.611V133.999H192.45V127.391H189.355L188.781 131.003C188.403 133.327 187.648 134.153 186.43 134.153C186.234 134.153 185.995 134.139 185.799 134.111V133.047C185.926 133.061 186.079 133.075 186.206 133.075C186.99 133.075 187.354 132.613 187.633 130.933L188.376 126.299Z" fill="black"/>
<path d="M199.34 128.847C201.076 128.847 202.056 129.687 202.056 131.381C202.056 133.061 201.02 133.999 199.284 133.999H195.686V126.299H196.848V128.847H199.34ZM199.256 132.893C200.516 132.893 200.88 132.221 200.88 131.381C200.88 130.513 200.544 129.883 199.284 129.883H196.848V132.893H199.256Z" fill="black"/>
<path d="M209.701 126.299H210.863V133.999H209.701V130.611H204.969V133.999H203.807V126.299H204.969V129.505H209.701V126.299Z" fill="black"/>
<path d="M216.58 128.847C218.316 128.847 219.296 129.687 219.296 131.381C219.296 133.061 218.26 133.999 216.524 133.999H212.94V126.299H214.102V128.847H216.58ZM220.514 126.299H221.676V133.999H220.514V126.299ZM216.51 132.893C217.77 132.893 218.12 132.221 218.12 131.381C218.12 130.513 217.784 129.883 216.524 129.883H214.102V132.893H216.51Z" fill="black"/>
<path d="M227.227 124.941C225.995 124.941 224.987 124.129 224.987 122.813V122.561H225.939V122.785C225.939 123.541 226.457 124.031 227.227 124.031C228.011 124.031 228.529 123.541 228.529 122.785V122.561H229.481V122.813C229.481 124.129 228.459 124.941 227.227 124.941ZM229.285 126.299H230.713V133.999H229.551V130.303L229.621 127.713L225.183 133.999H223.755V126.299H224.917V129.995L224.847 132.571L229.285 126.299Z" fill="black"/>
<path d="M243.766 133.999H242.24L238.124 130.289V133.999H236.962V126.299H238.124V129.729L241.876 126.299H243.402L239.356 129.953L243.766 133.999Z" fill="black"/>
<path d="M248.081 126.145C250.279 126.145 252.057 127.839 252.057 130.149C252.057 132.459 250.307 134.153 248.081 134.153C245.869 134.153 244.119 132.445 244.119 130.149C244.119 127.839 245.897 126.145 248.081 126.145ZM248.081 127.251C246.541 127.251 245.295 128.441 245.295 130.149C245.295 131.843 246.527 133.047 248.081 133.047C249.649 133.047 250.881 131.843 250.881 130.149C250.881 128.455 249.635 127.251 248.081 127.251Z" fill="black"/>
<path d="M260.708 132.907H262.108V136.057H260.946V133.999H259.546H253.68V136.057H252.518V132.907H253.834C254.254 132.613 254.548 131.899 254.772 130.485L255.444 126.299H260.708V132.907ZM255.136 132.907H259.546V127.391H256.438L255.934 130.513C255.738 131.717 255.486 132.459 255.136 132.907Z" fill="black"/>
<path d="M265.697 133.411C265.711 133.635 265.669 133.943 264.535 136.407H263.709L264.633 134.125C264.297 134.041 264.073 133.761 264.073 133.383C264.073 132.907 264.423 132.585 264.885 132.585C265.221 132.585 265.683 132.767 265.697 133.411Z" fill="black"/>
<path d="M31.022 147.299V154.999H29.86V148.391H25.198V154.999H24.036V147.299H25.198H31.022Z" fill="black"/>
<path d="M36.7407 147.145C38.9387 147.145 40.7167 148.839 40.7167 151.149C40.7167 153.459 38.9667 155.153 36.7407 155.153C34.5287 155.153 32.7787 153.445 32.7787 151.149C32.7787 148.839 34.5567 147.145 36.7407 147.145ZM36.7407 148.251C35.2007 148.251 33.9547 149.441 33.9547 151.149C33.9547 152.843 35.1867 154.047 36.7407 154.047C38.3087 154.047 39.5407 152.843 39.5407 151.149C39.5407 149.455 38.2947 148.251 36.7407 148.251Z" fill="black"/>
<path d="M43.8911 147.299H49.1271V154.999H47.9651V148.391H44.8711L44.2971 152.003C43.9191 154.327 43.1631 155.153 41.9451 155.153C41.7491 155.153 41.5111 155.139 41.3151 155.111V154.047C41.4411 154.061 41.5951 154.075 41.7211 154.075C42.5051 154.075 42.8691 153.613 43.1491 151.933L43.8911 147.299Z" fill="black"/>
<path d="M56.802 147.299H58.048L52.854 158.499H51.608L53.652 154.061L50.53 147.299H51.776L54.268 152.815L56.802 147.299Z" fill="black"/>
<path d="M64.5942 147.299H65.7562V154.999H64.5942V152.213C64.0062 152.465 63.1942 152.647 62.3262 152.647C60.5342 152.647 59.3302 151.849 59.3302 149.805V147.299H60.4922V149.539C60.4922 150.995 61.0662 151.597 62.5222 151.597C63.2642 151.597 64.1182 151.443 64.5942 151.149V147.299Z" fill="black"/>
<path d="M71.453 147.145C73.847 147.145 75.401 148.965 75.303 151.499H68.709C68.821 153.095 69.955 154.061 71.509 154.061C72.573 154.061 73.455 153.613 73.917 152.717H75.121C74.477 154.355 73.077 155.153 71.467 155.153C69.185 155.153 67.519 153.529 67.519 151.177C67.519 148.839 69.157 147.145 71.453 147.145ZM71.453 148.237C70.039 148.237 69.031 149.147 68.765 150.407H74.043C73.791 149.119 72.839 148.237 71.453 148.237Z" fill="black"/>
<path d="M82.8948 147.299H84.0568V154.999H82.8948V151.611H78.1628V154.999H77.0008V147.299H78.1628V150.505H82.8948V147.299Z" fill="black"/>
<path d="M92.0276 147.299H93.1896V154.999H92.0276V151.611H87.2956V154.999H86.1336V147.299H87.2956V150.505H92.0276V147.299Z" fill="black"/>
<path d="M98.9064 149.847C100.642 149.847 101.622 150.687 101.622 152.381C101.622 154.061 100.586 154.999 98.8504 154.999H95.2664V147.299H96.4284V149.847H98.9064ZM102.84 147.299H104.002V154.999H102.84V147.299ZM98.8364 153.893C100.096 153.893 100.446 153.221 100.446 152.381C100.446 151.513 100.11 150.883 98.8504 150.883H96.4284V153.893H98.8364Z" fill="black"/>
<path d="M109.553 145.941C108.321 145.941 107.313 145.129 107.313 143.813V143.561H108.265V143.785C108.265 144.541 108.783 145.031 109.553 145.031C110.337 145.031 110.855 144.541 110.855 143.785V143.561H111.807V143.813C111.807 145.129 110.785 145.941 109.553 145.941ZM111.611 147.299H113.039V154.999H111.877V151.303L111.947 148.713L107.509 154.999H106.081V147.299H107.243V150.995L107.173 153.571L111.611 147.299Z" fill="black"/>
<path d="M126.274 147.299V154.999H125.112V148.391H120.45V154.999H119.288V147.299H120.45H126.274Z" fill="black"/>
<path d="M132.539 147.145C134.625 147.145 136.137 148.811 136.137 151.149C136.137 153.473 134.625 155.153 132.525 155.153C131.195 155.153 130.159 154.481 129.571 153.445V158.499H128.409V147.299H129.571V148.881C130.159 147.831 131.209 147.145 132.539 147.145ZM132.315 154.047C133.869 154.047 134.961 152.843 134.961 151.149C134.961 149.469 133.869 148.251 132.315 148.251C130.747 148.251 129.557 149.455 129.557 151.149C129.557 152.843 130.747 154.047 132.315 154.047Z" fill="black"/>
<path d="M143.425 147.299H144.853V154.999H143.691V151.303L143.761 148.713L139.323 154.999H137.895V147.299H139.057V150.995L138.987 153.571L143.425 147.299Z" fill="black"/>
<path d="M155.302 147.145C157.388 147.145 158.9 148.811 158.9 151.149C158.9 153.473 157.388 155.153 155.288 155.153C153.958 155.153 152.922 154.481 152.334 153.445V158.499H151.172V147.299H152.334V148.881C152.922 147.831 153.972 147.145 155.302 147.145ZM155.078 154.047C156.632 154.047 157.724 152.843 157.724 151.149C157.724 149.469 156.632 148.251 155.078 148.251C153.51 148.251 152.32 149.455 152.32 151.149C152.32 152.843 153.51 154.047 155.078 154.047Z" fill="black"/>
<path d="M164.285 147.145C166.679 147.145 168.233 148.965 168.135 151.499H161.541C161.653 153.095 162.787 154.061 164.341 154.061C165.405 154.061 166.287 153.613 166.749 152.717H167.953C167.309 154.355 165.909 155.153 164.299 155.153C162.017 155.153 160.351 153.529 160.351 151.177C160.351 148.839 161.989 147.145 164.285 147.145ZM164.285 148.237C162.871 148.237 161.863 149.147 161.597 150.407H166.875C166.623 149.119 165.671 148.237 164.285 148.237Z" fill="black"/>
<path d="M174.845 147.299V148.391H170.995V154.999H169.833V147.299H174.845Z" fill="black"/>
<path d="M181.775 147.299H183.203V154.999H182.041V151.303L182.111 148.713L177.673 154.999H176.245V147.299H177.407V150.995L177.337 153.571L181.775 147.299Z" fill="black"/>
<path d="M188.923 155.153C186.669 155.153 184.947 153.445 184.947 151.149C184.947 148.853 186.669 147.145 188.923 147.145C190.715 147.145 192.255 148.223 192.661 149.987H191.457C191.093 148.895 190.113 148.223 188.923 148.223C187.299 148.223 186.123 149.455 186.123 151.149C186.123 152.857 187.313 154.075 188.923 154.075C190.113 154.075 191.093 153.389 191.457 152.311H192.661C192.241 154.103 190.687 155.153 188.923 155.153Z" fill="black"/>
<path d="M199.842 147.299V148.391H197.182V154.999H196.02V148.391H193.36V147.299H197.182H199.842Z" fill="black"/>
<path d="M205.437 147.145C207.523 147.145 209.035 148.811 209.035 151.149C209.035 153.473 207.523 155.153 205.423 155.153C204.093 155.153 203.057 154.481 202.469 153.445V158.499H201.307V147.299H202.469V148.881C203.057 147.831 204.107 147.145 205.437 147.145ZM205.213 154.047C206.767 154.047 207.859 152.843 207.859 151.149C207.859 149.469 206.767 148.251 205.213 148.251C203.645 148.251 202.455 149.455 202.455 151.149C202.455 152.843 203.645 154.047 205.213 154.047Z" fill="black"/>
<path d="M217.052 147.299H218.214V154.999H217.052V153.445C216.45 154.481 215.414 155.153 214.084 155.153C211.984 155.153 210.486 153.473 210.486 151.149C210.486 148.811 211.998 147.145 214.084 147.145C215.414 147.145 216.464 147.831 217.052 148.881V147.299ZM214.308 154.047C215.876 154.047 217.066 152.843 217.066 151.149C217.066 149.455 215.876 148.251 214.308 148.251C212.74 148.251 211.662 149.469 211.662 151.149C211.662 152.843 212.754 154.047 214.308 154.047Z" fill="black"/>
<path d="M227.072 153.907H228.472V157.057H227.31V154.999H225.91H220.66H220.282V147.299H221.444V153.907H225.91V147.299H227.072V153.907Z" fill="black"/>
<path d="M235.396 147.299H236.824V154.999H235.662V151.303L235.732 148.713L231.294 154.999H229.866V147.299H231.028V150.995L230.958 153.571L235.396 147.299Z" fill="black"/>
<path d="M244.406 147.299H245.834V154.999H244.672V151.303L244.742 148.713L240.304 154.999H238.876V147.299H240.038V150.995L239.968 153.571L244.406 147.299Z" fill="black"/>
<path d="M250.07 154.411C250.084 154.635 250.042 154.943 248.908 157.407H248.082L249.006 155.125C248.67 155.041 248.446 154.761 248.446 154.383C248.446 153.907 248.796 153.585 249.258 153.585C249.594 153.585 250.056 153.767 250.07 154.411Z" fill="black"/>
<path d="M28.026 168.425C30.056 168.425 31.582 169.923 31.582 172.177C31.582 174.571 29.874 176.153 27.676 176.153C25.52 176.153 23.756 174.655 23.728 171.687C23.728 166.059 26.22 165.065 30.672 165.065V166.157C26.892 166.157 25.184 166.829 24.932 170.287C25.506 169.055 26.738 168.425 28.026 168.425ZM27.634 175.145C29.188 175.145 30.42 173.997 30.42 172.233C30.42 170.553 29.286 169.433 27.76 169.433C26.248 169.433 24.904 170.525 24.904 172.219C24.904 173.997 26.08 175.145 27.634 175.145Z" fill="black"/>
<path d="M36.9725 168.145C39.3665 168.145 40.9205 169.965 40.8225 172.499H34.2285C34.3405 174.095 35.4745 175.061 37.0285 175.061C38.0925 175.061 38.9745 174.613 39.4365 173.717H40.6405C39.9965 175.355 38.5965 176.153 36.9865 176.153C34.7045 176.153 33.0385 174.529 33.0385 172.177C33.0385 169.839 34.6765 168.145 36.9725 168.145ZM36.9725 169.237C35.5585 169.237 34.5505 170.147 34.2845 171.407H39.5625C39.3105 170.119 38.3585 169.237 36.9725 169.237Z" fill="black"/>
<path d="M47.5463 171.925C48.4843 172.233 48.8763 173.003 48.8763 173.843C48.8763 175.229 47.6723 176.153 45.6563 176.153C43.3603 176.153 42.2543 175.117 41.9463 173.507H43.1223C43.3883 174.725 44.2283 175.243 45.6143 175.243C47.0703 175.243 47.7003 174.599 47.7003 173.759C47.7003 173.157 47.4203 172.471 46.0903 172.471H44.5363V171.547H45.7683C47.0703 171.547 47.4483 171.057 47.4483 170.413C47.4483 169.685 46.9303 169.041 45.5023 169.041C44.5363 169.041 43.6403 169.377 43.3603 170.371H42.1843C42.4923 169.027 43.5703 168.145 45.5303 168.145C47.5043 168.145 48.6243 169.055 48.6243 170.343C48.6243 171.099 48.2463 171.631 47.5463 171.925Z" fill="black"/>
<path d="M61.6743 168.299V175.999H60.5123V169.391H55.8503V175.999H54.6883V168.299H55.8503H61.6743Z" fill="black"/>
<path d="M67.9391 168.145C70.0251 168.145 71.5371 169.811 71.5371 172.149C71.5371 174.473 70.0251 176.153 67.9251 176.153C66.5951 176.153 65.5591 175.481 64.9711 174.445V179.499H63.8091V168.299H64.9711V169.881C65.5591 168.831 66.6091 168.145 67.9391 168.145ZM67.7151 175.047C69.2691 175.047 70.3611 173.843 70.3611 172.149C70.3611 170.469 69.2691 169.251 67.7151 169.251C66.1471 169.251 64.9571 170.455 64.9571 172.149C64.9571 173.843 66.1471 175.047 67.7151 175.047Z" fill="black"/>
<path d="M76.9497 168.145C79.1477 168.145 80.9257 169.839 80.9257 172.149C80.9257 174.459 79.1757 176.153 76.9497 176.153C74.7377 176.153 72.9877 174.445 72.9877 172.149C72.9877 169.839 74.7657 168.145 76.9497 168.145ZM76.9497 169.251C75.4097 169.251 74.1637 170.441 74.1637 172.149C74.1637 173.843 75.3957 175.047 76.9497 175.047C78.5177 175.047 79.7497 173.843 79.7497 172.149C79.7497 170.455 78.5037 169.251 76.9497 169.251Z" fill="black"/>
<path d="M86.6646 168.425C88.6946 168.425 90.2206 169.923 90.2206 172.177C90.2206 174.571 88.5126 176.153 86.3146 176.153C84.1586 176.153 82.3946 174.655 82.3666 171.687C82.3666 166.059 84.8586 165.065 89.3106 165.065V166.157C85.5306 166.157 83.8226 166.829 83.5706 170.287C84.1446 169.055 85.3766 168.425 86.6646 168.425ZM86.2726 175.145C87.8266 175.145 89.0586 173.997 89.0586 172.233C89.0586 170.553 87.9246 169.433 86.3986 169.433C84.8866 169.433 83.5426 170.525 83.5426 172.219C83.5426 173.997 84.7186 175.145 86.2726 175.145Z" fill="black"/>
<path d="M95.6112 168.145C98.0052 168.145 99.5592 169.965 99.4612 172.499H92.8672C92.9792 174.095 94.1132 175.061 95.6672 175.061C96.7312 175.061 97.6132 174.613 98.0752 173.717H99.2792C98.6352 175.355 97.2352 176.153 95.6252 176.153C93.3432 176.153 91.6772 174.529 91.6772 172.177C91.6772 169.839 93.3152 168.145 95.6112 168.145ZM95.6112 169.237C94.1972 169.237 93.1892 170.147 92.9232 171.407H98.2012C97.9492 170.119 96.9972 169.237 95.6112 169.237Z" fill="black"/>
<path d="M102.817 168.299H108.053V175.999H106.891V169.391H103.797L103.223 173.003C102.845 175.327 102.089 176.153 100.871 176.153C100.675 176.153 100.437 176.139 100.241 176.111V175.047C100.367 175.061 100.521 175.075 100.647 175.075C101.431 175.075 101.795 174.613 102.075 172.933L102.817 168.299Z" fill="black"/>
<path d="M113.782 168.145C115.98 168.145 117.758 169.839 117.758 172.149C117.758 174.459 116.008 176.153 113.782 176.153C111.57 176.153 109.82 174.445 109.82 172.149C109.82 169.839 111.598 168.145 113.782 168.145ZM113.782 169.251C112.242 169.251 110.996 170.441 110.996 172.149C110.996 173.843 112.228 175.047 113.782 175.047C115.35 175.047 116.582 173.843 116.582 172.149C116.582 170.455 115.336 169.251 113.782 169.251Z" fill="black"/>
<path d="M124.519 171.897C125.541 172.177 126.003 172.905 126.003 173.815C126.003 175.145 125.121 175.999 123.301 175.999H119.507V168.299H122.951C124.743 168.299 125.639 168.943 125.639 170.259C125.639 171.001 125.233 171.533 124.519 171.897ZM124.463 170.455C124.463 169.727 124.141 169.237 122.867 169.237H120.669V171.589H122.839C124.057 171.589 124.463 171.085 124.463 170.455ZM123.231 175.061C124.505 175.061 124.841 174.459 124.841 173.717C124.841 173.017 124.435 172.457 123.203 172.457H120.669V175.061H123.231Z" fill="black"/>
<path d="M136.823 171.897C137.845 172.177 138.307 172.905 138.307 173.815C138.307 175.145 137.425 175.999 135.605 175.999H131.811V168.299H135.255C137.047 168.299 137.943 168.943 137.943 170.259C137.943 171.001 137.537 171.533 136.823 171.897ZM136.767 170.455C136.767 169.727 136.445 169.237 135.171 169.237H132.973V171.589H135.143C136.361 171.589 136.767 171.085 136.767 170.455ZM135.535 175.061C136.809 175.061 137.145 174.459 137.145 173.717C137.145 173.017 136.739 172.457 135.507 172.457H132.973V175.061H135.535Z" fill="black"/>
<path d="M147.77 168.145C149.968 168.145 151.746 169.839 151.746 172.149C151.746 174.459 149.996 176.153 147.77 176.153C145.558 176.153 143.808 174.445 143.808 172.149C143.808 169.839 145.586 168.145 147.77 168.145ZM147.77 169.251C146.23 169.251 144.984 170.441 144.984 172.149C144.984 173.843 146.216 175.047 147.77 175.047C149.338 175.047 150.57 173.843 150.57 172.149C150.57 170.455 149.324 169.251 147.77 169.251Z" fill="black"/>
<path d="M159.059 168.299V169.391H156.399V175.999H155.237V169.391H152.577V168.299H156.399H159.059Z" fill="black"/>
<path d="M165.234 171.925C166.172 172.233 166.564 173.003 166.564 173.843C166.564 175.229 165.36 176.153 163.344 176.153C161.048 176.153 159.942 175.117 159.634 173.507H160.81C161.076 174.725 161.916 175.243 163.302 175.243C164.758 175.243 165.388 174.599 165.388 173.759C165.388 173.157 165.108 172.471 163.778 172.471H162.224V171.547H163.456C164.758 171.547 165.136 171.057 165.136 170.413C165.136 169.685 164.618 169.041 163.19 169.041C162.224 169.041 161.328 169.377 161.048 170.371H159.872C160.18 169.027 161.258 168.145 163.218 168.145C165.192 168.145 166.312 169.055 166.312 170.343C166.312 171.099 165.934 171.631 165.234 171.925Z" fill="black"/>
<path d="M171.819 170.847C173.555 170.847 174.535 171.687 174.535 173.381C174.535 175.061 173.499 175.999 171.763 175.999H168.179V168.299H169.341V170.847H171.819ZM175.753 168.299H176.915V175.999H175.753V168.299ZM171.749 174.893C173.009 174.893 173.359 174.221 173.359 173.381C173.359 172.513 173.023 171.883 171.763 171.883H169.341V174.893H171.749Z" fill="black"/>
<path d="M184.005 171.897C185.027 172.177 185.489 172.905 185.489 173.815C185.489 175.145 184.607 175.999 182.787 175.999H178.993V168.299H182.437C184.229 168.299 185.125 168.943 185.125 170.259C185.125 171.001 184.719 171.533 184.005 171.897ZM183.949 170.455C183.949 169.727 183.627 169.237 182.353 169.237H180.155V171.589H182.325C183.543 171.589 183.949 171.085 183.949 170.455ZM182.717 175.061C183.991 175.061 184.327 174.459 184.327 173.717C184.327 173.017 183.921 172.457 182.689 172.457H180.155V175.061H182.717Z" fill="black"/>
<path d="M190.672 168.145C193.066 168.145 194.62 169.965 194.522 172.499H187.928C188.04 174.095 189.174 175.061 190.728 175.061C191.792 175.061 192.674 174.613 193.136 173.717H194.34C193.696 175.355 192.296 176.153 190.686 176.153C188.404 176.153 186.738 174.529 186.738 172.177C186.738 169.839 188.376 168.145 190.672 168.145ZM190.672 169.237C189.258 169.237 188.25 170.147 187.984 171.407H193.262C193.01 170.119 192.058 169.237 190.672 169.237Z" fill="black"/>
<path d="M27.69 189.145C29.888 189.145 31.666 190.839 31.666 193.149C31.666 195.459 29.916 197.153 27.69 197.153C25.478 197.153 23.728 195.445 23.728 193.149C23.728 190.839 25.506 189.145 27.69 189.145ZM27.69 190.251C26.15 190.251 24.904 191.441 24.904 193.149C24.904 194.843 26.136 196.047 27.69 196.047C29.258 196.047 30.49 194.843 30.49 193.149C30.49 191.455 29.244 190.251 27.69 190.251Z" fill="black"/>
<path d="M44.4161 196.999H42.8901L38.7741 193.289V196.999H37.6121V189.299H38.7741V192.729L42.5261 189.299H44.0521L40.0061 192.953L44.4161 196.999Z" fill="black"/>
<path d="M51.2512 189.299H52.4972L47.3032 200.499H46.0572L48.1012 196.061L44.9792 189.299H46.2252L48.7172 194.815L51.2512 189.299Z" fill="black"/>
<path d="M60.8813 189.299V196.999H59.7193V190.391H55.0573V196.999H53.8953V189.299H55.0573H60.8813Z" fill="black"/>
<path d="M64.8501 189.299H70.0861V196.999H68.9241V190.391H65.8301L65.2561 194.003C64.8781 196.327 64.1221 197.153 62.9041 197.153C62.7081 197.153 62.4701 197.139 62.2741 197.111V196.047C62.4001 196.061 62.5541 196.075 62.6801 196.075C63.4641 196.075 63.8281 195.613 64.1081 193.933L64.8501 189.299Z" fill="black"/>
<path d="M75.7869 189.145C78.181 189.145 79.735 190.965 79.637 193.499H73.0429C73.1549 195.095 74.2889 196.061 75.8429 196.061C76.9069 196.061 77.7889 195.613 78.2509 194.717H79.455C78.811 196.355 77.4109 197.153 75.8009 197.153C73.5189 197.153 71.853 195.529 71.853 193.177C71.853 190.839 73.4909 189.145 75.7869 189.145ZM75.7869 190.237C74.3729 190.237 73.3649 191.147 73.0989 192.407H78.3769C78.125 191.119 77.173 190.237 75.7869 190.237Z" fill="black"/>
<path d="M87.2288 189.299H88.3908V196.999H87.2288V193.611H82.4968V196.999H81.3348V189.299H82.4968V192.505H87.2288V189.299Z" fill="black"/>
<path d="M96.3616 189.299H97.5236V196.999H96.3616V193.611H91.6296V196.999H90.4676V189.299H91.6296V192.505H96.3616V189.299Z" fill="black"/>
<path d="M103.254 189.145C105.452 189.145 107.23 190.839 107.23 193.149C107.23 195.459 105.48 197.153 103.254 197.153C101.042 197.153 99.2924 195.445 99.2924 193.149C99.2924 190.839 101.07 189.145 103.254 189.145ZM103.254 190.251C101.714 190.251 100.468 191.441 100.468 193.149C100.468 194.843 101.7 196.047 103.254 196.047C104.822 196.047 106.054 194.843 106.054 193.149C106.054 191.455 104.808 190.251 103.254 190.251Z" fill="black"/>
<path d="M115.531 189.299H116.959V196.999H115.797V193.303L115.867 190.587L112.983 194.661H112.941L110.057 190.587L110.141 193.303V196.999H108.979V189.299H110.407L112.969 192.883L115.531 189.299Z" fill="black"/>
<path d="M130.211 189.299V196.999H129.049V190.391H124.387V196.999H123.225V189.299H124.387H130.211Z" fill="black"/>
<path d="M136.476 189.145C138.562 189.145 140.074 190.811 140.074 193.149C140.074 195.473 138.562 197.153 136.462 197.153C135.132 197.153 134.096 196.481 133.508 195.445V200.499H132.346V189.299H133.508V190.881C134.096 189.831 135.146 189.145 136.476 189.145ZM136.252 196.047C137.806 196.047 138.898 194.843 138.898 193.149C138.898 191.469 137.806 190.251 136.252 190.251C134.684 190.251 133.494 191.455 133.494 193.149C133.494 194.843 134.684 196.047 136.252 196.047Z" fill="black"/>
<path d="M145.487 189.145C147.685 189.145 149.463 190.839 149.463 193.149C149.463 195.459 147.713 197.153 145.487 197.153C143.275 197.153 141.525 195.445 141.525 193.149C141.525 190.839 143.303 189.145 145.487 189.145ZM145.487 190.251C143.947 190.251 142.701 191.441 142.701 193.149C142.701 194.843 143.933 196.047 145.487 196.047C147.055 196.047 148.287 194.843 148.287 193.149C148.287 191.455 147.041 190.251 145.487 190.251Z" fill="black"/>
<path d="M158.115 195.907H159.514V199.057H158.353V196.999H156.952H151.087V199.057H149.924V195.907H151.24C151.66 195.613 151.954 194.899 152.178 193.485L152.85 189.299H158.115V195.907ZM152.542 195.907H156.952V190.391H153.844L153.34 193.513C153.145 194.717 152.893 195.459 152.542 195.907Z" fill="black"/>
<path d="M166.355 189.299H167.601L162.407 200.499H161.161L163.205 196.061L160.083 189.299H161.329L163.821 194.815L166.355 189.299Z" fill="black"/>
<path d="M175.803 196.999H174.277L170.161 193.289V196.999H168.999V189.299H170.161V192.729L173.913 189.299H175.439L171.393 192.953L175.803 196.999Z" fill="black"/>
<path d="M183.012 189.299V190.391H180.352V196.999H179.19V190.391H176.53V189.299H180.352H183.012Z" fill="black"/>
<path d="M187.787 189.145C190.181 189.145 191.735 190.965 191.637 193.499H185.043C185.155 195.095 186.289 196.061 187.843 196.061C188.907 196.061 189.789 195.613 190.251 194.717H191.455C190.811 196.355 189.411 197.153 187.801 197.153C185.519 197.153 183.853 195.529 183.853 193.177C183.853 190.839 185.491 189.145 187.787 189.145ZM187.787 190.237C186.373 190.237 185.365 191.147 185.099 192.407H190.377C190.125 191.119 189.173 190.237 187.787 190.237Z" fill="black"/>
<path d="M203.426 189.299H204.588V196.999H203.426V193.611H198.694V196.999H197.532V189.299H198.694V192.505H203.426V189.299Z" fill="black"/>
<path d="M212.923 189.299H214.085V196.999H212.923V195.445C212.321 196.481 211.285 197.153 209.955 197.153C207.855 197.153 206.357 195.473 206.357 193.149C206.357 190.811 207.869 189.145 209.955 189.145C211.285 189.145 212.335 189.831 212.923 190.881V189.299ZM210.179 196.047C211.747 196.047 212.937 194.843 212.937 193.149C212.937 191.455 211.747 190.251 210.179 190.251C208.611 190.251 207.533 191.469 207.533 193.149C207.533 194.843 208.625 196.047 210.179 196.047Z" fill="black"/>
<path d="M225.194 187.045C228.036 187.045 230.234 189.215 230.234 192.099C230.234 194.983 228.036 197.153 225.18 197.153C222.338 197.153 220.126 194.983 220.126 192.099C220.126 189.215 222.338 187.045 225.194 187.045ZM225.18 188.151C222.996 188.151 221.302 189.845 221.302 192.099C221.302 194.353 222.996 196.047 225.18 196.047C227.364 196.047 229.058 194.367 229.058 192.099C229.058 189.831 227.364 188.151 225.18 188.151Z" fill="black"/>
<path d="M233.007 195.907L237.935 195.893V196.999H231.537V195.893L236.409 190.391L231.803 190.405V189.299H237.893V190.405L233.007 195.907Z" fill="black"/>
<path d="M243.2 189.145C245.398 189.145 247.176 190.839 247.176 193.149C247.176 195.459 245.426 197.153 243.2 197.153C240.988 197.153 239.238 195.445 239.238 193.149C239.238 190.839 241.016 189.145 243.2 189.145ZM243.2 190.251C241.66 190.251 240.414 191.441 240.414 193.149C240.414 194.843 241.646 196.047 243.2 196.047C244.768 196.047 246 194.843 246 193.149C246 191.455 244.754 190.251 243.2 190.251Z" fill="black"/>
<path d="M252.845 189.145C254.581 189.145 255.631 190.237 255.631 192.113V196.999H254.469V192.337C254.469 190.951 253.783 190.251 252.523 190.251C250.955 190.251 250.087 191.357 250.087 193.051V196.999H248.925V189.299H250.087V190.825C250.605 189.789 251.501 189.145 252.845 189.145Z" fill="black"/>
<path d="M259.804 196.411C259.818 196.635 259.776 196.943 258.642 199.407H257.816L258.74 197.125C258.404 197.041 258.18 196.761 258.18 196.383C258.18 195.907 258.53 195.585 258.992 195.585C259.328 195.585 259.79 195.767 259.804 196.411Z" fill="black"/>
<path d="M35.278 208.199H36.482L33.752 217.999H32.282L31.288 214.457L30.084 209.599H29.874L28.67 214.457L27.69 217.999H26.206L23.476 208.199H24.68L25.982 212.889L26.962 216.809L27.928 212.889L29.23 208.199H30.728L32.03 212.889L33.01 216.823L33.99 212.889L35.278 208.199Z" fill="black"/>
<path d="M38.3368 206.911C38.7988 206.911 39.1488 207.247 39.1488 207.681C39.1488 208.129 38.7988 208.465 38.3368 208.465C37.8748 208.465 37.5248 208.129 37.5248 207.681C37.5248 207.247 37.8748 206.911 38.3368 206.911ZM37.7488 217.999V210.299H38.9108V217.999H37.7488Z" fill="black"/>
<path d="M41.0174 217.999V207.219H42.1794V217.999H41.0174Z" fill="black"/>
<path d="M50.5296 207.219H51.6916V217.999H50.5296V216.445C49.9416 217.481 48.8916 218.153 47.5616 218.153C45.4616 218.153 43.9636 216.473 43.9636 214.149C43.9636 211.811 45.4756 210.145 47.5616 210.145C48.8916 210.145 49.9416 210.831 50.5296 211.881V207.219ZM47.7856 217.047C49.3536 217.047 50.5436 215.843 50.5436 214.149C50.5436 212.455 49.3536 211.251 47.7856 211.251C46.2316 211.251 45.1396 212.469 45.1396 214.149C45.1396 215.843 46.2316 217.047 47.7856 217.047Z" fill="black"/>
<path d="M57.8886 210.145C59.9746 210.145 61.4866 211.811 61.4866 214.149C61.4866 216.473 59.9746 218.153 57.8746 218.153C56.5446 218.153 55.5086 217.481 54.9206 216.445V217.999H53.7586V207.219H54.9206V211.881C55.5086 210.831 56.5586 210.145 57.8886 210.145ZM57.6646 217.047C59.2186 217.047 60.3106 215.843 60.3106 214.149C60.3106 212.469 59.2186 211.251 57.6646 211.251C56.0966 211.251 54.9066 212.455 54.9066 214.149C54.9066 215.843 56.0966 217.047 57.6646 217.047Z" fill="black"/>
<path d="M66.8729 210.145C69.2669 210.145 70.8209 211.965 70.7229 214.499H64.1289C64.2409 216.095 65.3749 217.061 66.9289 217.061C67.9929 217.061 68.8749 216.613 69.3369 215.717H70.5409C69.8969 217.355 68.4969 218.153 66.8869 218.153C64.6049 218.153 62.9389 216.529 62.9389 214.177C62.9389 211.839 64.5769 210.145 66.8729 210.145ZM66.8729 211.237C65.4589 211.237 64.4509 212.147 64.1849 213.407H69.4629C69.2109 212.119 68.2589 211.237 66.8729 211.237Z" fill="black"/>
<path d="M76.3267 210.145C76.5087 210.145 76.6907 210.159 76.8027 210.173V211.363C76.6767 211.349 76.5087 211.335 76.3127 211.335C74.7027 211.335 73.5827 212.385 73.5827 214.359V217.999H72.4207V210.299H73.5827V212.021C74.0447 210.873 74.9687 210.145 76.3267 210.145Z" fill="black"/>
<path d="M82.1099 210.145C82.2919 210.145 82.4739 210.159 82.5859 210.173V211.363C82.4599 211.349 82.2919 211.335 82.0959 211.335C80.4859 211.335 79.3659 212.385 79.3659 214.359V217.999H78.2039V210.299H79.3659V212.021C79.8279 210.873 80.7519 210.145 82.1099 210.145Z" fill="black"/>
<path d="M84.5751 206.911C85.0371 206.911 85.3871 207.247 85.3871 207.681C85.3871 208.129 85.0371 208.465 84.5751 208.465C84.1131 208.465 83.7631 208.129 83.7631 207.681C83.7631 207.247 84.1131 206.911 84.5751 206.911ZM83.9871 217.999V210.299H85.1491V217.999H83.9871Z" fill="black"/>
<path d="M90.8397 210.145C93.2337 210.145 94.7877 211.965 94.6897 214.499H88.0957C88.2077 216.095 89.3417 217.061 90.8957 217.061C91.9597 217.061 92.8417 216.613 93.3037 215.717H94.5077C93.8637 217.355 92.4637 218.153 90.8537 218.153C88.5717 218.153 86.9057 216.529 86.9057 214.177C86.9057 211.839 88.5437 210.145 90.8397 210.145ZM90.8397 211.237C89.4257 211.237 88.4177 212.147 88.1517 213.407H93.4297C93.1777 212.119 92.2257 211.237 90.8397 211.237Z" fill="black"/>
<path d="M99.6495 218.153C97.6335 218.153 96.2335 217.215 95.9255 215.591H97.1155C97.4235 216.669 98.2215 217.047 99.6495 217.047C100.798 217.047 101.638 216.641 101.638 215.899C101.638 215.143 100.784 214.989 99.3695 214.639C97.2415 214.107 96.3175 213.729 96.3175 212.469C96.3175 210.985 97.6195 210.145 99.4395 210.145C101.246 210.145 102.408 210.971 102.716 212.357H101.54C101.246 211.573 100.504 211.251 99.4675 211.251C98.2215 211.251 97.4935 211.727 97.4935 212.385C97.4935 213.001 98.1095 213.169 99.6635 213.561C101.638 214.051 102.828 214.359 102.828 215.801C102.828 217.383 101.386 218.153 99.6495 218.153Z" fill="black"/>
<path d="M114.168 210.299H115.596V217.999H114.434V214.303L114.504 211.713L110.066 217.999H108.638V210.299H109.8V213.995L109.73 216.571L114.168 210.299Z" fill="black"/>
<path d="M119.551 210.299H124.787V217.999H123.625V211.391H120.531L119.957 215.003C119.579 217.327 118.823 218.153 117.605 218.153C117.409 218.153 117.171 218.139 116.975 218.111V217.047C117.101 217.061 117.255 217.075 117.381 217.075C118.165 217.075 118.529 216.613 118.809 214.933L119.551 210.299Z" fill="black"/>
<path d="M132.392 210.299H133.82V217.999H132.658V214.303L132.728 211.713L128.29 217.999H126.862V210.299H128.024V213.995L127.954 216.571L132.392 210.299Z" fill="black"/>
<path d="M143.205 208.199H147.083V217.999H145.921V214.275H143.891L140.951 217.999H139.509L142.547 214.233C140.825 213.981 139.887 212.819 139.887 211.223C139.887 209.459 141.035 208.199 143.205 208.199ZM143.317 213.225H145.921V209.305H143.317C141.763 209.305 141.063 210.145 141.063 211.251C141.063 212.357 141.763 213.225 143.317 213.225Z" fill="black"/>
<path d="M155.246 210.299H156.408V217.999H155.246V214.611H150.514V217.999H149.352V210.299H150.514V213.505H155.246V210.299Z" fill="black"/>
<path d="M165.839 216.907H167.239V220.057H166.077V217.999H164.677H158.811V220.057H157.649V216.907H158.965C159.385 216.613 159.679 215.899 159.903 214.485L160.575 210.299H165.839V216.907ZM160.267 216.907H164.677V211.391H161.569L161.065 214.513C160.869 215.717 160.617 216.459 160.267 216.907Z" fill="black"/>
<path d="M171.955 210.145C174.349 210.145 175.903 211.965 175.805 214.499H169.211C169.323 216.095 170.457 217.061 172.011 217.061C173.075 217.061 173.957 216.613 174.419 215.717H175.623C174.979 217.355 173.579 218.153 171.969 218.153C169.687 218.153 168.021 216.529 168.021 214.177C168.021 211.839 169.659 210.145 171.955 210.145ZM171.955 211.237C170.541 211.237 169.533 212.147 169.267 213.407H174.545C174.293 212.119 173.341 211.237 171.955 211.237Z" fill="black"/>
<path d="M184.307 217.999H182.781L178.665 214.289V217.999H177.503V210.299H178.665V213.729L182.417 210.299H183.943L179.897 213.953L184.307 217.999Z" fill="black"/>
<path d="M188.636 218.153C186.382 218.153 184.66 216.445 184.66 214.149C184.66 211.853 186.382 210.145 188.636 210.145C190.428 210.145 191.968 211.223 192.374 212.987H191.17C190.806 211.895 189.826 211.223 188.636 211.223C187.012 211.223 185.836 212.455 185.836 214.149C185.836 215.857 187.026 217.075 188.636 217.075C189.826 217.075 190.806 216.389 191.17 215.311H192.374C191.954 217.103 190.4 218.153 188.636 218.153Z" fill="black"/>
<path d="M194.999 216.585C195.461 216.585 195.811 216.921 195.811 217.369C195.811 217.817 195.461 218.153 194.999 218.153C194.537 218.153 194.187 217.817 194.187 217.369C194.187 216.921 194.537 216.585 194.999 216.585Z" fill="black"/>
<path d="M205.849 208.199H207.277V217.999H206.115V209.697L202.797 214.709H202.685L199.367 209.697V217.999H198.205V208.199H199.633L202.741 212.875L205.849 208.199Z" fill="black"/>
<path d="M215.808 210.299H216.97V217.999H215.808V216.445C215.206 217.481 214.17 218.153 212.84 218.153C210.74 218.153 209.242 216.473 209.242 214.149C209.242 211.811 210.754 210.145 212.84 210.145C214.17 210.145 215.22 210.831 215.808 211.881V210.299ZM213.064 217.047C214.632 217.047 215.822 215.843 215.822 214.149C215.822 212.455 214.632 211.251 213.064 211.251C211.496 211.251 210.418 212.469 210.418 214.149C210.418 215.843 211.51 217.047 213.064 217.047Z" fill="black"/>
<path d="M223.238 210.145C225.324 210.145 226.836 211.811 226.836 214.149C226.836 216.473 225.324 218.153 223.224 218.153C221.894 218.153 220.858 217.481 220.27 216.445V221.499H219.108V210.299H220.27V211.881C220.858 210.831 221.908 210.145 223.238 210.145ZM223.014 217.047C224.568 217.047 225.66 215.843 225.66 214.149C225.66 212.469 224.568 211.251 223.014 211.251C221.446 211.251 220.256 212.455 220.256 214.149C220.256 215.843 221.446 217.047 223.014 217.047Z" fill="black"/>
<path d="M235.399 217.999H233.873L229.757 214.289V217.999H228.595V210.299H229.757V213.729L233.509 210.299H235.035L230.989 213.953L235.399 217.999Z" fill="black"/>
<path d="M239.685 210.145C242.079 210.145 243.633 211.965 243.535 214.499H236.941C237.053 216.095 238.187 217.061 239.741 217.061C240.805 217.061 241.687 216.613 242.149 215.717H243.353C242.709 217.355 241.309 218.153 239.699 218.153C237.417 218.153 235.751 216.529 235.751 214.177C235.751 211.839 237.389 210.145 239.685 210.145ZM239.685 211.237C238.271 211.237 237.263 212.147 236.997 213.407H242.275C242.023 212.119 241.071 211.237 239.685 211.237Z" fill="black"/>
<path d="M250.797 210.299V211.391H248.137V217.999H246.975V211.391H244.315V210.299H248.137H250.797Z" fill="black"/>
<path d="M255.572 210.145C257.966 210.145 259.52 211.965 259.422 214.499H252.828C252.94 216.095 254.074 217.061 255.628 217.061C256.692 217.061 257.574 216.613 258.036 215.717H259.24C258.596 217.355 257.196 218.153 255.586 218.153C253.304 218.153 251.638 216.529 251.638 214.177C251.638 211.839 253.276 210.145 255.572 210.145ZM255.572 211.237C254.158 211.237 253.15 212.147 252.884 213.407H258.162C257.91 212.119 256.958 211.237 255.572 211.237Z" fill="black"/>
<path d="M261.882 216.585C262.344 216.585 262.694 216.921 262.694 217.369C262.694 217.817 262.344 218.153 261.882 218.153C261.42 218.153 261.07 217.817 261.07 217.369C261.07 216.921 261.42 216.585 261.882 216.585Z" fill="black"/>
<path d="M28.306 229.045C31.19 229.045 33.262 231.201 33.262 234.099C33.262 236.997 31.19 239.153 28.306 239.153C26.052 239.153 24.232 237.851 23.616 235.877H24.862C25.422 237.207 26.738 238.047 28.32 238.047C30.364 238.047 31.848 236.605 32.072 234.617H27.564V233.511H32.058C31.806 231.565 30.336 230.151 28.306 230.151C26.738 230.151 25.422 230.991 24.862 232.321H23.616C24.232 230.347 26.038 229.045 28.306 229.045Z" fill="black"/>
<path d="M40.9475 231.299V232.391H38.2875V238.999H37.1255V232.391H34.4655V231.299H38.2875H40.9475Z" fill="black"/>
<path d="M45.7505 231.145C47.9485 231.145 49.7265 232.839 49.7265 235.149C49.7265 237.459 47.9765 239.153 45.7505 239.153C43.5385 239.153 41.7885 237.445 41.7885 235.149C41.7885 232.839 43.5665 231.145 45.7505 231.145ZM45.7505 232.251C44.2105 232.251 42.9645 233.441 42.9645 235.149C42.9645 236.843 44.1965 238.047 45.7505 238.047C47.3185 238.047 48.5505 236.843 48.5505 235.149C48.5505 233.455 47.3045 232.251 45.7505 232.251Z" fill="black"/>
<path d="M59.6627 231.425C61.6927 231.425 63.2187 232.923 63.2187 235.177C63.2187 237.571 61.5107 239.153 59.3127 239.153C57.1567 239.153 55.3927 237.655 55.3647 234.687C55.3647 229.059 57.8567 228.065 62.3087 228.065V229.157C58.5287 229.157 56.8207 229.829 56.5687 233.287C57.1427 232.055 58.3747 231.425 59.6627 231.425ZM59.2707 238.145C60.8247 238.145 62.0567 236.997 62.0567 235.233C62.0567 233.553 60.9227 232.433 59.3967 232.433C57.8847 232.433 56.5407 233.525 56.5407 235.219C56.5407 236.997 57.7167 238.145 59.2707 238.145Z" fill="black"/>
<path d="M70.05 231.299H71.296L66.102 242.499H64.856L66.9 238.061L63.778 231.299H65.024L67.516 236.815L70.05 231.299Z" fill="black"/>
<path d="M78.9817 237.907H80.3817V241.057H79.2197V238.999H77.8197H71.9537V241.057H70.7917V237.907H72.1077C72.5277 237.613 72.8217 236.899 73.0457 235.485L73.7177 231.299H78.9817V237.907ZM73.4097 237.907H77.8197V232.391H74.7117L74.2077 235.513C74.0117 236.717 73.7597 237.459 73.4097 237.907Z" fill="black"/>
<path d="M85.0975 231.145C87.4915 231.145 89.0455 232.965 88.9475 235.499H82.3535C82.4655 237.095 83.5995 238.061 85.1535 238.061C86.2175 238.061 87.0995 237.613 87.5615 236.717H88.7655C88.1215 238.355 86.7215 239.153 85.1115 239.153C82.8295 239.153 81.1635 237.529 81.1635 235.177C81.1635 232.839 82.8015 231.145 85.0975 231.145ZM85.0975 232.237C83.6835 232.237 82.6755 233.147 82.4095 234.407H87.6875C87.4355 233.119 86.4835 232.237 85.0975 232.237Z" fill="black"/>
<path d="M96.2092 231.299V232.391H93.5492V238.999H92.3872V232.391H89.7272V231.299H93.5492H96.2092Z" fill="black"/>
<path d="M105.456 231.145C107.654 231.145 109.432 232.839 109.432 235.149C109.432 237.459 107.682 239.153 105.456 239.153C103.244 239.153 101.494 237.445 101.494 235.149C101.494 232.839 103.272 231.145 105.456 231.145ZM105.456 232.251C103.916 232.251 102.67 233.441 102.67 235.149C102.67 236.843 103.902 238.047 105.456 238.047C107.024 238.047 108.256 236.843 108.256 235.149C108.256 233.455 107.01 232.251 105.456 232.251Z" fill="black"/>
<path d="M116.206 234.925C117.144 235.233 117.536 236.003 117.536 236.843C117.536 238.229 116.332 239.153 114.316 239.153C112.02 239.153 110.914 238.117 110.606 236.507H111.782C112.048 237.725 112.888 238.243 114.274 238.243C115.73 238.243 116.36 237.599 116.36 236.759C116.36 236.157 116.08 235.471 114.75 235.471H113.196V234.547H114.428C115.73 234.547 116.108 234.057 116.108 233.413C116.108 232.685 115.59 232.041 114.162 232.041C113.196 232.041 112.3 232.377 112.02 233.371H110.844C111.152 232.027 112.23 231.145 114.19 231.145C116.164 231.145 117.284 232.055 117.284 233.343C117.284 234.099 116.906 234.631 116.206 234.925Z" fill="black"/>
<path d="M125.045 231.299H126.207V238.999H125.045V235.611H120.313V238.999H119.151V231.299H120.313V234.505H125.045V231.299Z" fill="black"/>
<path d="M134.542 231.299H135.704V238.999H134.542V237.445C133.94 238.481 132.904 239.153 131.574 239.153C129.474 239.153 127.976 237.473 127.976 235.149C127.976 232.811 129.488 231.145 131.574 231.145C132.904 231.145 133.954 231.831 134.542 232.881V231.299ZM131.798 238.047C133.366 238.047 134.556 236.843 134.556 235.149C134.556 233.455 133.366 232.251 131.798 232.251C130.23 232.251 129.152 233.469 129.152 235.149C129.152 236.843 130.244 238.047 131.798 238.047Z" fill="black"/>
<path d="M142.756 231.299H143.918V238.999H142.756V236.213C142.168 236.465 141.356 236.647 140.488 236.647C138.696 236.647 137.492 235.849 137.492 233.805V231.299H138.654V233.539C138.654 234.995 139.228 235.597 140.684 235.597C141.426 235.597 142.28 235.443 142.756 235.149V231.299Z" fill="black"/>
<path d="M152.247 231.299H153.409V238.999H152.247V237.445C151.645 238.481 150.609 239.153 149.279 239.153C147.179 239.153 145.681 237.473 145.681 235.149C145.681 232.811 147.193 231.145 149.279 231.145C150.609 231.145 151.659 231.831 152.247 232.881V231.299ZM149.503 238.047C151.071 238.047 152.261 236.843 152.261 235.149C152.261 233.455 151.071 232.251 149.503 232.251C147.935 232.251 146.857 233.469 146.857 235.149C146.857 236.843 147.949 238.047 149.503 238.047Z" fill="black"/>
<path d="M161.287 231.299V232.391H158.627V238.999H157.465V232.391H154.805V231.299H158.627H161.287Z" fill="black"/>
<path d="M166.336 233.847C168.072 233.847 169.052 234.687 169.052 236.381C169.052 238.061 168.016 238.999 166.28 238.999H162.682V231.299H163.844V233.847H166.336ZM166.252 237.893C167.512 237.893 167.876 237.221 167.876 236.381C167.876 235.513 167.54 234.883 166.28 234.883H163.844V237.893H166.252Z" fill="black"/>
<path d="M172.988 238.411C173.002 238.635 172.96 238.943 171.826 241.407H171L171.924 239.125C171.588 239.041 171.364 238.761 171.364 238.383C171.364 237.907 171.714 237.585 172.176 237.585C172.512 237.585 172.974 237.767 172.988 238.411Z" fill="black"/>
<path d="M184.442 231.299H185.604V238.999H184.442V236.213C183.854 236.465 183.042 236.647 182.174 236.647C180.382 236.647 179.178 235.849 179.178 233.805V231.299H180.34V233.539C180.34 234.995 180.914 235.597 182.37 235.597C183.112 235.597 183.966 235.443 184.442 235.149V231.299Z" fill="black"/>
<path d="M193.485 231.299V232.391H190.825V238.999H189.663V232.391H187.003V231.299H190.825H193.485Z" fill="black"/>
<path d="M198.288 231.145C200.486 231.145 202.264 232.839 202.264 235.149C202.264 237.459 200.514 239.153 198.288 239.153C196.076 239.153 194.326 237.445 194.326 235.149C194.326 232.839 196.104 231.145 198.288 231.145ZM198.288 232.251C196.748 232.251 195.502 233.441 195.502 235.149C195.502 236.843 196.734 238.047 198.288 238.047C199.856 238.047 201.088 236.843 201.088 235.149C201.088 233.455 199.842 232.251 198.288 232.251Z" fill="black"/>
<path d="M215.728 237.907H217.128V241.057H215.966V238.999H214.566H208.7V241.057H207.538V237.907H208.854C209.274 237.613 209.568 236.899 209.792 235.485L210.464 231.299H215.728V237.907ZM210.156 237.907H214.566V232.391H211.458L210.954 235.513C210.758 236.717 210.506 237.459 210.156 237.907Z" fill="black"/>
<path d="M224.421 231.299H225.583V238.999H224.421V237.445C223.819 238.481 222.783 239.153 221.453 239.153C219.353 239.153 217.855 237.473 217.855 235.149C217.855 232.811 219.367 231.145 221.453 231.145C222.783 231.145 223.833 231.831 224.421 232.881V231.299ZM221.677 238.047C223.245 238.047 224.435 236.843 224.435 235.149C224.435 233.455 223.245 232.251 221.677 232.251C220.109 232.251 219.031 233.469 219.031 235.149C219.031 236.843 220.123 238.047 221.677 238.047Z" fill="black"/>
<path d="M233.545 231.299H234.707V238.999H233.545V235.611H228.813V238.999H227.651V231.299H228.813V234.505H233.545V231.299Z" fill="black"/>
<path d="M242.678 231.299H243.84V238.999H242.678V235.611H237.946V238.999H236.784V231.299H237.946V234.505H242.678V231.299Z" fill="black"/>
<path d="M249.557 233.847C251.293 233.847 252.273 234.687 252.273 236.381C252.273 238.061 251.237 238.999 249.501 238.999H245.917V231.299H247.079V233.847H249.557ZM253.491 231.299H254.653V238.999H253.491V231.299ZM249.487 237.893C250.747 237.893 251.097 237.221 251.097 236.381C251.097 235.513 250.761 234.883 249.501 234.883H247.079V237.893H249.487Z" fill="black"/>
<path d="M260.203 229.941C258.971 229.941 257.963 229.129 257.963 227.813V227.561H258.915V227.785C258.915 228.541 259.433 229.031 260.203 229.031C260.987 229.031 261.505 228.541 261.505 227.785V227.561H262.457V227.813C262.457 229.129 261.435 229.941 260.203 229.941ZM262.261 231.299H263.689V238.999H262.527V235.303L262.597 232.713L258.159 238.999H256.731V231.299H257.893V234.995L257.823 237.571L262.261 231.299Z" fill="black"/>
<path d="M27.69 252.145C29.888 252.145 31.666 253.839 31.666 256.149C31.666 258.459 29.916 260.153 27.69 260.153C25.478 260.153 23.728 258.445 23.728 256.149C23.728 253.839 25.506 252.145 27.69 252.145ZM27.69 253.251C26.15 253.251 24.904 254.441 24.904 256.149C24.904 257.843 26.136 259.047 27.69 259.047C29.258 259.047 30.49 257.843 30.49 256.149C30.49 254.455 29.244 253.251 27.69 253.251Z" fill="black"/>
<path d="M38.9788 252.299V253.391H36.3188V259.999H35.1568V253.391H32.4968V252.299H36.3188H38.9788Z" fill="black"/>
<path d="M45.1537 255.925C46.0917 256.233 46.4837 257.003 46.4837 257.843C46.4837 259.229 45.2798 260.153 43.2638 260.153C40.9678 260.153 39.8617 259.117 39.5537 257.507H40.7297C40.9958 258.725 41.8358 259.243 43.2218 259.243C44.6777 259.243 45.3077 258.599 45.3077 257.759C45.3077 257.157 45.0278 256.471 43.6978 256.471H42.1437V255.547H43.3757C44.6777 255.547 45.0557 255.057 45.0557 254.413C45.0557 253.685 44.5378 253.041 43.1097 253.041C42.1437 253.041 41.2477 253.377 40.9677 254.371H39.7917C40.0998 253.027 41.1777 252.145 43.1377 252.145C45.1117 252.145 46.2318 253.055 46.2318 254.343C46.2318 255.099 45.8537 255.631 45.1537 255.925Z" fill="black"/>
<path d="M51.7385 254.847C53.4745 254.847 54.4545 255.687 54.4545 257.381C54.4545 259.061 53.4185 259.999 51.6825 259.999H48.0985V252.299H49.2605V254.847H51.7385ZM55.6725 252.299H56.8344V259.999H55.6725V252.299ZM51.6685 258.893C52.9285 258.893 53.2785 258.221 53.2785 257.381C53.2785 256.513 52.9425 255.883 51.6825 255.883H49.2605V258.893H51.6685Z" fill="black"/>
<path d="M63.9249 255.897C64.9469 256.177 65.4089 256.905 65.4089 257.815C65.4089 259.145 64.5269 259.999 62.7069 259.999H58.9129V252.299H62.3569C64.1489 252.299 65.0449 252.943 65.0449 254.259C65.0449 255.001 64.6389 255.533 63.9249 255.897ZM63.8689 254.455C63.8689 253.727 63.5469 253.237 62.2729 253.237H60.0749V255.589H62.2449C63.4629 255.589 63.8689 255.085 63.8689 254.455ZM62.6369 259.061C63.9109 259.061 64.2469 258.459 64.2469 257.717C64.2469 257.017 63.8409 256.457 62.6089 256.457H60.0749V259.061H62.6369Z" fill="black"/>
<path d="M76.8176 252.299H78.0636L72.8696 263.499H71.6236L73.6676 259.061L70.5456 252.299H71.7916L74.2836 257.815L76.8176 252.299Z" fill="black"/>
<path d="M84.6098 252.299H85.7718V259.999H84.6098V257.213C84.0218 257.465 83.2098 257.647 82.3418 257.647C80.5498 257.647 79.3458 256.849 79.3458 254.805V252.299H80.5078V254.539C80.5078 255.995 81.0818 256.597 82.5378 256.597C83.2798 256.597 84.1338 256.443 84.6098 256.149V252.299Z" fill="black"/>
<path d="M94.1006 252.299H95.2626V259.999H94.1006V258.445C93.4986 259.481 92.4626 260.153 91.1326 260.153C89.0326 260.153 87.5346 258.473 87.5346 256.149C87.5346 253.811 89.0466 252.145 91.1326 252.145C92.4626 252.145 93.5126 252.831 94.1006 253.881V252.299ZM91.3566 259.047C92.9246 259.047 94.1146 257.843 94.1146 256.149C94.1146 254.455 92.9246 253.251 91.3566 253.251C89.7886 253.251 88.7106 254.469 88.7106 256.149C88.7106 257.843 89.8026 259.047 91.3566 259.047Z" fill="black"/>
<path d="M100.999 260.153C98.7449 260.153 97.0229 258.445 97.0229 256.149C97.0229 253.853 98.7449 252.145 100.999 252.145C102.791 252.145 104.331 253.223 104.737 254.987H103.533C103.169 253.895 102.189 253.223 100.999 253.223C99.3749 253.223 98.1989 254.455 98.1989 256.149C98.1989 257.857 99.3889 259.075 100.999 259.075C102.189 259.075 103.169 258.389 103.533 257.311H104.737C104.317 259.103 102.763 260.153 100.999 260.153Z" fill="black"/>
<path d="M111.918 252.299V253.391H109.258V259.999H108.096V253.391H105.436V252.299H109.258H111.918Z" fill="black"/>
<path d="M118.325 255.897C119.347 256.177 119.809 256.905 119.809 257.815C119.809 259.145 118.927 259.999 117.107 259.999H113.313V252.299H116.757C118.549 252.299 119.445 252.943 119.445 254.259C119.445 255.001 119.039 255.533 118.325 255.897ZM118.269 254.455C118.269 253.727 117.947 253.237 116.673 253.237H114.475V255.589H116.645C117.863 255.589 118.269 255.085 118.269 254.455ZM117.037 259.061C118.311 259.061 118.647 258.459 118.647 257.717C118.647 257.017 118.241 256.457 117.009 256.457H114.475V259.061H117.037Z" fill="black"/>
<path d="M126.857 252.299H128.103L122.909 263.499H121.663L123.707 259.061L120.585 252.299H121.831L124.323 257.815L126.857 252.299Z" fill="black"/>
<path d="M132.676 252.145C135.07 252.145 136.624 253.965 136.526 256.499H129.932C130.044 258.095 131.178 259.061 132.732 259.061C133.796 259.061 134.678 258.613 135.14 257.717H136.344C135.7 259.355 134.3 260.153 132.69 260.153C130.408 260.153 128.742 258.529 128.742 256.177C128.742 253.839 130.38 252.145 132.676 252.145ZM132.676 253.237C131.262 253.237 130.254 254.147 129.988 255.407H135.266C135.014 254.119 134.062 253.237 132.676 253.237Z" fill="black"/>
<path d="M143.787 252.299V253.391H141.127V259.999H139.965V253.391H137.305V252.299H141.127H143.787Z" fill="black"/>
<path d="M154.392 255.897C155.414 256.177 155.876 256.905 155.876 257.815C155.876 259.145 154.994 259.999 153.174 259.999H149.38V252.299H152.824C154.616 252.299 155.512 252.943 155.512 254.259C155.512 255.001 155.106 255.533 154.392 255.897ZM154.336 254.455C154.336 253.727 154.014 253.237 152.74 253.237H150.542V255.589H152.712C153.93 255.589 154.336 255.085 154.336 254.455ZM153.104 259.061C154.378 259.061 154.714 258.459 154.714 257.717C154.714 257.017 154.308 256.457 153.076 256.457H150.542V259.061H153.104Z" fill="black"/>
<path d="M167.942 252.299H169.104V259.999H167.942V258.445C167.34 259.481 166.304 260.153 164.974 260.153C162.874 260.153 161.376 258.473 161.376 256.149C161.376 253.811 162.888 252.145 164.974 252.145C166.304 252.145 167.354 252.831 167.942 253.881V252.299ZM165.198 259.047C166.766 259.047 167.956 257.843 167.956 256.149C167.956 254.455 166.766 253.251 165.198 253.251C163.63 253.251 162.552 254.469 162.552 256.149C162.552 257.843 163.644 259.047 165.198 259.047Z" fill="black"/>
<path d="M177.977 259.999H176.451L172.335 256.289V259.999H171.173V252.299H172.335V255.729L176.087 252.299H177.613L173.567 255.953L177.977 259.999Z" fill="black"/>
<path d="M186.166 258.907H187.566V262.057H186.404V259.999H185.004H179.754H179.376V252.299H180.538V258.907H185.004V252.299H186.166V258.907Z" fill="black"/>
<path d="M194.49 252.299H195.918V259.999H194.756V256.303L194.826 253.713L190.388 259.999H188.96V252.299H190.122V255.995L190.052 258.571L194.49 252.299Z" fill="black"/>
<path d="M203.5 252.299H204.928V259.999H203.766V256.303L203.836 253.713L199.398 259.999H197.97V252.299H199.132V255.995L199.062 258.571L203.5 252.299Z" fill="black"/>
<path d="M207.987 258.585C208.449 258.585 208.799 258.921 208.799 259.369C208.799 259.817 208.449 260.153 207.987 260.153C207.525 260.153 207.175 259.817 207.175 259.369C207.175 258.921 207.525 258.585 207.987 258.585Z" fill="black"/>
</g>
<path d="M172 20.999C172 32.597 162.598 41.999 151 41.999C139.402 41.999 130 32.597 130 20.999C130 9.40104 139.402 -0.000976563 151 -0.000976563C162.598 -0.000976563 172 9.40104 172 20.999Z" fill="#685BC7"/>
<path d="M150.322 23.209V17.779C149.402 20.619 148.792 22.429 148.492 23.209H150.322ZM145.702 27.019V23.629C147.682 18.209 149.352 13.509 150.712 9.52902H154.222V23.209H156.292V27.019H154.222V31.999H150.322V27.019H145.702Z" fill="white"/>
<defs>
<clipPath id="clip0_137_604">
<rect width="303" height="306" fill="white" transform="translate(0 19.999)"/>
</clipPath>
</defs>
</svg>
