<svg width="33" height="33" viewBox="0 0 33 33" fill="none" xmlns="http://www.w3.org/2000/svg">
<path d="M18.203 10V14.28L17.983 19.08H15.023L14.803 14.28V10H18.203ZM15.023 20.9C15.423 20.5267 15.9163 20.34 16.503 20.34C17.0896 20.34 17.5763 20.5267 17.963 20.9C18.363 21.26 18.563 21.7267 18.563 22.3C18.563 22.8733 18.363 23.3467 17.963 23.72C17.5763 24.08 17.0896 24.26 16.503 24.26C15.9163 24.26 15.423 24.08 15.023 23.72C14.6363 23.3467 14.443 22.8733 14.443 22.3C14.443 21.7267 14.6363 21.26 15.023 20.9Z" fill="#685BC7"/>
<circle cx="16.5" cy="16.5" r="15.5" stroke="#685BC7" stroke-width="2"/>
</svg>
