<svg width="124" height="32" viewBox="0 0 124 32" fill="none" xmlns="http://www.w3.org/2000/svg">
<path d="M7.04824 1.30395C6.14925 1.3698 5.11995 1.60028 4.36725 1.90484C2.0533 2.84048 0.742059 4.6569 0.531941 7.21138C0.500025 7.60923 0.521302 8.47353 0.571837 8.87138C0.81653 10.7756 1.6969 12.227 3.20495 13.2066C3.74221 13.5578 4.51619 13.8925 5.21836 14.0845C5.57476 14.1806 5.68912 14.2053 6.07744 14.2766C7.0243 14.4467 8.27969 14.4632 9.2691 14.315C12.2826 13.865 14.2773 12.1914 14.8917 9.59849C14.9343 9.42563 14.9768 9.2171 14.9875 9.13753L15.0061 8.99485H13.2081C11.4979 8.99485 11.4102 8.99759 11.4102 9.04424C11.4102 9.07168 11.3729 9.2171 11.3277 9.36526C11.224 9.71647 10.9474 10.2982 10.7665 10.5424C10.2931 11.1872 9.66274 11.5877 8.84088 11.7634C8.48448 11.8402 8.44725 11.8429 8.01903 11.8649C6.34873 11.9444 5.10133 11.2832 4.47098 9.98811C4.0401 9.10186 3.92307 7.58725 4.20234 6.48973C4.56939 5.041 5.47901 4.1767 6.92855 3.90232C7.30357 3.83098 8.30096 3.83098 8.68396 3.90232C9.81434 4.11359 10.5936 4.70351 11.0857 5.71872C11.1947 5.94371 11.365 6.42936 11.3969 6.61594C11.4102 6.68728 11.4314 6.72295 11.474 6.73118C11.5033 6.73942 12.3091 6.74216 13.2587 6.73942L14.9875 6.73118L14.9822 6.59399C14.9742 6.4129 14.8199 5.78731 14.6976 5.44159C14.1869 4.01207 13.1975 2.89536 11.8011 2.17099C10.9447 1.72924 9.90477 1.44114 8.73716 1.3259C8.41001 1.29298 7.37804 1.27926 7.04824 1.30395Z" fill="white"/>
<path d="M16.57 5.37848C16.57 7.73541 16.5806 9.3488 16.5966 9.58477C16.7057 11.0993 17.1073 12.1585 17.8706 12.9487C18.6206 13.7197 19.6367 14.1449 21.1713 14.3287C21.6554 14.3864 22.2352 14.4138 23.0198 14.4138C23.8842 14.4138 24.1529 14.4028 24.6635 14.3562C26.0067 14.2272 27.0812 13.8706 27.7967 13.3163C28.0759 13.1023 28.4829 12.6661 28.6531 12.4027C29.0999 11.7112 29.3659 10.8606 29.4696 9.7933C29.4856 9.61495 29.4962 8.0482 29.4962 5.53488V1.55912H26.012V5.4608C26.0093 7.6092 26.004 9.41465 25.996 9.47502C25.9216 10.1143 25.7779 10.5616 25.5359 10.9265C25.3949 11.1378 25.105 11.3902 24.8497 11.5274C24.3816 11.7771 23.9108 11.8621 23.0198 11.8594C22.1501 11.8566 21.7352 11.7826 21.2617 11.5438C20.517 11.1679 20.1766 10.5204 20.0702 9.28295C20.0622 9.20612 20.0569 7.43908 20.0569 5.35104L20.0542 1.55912H16.57V5.37848Z" fill="white"/>
<path d="M31.5974 14.1806L33.3342 14.1751L35.0683 14.1669L35.0763 12.1146L35.0816 10.0649L37.0285 10.0704L38.9728 10.0787L39.1191 10.3256C39.2015 10.46 39.6989 11.2887 40.2282 12.1639C40.7574 13.0392 41.2468 13.8513 41.316 13.9666L41.4436 14.1806H43.3453C44.9518 14.1806 45.2444 14.1751 45.2337 14.1422C45.2257 14.123 44.7763 13.3959 44.2363 12.5316C42.4995 9.74665 42.4198 9.61769 42.4144 9.593C42.4118 9.58203 42.4995 9.52989 42.6113 9.4805C43.723 8.97565 44.4225 8.1525 44.6965 7.02205C44.8561 6.36354 44.8773 5.52939 44.7497 4.89283C44.5103 3.68555 43.8214 2.77737 42.7097 2.20392C42.1804 1.92954 41.6192 1.75942 40.8 1.62223C40.5473 1.57833 40.1111 1.57559 36.0604 1.56736L31.5974 1.55638V14.1806ZM39.8372 4.14103C40.3026 4.19316 40.6245 4.33858 40.8824 4.60747C41.1458 4.88185 41.2734 5.23306 41.292 5.72969C41.3186 6.45954 41.0287 7.03577 40.5021 7.29918C40.0899 7.50771 40.2441 7.49673 37.5232 7.50771L35.0816 7.51594V4.11084H37.3291C38.752 4.11084 39.6749 4.12182 39.8372 4.14103Z" fill="white"/>
<path d="M46.6514 14.1806L58.0482 14.1669L58.0562 12.8828L58.0615 11.6015H50.1356V1.55912H46.6514V14.1806Z" fill="white"/>
<path d="M86.8673 0.0137901C86.8354 0.0192777 86.7742 0.0604339 86.7343 0.0988472C86.6945 0.140004 86.3008 0.69151 85.862 1.32258C84.3938 3.43806 84.5321 3.2652 84.33 3.26245C84.2342 3.26245 83.9815 3.1527 82.9363 2.65607C80.8644 1.6683 80.8989 1.68477 80.7872 1.68751C80.609 1.69025 80.4415 1.86586 80.4441 2.0442C80.4441 2.10182 80.6569 2.91948 80.9149 3.86335C81.1729 4.80721 81.3936 5.62487 81.4069 5.68249C81.4362 5.81694 81.399 5.94864 81.3085 6.03644C81.266 6.07485 80.5026 6.48368 79.609 6.94738C78.3749 7.58395 77.9706 7.80345 77.9334 7.86107C77.8988 7.9132 77.8828 7.98729 77.8828 8.09429C77.8828 8.23423 77.8935 8.26167 77.9626 8.33301C78.0211 8.39337 78.468 8.59915 79.6914 9.13145C80.5984 9.52656 81.367 9.86679 81.4016 9.88874C81.4788 9.94088 81.5665 10.0863 81.5665 10.1686C81.5665 10.2235 81.375 11.1783 80.9521 13.2581C80.867 13.6752 80.8218 13.9441 80.8324 14.0017C80.8564 14.1334 81.0053 14.2651 81.1463 14.2816C81.2979 14.3008 81.0346 14.4407 84.0826 12.7258C84.3167 12.5941 84.5481 12.4761 84.5959 12.4652C84.7848 12.424 84.8326 12.4734 85.9019 13.8124C87.2317 15.4806 87.2211 15.4696 87.3328 15.5163C87.4525 15.5684 87.5775 15.5437 87.6839 15.4532C87.7929 15.3571 87.8036 15.3297 87.8541 15.0306C88.2238 12.8191 88.4525 11.5625 88.5004 11.4966C88.6094 11.3402 88.6493 11.3347 89.6786 11.3155C90.1973 11.3073 91.0112 11.2908 91.4873 11.2826C91.9633 11.2744 92.3889 11.2552 92.4368 11.2414C92.6176 11.1838 92.724 10.9479 92.6549 10.764C92.6336 10.7146 92.091 10.0589 91.4474 9.30706C90.8037 8.558 90.2505 7.89948 90.2186 7.84461C90.1521 7.7376 90.1388 7.59767 90.1867 7.50986C90.2026 7.47968 90.7159 6.78275 91.3277 5.95961C92.107 4.91422 92.4474 4.4368 92.4607 4.37095C92.4873 4.22279 92.3916 4.03895 92.2559 3.97584C92.1947 3.94566 92.1043 3.92645 92.0538 3.93194C92.0032 3.93743 91.7506 3.94841 91.4926 3.95938C91.2346 3.96761 90.9925 3.98133 90.9553 3.98682C90.9181 3.99231 90.6867 4.00602 90.4367 4.017C90.1893 4.02523 89.9553 4.03895 89.918 4.0417C89.7904 4.05816 88.8382 4.09657 88.6094 4.09657C88.3834 4.09657 88.3754 4.09383 88.285 4.00328C88.2132 3.93194 88.1839 3.86884 88.152 3.7289C88.1307 3.63012 87.9312 2.79601 87.7105 1.87409C87.2822 0.0906158 87.2902 0.112566 87.1067 0.032996C87.0216 -0.00541722 86.979 -0.00816035 86.8673 0.0137901Z" fill="white"/>
<path d="M100.69 1.27593C100.448 1.29239 99.8707 1.37196 99.5994 1.42409C97.6072 1.81371 96.0939 2.75484 95.1736 4.17613C94.655 4.97457 94.3252 6.00076 94.2294 7.10102C94.1975 7.46046 94.2108 8.48939 94.2533 8.80218C94.4369 10.2427 94.9662 11.4061 95.8492 12.3142C96.9343 13.4337 98.453 14.1087 100.397 14.3337C100.953 14.3968 102.017 14.3968 102.573 14.3337C105.903 13.9578 108.052 12.1798 108.64 9.31802C108.672 9.16985 108.696 9.03266 108.696 9.00797C108.696 8.9723 108.488 8.96681 106.903 8.96681H105.11L105.068 9.15064C104.999 9.43051 104.847 9.83111 104.717 10.0835C104.142 11.1783 103.171 11.7518 101.754 11.8341C101.397 11.856 100.839 11.8121 100.474 11.7381C98.7217 11.3704 97.7376 9.96281 97.7376 7.82813C97.7376 5.86905 98.5568 4.51361 100.038 4.01699C100.485 3.86882 100.929 3.80297 101.514 3.80571C101.74 3.80571 101.974 3.81394 102.033 3.82218C102.405 3.87705 102.538 3.90175 102.756 3.96211C103.695 4.22003 104.384 4.81818 104.799 5.74009C104.905 5.97332 105.049 6.39861 105.092 6.59891L105.11 6.68945H106.903C108.488 6.68945 108.696 6.68396 108.696 6.64829C108.696 6.57695 108.589 6.08581 108.517 5.82515C108.134 4.4313 107.275 3.2597 106.057 2.46674C105.084 1.83566 103.746 1.40214 102.405 1.28965C102.134 1.26495 100.961 1.25672 100.69 1.27593Z" fill="white"/>
<path d="M63.5603 14.1526L65.2971 14.1471L67.0312 14.1389L67.0392 12.0865L67.0445 10.0369L68.9914 10.0424L70.9383 10.0506L71.5527 11.0658C71.8905 11.6228 72.4331 12.5255 72.7602 13.0688C73.0873 13.6121 73.3746 14.0785 73.3959 14.106C73.4358 14.1526 73.5448 14.1554 75.3215 14.1526C76.8296 14.1499 77.2073 14.1416 77.1993 14.1142C77.1913 14.084 76.8189 13.4804 75.4598 11.3045C75.2843 11.0219 74.9651 10.5088 74.7497 10.1659L74.3614 9.54028L74.4465 9.5101C74.6034 9.45522 75.13 9.16438 75.3002 9.03816C76.2684 8.32752 76.7391 7.36444 76.7977 5.9898C76.8322 5.16117 76.6567 4.33528 76.3083 3.71244C75.779 2.76308 74.88 2.10731 73.6565 1.77531C73.3214 1.68751 72.8453 1.59697 72.5501 1.57227C72.441 1.5613 72.3214 1.54758 72.2841 1.5366C72.2469 1.52837 70.2707 1.5174 67.8903 1.51191L63.5603 1.50093V14.1526ZM72.0846 4.14596C72.5235 4.25571 72.8879 4.52461 73.0634 4.87033C73.223 5.18586 73.2523 5.33403 73.2523 5.78401C73.2523 6.15717 73.2469 6.19558 73.1725 6.41509C72.9889 6.95013 72.6724 7.24646 72.1033 7.41109C71.9011 7.46871 71.8692 7.46871 69.4728 7.47968L67.0445 7.48792V4.08011L69.4728 4.09108C71.6405 4.09932 71.9171 4.1048 72.0846 4.14596Z" fill="white"/>
<path d="M110.265 14.1499L112.007 14.1526H113.749L113.754 12.3911L113.762 10.6296L114.893 9.5924C116.023 8.55798 116.023 8.55798 116.068 8.61835C116.095 8.65127 116.505 9.25217 116.983 9.95458C117.462 10.657 118.076 11.557 118.348 11.9576C118.622 12.3582 119.068 13.0139 119.345 13.4173L119.842 14.1526H121.93C123.582 14.1526 124.016 14.1444 124 14.1169C123.97 14.0703 123.521 13.4392 121.914 11.203C121.135 10.1165 120.252 8.8845 119.949 8.46469C119.648 8.04215 119.207 7.42753 118.967 7.09279C118.728 6.76079 118.515 6.46172 118.494 6.42605C118.454 6.36568 118.505 6.31904 120.936 4.10753C122.3 2.86459 123.492 1.78353 123.582 1.70122C123.672 1.6189 123.742 1.53933 123.734 1.52836C123.726 1.51464 122.728 1.50366 121.515 1.50366H119.311L116.592 4.06089C115.1 5.46846 113.847 6.64281 113.813 6.67025L113.749 6.72238V1.50366H112.007L110.265 1.50641V14.1499Z" fill="white"/>
<path d="M5.64657 18.8954C5.63061 18.9146 5.36464 19.499 5.05345 20.1932C4.74227 20.8874 4.4098 21.6282 4.31671 21.8395C4.22096 22.0508 4.07202 22.3828 3.98425 22.5803C3.75817 23.0879 3.71828 23.1757 3.32464 24.0483C3.13048 24.479 2.86717 25.0635 2.7395 25.3516C2.61184 25.6369 1.94425 27.1296 1.25272 28.6661C0.563859 30.1999 0 31.462 0 31.4702C0 31.4785 0.821851 31.4812 1.82722 31.4785L3.65444 31.4702L4.12255 30.3261L4.588 29.1792L10.8357 29.1929L11.7506 31.4702L13.5752 31.4785C14.5779 31.4812 15.3997 31.4757 15.3997 31.4675C15.3997 31.451 15.187 30.9709 14.913 30.359C14.8173 30.1477 13.7401 27.7442 13.5672 27.3573C13.514 27.2366 12.639 25.2802 11.6229 23.0084L9.77444 18.8762L7.7238 18.868C6.0934 18.8625 5.66785 18.868 5.64657 18.8954ZM8.17862 22.7038C8.42331 23.2992 8.87812 24.4132 9.19197 25.1787C9.50581 25.9442 9.76114 26.5835 9.76114 26.6C9.76114 26.6192 9.06962 26.6274 7.69721 26.6274C6.05617 26.6274 5.63593 26.6192 5.64657 26.5918C5.67583 26.5232 6.94717 23.4227 7.31687 22.52C7.52699 22.0041 7.70785 21.5898 7.71848 21.6008C7.72912 21.6118 7.93658 22.1084 8.17862 22.7038Z" fill="white"/>
<path d="M16.4822 18.8817C16.4716 18.8899 16.4636 21.7297 16.4636 25.1924V31.484L18.2004 31.4785L19.9345 31.4702L19.9611 23.1401L22.6076 26.7262C24.0624 28.6963 25.3444 30.4303 25.4534 30.5785C25.5625 30.7267 25.7593 30.9901 25.887 31.1657L26.121 31.484H29.8686L29.8553 18.8762H26.371V23.055C26.371 25.3516 26.3657 27.2311 26.3578 27.2311C26.3471 27.2283 24.4082 24.608 21.0569 20.0615C20.6208 19.4688 20.2404 18.9585 20.2138 18.9256L20.1633 18.8652L18.3307 18.8625C17.3227 18.8625 16.4902 18.8707 16.4822 18.8817Z" fill="white"/>
<path d="M31.9431 31.4867L35.5417 31.4757C39.3637 31.4675 39.2999 31.4675 40.1883 31.3303C42.8746 30.916 44.5209 29.684 45.1885 27.596C45.4252 26.8524 45.5183 26.1966 45.521 25.2692C45.521 24.3226 45.4731 23.8425 45.3082 23.184C45.1859 22.6983 45.1087 22.4815 44.8933 22.0316C44.0714 20.3112 42.3825 19.296 39.8292 18.9859C39.01 18.8872 38.8371 18.8844 35.3954 18.8707L31.9431 18.857V31.4867ZM38.877 21.5075C39.7707 21.6282 40.3691 21.8422 40.8452 22.2072C41.6671 22.841 42.0447 23.9632 41.9649 25.5436C41.933 26.2186 41.8213 26.7207 41.6006 27.1899C41.0899 28.271 40.1085 28.7895 38.3531 28.902C38.1562 28.913 37.4221 28.9267 36.7253 28.9295L35.454 28.935V21.4361L37.0046 21.4499C38.2147 21.4608 38.6243 21.4718 38.877 21.5075Z" fill="white"/>
<path d="M72.566 18.8954C70.651 19.0189 69.0047 19.5868 67.7653 20.5554C67.4807 20.7777 66.9913 21.2715 66.7679 21.5596C66.3636 22.0837 66.0604 22.6681 65.8529 23.3157C65.6322 24.0153 65.5391 24.6329 65.5391 25.4423C65.5391 26.0295 65.571 26.3834 65.6667 26.8828C66.1748 29.4839 68.1669 31.2564 71.2495 31.8463C71.933 31.978 72.215 32 73.1778 32C73.9863 32 74.1486 31.9918 74.5316 31.9369C75.6726 31.775 76.6035 31.4924 77.4599 31.0506C79.3643 30.0656 80.4654 28.4934 80.7367 26.3752C80.7739 26.0734 80.7819 25.0829 80.75 24.7152C80.6861 23.9689 80.4707 23.1785 80.1595 22.5419C79.1701 20.506 77.0423 19.2219 74.1752 18.9283C73.7895 18.8899 72.9517 18.8734 72.566 18.8954ZM73.8959 21.4746C74.8481 21.6063 75.5742 21.9355 76.1301 22.4843C76.5077 22.8547 76.7498 23.2196 76.9439 23.708C77.3189 24.6601 77.3509 25.9609 77.0184 26.9898C76.5795 28.3507 75.4944 29.2095 73.9464 29.4208C73.3533 29.5031 72.441 29.4647 71.9144 29.3385C70.4436 28.9873 69.4834 27.9913 69.1882 26.5124C69.1004 26.0679 69.0685 25.5191 69.1031 25.0664C69.1935 23.9634 69.502 23.2032 70.1297 22.5584C70.784 21.8807 71.6484 21.5185 72.7921 21.4417C73.0182 21.4252 73.6858 21.4471 73.8959 21.4746Z" fill="white"/>
<path d="M51.182 31.7668H54.6662L54.6715 29.7199L54.6795 27.6758H56.6184C57.685 27.6785 58.56 27.6813 58.5653 27.6867C58.568 27.6895 58.7701 28.0242 59.0148 28.4331C59.2595 28.8391 59.7143 29.5937 60.0255 30.1068C60.3367 30.6199 60.6878 31.2043 60.8075 31.4019L61.0256 31.7668H62.9299C64.4406 31.7668 64.8289 31.7585 64.8183 31.7311C64.813 31.7146 64.6587 31.4622 64.4805 31.1769C63.4033 29.4592 62.007 27.2093 62.007 27.1901C62.007 27.1791 62.1001 27.127 62.2144 27.0749C62.7198 26.8444 63.1054 26.57 63.4512 26.1996C63.9326 25.6838 64.2092 25.1021 64.3528 24.3064C64.3981 24.0512 64.4087 23.8782 64.4114 23.4254C64.414 22.7834 64.3688 22.4678 64.1986 21.9657C64.0018 21.384 63.7784 21.0191 63.3395 20.5719C62.6001 19.8146 61.7171 19.4222 60.2782 19.2082C60.0069 19.167 59.4829 19.1616 55.5785 19.1533L51.182 19.1423V31.7668ZM59.6611 21.7764C60.2808 21.9109 60.6745 22.2785 60.8287 22.8767C60.8926 23.1236 60.8926 23.7 60.8261 23.9442C60.6505 24.6027 60.1292 25.0335 59.443 25.0884C59.3393 25.0966 58.2222 25.1048 56.9588 25.1076L54.6662 25.1131V21.7243H57.0413C59.2755 21.7243 59.4271 21.727 59.6611 21.7764Z" fill="white"/>
<path d="M82.3538 31.7668H93.764L93.7586 30.4827L93.7507 29.2013L85.8513 29.1876L85.838 19.1451H82.3538V31.7668Z" fill="white"/>
<path d="M95.4928 31.7668H106.903V29.1876L98.977 29.2013V19.1451H95.4928V31.7668Z" fill="white"/>
</svg>
