<svg width="279" height="279" viewBox="0 0 279 279" fill="none" xmlns="http://www.w3.org/2000/svg">
<path d="M277.999 115.039C279.851 108.016 275.736 100.552 268.93 98.6166C267.932 98.3304 264.022 98.0218 260.239 97.925C230.312 97.1031 201.934 88.0177 177.668 71.5155C154.979 56.1047 137.872 36.5257 125.623 11.9252C122.218 5.13091 121.113 3.64176 118.104 1.98703C111.806 -1.50059 103.949 0.477031 100.043 6.54149C98.2637 9.33528 98.0717 10.3912 97.9064 17.9219C97.4186 39.952 92.7294 60.0044 83.2573 80.5013C79.7723 88.0994 71.172 102.083 65.763 109.066C51.0244 127.954 33.4485 142.243 11.7302 153.02C3.34858 157.194 1.20184 159.535 0.50499 165.157C-0.0536293 169.601 1.48968 173.9 4.78724 177.091C7.41795 179.683 10.1529 180.465 16.6848 180.567C41.442 180.932 64.0248 186.632 86.4985 198.197C92.0053 201.006 104.409 209.037 109.761 213.187C127.992 227.504 142.609 245.367 152.883 266.004C156.288 272.798 156.469 273.131 158.326 274.881C163.638 280.053 173.489 279.128 178.099 272.988C180.107 270.384 180.804 267.643 180.835 262.382C181.088 224.669 195.321 188.397 221.002 159.942C233.38 146.27 249.168 134.377 266.558 125.73C269.965 124.017 273.378 122.089 274.121 121.471C275.937 119.923 277.338 117.586 277.999 115.039Z" fill="#685BC7"/>
</svg>
