<svg width="244" height="258" viewBox="0 0 244 258" fill="none" xmlns="http://www.w3.org/2000/svg">
<g id="Group 28">
<path id="Vector" d="M193.564 68.9862C182.166 66.4914 170.191 70.1564 157.698 79.9728C151.611 84.7284 144.334 92.349 140.062 98.4141C139.956 98.5707 139.414 96.887 138.871 94.6279C135.282 79.6518 128.849 65.4085 121.265 55.7402C117.081 50.3935 111.243 45.3236 105.924 42.4224C102.725 40.657 96.669 38.6626 93.0712 38.1894C81.5534 36.6404 67.5372 40.0984 59.3996 46.505C55.7657 49.3863 53.472 52.0247 51.1181 56.0939C49.3279 59.117 47.2537 65.2489 46.6685 69.1889C43.5006 90.2054 50.541 118.744 70.3323 165.303C74.493 175.049 78.204 183.414 87.9154 204.841C92.1487 214.199 96.075 222.909 96.6477 224.165L97.6441 226.464L99.377 225.612C101.907 224.419 113.525 217.927 119.756 214.232C154.269 193.877 182.394 172.787 200.323 153.868C224.063 128.788 230.866 107.135 220.47 89.5339C214.655 79.6543 203.529 71.1733 193.564 68.9862Z" fill="#FF6720"/>
<g id="CURL FRIENDLY">
<path d="M88.1822 143.08C87.1382 143.488 86.385 142.916 85.8463 141.538L78.6302 123.082C78.0915 121.704 78.1226 120.921 79.2918 120.464C80.461 120.007 81.1561 120.554 81.6785 121.89L83.8172 127.36L88.4523 125.548L86.2809 119.994C85.0892 116.946 83.1658 113.75 77.9879 115.775L76.9022 116.199C72.643 117.864 72.4568 121.451 73.6975 124.625L81.1095 143.583C82.3339 146.715 84.7166 149.731 89.4769 147.869L90.5209 147.461C95.0724 145.682 94.8357 141.875 93.5296 138.534L90.7216 131.352L86.0865 133.164L88.9109 140.388C89.4007 141.641 89.3096 142.639 88.1822 143.08Z" fill="white"/>
<path d="M104.302 142.073C108.478 140.441 109.154 136.999 107.44 132.614L97.9383 108.312L93.1362 110.189L102.752 134.784C103.291 136.162 103.2 137.161 102.072 137.601C101.028 138.01 100.226 137.312 99.7038 135.976L90.0879 111.381L85.2858 113.258L94.7874 137.561C96.5343 142.029 99.2912 144.032 103.467 142.4L104.302 142.073Z" fill="white"/>
<path d="M105.969 110.034L107.221 109.544C108.641 108.989 109.195 109.543 109.717 110.879L111.415 115.222C111.954 116.6 111.863 117.599 110.568 118.105L109.315 118.594L105.969 110.034ZM111.046 123.021L112.257 122.547C113.76 121.96 114.239 122.446 114.778 123.824L118.435 133.178C119.088 134.848 119.551 135.293 119.89 135.545L124.567 133.717L124.485 133.508C124.097 133.131 123.618 132.644 123.128 131.391L118.867 120.492C118.051 118.405 116.722 117.961 115.499 117.91C116.187 117.208 117.006 115.732 115.994 113.143L113.839 107.631C112.484 104.165 110.374 103.449 107.243 104.674L99.601 107.662L111.747 138.729L116.466 136.884L111.046 123.021Z" fill="white"/>
<path d="M113.588 102.193L125.735 133.261L136.216 129.163L134.338 124.361L128.576 126.614L118.307 100.348L113.588 102.193Z" fill="white"/>
<path d="M98.0827 186.627L102.801 184.782L97.4627 171.127L102.223 169.266L100.378 164.547L95.6179 166.408L92.418 158.224L98.4311 155.873L96.6679 151.363L85.9363 155.559L98.0827 186.627Z" fill="white"/>
<path d="M104.252 153.26L105.505 152.771C106.924 152.215 107.478 152.769 108 154.106L109.698 158.448C110.237 159.826 110.146 160.825 108.851 161.331L107.599 161.821L104.252 153.26ZM109.329 166.247L110.54 165.773C112.043 165.186 112.523 165.672 113.061 167.05L116.718 176.404C117.371 178.074 117.834 178.519 118.174 178.772L122.85 176.943L122.769 176.734C122.38 176.357 121.901 175.87 121.411 174.617L117.15 163.719C116.334 161.631 115.005 161.187 113.782 161.136C114.47 160.434 115.289 158.958 114.277 156.369L112.122 150.857C110.767 147.391 108.658 146.676 105.526 147.9L97.8844 150.888L110.031 181.955L114.749 180.11L109.329 166.247Z" fill="white"/>
<path d="M116.59 143.574L111.871 145.419L124.018 176.487L128.737 174.642L116.59 143.574Z" fill="white"/>
<path d="M118.355 142.884L130.502 173.952L141.484 169.658L139.639 164.939L133.376 167.388L129.865 158.41L134.584 156.566L132.739 151.847L128.021 153.692L124.837 145.549L130.85 143.198L129.087 138.688L118.355 142.884Z" fill="white"/>
<path d="M130.548 138.117L142.695 169.185L146.954 167.519L139.966 149.647L151.464 165.756L155.305 164.254L143.159 133.187L138.858 134.868L145.372 151.529L134.807 136.452L130.548 138.117Z" fill="white"/>
<path d="M157.049 163.573L164.273 160.748C168.156 159.23 168.645 156.295 167.16 152.495L159.764 133.579C158.327 129.904 156.177 128.097 152.126 129.681L144.902 132.505L157.049 163.573ZM151.27 134.878L152.606 134.355C153.775 133.898 154.479 134.345 155.181 136.141L162.022 153.637C162.675 155.307 162.551 156.222 161.132 156.777L160.004 157.218L151.27 134.878Z" fill="white"/>
<path d="M159.093 126.957L171.24 158.024L181.721 153.927L179.843 149.124L174.081 151.377L163.812 125.112L159.093 126.957Z" fill="white"/>
<path d="M183.424 153.26L188.143 151.416L183.098 138.513L180.13 118.732L175.871 120.397L178.306 132.78L171.612 122.062L167.019 123.858L178.363 140.316L183.424 153.26Z" fill="white"/>
</g>
<path id="Vector_2" d="M145.407 73.9916C147.131 73.0333 147.819 70.8232 146.918 69.1258C146.787 68.8766 146.112 68.0526 145.419 67.2933C139.95 61.2761 136.392 54.008 135.06 46.1503C133.811 38.8068 134.429 31.7727 136.944 24.7458C137.634 22.8007 137.718 22.3041 137.476 21.4034C136.975 19.5136 135.11 18.3465 133.187 18.7221C132.305 18.899 132.062 19.06 130.556 20.4442C126.148 24.4926 121.338 27.346 115.541 29.346C113.397 30.0925 109.04 31.0381 106.655 31.2921C100.182 31.9578 94.0771 31.2024 87.8805 28.9752C85.4863 28.1184 84.6237 28.1383 83.3915 29.0592C82.4158 29.7857 81.8639 30.8968 81.8591 32.143C81.8462 33.1459 82.2075 33.8287 83.4161 35.1275C88.0016 40.046 91.1329 45.5421 93.0948 52.1199C93.5803 53.7271 94.3403 57.6677 94.534 59.4967C95.1587 65.761 94.4092 71.9846 92.2989 77.879C91.6085 79.8242 91.5773 79.9223 91.5837 80.6151C91.5697 82.6287 93.6041 84.3845 95.674 84.1325C96.5619 84.036 97.2301 83.657 98.2663 82.6734C105.702 75.629 115.484 71.5943 125.89 71.2726C130.896 71.1256 136.196 71.9813 141.161 73.7616C142.137 74.1066 143.157 74.4124 143.418 74.4418C144.063 74.5063 144.784 74.3412 145.407 73.9916Z" fill="white"/>
</g>
</svg>
