<svg width="303" height="328" viewBox="0 0 303 328" fill="none" xmlns="http://www.w3.org/2000/svg">
<mask id="path-1-inside-1_1_181" fill="white">
<path fill-rule="evenodd" clip-rule="evenodd" d="M151 50C165.912 50 178 37.9117 178 23C178 22.6652 177.994 22.3318 177.982 22H293C298.523 22 303 26.4772 303 32V318C303 323.523 298.523 328 293 328H10C4.47716 328 0 323.523 0 318V32C0 26.4772 4.47715 22 10 22H124.018C124.006 22.3318 124 22.6652 124 23C124 37.9117 136.088 50 151 50Z"/>
</mask>
<path fill-rule="evenodd" clip-rule="evenodd" d="M151 50C165.912 50 178 37.9117 178 23C178 22.6652 177.994 22.3318 177.982 22H293C298.523 22 303 26.4772 303 32V318C303 323.523 298.523 328 293 328H10C4.47716 328 0 323.523 0 318V32C0 26.4772 4.47715 22 10 22H124.018C124.006 22.3318 124 22.6652 124 23C124 37.9117 136.088 50 151 50Z" fill="white"/>
<path d="M177.982 22V21H176.945L176.982 22.0364L177.982 22ZM124.018 22L125.018 22.0364L125.055 21H124.018V22ZM177 23C177 37.3594 165.359 49 151 49V51C166.464 51 179 38.464 179 23H177ZM176.982 22.0364C176.994 22.3561 177 22.6773 177 23H179C179 22.6531 178.994 22.3076 178.981 21.9636L176.982 22.0364ZM177.982 23H293V21H177.982V23ZM293 23C297.971 23 302 27.0294 302 32H304C304 25.9249 299.075 21 293 21V23ZM302 32V318H304V32H302ZM302 318C302 322.971 297.971 327 293 327V329C299.075 329 304 324.075 304 318H302ZM293 327H10V329H293V327ZM10 327C5.02944 327 1 322.971 1 318H-1C-1 324.075 3.92488 329 10 329V327ZM1 318V32H-1V318H1ZM1 32C1 27.0294 5.02944 23 10 23V21C3.92487 21 -1 25.9249 -1 32H1ZM10 23H124.018V21H10V23ZM125 23C125 22.6773 125.006 22.3561 125.018 22.0364L123.019 21.9636C123.006 22.3076 123 22.6531 123 23H125ZM151 49C136.641 49 125 37.3594 125 23H123C123 38.464 135.536 51 151 51V49Z" fill="black" fill-opacity="0.15" mask="url(#path-1-inside-1_1_181)"/>
<path d="M36.58 67V81H33.18V70.24H27.8V81H24.4V67H27.8H36.58ZM40.4605 71.4C41.5805 70.2933 42.9405 69.74 44.5405 69.74C46.1405 69.74 47.5005 70.2933 48.6205 71.4C49.7405 72.4933 50.3005 73.86 50.3005 75.5C50.3005 77.1533 49.7471 78.5267 48.6405 79.62C47.5338 80.7133 46.1671 81.26 44.5405 81.26C42.9271 81.26 41.5605 80.7133 40.4405 79.62C39.3338 78.5133 38.7805 77.14 38.7805 75.5C38.7805 73.86 39.3405 72.4933 40.4605 71.4ZM46.2005 73.68C45.7605 73.2133 45.2071 72.98 44.5405 72.98C43.8738 72.98 43.3205 73.2133 42.8805 73.68C42.4405 74.1467 42.2205 74.7533 42.2205 75.5C42.2205 76.26 42.4405 76.8733 42.8805 77.34C43.3205 77.7933 43.8738 78.02 44.5405 78.02C45.2071 78.02 45.7605 77.7933 46.2005 77.34C46.6405 76.8733 46.8605 76.26 46.8605 75.5C46.8605 74.7533 46.6405 74.1467 46.2005 73.68ZM54.6702 70H63.1102V81H59.7102V73.2H57.5702L57.0102 76.68C56.5168 79.7333 55.1302 81.26 52.8502 81.26C52.4235 81.26 51.9102 81.2 51.3102 81.08V78.02C51.7102 78.0733 51.9835 78.1 52.1302 78.1C52.5968 78.1 52.9368 77.98 53.1502 77.74C53.3768 77.4867 53.5435 77.02 53.6502 76.34L54.6702 70ZM72.8133 70H76.4333L69.4133 86H65.7933L68.6533 79.48L64.5133 70H68.1333L70.4533 75.74L72.8133 70ZM84.4481 70H87.8481V81H84.4481V77.68C83.7548 77.9333 83.0081 78.06 82.2081 78.06C81.6081 78.06 81.0548 78 80.5481 77.88C80.0548 77.7467 79.5881 77.54 79.1481 77.26C78.7081 76.98 78.3615 76.5733 78.1081 76.04C77.8548 75.5067 77.7281 74.8667 77.7281 74.12V70H81.1281V73.22C81.1281 73.8867 81.2415 74.3533 81.4681 74.62C81.7081 74.8867 82.1881 75.02 82.9081 75.02C83.5615 75.02 84.0748 74.9133 84.4481 74.7V70ZM97.7198 70H101.12L101.1 81H97.6998V79.82C96.9132 80.78 95.8798 81.26 94.5998 81.26C93.1865 81.26 92.0065 80.72 91.0598 79.64C90.1132 78.56 89.6398 77.18 89.6398 75.5C89.6398 73.82 90.1132 72.44 91.0598 71.36C92.0198 70.28 93.1932 69.74 94.5798 69.74C95.8998 69.74 96.9465 70.24 97.7198 71.24V70ZM93.7398 77.34C94.1798 77.7933 94.7332 78.02 95.3998 78.02C96.0665 78.02 96.6198 77.7933 97.0598 77.34C97.4998 76.8733 97.7198 76.26 97.7198 75.5C97.7198 74.7533 97.4998 74.1467 97.0598 73.68C96.6198 73.2133 96.0665 72.98 95.3998 72.98C94.7332 72.98 94.1798 73.2133 93.7398 73.68C93.2998 74.1467 93.0798 74.7533 93.0798 75.5C93.0798 76.26 93.2998 76.8733 93.7398 77.34ZM108.521 68.88C107.588 68.88 106.781 68.5867 106.101 68C105.434 67.4133 105.101 66.62 105.101 65.62V65H107.741V65.54C107.741 65.78 107.814 65.9733 107.961 66.12C108.108 66.2667 108.294 66.34 108.521 66.34C108.748 66.34 108.928 66.2667 109.061 66.12C109.208 65.9733 109.281 65.78 109.281 65.54V65H111.921V65.62C111.921 66.62 111.581 67.4133 110.901 68C110.234 68.5867 109.441 68.88 108.521 68.88ZM110.041 70H113.901V81H110.501V77.72L110.681 74.74L106.981 81H103.121V70H106.521V73.28L106.341 76.22L110.041 70ZM31.7 98H35.32L28.3 114H24.68L27.54 107.48L23.4 98H27.02L29.34 103.74L31.7 98ZM44.2148 98H47.6148V109H44.2148V105.02H40.1148V109H36.7148V98H40.1148V101.82H44.2148V98ZM56.5255 98H60.3855V109H56.9855V105.72L57.1655 102.74L53.4655 109H49.6055V98H53.0055V101.28L52.8255 104.22L56.5255 98ZM73.9589 109H69.6589L65.7789 104.48V109H62.3789V98H65.7789V102.38L69.3989 98H73.6989L68.9989 103.24L73.9589 109ZM81.8409 98H85.2409L85.2209 109H81.8209V107.82C81.0343 108.78 80.0009 109.26 78.7209 109.26C77.3076 109.26 76.1276 108.72 75.1809 107.64C74.2343 106.56 73.7609 105.18 73.7609 103.5C73.7609 101.82 74.2343 100.44 75.1809 99.36C76.1409 98.28 77.3143 97.74 78.7009 97.74C80.0209 97.74 81.0676 98.24 81.8409 99.24V98ZM77.8609 105.34C78.3009 105.793 78.8543 106.02 79.5209 106.02C80.1876 106.02 80.7409 105.793 81.1809 105.34C81.6209 104.873 81.8409 104.26 81.8409 103.5C81.8409 102.753 81.6209 102.147 81.1809 101.68C80.7409 101.213 80.1876 100.98 79.5209 100.98C78.8543 100.98 78.3009 101.213 77.8609 101.68C77.4209 102.147 77.2009 102.753 77.2009 103.5C77.2009 104.26 77.4209 104.873 77.8609 105.34ZM90.0022 98H98.4422V109H95.0422V101.2H92.9022L92.3422 104.68C91.8489 107.733 90.4622 109.26 88.1822 109.26C87.7555 109.26 87.2422 109.2 86.6422 109.08V106.02C87.0422 106.073 87.3155 106.1 87.4622 106.1C87.9289 106.1 88.2689 105.98 88.4822 105.74C88.7089 105.487 88.8755 105.02 88.9822 104.34L90.0022 98ZM106.325 101.04C106.832 101.04 107.305 101.1 107.745 101.22C108.185 101.34 108.612 101.54 109.025 101.82C109.452 102.087 109.785 102.487 110.025 103.02C110.265 103.553 110.385 104.187 110.385 104.92C110.385 105.653 110.259 106.3 110.005 106.86C109.752 107.407 109.412 107.833 108.985 108.14C108.559 108.433 108.112 108.653 107.645 108.8C107.192 108.933 106.719 109 106.225 109H100.465L100.445 98H103.845V101.04H106.325ZM106.105 105.76C106.665 105.76 106.945 105.48 106.945 104.92C106.945 104.32 106.665 104.02 106.105 104.02H103.865V105.76H106.105ZM119.684 98H123.084V109H119.684V105.02H115.584V109H112.184V98H115.584V101.82H119.684V98ZM130.914 101.04C131.421 101.04 131.894 101.1 132.334 101.22C132.774 101.34 133.201 101.54 133.614 101.82C134.041 102.087 134.374 102.487 134.614 103.02C134.854 103.553 134.974 104.187 134.974 104.92C134.974 105.653 134.848 106.3 134.594 106.86C134.341 107.407 134.001 107.833 133.574 108.14C133.148 108.433 132.701 108.653 132.234 108.8C131.781 108.933 131.308 109 130.814 109H125.074V98H128.474V101.04H130.914ZM136.334 98H139.734V109H136.334V98ZM130.694 105.76C131.254 105.76 131.534 105.48 131.534 104.92C131.534 104.32 131.254 104.02 130.694 104.02H128.474V105.76H130.694ZM147.134 96.88C146.201 96.88 145.394 96.5867 144.714 96C144.048 95.4133 143.714 94.62 143.714 93.62V93H146.354V93.54C146.354 93.78 146.428 93.9733 146.574 94.12C146.721 94.2667 146.908 94.34 147.134 94.34C147.361 94.34 147.541 94.2667 147.674 94.12C147.821 93.9733 147.894 93.78 147.894 93.54V93H150.534V93.62C150.534 94.62 150.194 95.4133 149.514 96C148.848 96.5867 148.054 96.88 147.134 96.88ZM148.654 98H152.514V109H149.114V105.72L149.294 102.74L145.594 109H141.734V98H145.134V101.28L144.954 104.22L148.654 98ZM172.084 109H167.784L163.904 104.48V109H160.504V98H163.904V102.38L167.524 98H171.824L167.124 103.24L172.084 109ZM173.566 99.4C174.686 98.2933 176.046 97.74 177.646 97.74C179.246 97.74 180.606 98.2933 181.726 99.4C182.846 100.493 183.406 101.86 183.406 103.5C183.406 105.153 182.853 106.527 181.746 107.62C180.639 108.713 179.273 109.26 177.646 109.26C176.033 109.26 174.666 108.713 173.546 107.62C172.439 106.513 171.886 105.14 171.886 103.5C171.886 101.86 172.446 100.493 173.566 99.4ZM179.306 101.68C178.866 101.213 178.313 100.98 177.646 100.98C176.979 100.98 176.426 101.213 175.986 101.68C175.546 102.147 175.326 102.753 175.326 103.5C175.326 104.26 175.546 104.873 175.986 105.34C176.426 105.793 176.979 106.02 177.646 106.02C178.313 106.02 178.866 105.793 179.306 105.34C179.746 104.873 179.966 104.26 179.966 103.5C179.966 102.753 179.746 102.147 179.306 101.68ZM196.34 105.8H198.34V111.7H194.94V109H187.62V111.7H184.22V105.8H186.22C186.474 105.547 186.66 105.06 186.78 104.34L187.8 98H196.34V105.8ZM189.76 105.8H192.94V101.2H190.7L190.16 104.52C190.094 104.973 189.96 105.4 189.76 105.8Z" fill="black"/>
<circle cx="151" cy="23" r="21" fill="#685BC7"/>
<path d="M150.546 18.55H146.886V15.67C146.886 14.49 147.196 13.49 147.816 12.67C148.456 11.83 149.466 11.41 150.846 11.41H151.686C153.146 11.41 154.236 11.8 154.956 12.58C155.696 13.34 156.066 14.38 156.066 15.7V18.19C156.066 19.93 155.586 21.06 154.626 21.58C155.726 21.94 156.276 22.79 156.276 24.13V29.71C156.276 31.15 155.876 32.28 155.076 33.1C154.296 33.92 153.216 34.33 151.836 34.33H150.996C149.476 34.33 148.366 33.95 147.666 33.19C146.986 32.43 146.646 31.47 146.646 30.31V25.81H150.546V29.35C150.546 30.05 150.826 30.4 151.386 30.4C151.926 30.4 152.196 30.05 152.196 29.35V25C152.196 24.66 152.146 24.43 152.046 24.31C151.966 24.17 151.766 24.1 151.446 24.1H149.376V20.11H151.236C151.576 20.11 151.796 20.04 151.896 19.9C152.016 19.76 152.076 19.5 152.076 19.12V16.06C152.076 15.66 152.016 15.39 151.896 15.25C151.796 15.11 151.596 15.04 151.296 15.04C151.036 15.04 150.846 15.11 150.726 15.25C150.606 15.39 150.546 15.66 150.546 16.06V18.55Z" fill="white"/>
<rect x="17.4937" y="145.022" width="254.523" height="172.945" rx="4" transform="rotate(-3.82395 17.4937 145.022)" fill="#685BC7"/>
<mask id="mask0_1_181" style="mask-type:alpha" maskUnits="userSpaceOnUse" x="17" y="128" width="266" height="190">
<rect x="17.4937" y="145.022" width="254.523" height="172.945" rx="4" transform="rotate(-3.82395 17.4937 145.022)" fill="#685BC7"/>
</mask>
<g mask="url(#mask0_1_181)">
<path d="M177.928 331.478C197.231 321.768 213.407 309.265 227.82 292.844C236.979 282.444 244.481 271.128 250.178 259.254L251.748 255.947L254.166 256.25C273.04 258.481 293.441 256.832 312.577 251.517C317.151 250.234 328.694 246.344 328.825 246.028C328.846 245.921 326.032 238.771 322.562 230.125L316.234 214.38L312.553 215.683C296.454 221.372 281.429 223.665 265.737 222.862L260.983 222.613L261.385 217.761C262.476 203.71 260.852 189.511 256.598 175.917C254.887 170.47 250.108 159.781 247.394 155.309C239.771 142.823 230.601 133.307 220.136 127.049C208.33 120.008 196.016 117.568 183.466 119.747C180.901 120.193 179.666 120.609 174.364 122.817C169.034 125.037 167.869 125.62 165.618 127.213C156.891 133.305 151.301 140.089 147.594 149.037C143.497 158.935 142.934 168.277 145.735 179.954C146.881 184.752 150.344 192.909 153.339 197.821C165.339 217.593 186.19 234.399 212.324 245.336L217.893 247.701L217.475 248.662C216.249 251.302 211.829 258.221 208.529 262.643C199.709 274.409 187.494 285.885 175.822 293.399C162.426 301.96 147.575 308.21 131.639 311.931C103.443 318.53 73.784 316.27 44.5735 305.337L39.3412 303.387L32.8513 319.097L26.373 334.835L30.6077 336.512C68.6202 351.675 110.911 353.917 148.767 342.836C158.048 340.118 170.107 335.423 177.928 331.478ZM214.346 208.519C198.179 199.657 186.033 188.104 180.519 176.28C176.493 167.636 177.502 161.252 183.702 156.246C185.811 154.549 189.406 153.117 191.713 153.073C199.738 152.844 209.64 159.794 216.705 170.547C219.145 174.281 223.052 182.877 224.484 187.653C226.796 195.405 227.836 203.72 227.55 212.391L227.471 214.717L223.143 212.817C220.759 211.811 216.802 209.856 214.346 208.519Z" fill="white" fill-opacity="0.2"/>
</g>
<rect x="80.1154" y="266.434" width="143.958" height="28.8879" transform="rotate(-3.82395 80.1154 266.434)" fill="#FBE122"/>
<rect x="82.8825" y="264.338" width="143.439" height="27.8879" transform="rotate(-3.82395 82.8825 264.338)" fill="white" stroke="black"/>
<path d="M119.89 278.11C119.06 278.166 118.352 277.938 117.768 277.426C117.188 276.915 116.871 276.244 116.815 275.413C116.76 274.583 116.985 273.876 117.491 273.292C118.003 272.707 118.673 272.387 119.504 272.331C120.142 272.289 120.716 272.429 121.224 272.754C121.731 273.072 122.093 273.519 122.307 274.092L121.341 274.157C121.17 273.837 120.927 273.591 120.611 273.42C120.294 273.243 119.942 273.168 119.553 273.194C118.984 273.232 118.526 273.455 118.179 273.863C117.837 274.271 117.686 274.767 117.725 275.353C117.764 275.938 117.98 276.41 118.373 276.769C118.771 277.127 119.255 277.287 119.824 277.249C120.213 277.223 120.552 277.104 120.843 276.892C121.133 276.675 121.341 276.396 121.468 276.057L122.434 275.992C122.298 276.589 121.999 277.082 121.539 277.471C121.078 277.855 120.528 278.068 119.89 278.11ZM127.546 277.502L126.381 277.58L124.178 275.691L124.314 277.719L123.412 277.779L123.118 273.389L124.02 273.328L124.147 275.228L125.92 273.201L127.077 273.124L125.069 275.351L127.546 277.502ZM129.632 272.857C130.27 272.814 130.822 272.997 131.288 273.404C131.759 273.811 132.016 274.341 132.06 274.996C132.103 275.65 131.922 276.21 131.514 276.676C131.107 277.141 130.582 277.396 129.938 277.439C129.299 277.481 128.745 277.299 128.274 276.893C127.808 276.48 127.553 275.949 127.51 275.3C127.466 274.645 127.65 274.085 128.063 273.619C128.475 273.153 128.998 272.899 129.632 272.857ZM130.682 274.062C130.403 273.808 130.072 273.693 129.689 273.719C129.306 273.745 128.991 273.902 128.743 274.191C128.5 274.475 128.392 274.824 128.42 275.239C128.448 275.66 128.601 275.994 128.88 276.243C129.158 276.491 129.492 276.603 129.88 276.577C130.269 276.551 130.584 276.396 130.827 276.113C131.07 275.829 131.178 275.477 131.15 275.057C131.122 274.642 130.966 274.31 130.682 274.062ZM136.886 272.468L137.18 276.859L136.278 276.919L136.041 273.375L133.774 273.526L134.011 277.07L133.109 277.131L132.815 272.74L133.717 272.68L136.886 272.468ZM140.946 272.197L142.008 272.126L142.301 276.516L141.399 276.577L141.276 274.741L141.239 273.348L139.284 276.718L138.222 276.789L137.929 272.399L138.831 272.338L138.954 274.174L138.99 275.559L140.946 272.197ZM145.526 271.795C146.106 271.756 146.602 271.939 147.014 272.345C147.426 272.75 147.654 273.285 147.699 273.951C147.744 274.621 147.589 275.185 147.235 275.641C146.885 276.092 146.415 276.337 145.825 276.377C145.159 276.421 144.63 276.179 144.236 275.649L144.419 278.379L143.517 278.439L143.09 272.054L143.992 271.993L144.042 272.744C144.361 272.156 144.856 271.839 145.526 271.795ZM145.575 275.528C145.958 275.502 146.264 275.348 146.491 275.066C146.718 274.783 146.817 274.432 146.789 274.011C146.761 273.591 146.615 273.256 146.353 273.006C146.09 272.756 145.767 272.644 145.384 272.67C144.996 272.696 144.683 272.853 144.446 273.142C144.208 273.425 144.103 273.774 144.131 274.189C144.159 274.609 144.31 274.944 144.583 275.193C144.856 275.442 145.187 275.554 145.575 275.528ZM150.585 271.457C151.223 271.414 151.775 271.596 152.241 272.003C152.712 272.41 152.969 272.941 153.013 273.595C153.057 274.25 152.875 274.81 152.468 275.275C152.061 275.741 151.535 275.995 150.891 276.038C150.253 276.081 149.698 275.899 149.227 275.492C148.761 275.08 148.506 274.549 148.463 273.899C148.419 273.245 148.604 272.685 149.016 272.219C149.429 271.753 149.952 271.499 150.585 271.457ZM151.636 272.661C151.357 272.407 151.026 272.293 150.642 272.319C150.259 272.344 149.944 272.502 149.696 272.791C149.453 273.074 149.345 273.424 149.373 273.839C149.401 274.259 149.554 274.594 149.833 274.842C150.111 275.091 150.445 275.202 150.833 275.176C151.222 275.15 151.538 274.996 151.781 274.712C152.024 274.429 152.131 274.077 152.103 273.656C152.075 273.241 151.919 272.909 151.636 272.661ZM156.898 273.175C157.451 273.299 157.747 273.645 157.785 274.214C157.813 274.624 157.695 274.947 157.433 275.184C157.171 275.415 156.792 275.548 156.297 275.581L154.062 275.73L153.768 271.34L155.812 271.203C156.844 271.134 157.385 271.47 157.435 272.209C157.46 272.587 157.281 272.909 156.898 273.175ZM156.536 272.438C156.523 272.252 156.461 272.114 156.348 272.025C156.235 271.937 156.048 271.901 155.788 271.919L154.718 271.99L154.792 273.092L155.845 273.021C156.329 272.989 156.56 272.794 156.536 272.438ZM156.194 274.874C156.454 274.857 156.634 274.791 156.734 274.678C156.838 274.558 156.884 274.4 156.87 274.203C156.844 273.81 156.589 273.629 156.104 273.661L154.835 273.746L154.916 274.959L156.194 274.874ZM161.862 270.799L162.764 270.739L163.057 275.129L162.155 275.189L162.106 274.455C161.792 275.032 161.3 275.343 160.629 275.387C160.038 275.427 159.537 275.247 159.126 274.846C158.719 274.441 158.493 273.903 158.449 273.232C158.404 272.567 158.559 272.006 158.913 271.549C159.268 271.093 159.735 270.845 160.315 270.806C160.985 270.761 161.518 271.009 161.912 271.549L161.862 270.799ZM160.763 274.513C161.152 274.487 161.465 274.332 161.702 274.049C161.94 273.766 162.045 273.414 162.017 272.994C161.989 272.578 161.838 272.246 161.565 271.997C161.292 271.743 160.961 271.629 160.572 271.655C160.189 271.68 159.884 271.835 159.657 272.117C159.43 272.399 159.33 272.751 159.359 273.171C159.387 273.592 159.532 273.927 159.795 274.176C160.057 274.426 160.38 274.538 160.763 274.513ZM167.249 270.439L167.305 271.285L165.876 271.381L166.113 274.925L165.211 274.985L164.974 271.441L163.538 271.537L163.481 270.691L165.82 270.534L167.249 270.439ZM170.226 271.619C170.705 271.587 171.094 271.684 171.392 271.91C171.696 272.13 171.864 272.49 171.897 272.991C171.931 273.496 171.808 273.889 171.527 274.17C171.247 274.451 170.87 274.607 170.396 274.638L168.257 274.781L167.963 270.391L168.865 270.331L168.957 271.704L170.226 271.619ZM170.314 273.778C170.793 273.746 171.018 273.504 170.988 273.051C170.973 272.833 170.909 272.669 170.794 272.559C170.68 272.449 170.492 272.403 170.232 272.42L169.01 272.502L169.101 273.859L170.314 273.778Z" fill="black"/>
<path d="M190.324 271.132L187.734 269.858L187.926 272.738L190.324 271.132ZM179.773 272.087L188.096 271.531L188.063 271.032L179.739 271.589L179.773 272.087Z" fill="black"/>
<path d="M69.3621 164.975C69.8936 165.13 70.3098 165.433 70.6105 165.884C70.9106 166.325 71.0813 166.855 71.1227 167.473C71.1873 168.441 70.9084 169.216 70.2859 169.799C69.6734 170.381 68.8283 170.709 67.7507 170.781L63.0213 171.097L62.321 160.62L67.0505 160.304C68.0083 160.24 68.7973 160.423 69.4173 160.852C70.0473 161.281 70.3923 161.945 70.4523 162.843C70.515 163.781 70.1516 164.491 69.3621 164.975ZM67.9081 163.464C67.8881 163.164 67.7946 162.965 67.6276 162.866C67.4606 162.767 67.2075 162.729 66.8683 162.752L65.0274 162.875L65.1324 164.446L67.0781 164.316C67.6668 164.277 67.9434 163.993 67.9081 163.464ZM67.5288 168.36C67.9279 168.333 68.1976 168.245 68.3379 168.095C68.4876 167.935 68.5527 167.71 68.5334 167.421C68.5127 167.112 68.4232 166.897 68.2649 166.777C68.1059 166.648 67.8218 166.596 67.4127 166.624L65.2875 166.766L65.4035 168.502L67.5288 168.36ZM77.9489 161.83L80.4932 161.66L81.0284 169.893L78.4841 170.063L78.4251 169.18C77.8844 169.938 77.1351 170.349 76.1773 170.413C75.1196 170.483 74.2096 170.138 73.4472 169.378C72.6847 168.617 72.2615 167.608 72.1775 166.35C72.0934 165.093 72.3786 164.037 73.033 163.181C73.6974 162.325 74.5484 161.862 75.5861 161.793C76.5739 161.727 77.3822 162.049 78.0109 162.758L77.9489 161.83ZM75.3377 167.522C75.6896 167.84 76.115 167.981 76.6139 167.948C77.1128 167.915 77.5155 167.717 77.8221 167.356C78.128 166.985 78.262 166.515 78.224 165.946C78.1866 165.388 77.9916 164.945 77.639 164.617C77.2864 164.29 76.8607 164.143 76.3618 164.177C75.8629 164.21 75.4605 164.412 75.1546 164.783C74.8487 165.155 74.7144 165.62 74.7517 166.178C74.7897 166.747 74.985 167.195 75.3377 167.522ZM91.0007 160.958L93.545 160.788L94.0952 169.02L91.5509 169.19L87.0459 169.491L83.873 169.703L82.541 169.792L81.9908 161.56L84.5351 161.39L84.9253 167.227L86.8859 167.096L86.4957 161.259L89.0401 161.089L89.4302 166.926L91.3908 166.795L91.0007 160.958ZM105.292 160.003L108.001 159.822L103.548 172.146L100.839 172.327L102.653 167.305L99.0808 160.418L101.79 160.237L103.813 164.416L105.292 160.003ZM114.657 159.377L117.201 159.207L117.752 167.438L115.207 167.609L115.008 164.63L111.94 164.835L112.139 167.814L109.595 167.984L109.045 159.752L111.589 159.582L111.78 162.441L114.848 162.236L114.657 159.377ZM123.87 158.761L126.758 158.568L127.308 166.8L124.764 166.97L124.6 164.515L124.586 162.276L122.13 167.146L119.241 167.339L118.691 159.107L121.235 158.937L121.4 161.392L121.412 163.601L123.87 158.761ZM137.466 166.121L134.248 166.336L131.118 163.147L131.344 166.53L128.8 166.7L128.25 158.468L130.794 158.298L131.013 161.576L133.503 158.117L136.721 157.902L133.466 162.059L137.466 166.121ZM142.814 157.495L145.358 157.325L145.893 165.557L143.349 165.728L143.29 164.845C142.749 165.602 142 166.013 141.042 166.077C139.985 166.148 139.075 165.803 138.312 165.042C137.55 164.281 137.127 163.272 137.042 162.015C136.958 160.758 137.244 159.701 137.898 158.846C138.562 157.99 139.413 157.527 140.451 157.457C141.439 157.391 142.247 157.713 142.876 158.423L142.814 157.495ZM140.203 163.187C140.555 163.504 140.98 163.646 141.479 163.613C141.978 163.579 142.381 163.382 142.687 163.021C142.993 162.649 143.127 162.179 143.089 161.611C143.052 161.052 142.857 160.609 142.504 160.282C142.151 159.955 141.726 159.808 141.227 159.841C140.728 159.874 140.326 160.077 140.02 160.448C139.714 160.819 139.579 161.284 139.617 161.843C139.655 162.412 139.85 162.86 140.203 163.187ZM148.921 157.087L155.237 156.665L155.787 164.896L153.243 165.066L152.853 159.229L151.251 159.336L151.006 161.969C150.79 164.278 149.829 165.49 148.122 165.604C147.803 165.625 147.416 165.606 146.961 165.546L146.808 163.256C147.11 163.276 147.316 163.283 147.426 163.275C147.775 163.252 148.023 163.145 148.171 162.955C148.328 162.754 148.429 162.396 148.475 161.882L148.921 157.087ZM161.288 158.545C161.668 158.52 162.025 158.541 162.36 158.609C162.695 158.677 163.025 158.805 163.348 158.994C163.68 159.172 163.95 159.455 164.156 159.842C164.362 160.229 164.484 160.697 164.521 161.246C164.557 161.794 164.495 162.285 164.333 162.716C164.171 163.138 163.938 163.474 163.634 163.725C163.329 163.966 163.006 164.153 162.664 164.286C162.332 164.409 161.981 164.482 161.612 164.507L157.301 164.795L156.736 156.564L159.28 156.394L159.432 158.669L161.288 158.545ZM161.36 162.088C161.779 162.06 161.974 161.837 161.946 161.418C161.916 160.969 161.692 160.758 161.273 160.786L159.597 160.898L159.684 162.2L161.36 162.088ZM171.133 155.602L173.677 155.432L174.227 163.664L171.683 163.834L171.484 160.855L168.416 161.06L168.615 164.039L166.07 164.209L165.52 155.977L168.065 155.807L168.256 158.666L171.324 158.461L171.133 155.602ZM179.689 157.315C180.068 157.29 180.425 157.311 180.761 157.379C181.096 157.447 181.425 157.575 181.748 157.764C182.081 157.942 182.351 158.225 182.557 158.612C182.763 158.999 182.885 159.467 182.921 160.016C182.958 160.565 182.896 161.055 182.734 161.487C182.572 161.908 182.339 162.245 182.035 162.495C181.73 162.736 181.407 162.923 181.065 163.056C180.732 163.179 180.381 163.252 180.012 163.277L175.717 163.564L175.167 155.332L177.711 155.162L177.863 157.437L179.689 157.315ZM183.593 154.769L186.137 154.599L186.687 162.831L184.143 163.001L183.593 154.769ZM179.76 160.858C180.179 160.83 180.375 160.607 180.347 160.188C180.317 159.739 180.092 159.528 179.673 159.556L178.012 159.667L178.099 160.969L179.76 160.858ZM191.619 153.391C190.92 153.438 190.302 153.258 189.764 152.853C189.236 152.448 188.947 151.871 188.897 151.122L188.866 150.658L190.841 150.526L190.868 150.931C190.88 151.11 190.945 151.251 191.062 151.354C191.179 151.456 191.322 151.502 191.492 151.49C191.662 151.479 191.793 151.415 191.885 151.299C191.987 151.181 192.033 151.033 192.021 150.853L191.994 150.449L193.969 150.317L194 150.781C194.05 151.53 193.835 152.14 193.356 152.613C192.886 153.086 192.307 153.345 191.619 153.391ZM192.812 154.153L195.701 153.96L196.251 162.192L193.707 162.362L193.543 159.907L193.528 157.668L191.073 162.538L188.184 162.731L187.634 154.499L190.178 154.329L190.342 156.784L190.355 158.993L192.812 154.153ZM210.896 161.213L207.678 161.428L204.548 158.239L204.774 161.622L202.23 161.792L201.68 153.56L204.224 153.39L204.443 156.668L206.933 153.209L210.151 152.994L206.896 157.15L210.896 161.213ZM211.525 153.955C212.307 153.07 213.297 152.588 214.495 152.508C215.692 152.428 216.737 152.774 217.631 153.547C218.524 154.309 219.011 155.303 219.093 156.531C219.176 157.768 218.83 158.823 218.057 159.697C217.284 160.57 216.288 161.048 215.071 161.129C213.864 161.21 212.814 160.869 211.921 160.107C211.037 159.334 210.554 158.334 210.472 157.107C210.39 155.88 210.741 154.829 211.525 153.955ZM215.934 155.374C215.581 155.047 215.156 154.9 214.657 154.933C214.158 154.966 213.755 155.169 213.45 155.54C213.144 155.911 213.009 156.376 213.047 156.935C213.085 157.504 213.28 157.951 213.633 158.279C213.985 158.596 214.41 158.738 214.909 158.705C215.408 158.671 215.81 158.474 216.117 158.113C216.423 157.741 216.557 157.271 216.519 156.703C216.482 156.144 216.287 155.701 215.934 155.374ZM228.887 157.605L230.384 157.505L230.679 161.92L228.135 162.09L228 160.07L222.522 160.436L222.657 162.456L220.113 162.626L219.818 158.211L221.314 158.111C221.491 157.909 221.607 157.535 221.66 156.99L222.107 152.195L228.497 151.768L228.887 157.605ZM223.963 157.934L226.343 157.775L226.113 154.333L224.437 154.445L224.199 156.956C224.171 157.299 224.093 157.625 223.963 157.934Z" fill="white"/>
<rect x="47.5273" y="186.62" width="200.138" height="69.6131" rx="4" transform="rotate(-3.82395 47.5273 186.62)" fill="white"/>
<path d="M115.115 213.742L109.77 196.761L115.507 196.378L118.686 207.941L120.197 196.064L125.685 195.697L122.598 213.242L128.714 232.778L122.877 233.168L119.187 219.935L117.24 233.545L111.553 233.925L115.115 213.742ZM133.161 206.423L127.923 206.773L127.609 202.083C127.489 200.287 127.833 198.677 128.64 197.254C129.478 195.795 130.927 194.996 132.99 194.858L134.386 194.765C136.615 194.616 138.319 195.12 139.499 196.277C140.678 197.435 141.341 199.094 141.485 201.256L141.769 205.497C141.978 208.623 141.326 210.621 139.814 211.49C140.767 211.761 141.483 212.214 141.959 212.85C142.436 213.486 142.718 214.453 142.805 215.75L143.415 224.88C143.566 227.141 143.087 228.977 141.979 230.388C140.902 231.763 139.365 232.517 137.37 232.65L135.823 232.754C133.562 232.905 131.86 232.434 130.718 231.341C129.609 230.246 128.99 228.734 128.861 226.805L128.357 219.272L133.945 218.898L134.352 224.985C134.45 226.448 135.047 227.143 136.145 227.07C137.176 227.001 137.642 226.235 137.545 224.771L137.028 217.038C136.979 216.307 136.846 215.814 136.628 215.562C136.444 215.307 136.036 215.2 135.404 215.243L132.361 215.446L131.974 209.659L134.618 209.482C135.284 209.438 135.707 209.276 135.889 208.996C136.071 208.717 136.133 208.145 136.075 207.28L135.728 202.092C135.677 201.327 135.525 200.802 135.272 200.519C135.053 200.233 134.677 200.107 134.145 200.143C133.646 200.176 133.29 200.351 133.077 200.665C132.895 200.945 132.83 201.467 132.881 202.232L133.161 206.423ZM145.928 231.627L143.447 194.51L156.268 193.653L156.629 199.041L149.445 199.521L150.098 209.299L155.785 208.919L156.162 214.557L150.475 214.937L151.565 231.25L145.928 231.627ZM168.522 223.252L167.995 215.369C167.899 213.939 167.336 213.259 166.305 213.328C165.739 213.365 165.351 213.558 165.141 213.907C164.961 214.219 164.898 214.775 164.952 215.573L165.478 223.455C165.561 224.686 166.117 225.267 167.148 225.198C168.146 225.131 168.604 224.482 168.522 223.252ZM167.245 205.648L166.845 199.661C166.816 199.229 166.76 198.898 166.678 198.67C166.627 198.406 166.479 198.182 166.232 197.998C166.017 197.779 165.693 197.684 165.261 197.712C164.829 197.741 164.504 197.88 164.287 198.128C164.1 198.341 164 198.582 163.984 198.85C163.966 199.085 163.972 199.419 164.001 199.851L164.398 205.788C164.482 207.052 165.007 207.652 165.971 207.587C166.903 207.525 167.327 206.878 167.245 205.648ZM172.399 198.789L172.772 204.376C172.917 206.538 172.225 208.188 170.698 209.326C172.631 210.266 173.678 211.933 173.838 214.327L174.435 223.257C174.571 225.286 174.1 226.988 173.023 228.363C171.976 229.702 170.289 230.45 167.961 230.606L166.913 230.676C164.585 230.831 162.812 230.298 161.595 229.077C160.41 227.853 159.749 226.21 159.612 224.148L159.021 215.318C158.87 213.056 159.619 211.269 161.269 209.956C159.692 208.859 158.837 207.312 158.704 205.317L158.317 199.53C158.199 197.767 158.598 196.237 159.513 194.94C160.429 193.642 162.034 192.917 164.329 192.764L165.327 192.697C167.555 192.548 169.258 193.035 170.436 194.159C171.611 195.25 172.265 196.793 172.399 198.789ZM180.37 203.267L175.132 203.617L174.819 198.928C174.698 197.132 175.042 195.522 175.849 194.098C176.687 192.639 178.137 191.841 180.199 191.703L181.596 191.609C183.824 191.461 185.528 191.965 186.708 193.122C187.888 194.279 188.55 195.939 188.694 198.101L188.978 202.341C189.187 205.467 188.535 207.465 187.023 208.335C187.977 208.605 188.692 209.058 189.169 209.695C189.645 210.331 189.927 211.298 190.014 212.595L190.624 221.724C190.775 223.986 190.297 225.822 189.188 227.232C188.111 228.607 186.574 229.361 184.579 229.495L183.032 229.598C180.771 229.749 179.069 229.279 177.927 228.186C176.818 227.09 176.199 225.578 176.07 223.649L175.567 216.116L181.154 215.743L181.561 221.829C181.659 223.292 182.256 223.988 183.354 223.914C184.385 223.845 184.852 223.079 184.754 221.616L184.237 213.883C184.188 213.151 184.055 212.659 183.838 212.406C183.653 212.151 183.245 212.045 182.614 212.087L179.57 212.291L179.183 206.504L181.828 206.327C182.493 206.282 182.916 206.12 183.098 205.841C183.28 205.562 183.342 204.989 183.284 204.125L182.937 198.936C182.886 198.171 182.734 197.647 182.481 197.363C182.262 197.077 181.886 196.952 181.354 196.988C180.855 197.021 180.499 197.195 180.286 197.51C180.104 197.789 180.039 198.312 180.09 199.077L180.37 203.267Z" fill="black"/>
</svg>
