<svg width="303" height="328" viewBox="0 0 303 328" fill="none" xmlns="http://www.w3.org/2000/svg">
<mask id="path-1-inside-1_1_173" fill="white">
<path fill-rule="evenodd" clip-rule="evenodd" d="M151 50C165.912 50 178 37.9117 178 23C178 22.6652 177.994 22.3318 177.982 22H293C298.523 22 303 26.4772 303 32V318C303 323.523 298.523 328 293 328H10C4.47716 328 0 323.523 0 318L0 32C0 26.4772 4.47715 22 10 22H124.018C124.006 22.3318 124 22.6652 124 23C124 37.9117 136.088 50 151 50Z"/>
</mask>
<path fill-rule="evenodd" clip-rule="evenodd" d="M151 50C165.912 50 178 37.9117 178 23C178 22.6652 177.994 22.3318 177.982 22H293C298.523 22 303 26.4772 303 32V318C303 323.523 298.523 328 293 328H10C4.47716 328 0 323.523 0 318L0 32C0 26.4772 4.47715 22 10 22H124.018C124.006 22.3318 124 22.6652 124 23C124 37.9117 136.088 50 151 50Z" fill="white"/>
<path d="M177.982 22V21H176.945L176.982 22.0364L177.982 22ZM124.018 22L125.018 22.0364L125.055 21H124.018V22ZM177 23C177 37.3594 165.359 49 151 49V51C166.464 51 179 38.464 179 23H177ZM176.982 22.0364C176.994 22.3561 177 22.6773 177 23H179C179 22.6531 178.994 22.3076 178.981 21.9636L176.982 22.0364ZM177.982 23H293V21H177.982V23ZM293 23C297.971 23 302 27.0294 302 32H304C304 25.9249 299.075 21 293 21V23ZM302 32V318H304V32H302ZM302 318C302 322.971 297.971 327 293 327V329C299.075 329 304 324.075 304 318H302ZM293 327H10V329H293V327ZM10 327C5.02944 327 1 322.971 1 318H-1C-1 324.075 3.92488 329 10 329V327ZM1 318L1 32H-1L-1 318H1ZM1 32C1 27.0294 5.02944 23 10 23V21C3.92487 21 -1 25.9249 -1 32H1ZM10 23H124.018V21H10V23ZM125 23C125 22.6773 125.006 22.3561 125.018 22.0364L123.019 21.9636C123.006 22.3076 123 22.6531 123 23H125ZM151 49C136.641 49 125 37.3594 125 23H123C123 38.464 135.536 51 151 51V49Z" fill="black" fill-opacity="0.15" mask="url(#path-1-inside-1_1_173)"/>
<path d="M25.9 68.84C27.3133 67.44 29.0533 66.74 31.12 66.74C33.1867 66.74 34.92 67.44 36.32 68.84C37.7333 70.2267 38.44 71.9467 38.44 74C38.44 76.0533 37.7333 77.78 36.32 79.18C34.92 80.5667 33.1867 81.26 31.12 81.26C29.0533 81.26 27.3133 80.5667 25.9 79.18C24.5 77.78 23.8 76.0533 23.8 74C23.8 71.9467 24.5 70.2267 25.9 68.84ZM33.9 71.12C33.1667 70.36 32.24 69.98 31.12 69.98C30 69.98 29.0733 70.36 28.34 71.12C27.6067 71.8667 27.24 72.8267 27.24 74C27.24 75.1733 27.6067 76.14 28.34 76.9C29.0733 77.6467 30 78.02 31.12 78.02C32.24 78.02 33.1667 77.6467 33.9 76.9C34.6333 76.14 35 75.1733 35 74C35 72.8267 34.6333 71.8667 33.9 71.12ZM45.7905 81.26C44.1238 81.26 42.7438 80.7133 41.6505 79.62C40.5705 78.5133 40.0305 77.14 40.0305 75.5C40.0305 73.86 40.5705 72.4933 41.6505 71.4C42.7438 70.2933 44.1305 69.74 45.8105 69.74C47.2371 69.74 48.4771 70.1533 49.5305 70.98C50.5838 71.7933 51.1905 72.9133 51.3505 74.34H47.8505C47.6105 73.3667 46.9305 72.88 45.8105 72.88C45.0771 72.88 44.5038 73.12 44.0905 73.6C43.6771 74.08 43.4705 74.7133 43.4705 75.5C43.4705 76.2867 43.6771 76.92 44.0905 77.4C44.5171 77.88 45.0838 78.12 45.7905 78.12C46.2838 78.12 46.7171 78 47.0905 77.76C47.4771 77.5067 47.7305 77.1333 47.8505 76.64H51.3505C51.1771 78.0933 50.5571 79.2267 49.4905 80.04C48.4371 80.8533 47.2038 81.26 45.7905 81.26ZM62.1453 70V73.2H58.9453V81H55.5453V73.2H52.3453V70H58.9453H62.1453ZM71.4308 70H74.8308L74.8108 81H71.4108V79.82C70.6241 80.78 69.5908 81.26 68.3108 81.26C66.8974 81.26 65.7174 80.72 64.7708 79.64C63.8241 78.56 63.3508 77.18 63.3508 75.5C63.3508 73.82 63.8241 72.44 64.7708 71.36C65.7308 70.28 66.9041 69.74 68.2908 69.74C69.6108 69.74 70.6574 70.24 71.4308 71.24V70ZM67.4508 77.34C67.8908 77.7933 68.4441 78.02 69.1108 78.02C69.7774 78.02 70.3308 77.7933 70.7708 77.34C71.2108 76.8733 71.4308 76.26 71.4308 75.5C71.4308 74.7533 71.2108 74.1467 70.7708 73.68C70.3308 73.2133 69.7774 72.98 69.1108 72.98C68.4441 72.98 67.8908 73.2133 67.4508 73.68C67.0108 74.1467 66.7908 74.7533 66.7908 75.5C66.7908 76.26 67.0108 76.8733 67.4508 77.34ZM84.972 75.02C86.2387 75.42 86.872 76.3467 86.872 77.8C86.872 78.92 86.492 79.7333 85.732 80.24C84.972 80.7467 83.9987 81 82.812 81H76.832V70H82.332C82.892 70 83.3854 70.04 83.812 70.12C84.252 70.1867 84.672 70.3133 85.072 70.5C85.472 70.6867 85.7787 70.9733 85.992 71.36C86.2054 71.7333 86.312 72.2 86.312 72.76C86.312 73.2933 86.1987 73.7267 85.972 74.06C85.7454 74.3933 85.412 74.7133 84.972 75.02ZM82.872 73.44C82.872 73.1467 82.8054 72.94 82.672 72.82C82.552 72.7 82.3387 72.64 82.032 72.64H80.232V74.2H82.052C82.3587 74.2 82.572 74.1467 82.692 74.04C82.812 73.92 82.872 73.72 82.872 73.44ZM82.552 78.36C82.872 78.36 83.0987 78.3 83.232 78.18C83.3654 78.0467 83.432 77.8133 83.432 77.48C83.432 77.1467 83.3654 76.92 83.232 76.8C83.0987 76.6667 82.872 76.6 82.552 76.6H80.232V78.36H82.552ZM91.3303 70H99.7703V81H96.3703V73.2H94.2303L93.6703 76.68C93.177 79.7333 91.7903 81.26 89.5103 81.26C89.0836 81.26 88.5703 81.2 87.9703 81.08V78.02C88.3703 78.0733 88.6436 78.1 88.7903 78.1C89.257 78.1 89.597 77.98 89.8103 77.74C90.037 77.4867 90.2036 77.02 90.3103 76.34L91.3303 70ZM105.973 70H111.813V81H108.413V77.38H107.593L105.333 81H101.173L104.033 77C102.553 76.4667 101.813 75.4133 101.813 73.84C101.813 73.1467 101.94 72.54 102.193 72.02C102.447 71.4867 102.787 71.0867 103.213 70.82C103.64 70.54 104.08 70.3333 104.533 70.2C105 70.0667 105.48 70 105.973 70ZM106.193 73.04C105.567 73.04 105.253 73.2867 105.253 73.78C105.253 74.3267 105.567 74.6 106.193 74.6H108.413V73.04H106.193ZM119.205 68.88C118.271 68.88 117.465 68.5867 116.785 68C116.118 67.4133 115.785 66.62 115.785 65.62V65H118.425V65.54C118.425 65.78 118.498 65.9733 118.645 66.12C118.791 66.2667 118.978 66.34 119.205 66.34C119.431 66.34 119.611 66.2667 119.745 66.12C119.891 65.9733 119.965 65.78 119.965 65.54V65H122.605V65.62C122.605 66.62 122.265 67.4133 121.585 68C120.918 68.5867 120.125 68.88 119.205 68.88ZM120.725 70H124.585V81H121.185V77.72L121.365 74.74L117.665 81H113.805V70H117.205V73.28L117.025 76.22L120.725 70ZM25.48 99.4C26.6 98.2933 27.96 97.74 29.56 97.74C31.16 97.74 32.52 98.2933 33.64 99.4C34.76 100.493 35.32 101.86 35.32 103.5C35.32 105.153 34.7667 106.527 33.66 107.62C32.5533 108.713 31.1867 109.26 29.56 109.26C27.9467 109.26 26.58 108.713 25.46 107.62C24.3533 106.513 23.8 105.14 23.8 103.5C23.8 101.86 24.36 100.493 25.48 99.4ZM31.22 101.68C30.78 101.213 30.2267 100.98 29.56 100.98C28.8933 100.98 28.34 101.213 27.9 101.68C27.46 102.147 27.24 102.753 27.24 103.5C27.24 104.26 27.46 104.873 27.9 105.34C28.34 105.793 28.8933 106.02 29.56 106.02C30.2267 106.02 30.78 105.793 31.22 105.34C31.66 104.873 31.88 104.26 31.88 103.5C31.88 102.753 31.66 102.147 31.22 101.68ZM46.325 98V101.2H43.125V109H39.725V101.2H36.525V98H43.125H46.325ZM56.2105 103.2C57.2905 103.667 57.8305 104.533 57.8305 105.8C57.8305 106.947 57.3705 107.813 56.4505 108.4C55.5305 108.973 54.3105 109.26 52.7905 109.26C49.6305 109.26 47.8105 107.92 47.3305 105.24H50.7705C50.8505 105.773 51.0371 106.147 51.3305 106.36C51.6371 106.573 52.0971 106.68 52.7105 106.68C53.3105 106.68 53.7371 106.593 53.9905 106.42C54.2571 106.247 54.3905 105.967 54.3905 105.58C54.3905 105.273 54.2971 105.047 54.1105 104.9C53.9238 104.753 53.5905 104.68 53.1105 104.68H51.4305V102.1H52.8705C53.3105 102.1 53.6171 102.033 53.7905 101.9C53.9638 101.767 54.0505 101.553 54.0505 101.26C54.0505 100.927 53.9371 100.68 53.7105 100.52C53.4838 100.347 53.1038 100.26 52.5705 100.26C51.5971 100.26 51.0571 100.66 50.9505 101.46H47.5105C47.9238 98.98 49.6238 97.74 52.6105 97.74C54.0505 97.74 55.2238 98.02 56.1305 98.58C57.0371 99.14 57.4905 99.9467 57.4905 101C57.4905 101.96 57.0638 102.693 56.2105 103.2ZM65.3673 101.04C65.874 101.04 66.3473 101.1 66.7873 101.22C67.2273 101.34 67.654 101.54 68.0673 101.82C68.494 102.087 68.8273 102.487 69.0673 103.02C69.3073 103.553 69.4273 104.187 69.4273 104.92C69.4273 105.653 69.3007 106.3 69.0473 106.86C68.794 107.407 68.454 107.833 68.0273 108.14C67.6007 108.433 67.154 108.653 66.6873 108.8C66.234 108.933 65.7607 109 65.2673 109H59.5273V98H62.9273V101.04H65.3673ZM70.7873 98H74.1873V109H70.7873V98ZM65.1473 105.76C65.7073 105.76 65.9873 105.48 65.9873 104.92C65.9873 104.32 65.7073 104.02 65.1473 104.02H62.9273V105.76H65.1473ZM84.3275 103.02C85.5942 103.42 86.2275 104.347 86.2275 105.8C86.2275 106.92 85.8475 107.733 85.0875 108.24C84.3275 108.747 83.3542 109 82.1675 109H76.1875V98H81.6875C82.2475 98 82.7408 98.04 83.1675 98.12C83.6075 98.1867 84.0275 98.3133 84.4275 98.5C84.8275 98.6867 85.1342 98.9733 85.3475 99.36C85.5608 99.7333 85.6675 100.2 85.6675 100.76C85.6675 101.293 85.5542 101.727 85.3275 102.06C85.1008 102.393 84.7675 102.713 84.3275 103.02ZM82.2275 101.44C82.2275 101.147 82.1608 100.94 82.0275 100.82C81.9075 100.7 81.6942 100.64 81.3875 100.64H79.5875V102.2H81.4075C81.7142 102.2 81.9275 102.147 82.0475 102.04C82.1675 101.92 82.2275 101.72 82.2275 101.44ZM81.9075 106.36C82.2275 106.36 82.4542 106.3 82.5875 106.18C82.7208 106.047 82.7875 105.813 82.7875 105.48C82.7875 105.147 82.7208 104.92 82.5875 104.8C82.4542 104.667 82.2275 104.6 81.9075 104.6H79.5875V106.36H81.9075ZM95.4019 99.4C96.5219 98.2933 97.8819 97.74 99.4819 97.74C101.082 97.74 102.442 98.2933 103.562 99.4C104.682 100.493 105.242 101.86 105.242 103.5C105.242 105.153 104.689 106.527 103.582 107.62C102.475 108.713 101.109 109.26 99.4819 109.26C97.8685 109.26 96.5019 108.713 95.3819 107.62C94.2752 106.513 93.7219 105.14 93.7219 103.5C93.7219 101.86 94.2819 100.493 95.4019 99.4ZM101.142 101.68C100.702 101.213 100.149 100.98 99.4819 100.98C98.8152 100.98 98.2619 101.213 97.8219 101.68C97.3819 102.147 97.1619 102.753 97.1619 103.5C97.1619 104.26 97.3819 104.873 97.8219 105.34C98.2619 105.793 98.8152 106.02 99.4819 106.02C100.149 106.02 100.702 105.793 101.142 105.34C101.582 104.873 101.802 104.26 101.802 103.5C101.802 102.753 101.582 102.147 101.142 101.68ZM122.243 98V101.2H119.043V109H115.643V101.2H112.443V98H119.043H122.243ZM125.128 99.4C126.248 98.2933 127.608 97.74 129.208 97.74C130.808 97.74 132.168 98.2933 133.288 99.4C134.408 100.493 134.968 101.86 134.968 103.5C134.968 105.153 134.415 106.527 133.308 107.62C132.202 108.713 130.835 109.26 129.208 109.26C127.595 109.26 126.228 108.713 125.108 107.62C124.002 106.513 123.448 105.14 123.448 103.5C123.448 101.86 124.008 100.493 125.128 99.4ZM130.868 101.68C130.428 101.213 129.875 100.98 129.208 100.98C128.542 100.98 127.988 101.213 127.548 101.68C127.108 102.147 126.888 102.753 126.888 103.5C126.888 104.26 127.108 104.873 127.548 105.34C127.988 105.793 128.542 106.02 129.208 106.02C129.875 106.02 130.428 105.793 130.868 105.34C131.308 104.873 131.528 104.26 131.528 103.5C131.528 102.753 131.308 102.147 130.868 101.68ZM144.913 103.02C146.18 103.42 146.813 104.347 146.813 105.8C146.813 106.92 146.433 107.733 145.673 108.24C144.913 108.747 143.94 109 142.753 109H136.773V98H142.273C142.833 98 143.327 98.04 143.753 98.12C144.193 98.1867 144.613 98.3133 145.013 98.5C145.413 98.6867 145.72 98.9733 145.933 99.36C146.147 99.7333 146.253 100.2 146.253 100.76C146.253 101.293 146.14 101.727 145.913 102.06C145.687 102.393 145.353 102.713 144.913 103.02ZM142.813 101.44C142.813 101.147 142.747 100.94 142.613 100.82C142.493 100.7 142.28 100.64 141.973 100.64H140.173V102.2H141.993C142.3 102.2 142.513 102.147 142.633 102.04C142.753 101.92 142.813 101.72 142.813 101.44ZM142.493 106.36C142.813 106.36 143.04 106.3 143.173 106.18C143.307 106.047 143.373 105.813 143.373 105.48C143.373 105.147 143.307 104.92 143.173 104.8C143.04 104.667 142.813 104.6 142.493 104.6H140.173V106.36H142.493ZM156.392 98H159.792L159.772 109H156.372V107.82C155.585 108.78 154.552 109.26 153.272 109.26C151.858 109.26 150.678 108.72 149.732 107.64C148.785 106.56 148.312 105.18 148.312 103.5C148.312 101.82 148.785 100.44 149.732 99.36C150.692 98.28 151.865 97.74 153.252 97.74C154.572 97.74 155.618 98.24 156.392 99.24V98ZM152.412 105.34C152.852 105.793 153.405 106.02 154.072 106.02C154.738 106.02 155.292 105.793 155.732 105.34C156.172 104.873 156.392 104.26 156.392 103.5C156.392 102.753 156.172 102.147 155.732 101.68C155.292 101.213 154.738 100.98 154.072 100.98C153.405 100.98 152.852 101.213 152.412 101.68C151.972 102.147 151.752 102.753 151.752 103.5C151.752 104.26 151.972 104.873 152.412 105.34ZM168.433 97.74C169.82 97.74 170.986 98.28 171.933 99.36C172.893 100.44 173.373 101.82 173.373 103.5C173.373 105.18 172.9 106.56 171.953 107.64C171.006 108.72 169.826 109.26 168.413 109.26C167.133 109.26 166.093 108.78 165.293 107.82V114H161.893V98H165.293V99.24C166.066 98.24 167.113 97.74 168.433 97.74ZM165.953 105.34C166.393 105.793 166.946 106.02 167.613 106.02C168.28 106.02 168.833 105.793 169.273 105.34C169.713 104.873 169.933 104.26 169.933 103.5C169.933 102.753 169.713 102.147 169.273 101.68C168.833 101.213 168.28 100.98 167.613 100.98C166.946 100.98 166.393 101.213 165.953 101.68C165.513 102.147 165.293 102.753 165.293 103.5C165.293 104.26 165.513 104.873 165.953 105.34ZM180.772 97.74C182.572 97.74 184.012 98.3667 185.092 99.62C186.172 100.86 186.625 102.393 186.452 104.22H178.432C178.512 105.02 178.772 105.627 179.212 106.04C179.665 106.44 180.212 106.64 180.852 106.64C181.319 106.64 181.725 106.533 182.072 106.32C182.419 106.093 182.659 105.787 182.792 105.4H186.292C185.932 106.693 185.252 107.66 184.252 108.3C183.265 108.94 182.132 109.26 180.852 109.26C179.119 109.26 177.705 108.713 176.612 107.62C175.519 106.527 174.972 105.153 174.972 103.5C174.972 101.86 175.512 100.493 176.592 99.4C177.685 98.2933 179.079 97.74 180.772 97.74ZM180.752 100.36C179.592 100.36 178.852 100.96 178.532 102.16H182.912C182.792 101.613 182.545 101.18 182.172 100.86C181.812 100.527 181.339 100.36 180.752 100.36Z" fill="black"/>
<path d="M31.078 126.2H32.24V136H31.078V131.492H25.394V136H24.232V126.2H25.394V130.386H31.078V126.2ZM40.7667 128.3H41.9287V136H40.7667V134.446C40.4587 134.978 40.048 135.398 39.5347 135.706C39.0307 136.005 38.452 136.154 37.7987 136.154C36.7533 136.154 35.89 135.781 35.2087 135.034C34.5367 134.278 34.2007 133.317 34.2007 132.15C34.2007 130.983 34.5367 130.027 35.2087 129.28C35.89 128.524 36.7533 128.146 37.7987 128.146C38.452 128.146 39.0353 128.3 39.5487 128.608C40.062 128.916 40.468 129.341 40.7667 129.882V128.3ZM38.0227 135.048C38.816 135.048 39.474 134.777 39.9967 134.236C40.5193 133.685 40.7807 132.99 40.7807 132.15C40.7807 131.31 40.5193 130.619 39.9967 130.078C39.474 129.527 38.816 129.252 38.0227 129.252C37.2387 129.252 36.5993 129.527 36.1047 130.078C35.6193 130.619 35.3767 131.31 35.3767 132.15C35.3767 132.999 35.624 133.695 36.1187 134.236C36.6133 134.777 37.248 135.048 38.0227 135.048ZM50.9829 128.3V136H49.8209V129.392H45.1589V136H43.9969V128.3H45.1589H50.9829ZM58.5777 128.3H60.0057V136H58.8437V132.304L58.9137 129.714L54.4757 136H53.0477V128.3H54.2097V131.996L54.1397 134.572L58.5777 128.3ZM71.0175 128.3H72.1795V136H71.0175H66.5375H62.5895H62.0575V128.3H63.2195V134.908H66.5375V128.3H67.6995V134.908H71.0175V128.3ZM79.7691 128.3H81.1971V136H80.0351V132.304L80.1051 129.714L75.6671 136H74.2391V128.3H75.4011V131.996L75.3311 134.572L79.7691 128.3ZM91.1142 136.154C89.9848 136.154 89.0375 135.776 88.2722 135.02C87.5162 134.255 87.1382 133.298 87.1382 132.15C87.1382 131.002 87.5162 130.05 88.2722 129.294C89.0375 128.529 89.9848 128.146 91.1142 128.146C92.0288 128.146 92.8315 128.403 93.5222 128.916C94.2128 129.429 94.6562 130.12 94.8522 130.988H93.6482C93.4708 130.447 93.1535 130.017 92.6962 129.7C92.2388 129.383 91.7115 129.224 91.1142 129.224C90.3022 129.224 89.6302 129.499 89.0982 130.05C88.5755 130.601 88.3142 131.301 88.3142 132.15C88.3142 132.999 88.5755 133.699 89.0982 134.25C89.6302 134.801 90.3022 135.076 91.1142 135.076C91.7115 135.076 92.2342 134.917 92.6822 134.6C93.1395 134.283 93.4615 133.853 93.6482 133.312H94.8522C94.6468 134.189 94.1988 134.885 93.5082 135.398C92.8175 135.902 92.0195 136.154 91.1142 136.154ZM101.482 131.898C102.471 132.169 102.966 132.808 102.966 133.816C102.966 134.497 102.737 135.034 102.28 135.426C101.822 135.809 101.15 136 100.264 136H96.4696V128.3H99.9136C101.706 128.3 102.602 128.953 102.602 130.26C102.602 130.969 102.228 131.515 101.482 131.898ZM101.426 130.456C101.426 130.055 101.309 129.751 101.076 129.546C100.842 129.341 100.427 129.238 99.8296 129.238H97.6316V131.59H99.8016C100.884 131.59 101.426 131.212 101.426 130.456ZM100.194 135.062C101.267 135.062 101.804 134.614 101.804 133.718C101.804 132.878 101.258 132.458 100.166 132.458H97.6316V135.062H100.194ZM108.231 128.146C109.342 128.146 110.28 128.529 111.045 129.294C111.82 130.05 112.207 131.002 112.207 132.15C112.207 133.298 111.824 134.255 111.059 135.02C110.294 135.776 109.351 136.154 108.231 136.154C107.12 136.154 106.182 135.771 105.417 135.006C104.652 134.241 104.269 133.289 104.269 132.15C104.269 131.011 104.652 130.059 105.417 129.294C106.192 128.529 107.13 128.146 108.231 128.146ZM110.219 130.078C109.678 129.527 109.015 129.252 108.231 129.252C107.447 129.252 106.784 129.527 106.243 130.078C105.711 130.619 105.445 131.31 105.445 132.15C105.445 132.99 105.711 133.685 106.243 134.236C106.784 134.777 107.447 135.048 108.231 135.048C109.024 135.048 109.687 134.777 110.219 134.236C110.76 133.685 111.031 132.99 111.031 132.15C111.031 131.31 110.76 130.619 110.219 130.078ZM119.024 126.368C118.595 126.751 118.063 126.942 117.428 126.942C116.793 126.942 116.261 126.751 115.832 126.368C115.403 125.976 115.188 125.458 115.188 124.814V124.562H116.14V124.786C116.14 125.159 116.257 125.463 116.49 125.696C116.733 125.92 117.045 126.032 117.428 126.032C117.82 126.032 118.133 125.92 118.366 125.696C118.609 125.463 118.73 125.159 118.73 124.786V124.562H119.682V124.814C119.682 125.458 119.463 125.976 119.024 126.368ZM119.486 128.3H120.914V136H119.752V132.304L119.822 129.714L115.384 136H113.956V128.3H115.118V131.996L115.048 134.572L119.486 128.3ZM132.763 128.3H134.009L128.815 139.5H127.569L129.613 135.062L126.491 128.3H127.737L130.229 133.816L132.763 128.3ZM141.301 128.3H142.463V136H141.301V132.612H136.569V136H135.407V128.3H136.569V131.506H141.301V128.3ZM150.07 128.3H151.498V136H150.336V132.304L150.406 129.714L145.968 136H144.54V128.3H145.702V131.996L145.632 134.572L150.07 128.3ZM160.354 136H158.828L154.712 132.29V136H153.55V128.3H154.712V131.73L158.464 128.3H159.99L155.944 131.954L160.354 136ZM167.273 128.3H168.435V136H167.273V134.446C166.965 134.978 166.554 135.398 166.041 135.706C165.537 136.005 164.958 136.154 164.305 136.154C163.259 136.154 162.396 135.781 161.715 135.034C161.043 134.278 160.707 133.317 160.707 132.15C160.707 130.983 161.043 130.027 161.715 129.28C162.396 128.524 163.259 128.146 164.305 128.146C164.958 128.146 165.541 128.3 166.055 128.608C166.568 128.916 166.974 129.341 167.273 129.882V128.3ZM164.529 135.048C165.322 135.048 165.98 134.777 166.503 134.236C167.025 133.685 167.287 132.99 167.287 132.15C167.287 131.31 167.025 130.619 166.503 130.078C165.98 129.527 165.322 129.252 164.529 129.252C163.745 129.252 163.105 129.527 162.611 130.078C162.125 130.619 161.883 131.31 161.883 132.15C161.883 132.999 162.13 133.695 162.625 134.236C163.119 134.777 163.754 135.048 164.529 135.048ZM172.243 128.3H177.479V136H176.317V129.392H173.223L172.649 133.004C172.462 134.133 172.177 134.941 171.795 135.426C171.421 135.911 170.922 136.154 170.297 136.154C170.073 136.154 169.863 136.14 169.667 136.112V135.048C169.835 135.067 169.97 135.076 170.073 135.076C170.474 135.076 170.777 134.927 170.983 134.628C171.188 134.32 171.361 133.755 171.501 132.934L172.243 128.3ZM183.208 130.848C184.085 130.848 184.757 131.063 185.224 131.492C185.69 131.912 185.924 132.542 185.924 133.382C185.924 134.213 185.681 134.857 185.196 135.314C184.71 135.771 184.029 136 183.152 136H179.554V128.3H180.716V130.848H183.208ZM183.124 134.894C184.206 134.894 184.748 134.39 184.748 133.382C184.748 132.906 184.626 132.537 184.384 132.276C184.15 132.015 183.74 131.884 183.152 131.884H180.716V134.894H183.124ZM193.569 128.3H194.731V136H193.569V132.612H188.837V136H187.675V128.3H188.837V131.506H193.569V128.3ZM200.447 130.848C201.325 130.848 201.997 131.063 202.463 131.492C202.93 131.912 203.163 132.542 203.163 133.382C203.163 134.213 202.921 134.857 202.435 135.314C201.95 135.771 201.269 136 200.391 136H196.807V128.3H197.969V130.848H200.447ZM204.381 128.3H205.543V136H204.381V128.3ZM200.377 134.894C201.451 134.894 201.987 134.39 201.987 133.382C201.987 132.906 201.866 132.537 201.623 132.276C201.39 132.015 200.979 131.884 200.391 131.884H197.969V134.894H200.377ZM212.69 126.368C212.261 126.751 211.729 126.942 211.094 126.942C210.459 126.942 209.927 126.751 209.498 126.368C209.069 125.976 208.854 125.458 208.854 124.814V124.562H209.806V124.786C209.806 125.159 209.923 125.463 210.156 125.696C210.399 125.92 210.711 126.032 211.094 126.032C211.486 126.032 211.799 125.92 212.032 125.696C212.275 125.463 212.396 125.159 212.396 124.786V124.562H213.348V124.814C213.348 125.458 213.129 125.976 212.69 126.368ZM213.152 128.3H214.58V136H213.418V132.304L213.488 129.714L209.05 136H207.622V128.3H208.784V131.996L208.714 134.572L213.152 128.3ZM227.633 136H226.107L221.991 132.29V136H220.829V128.3H221.991V131.73L225.743 128.3H227.269L223.223 131.954L227.633 136ZM231.948 128.146C233.058 128.146 233.996 128.529 234.762 129.294C235.536 130.05 235.924 131.002 235.924 132.15C235.924 133.298 235.541 134.255 234.776 135.02C234.01 135.776 233.068 136.154 231.948 136.154C230.837 136.154 229.899 135.771 229.134 135.006C228.368 134.241 227.986 133.289 227.986 132.15C227.986 131.011 228.368 130.059 229.134 129.294C229.908 128.529 230.846 128.146 231.948 128.146ZM233.936 130.078C233.394 129.527 232.732 129.252 231.948 129.252C231.164 129.252 230.501 129.527 229.96 130.078C229.428 130.619 229.162 131.31 229.162 132.15C229.162 132.99 229.428 133.685 229.96 134.236C230.501 134.777 231.164 135.048 231.948 135.048C232.741 135.048 233.404 134.777 233.936 134.236C234.477 133.685 234.748 132.99 234.748 132.15C234.748 131.31 234.477 130.619 233.936 130.078ZM244.575 134.908H245.975V138.058H244.813V136H243.413H237.547V138.058H236.385V134.908H237.701C238.121 134.619 238.434 133.811 238.639 132.486L239.311 128.3H244.575V134.908ZM239.003 134.908H243.413V129.392H240.305L239.801 132.514C239.615 133.671 239.349 134.469 239.003 134.908ZM249.564 135.412C249.582 135.692 249.195 136.691 248.402 138.408H247.576L248.5 136.126C248.126 136.033 247.94 135.785 247.94 135.384C247.94 135.151 248.014 134.959 248.164 134.81C248.322 134.661 248.518 134.586 248.752 134.586C248.957 134.586 249.139 134.651 249.298 134.782C249.466 134.913 249.554 135.123 249.564 135.412ZM31.022 149.3V157H29.86V150.392H25.198V157H24.036V149.3H25.198H31.022ZM36.7408 149.146C37.8514 149.146 38.7894 149.529 39.5548 150.294C40.3294 151.05 40.7168 152.002 40.7168 153.15C40.7168 154.298 40.3341 155.255 39.5688 156.02C38.8034 156.776 37.8608 157.154 36.7408 157.154C35.6301 157.154 34.6921 156.771 33.9268 156.006C33.1614 155.241 32.7788 154.289 32.7788 153.15C32.7788 152.011 33.1614 151.059 33.9268 150.294C34.7014 149.529 35.6394 149.146 36.7408 149.146ZM38.7288 151.078C38.1874 150.527 37.5248 150.252 36.7408 150.252C35.9568 150.252 35.2941 150.527 34.7528 151.078C34.2208 151.619 33.9548 152.31 33.9548 153.15C33.9548 153.99 34.2208 154.685 34.7528 155.236C35.2941 155.777 35.9568 156.048 36.7408 156.048C37.5341 156.048 38.1968 155.777 38.7288 155.236C39.2701 154.685 39.5408 153.99 39.5408 153.15C39.5408 152.31 39.2701 151.619 38.7288 151.078ZM43.8912 149.3H49.1272V157H47.9652V150.392H44.8712L44.2972 154.004C44.1105 155.133 43.8258 155.941 43.4432 156.426C43.0698 156.911 42.5705 157.154 41.9452 157.154C41.7212 157.154 41.5112 157.14 41.3152 157.112V156.048C41.4832 156.067 41.6185 156.076 41.7212 156.076C42.1225 156.076 42.4258 155.927 42.6312 155.628C42.8365 155.32 43.0092 154.755 43.1492 153.934L43.8912 149.3ZM56.802 149.3H58.048L52.854 160.5H51.608L53.652 156.062L50.53 149.3H51.776L54.268 154.816L56.802 149.3ZM64.5942 149.3H65.7562V157H64.5942V154.214C63.9222 154.503 63.1662 154.648 62.3262 154.648C60.3289 154.648 59.3302 153.701 59.3302 151.806V149.3H60.4922V151.54C60.4922 152.268 60.6462 152.795 60.9542 153.122C61.2716 153.439 61.7942 153.598 62.5222 153.598C63.4182 153.598 64.1089 153.449 64.5942 153.15V149.3ZM71.453 149.146C72.6477 149.146 73.5997 149.552 74.309 150.364C75.0183 151.176 75.3497 152.221 75.303 153.5H68.709C68.765 154.293 69.0497 154.919 69.563 155.376C70.0763 155.833 70.725 156.062 71.509 156.062C72.657 156.062 73.4597 155.614 73.917 154.718H75.121C74.8037 155.511 74.323 156.118 73.679 156.538C73.035 156.949 72.2977 157.154 71.467 157.154C70.319 157.154 69.3717 156.785 68.625 156.048C67.8877 155.301 67.519 154.345 67.519 153.178C67.519 152.011 67.8877 151.05 68.625 150.294C69.3623 149.529 70.305 149.146 71.453 149.146ZM71.453 150.238C70.7623 150.238 70.1743 150.439 69.689 150.84C69.213 151.241 68.905 151.764 68.765 152.408H74.043C73.9123 151.755 73.6183 151.232 73.161 150.84C72.7037 150.439 72.1343 150.238 71.453 150.238ZM82.8948 149.3H84.0568V157H82.8948V153.612H78.1628V157H77.0008V149.3H78.1628V152.506H82.8948V149.3ZM92.0277 149.3H93.1897V157H92.0277V153.612H87.2957V157H86.1337V149.3H87.2957V152.506H92.0277V149.3ZM98.9065 151.848C99.7838 151.848 100.456 152.063 100.922 152.492C101.389 152.912 101.622 153.542 101.622 154.382C101.622 155.213 101.38 155.857 100.894 156.314C100.409 156.771 99.7278 157 98.8505 157H95.2665V149.3H96.4285V151.848H98.9065ZM102.84 149.3H104.002V157H102.84V149.3ZM98.8365 155.894C99.9098 155.894 100.446 155.39 100.446 154.382C100.446 153.906 100.325 153.537 100.082 153.276C99.8491 153.015 99.4385 152.884 98.8505 152.884H96.4285V155.894H98.8365ZM111.149 147.368C110.72 147.751 110.188 147.942 109.553 147.942C108.918 147.942 108.386 147.751 107.957 147.368C107.528 146.976 107.313 146.458 107.313 145.814V145.562H108.265V145.786C108.265 146.159 108.382 146.463 108.615 146.696C108.858 146.92 109.17 147.032 109.553 147.032C109.945 147.032 110.258 146.92 110.491 146.696C110.734 146.463 110.855 146.159 110.855 145.786V145.562H111.807V145.814C111.807 146.458 111.588 146.976 111.149 147.368ZM111.611 149.3H113.039V157H111.877V153.304L111.947 150.714L107.509 157H106.081V149.3H107.243V152.996L107.173 155.572L111.611 149.3ZM126.274 149.3V157H125.112V150.392H120.45V157H119.288V149.3H120.45H126.274ZM132.539 149.146C133.584 149.146 134.443 149.524 135.115 150.28C135.796 151.027 136.137 151.983 136.137 153.15C136.137 154.317 135.796 155.278 135.115 156.034C134.433 156.781 133.57 157.154 132.525 157.154C131.871 157.154 131.288 157.005 130.775 156.706C130.271 156.398 129.869 155.978 129.571 155.446V160.5H128.409V149.3H129.571V150.882C129.869 150.341 130.275 149.916 130.789 149.608C131.302 149.3 131.885 149.146 132.539 149.146ZM132.315 156.048C133.089 156.048 133.724 155.777 134.219 155.236C134.713 154.695 134.961 153.999 134.961 153.15C134.961 152.31 134.713 151.619 134.219 151.078C133.724 150.527 133.089 150.252 132.315 150.252C131.521 150.252 130.863 150.527 130.341 151.078C129.818 151.619 129.557 152.31 129.557 153.15C129.557 153.99 129.818 154.685 130.341 155.236C130.863 155.777 131.521 156.048 132.315 156.048ZM143.425 149.3H144.853V157H143.691V153.304L143.761 150.714L139.323 157H137.895V149.3H139.057V152.996L138.987 155.572L143.425 149.3ZM155.302 149.146C156.348 149.146 157.206 149.524 157.878 150.28C158.56 151.027 158.9 151.983 158.9 153.15C158.9 154.317 158.56 155.278 157.878 156.034C157.197 156.781 156.334 157.154 155.288 157.154C154.635 157.154 154.052 157.005 153.538 156.706C153.034 156.398 152.633 155.978 152.334 155.446V160.5H151.172V149.3H152.334V150.882C152.633 150.341 153.039 149.916 153.552 149.608C154.066 149.3 154.649 149.146 155.302 149.146ZM155.078 156.048C155.853 156.048 156.488 155.777 156.982 155.236C157.477 154.695 157.724 153.999 157.724 153.15C157.724 152.31 157.477 151.619 156.982 151.078C156.488 150.527 155.853 150.252 155.078 150.252C154.285 150.252 153.627 150.527 153.104 151.078C152.582 151.619 152.32 152.31 152.32 153.15C152.32 153.99 152.582 154.685 153.104 155.236C153.627 155.777 154.285 156.048 155.078 156.048ZM164.285 149.146C165.48 149.146 166.432 149.552 167.141 150.364C167.85 151.176 168.182 152.221 168.135 153.5H161.541C161.597 154.293 161.882 154.919 162.395 155.376C162.908 155.833 163.557 156.062 164.341 156.062C165.489 156.062 166.292 155.614 166.749 154.718H167.953C167.636 155.511 167.155 156.118 166.511 156.538C165.867 156.949 165.13 157.154 164.299 157.154C163.151 157.154 162.204 156.785 161.457 156.048C160.72 155.301 160.351 154.345 160.351 153.178C160.351 152.011 160.72 151.05 161.457 150.294C162.194 149.529 163.137 149.146 164.285 149.146ZM164.285 150.238C163.594 150.238 163.006 150.439 162.521 150.84C162.045 151.241 161.737 151.764 161.597 152.408H166.875C166.744 151.755 166.45 151.232 165.993 150.84C165.536 150.439 164.966 150.238 164.285 150.238ZM174.845 149.3V150.392H170.995V157H169.833V149.3H174.845ZM181.775 149.3H183.203V157H182.041V153.304L182.111 150.714L177.673 157H176.245V149.3H177.407V152.996L177.337 155.572L181.775 149.3ZM188.923 157.154C187.793 157.154 186.846 156.776 186.081 156.02C185.325 155.255 184.947 154.298 184.947 153.15C184.947 152.002 185.325 151.05 186.081 150.294C186.846 149.529 187.793 149.146 188.923 149.146C189.837 149.146 190.64 149.403 191.331 149.916C192.021 150.429 192.465 151.12 192.661 151.988H191.457C191.279 151.447 190.962 151.017 190.505 150.7C190.047 150.383 189.52 150.224 188.923 150.224C188.111 150.224 187.439 150.499 186.907 151.05C186.384 151.601 186.123 152.301 186.123 153.15C186.123 153.999 186.384 154.699 186.907 155.25C187.439 155.801 188.111 156.076 188.923 156.076C189.52 156.076 190.043 155.917 190.491 155.6C190.948 155.283 191.27 154.853 191.457 154.312H192.661C192.455 155.189 192.007 155.885 191.317 156.398C190.626 156.902 189.828 157.154 188.923 157.154ZM199.842 149.3V150.392H197.182V157H196.02V150.392H193.36V149.3H197.182H199.842ZM205.437 149.146C206.483 149.146 207.341 149.524 208.013 150.28C208.695 151.027 209.035 151.983 209.035 153.15C209.035 154.317 208.695 155.278 208.013 156.034C207.332 156.781 206.469 157.154 205.423 157.154C204.77 157.154 204.187 157.005 203.673 156.706C203.169 156.398 202.768 155.978 202.469 155.446V160.5H201.307V149.3H202.469V150.882C202.768 150.341 203.174 149.916 203.687 149.608C204.201 149.3 204.784 149.146 205.437 149.146ZM205.213 156.048C205.988 156.048 206.623 155.777 207.117 155.236C207.612 154.695 207.859 153.999 207.859 153.15C207.859 152.31 207.612 151.619 207.117 151.078C206.623 150.527 205.988 150.252 205.213 150.252C204.42 150.252 203.762 150.527 203.239 151.078C202.717 151.619 202.455 152.31 202.455 153.15C202.455 153.99 202.717 154.685 203.239 155.236C203.762 155.777 204.42 156.048 205.213 156.048ZM217.052 149.3H218.214V157H217.052V155.446C216.744 155.978 216.333 156.398 215.82 156.706C215.316 157.005 214.737 157.154 214.084 157.154C213.038 157.154 212.175 156.781 211.494 156.034C210.822 155.278 210.486 154.317 210.486 153.15C210.486 151.983 210.822 151.027 211.494 150.28C212.175 149.524 213.038 149.146 214.084 149.146C214.737 149.146 215.32 149.3 215.834 149.608C216.347 149.916 216.753 150.341 217.052 150.882V149.3ZM214.308 156.048C215.101 156.048 215.759 155.777 216.282 155.236C216.804 154.685 217.066 153.99 217.066 153.15C217.066 152.31 216.804 151.619 216.282 151.078C215.759 150.527 215.101 150.252 214.308 150.252C213.524 150.252 212.884 150.527 212.39 151.078C211.904 151.619 211.662 152.31 211.662 153.15C211.662 153.999 211.909 154.695 212.404 155.236C212.898 155.777 213.533 156.048 214.308 156.048ZM227.072 155.908H228.472V159.058H227.31V157H225.91H220.66H220.282V149.3H221.444V155.908H225.91V149.3H227.072V155.908ZM235.396 149.3H236.824V157H235.662V153.304L235.732 150.714L231.294 157H229.866V149.3H231.028V152.996L230.958 155.572L235.396 149.3ZM244.406 149.3H245.834V157H244.672V153.304L244.742 150.714L240.304 157H238.876V149.3H240.038V152.996L239.968 155.572L244.406 149.3ZM250.07 156.412C250.088 156.692 249.701 157.691 248.908 159.408H248.082L249.006 157.126C248.632 157.033 248.446 156.785 248.446 156.384C248.446 156.151 248.52 155.959 248.67 155.81C248.828 155.661 249.024 155.586 249.258 155.586C249.463 155.586 249.645 155.651 249.804 155.782C249.972 155.913 250.06 156.123 250.07 156.412ZM260.53 149.426C261.557 149.426 262.406 149.776 263.078 150.476C263.75 151.167 264.086 152.067 264.086 153.178C264.086 154.354 263.713 155.311 262.966 156.048C262.229 156.785 261.3 157.154 260.18 157.154C259.051 157.154 258.113 156.767 257.366 155.992C256.619 155.217 256.241 154.116 256.232 152.688C256.232 151.577 256.335 150.63 256.54 149.846C256.745 149.053 257.025 148.413 257.38 147.928C257.735 147.443 258.211 147.06 258.808 146.78C259.415 146.5 260.054 146.313 260.726 146.22C261.398 146.117 262.215 146.066 263.176 146.066V147.158C262.168 147.158 261.342 147.214 260.698 147.326C260.063 147.429 259.494 147.629 258.99 147.928C258.495 148.227 258.127 148.647 257.884 149.188C257.651 149.729 257.501 150.429 257.436 151.288C257.716 150.691 258.136 150.233 258.696 149.916C259.256 149.589 259.867 149.426 260.53 149.426ZM258.178 155.348C258.691 155.88 259.345 156.146 260.138 156.146C260.931 156.146 261.594 155.88 262.126 155.348C262.658 154.807 262.924 154.102 262.924 153.234C262.924 152.403 262.672 151.731 262.168 151.218C261.673 150.695 261.039 150.434 260.264 150.434C259.48 150.434 258.808 150.695 258.248 151.218C257.688 151.731 257.408 152.399 257.408 153.22C257.408 154.097 257.665 154.807 258.178 155.348ZM269.476 149.146C270.671 149.146 271.623 149.552 272.332 150.364C273.042 151.176 273.373 152.221 273.326 153.5H266.732C266.788 154.293 267.073 154.919 267.586 155.376C268.1 155.833 268.748 156.062 269.532 156.062C270.68 156.062 271.483 155.614 271.94 154.718H273.144C272.827 155.511 272.346 156.118 271.702 156.538C271.058 156.949 270.321 157.154 269.49 157.154C268.342 157.154 267.395 156.785 266.648 156.048C265.911 155.301 265.542 154.345 265.542 153.178C265.542 152.011 265.911 151.05 266.648 150.294C267.386 149.529 268.328 149.146 269.476 149.146ZM269.476 150.238C268.786 150.238 268.198 150.439 267.712 150.84C267.236 151.241 266.928 151.764 266.788 152.408H272.066C271.936 151.755 271.642 151.232 271.184 150.84C270.727 150.439 270.158 150.238 269.476 150.238ZM280.05 152.926C280.498 153.075 280.83 153.323 281.044 153.668C281.268 154.004 281.38 154.396 281.38 154.844C281.38 155.544 281.091 156.104 280.512 156.524C279.943 156.944 279.159 157.154 278.16 157.154C276.023 157.154 274.786 156.272 274.45 154.508H275.626C275.878 155.665 276.709 156.244 278.118 156.244C278.818 156.244 279.341 156.109 279.686 155.838C280.032 155.567 280.204 155.208 280.204 154.76C280.204 153.901 279.668 153.472 278.594 153.472H277.04V152.548H278.272C279.392 152.548 279.952 152.17 279.952 151.414C279.952 151.013 279.794 150.686 279.476 150.434C279.168 150.173 278.678 150.042 278.006 150.042C276.83 150.042 276.116 150.485 275.864 151.372H274.688C274.847 150.672 275.206 150.126 275.766 149.734C276.326 149.342 277.082 149.146 278.034 149.146C279.005 149.146 279.761 149.351 280.302 149.762C280.853 150.163 281.128 150.691 281.128 151.344C281.128 152.1 280.769 152.627 280.05 152.926ZM31.022 170.3V178H29.86V171.392H25.198V178H24.036V170.3H25.198H31.022ZM37.2868 170.146C38.3321 170.146 39.1908 170.524 39.8628 171.28C40.5441 172.027 40.8848 172.983 40.8848 174.15C40.8848 175.317 40.5441 176.278 39.8628 177.034C39.1814 177.781 38.3181 178.154 37.2728 178.154C36.6194 178.154 36.0361 178.005 35.5228 177.706C35.0188 177.398 34.6174 176.978 34.3188 176.446V181.5H33.1568V170.3H34.3188V171.882C34.6174 171.341 35.0234 170.916 35.5368 170.608C36.0501 170.3 36.6334 170.146 37.2868 170.146ZM37.0628 177.048C37.8374 177.048 38.4721 176.777 38.9668 176.236C39.4614 175.695 39.7088 174.999 39.7088 174.15C39.7088 173.31 39.4614 172.619 38.9668 172.078C38.4721 171.527 37.8374 171.252 37.0628 171.252C36.2694 171.252 35.6114 171.527 35.0888 172.078C34.5661 172.619 34.3048 173.31 34.3048 174.15C34.3048 174.99 34.5661 175.685 35.0888 176.236C35.6114 176.777 36.2694 177.048 37.0628 177.048ZM46.2974 170.146C47.4081 170.146 48.3461 170.529 49.1114 171.294C49.8861 172.05 50.2734 173.002 50.2734 174.15C50.2734 175.298 49.8908 176.255 49.1254 177.02C48.3601 177.776 47.4174 178.154 46.2974 178.154C45.1868 178.154 44.2488 177.771 43.4834 177.006C42.7181 176.241 42.3354 175.289 42.3354 174.15C42.3354 173.011 42.7181 172.059 43.4834 171.294C44.2581 170.529 45.1961 170.146 46.2974 170.146ZM48.2854 172.078C47.7441 171.527 47.0814 171.252 46.2974 171.252C45.5134 171.252 44.8508 171.527 44.3094 172.078C43.7774 172.619 43.5114 173.31 43.5114 174.15C43.5114 174.99 43.7774 175.685 44.3094 176.236C44.8508 176.777 45.5134 177.048 46.2974 177.048C47.0908 177.048 47.7534 176.777 48.2854 176.236C48.8268 175.685 49.0974 174.99 49.0974 174.15C49.0974 173.31 48.8268 172.619 48.2854 172.078ZM56.0123 170.426C57.039 170.426 57.8883 170.776 58.5603 171.476C59.2323 172.167 59.5683 173.067 59.5683 174.178C59.5683 175.354 59.195 176.311 58.4483 177.048C57.711 177.785 56.7823 178.154 55.6623 178.154C54.533 178.154 53.595 177.767 52.8483 176.992C52.1017 176.217 51.7237 175.116 51.7143 173.688C51.7143 172.577 51.817 171.63 52.0223 170.846C52.2277 170.053 52.5077 169.413 52.8623 168.928C53.217 168.443 53.693 168.06 54.2903 167.78C54.897 167.5 55.5363 167.313 56.2083 167.22C56.8803 167.117 57.697 167.066 58.6583 167.066V168.158C57.6503 168.158 56.8243 168.214 56.1803 168.326C55.5457 168.429 54.9763 168.629 54.4723 168.928C53.9777 169.227 53.609 169.647 53.3663 170.188C53.133 170.729 52.9837 171.429 52.9183 172.288C53.1983 171.691 53.6183 171.233 54.1783 170.916C54.7383 170.589 55.3497 170.426 56.0123 170.426ZM53.6603 176.348C54.1737 176.88 54.827 177.146 55.6203 177.146C56.4137 177.146 57.0763 176.88 57.6083 176.348C58.1403 175.807 58.4063 175.102 58.4063 174.234C58.4063 173.403 58.1543 172.731 57.6503 172.218C57.1557 171.695 56.521 171.434 55.7463 171.434C54.9623 171.434 54.2903 171.695 53.7303 172.218C53.1703 172.731 52.8903 173.399 52.8903 174.22C52.8903 175.097 53.147 175.807 53.6603 176.348ZM64.9589 170.146C66.1535 170.146 67.1055 170.552 67.8149 171.364C68.5242 172.176 68.8555 173.221 68.8089 174.5H62.2149C62.2709 175.293 62.5555 175.919 63.0689 176.376C63.5822 176.833 64.2309 177.062 65.0149 177.062C66.1629 177.062 66.9655 176.614 67.4229 175.718H68.6269C68.3095 176.511 67.8289 177.118 67.1849 177.538C66.5409 177.949 65.8035 178.154 64.9729 178.154C63.8249 178.154 62.8775 177.785 62.1309 177.048C61.3935 176.301 61.0249 175.345 61.0249 174.178C61.0249 173.011 61.3935 172.05 62.1309 171.294C62.8682 170.529 63.8109 170.146 64.9589 170.146ZM64.9589 171.238C64.2682 171.238 63.6802 171.439 63.1949 171.84C62.7189 172.241 62.4109 172.764 62.2709 173.408H67.5489C67.4182 172.755 67.1242 172.232 66.6669 171.84C66.2095 171.439 65.6402 171.238 64.9589 171.238ZM72.1646 170.3H77.4006V178H76.2386V171.392H73.1446L72.5706 175.004C72.3839 176.133 72.0993 176.941 71.7166 177.426C71.3433 177.911 70.8439 178.154 70.2186 178.154C69.9946 178.154 69.7846 178.14 69.5886 178.112V177.048C69.7566 177.067 69.8919 177.076 69.9946 177.076C70.3959 177.076 70.6993 176.927 70.9046 176.628C71.1099 176.32 71.2826 175.755 71.4226 174.934L72.1646 170.3ZM83.1295 170.146C84.2401 170.146 85.1781 170.529 85.9435 171.294C86.7181 172.05 87.1055 173.002 87.1055 174.15C87.1055 175.298 86.7228 176.255 85.9575 177.02C85.1921 177.776 84.2495 178.154 83.1295 178.154C82.0188 178.154 81.0808 177.771 80.3155 177.006C79.5501 176.241 79.1675 175.289 79.1675 174.15C79.1675 173.011 79.5501 172.059 80.3155 171.294C81.0901 170.529 82.0281 170.146 83.1295 170.146ZM85.1175 172.078C84.5761 171.527 83.9135 171.252 83.1295 171.252C82.3455 171.252 81.6828 171.527 81.1415 172.078C80.6095 172.619 80.3435 173.31 80.3435 174.15C80.3435 174.99 80.6095 175.685 81.1415 176.236C81.6828 176.777 82.3455 177.048 83.1295 177.048C83.9228 177.048 84.5855 176.777 85.1175 176.236C85.6588 175.685 85.9295 174.99 85.9295 174.15C85.9295 173.31 85.6588 172.619 85.1175 172.078ZM93.8664 173.898C94.8557 174.169 95.3504 174.808 95.3504 175.816C95.3504 176.497 95.1217 177.034 94.6644 177.426C94.207 177.809 93.535 178 92.6484 178H88.8544V170.3H92.2984C94.0904 170.3 94.9864 170.953 94.9864 172.26C94.9864 172.969 94.613 173.515 93.8664 173.898ZM93.8104 172.456C93.8104 172.055 93.6937 171.751 93.4604 171.546C93.227 171.341 92.8117 171.238 92.2144 171.238H90.0164V173.59H92.1864C93.269 173.59 93.8104 173.212 93.8104 172.456ZM92.5784 177.062C93.6517 177.062 94.1884 176.614 94.1884 175.718C94.1884 174.878 93.6424 174.458 92.5504 174.458H90.0164V177.062H92.5784ZM106.171 173.898C107.16 174.169 107.655 174.808 107.655 175.816C107.655 176.497 107.426 177.034 106.969 177.426C106.512 177.809 105.84 178 104.953 178H101.159V170.3H104.603C106.395 170.3 107.291 170.953 107.291 172.26C107.291 172.969 106.918 173.515 106.171 173.898ZM106.115 172.456C106.115 172.055 105.998 171.751 105.765 171.546C105.532 171.341 105.116 171.238 104.519 171.238H102.321V173.59H104.491C105.574 173.59 106.115 173.212 106.115 172.456ZM104.883 177.062C105.956 177.062 106.493 176.614 106.493 175.718C106.493 174.878 105.947 174.458 104.855 174.458H102.321V177.062H104.883ZM117.118 170.146C118.228 170.146 119.166 170.529 119.932 171.294C120.706 172.05 121.094 173.002 121.094 174.15C121.094 175.298 120.711 176.255 119.946 177.02C119.18 177.776 118.238 178.154 117.118 178.154C116.007 178.154 115.069 177.771 114.304 177.006C113.538 176.241 113.156 175.289 113.156 174.15C113.156 173.011 113.538 172.059 114.304 171.294C115.078 170.529 116.016 170.146 117.118 170.146ZM119.106 172.078C118.564 171.527 117.902 171.252 117.118 171.252C116.334 171.252 115.671 171.527 115.13 172.078C114.598 172.619 114.332 173.31 114.332 174.15C114.332 174.99 114.598 175.685 115.13 176.236C115.671 176.777 116.334 177.048 117.118 177.048C117.911 177.048 118.574 176.777 119.106 176.236C119.647 175.685 119.918 174.99 119.918 174.15C119.918 173.31 119.647 172.619 119.106 172.078ZM128.407 170.3V171.392H125.747V178H124.585V171.392H121.925V170.3H125.747H128.407ZM134.582 173.926C135.03 174.075 135.361 174.323 135.576 174.668C135.8 175.004 135.912 175.396 135.912 175.844C135.912 176.544 135.622 177.104 135.044 177.524C134.474 177.944 133.69 178.154 132.692 178.154C130.554 178.154 129.318 177.272 128.982 175.508H130.158C130.41 176.665 131.24 177.244 132.65 177.244C133.35 177.244 133.872 177.109 134.218 176.838C134.563 176.567 134.736 176.208 134.736 175.76C134.736 174.901 134.199 174.472 133.126 174.472H131.572V173.548H132.804C133.924 173.548 134.484 173.17 134.484 172.414C134.484 172.013 134.325 171.686 134.008 171.434C133.7 171.173 133.21 171.042 132.538 171.042C131.362 171.042 130.648 171.485 130.396 172.372H129.22C129.378 171.672 129.738 171.126 130.298 170.734C130.858 170.342 131.614 170.146 132.566 170.146C133.536 170.146 134.292 170.351 134.834 170.762C135.384 171.163 135.66 171.691 135.66 172.344C135.66 173.1 135.3 173.627 134.582 173.926ZM141.166 172.848C142.044 172.848 142.716 173.063 143.182 173.492C143.649 173.912 143.882 174.542 143.882 175.382C143.882 176.213 143.64 176.857 143.154 177.314C142.669 177.771 141.988 178 141.11 178H137.526V170.3H138.688V172.848H141.166ZM145.1 170.3H146.262V178H145.1V170.3ZM141.096 176.894C142.17 176.894 142.706 176.39 142.706 175.382C142.706 174.906 142.585 174.537 142.342 174.276C142.109 174.015 141.698 173.884 141.11 173.884H138.688V176.894H141.096ZM153.353 173.898C154.342 174.169 154.837 174.808 154.837 175.816C154.837 176.497 154.608 177.034 154.151 177.426C153.693 177.809 153.021 178 152.135 178H148.341V170.3H151.785C153.577 170.3 154.473 170.953 154.473 172.26C154.473 172.969 154.099 173.515 153.353 173.898ZM153.297 172.456C153.297 172.055 153.18 171.751 152.947 171.546C152.713 171.341 152.298 171.238 151.701 171.238H149.503V173.59H151.673C152.755 173.59 153.297 173.212 153.297 172.456ZM152.065 177.062C153.138 177.062 153.675 176.614 153.675 175.718C153.675 174.878 153.129 174.458 152.037 174.458H149.503V177.062H152.065ZM160.019 170.146C161.214 170.146 162.166 170.552 162.875 171.364C163.585 172.176 163.916 173.221 163.869 174.5H157.275C157.331 175.293 157.616 175.919 158.129 176.376C158.643 176.833 159.291 177.062 160.075 177.062C161.223 177.062 162.026 176.614 162.483 175.718H163.687C163.37 176.511 162.889 177.118 162.245 177.538C161.601 177.949 160.864 178.154 160.033 178.154C158.885 178.154 157.938 177.785 157.191 177.048C156.454 176.301 156.085 175.345 156.085 174.178C156.085 173.011 156.454 172.05 157.191 171.294C157.929 170.529 158.871 170.146 160.019 170.146ZM160.019 171.238C159.329 171.238 158.741 171.439 158.255 171.84C157.779 172.241 157.471 172.764 157.331 173.408H162.609C162.479 172.755 162.185 172.232 161.727 171.84C161.27 171.439 160.701 171.238 160.019 171.238ZM173.419 170.146C174.529 170.146 175.467 170.529 176.233 171.294C177.007 172.05 177.395 173.002 177.395 174.15C177.395 175.298 177.012 176.255 176.247 177.02C175.481 177.776 174.539 178.154 173.419 178.154C172.308 178.154 171.37 177.771 170.605 177.006C169.839 176.241 169.457 175.289 169.457 174.15C169.457 173.011 169.839 172.059 170.605 171.294C171.379 170.529 172.317 170.146 173.419 170.146ZM175.407 172.078C174.865 171.527 174.203 171.252 173.419 171.252C172.635 171.252 171.972 171.527 171.431 172.078C170.899 172.619 170.633 173.31 170.633 174.15C170.633 174.99 170.899 175.685 171.431 176.236C171.972 176.777 172.635 177.048 173.419 177.048C174.212 177.048 174.875 176.777 175.407 176.236C175.948 175.685 176.219 174.99 176.219 174.15C176.219 173.31 175.948 172.619 175.407 172.078ZM190.145 178H188.619L184.503 174.29V178H183.341V170.3H184.503V173.73L188.255 170.3H189.781L185.735 173.954L190.145 178ZM196.98 170.3H198.226L193.032 181.5H191.786L193.83 177.062L190.708 170.3H191.954L194.446 175.816L196.98 170.3ZM206.61 170.3V178H205.448V171.392H200.786V178H199.624V170.3H200.786H206.61ZM210.579 170.3H215.815V178H214.653V171.392H211.559L210.985 175.004C210.798 176.133 210.513 176.941 210.131 177.426C209.757 177.911 209.258 178.154 208.633 178.154C208.409 178.154 208.199 178.14 208.003 178.112V177.048C208.171 177.067 208.306 177.076 208.409 177.076C208.81 177.076 209.113 176.927 209.319 176.628C209.524 176.32 209.697 175.755 209.837 174.934L210.579 170.3ZM221.516 170.146C222.71 170.146 223.662 170.552 224.372 171.364C225.081 172.176 225.412 173.221 225.366 174.5H218.772C218.828 175.293 219.112 175.919 219.626 176.376C220.139 176.833 220.788 177.062 221.572 177.062C222.72 177.062 223.522 176.614 223.98 175.718H225.184C224.866 176.511 224.386 177.118 223.742 177.538C223.098 177.949 222.36 178.154 221.53 178.154C220.382 178.154 219.434 177.785 218.688 177.048C217.95 176.301 217.582 175.345 217.582 174.178C217.582 173.011 217.95 172.05 218.688 171.294C219.425 170.529 220.368 170.146 221.516 170.146ZM221.516 171.238C220.825 171.238 220.237 171.439 219.752 171.84C219.276 172.241 218.968 172.764 218.828 173.408H224.106C223.975 172.755 223.681 172.232 223.224 171.84C222.766 171.439 222.197 171.238 221.516 171.238ZM232.957 170.3H234.119V178H232.957V174.612H228.225V178H227.063V170.3H228.225V173.506H232.957V170.3ZM242.09 170.3H243.252V178H242.09V174.612H237.358V178H236.196V170.3H237.358V173.506H242.09V170.3ZM248.983 170.146C250.094 170.146 251.032 170.529 251.797 171.294C252.572 172.05 252.959 173.002 252.959 174.15C252.959 175.298 252.576 176.255 251.811 177.02C251.046 177.776 250.103 178.154 248.983 178.154C247.872 178.154 246.934 177.771 246.169 177.006C245.404 176.241 245.021 175.289 245.021 174.15C245.021 173.011 245.404 172.059 246.169 171.294C246.944 170.529 247.882 170.146 248.983 170.146ZM250.971 172.078C250.43 171.527 249.767 171.252 248.983 171.252C248.199 171.252 247.536 171.527 246.995 172.078C246.463 172.619 246.197 173.31 246.197 174.15C246.197 174.99 246.463 175.685 246.995 176.236C247.536 176.777 248.199 177.048 248.983 177.048C249.776 177.048 250.439 176.777 250.971 176.236C251.512 175.685 251.783 174.99 251.783 174.15C251.783 173.31 251.512 172.619 250.971 172.078ZM261.26 170.3H262.688V178H261.526V174.304L261.596 171.588L258.712 175.662H258.67L255.786 171.588L255.87 174.304V178H254.708V170.3H256.136L258.698 173.884L261.26 170.3ZM31.022 191.3V199H29.86V192.392H25.198V199H24.036V191.3H25.198H31.022ZM37.2868 191.146C38.3321 191.146 39.1908 191.524 39.8628 192.28C40.5441 193.027 40.8848 193.983 40.8848 195.15C40.8848 196.317 40.5441 197.278 39.8628 198.034C39.1814 198.781 38.3181 199.154 37.2728 199.154C36.6194 199.154 36.0361 199.005 35.5228 198.706C35.0188 198.398 34.6174 197.978 34.3188 197.446V202.5H33.1568V191.3H34.3188V192.882C34.6174 192.341 35.0234 191.916 35.5368 191.608C36.0501 191.3 36.6334 191.146 37.2868 191.146ZM37.0628 198.048C37.8374 198.048 38.4721 197.777 38.9668 197.236C39.4614 196.695 39.7088 195.999 39.7088 195.15C39.7088 194.31 39.4614 193.619 38.9668 193.078C38.4721 192.527 37.8374 192.252 37.0628 192.252C36.2694 192.252 35.6114 192.527 35.0888 193.078C34.5661 193.619 34.3048 194.31 34.3048 195.15C34.3048 195.99 34.5661 196.685 35.0888 197.236C35.6114 197.777 36.2694 198.048 37.0628 198.048ZM46.2974 191.146C47.4081 191.146 48.3461 191.529 49.1114 192.294C49.8861 193.05 50.2734 194.002 50.2734 195.15C50.2734 196.298 49.8908 197.255 49.1254 198.02C48.3601 198.776 47.4174 199.154 46.2974 199.154C45.1868 199.154 44.2488 198.771 43.4834 198.006C42.7181 197.241 42.3354 196.289 42.3354 195.15C42.3354 194.011 42.7181 193.059 43.4834 192.294C44.2581 191.529 45.1961 191.146 46.2974 191.146ZM48.2854 193.078C47.7441 192.527 47.0814 192.252 46.2974 192.252C45.5134 192.252 44.8508 192.527 44.3094 193.078C43.7774 193.619 43.5114 194.31 43.5114 195.15C43.5114 195.99 43.7774 196.685 44.3094 197.236C44.8508 197.777 45.5134 198.048 46.2974 198.048C47.0908 198.048 47.7534 197.777 48.2854 197.236C48.8268 196.685 49.0974 195.99 49.0974 195.15C49.0974 194.31 48.8268 193.619 48.2854 193.078ZM58.9251 197.908H60.3251V201.058H59.1631V199H57.7631H51.8971V201.058H50.7351V197.908H52.0511C52.4711 197.619 52.7838 196.811 52.9891 195.486L53.6611 191.3H58.9251V197.908ZM53.3531 197.908H57.7631V192.392H54.6551L54.1511 195.514C53.9644 196.671 53.6984 197.469 53.3531 197.908ZM67.1653 191.3H68.4113L63.2173 202.5H61.9713L64.0153 198.062L60.8933 191.3H62.1393L64.6313 196.816L67.1653 191.3ZM76.6134 199H75.0874L70.9714 195.29V199H69.8094V191.3H70.9714V194.73L74.7234 191.3H76.2494L72.2034 194.954L76.6134 199ZM83.8226 191.3V192.392H81.1626V199H80.0006V192.392H77.3406V191.3H81.1626H83.8226ZM88.5975 191.146C89.7922 191.146 90.7442 191.552 91.4535 192.364C92.1629 193.176 92.4942 194.221 92.4475 195.5H85.8535C85.9095 196.293 86.1942 196.919 86.7075 197.376C87.2209 197.833 87.8695 198.062 88.6535 198.062C89.8015 198.062 90.6042 197.614 91.0615 196.718H92.2655C91.9482 197.511 91.4675 198.118 90.8235 198.538C90.1795 198.949 89.4422 199.154 88.6115 199.154C87.4635 199.154 86.5162 198.785 85.7695 198.048C85.0322 197.301 84.6635 196.345 84.6635 195.178C84.6635 194.011 85.0322 193.05 85.7695 192.294C86.5069 191.529 87.4495 191.146 88.5975 191.146ZM88.5975 192.238C87.9069 192.238 87.3189 192.439 86.8335 192.84C86.3575 193.241 86.0495 193.764 85.9095 194.408H91.1875C91.0569 193.755 90.7629 193.232 90.3055 192.84C89.8482 192.439 89.2789 192.238 88.5975 192.238ZM104.237 191.3H105.399V199H104.237V195.612H99.5046V199H98.3426V191.3H99.5046V194.506H104.237V191.3ZM113.733 191.3H114.895V199H113.733V197.446C113.425 197.978 113.015 198.398 112.501 198.706C111.997 199.005 111.419 199.154 110.765 199.154C109.72 199.154 108.857 198.781 108.175 198.034C107.503 197.278 107.167 196.317 107.167 195.15C107.167 193.983 107.503 193.027 108.175 192.28C108.857 191.524 109.72 191.146 110.765 191.146C111.419 191.146 112.002 191.3 112.515 191.608C113.029 191.916 113.435 192.341 113.733 192.882V191.3ZM110.989 198.048C111.783 198.048 112.441 197.777 112.963 197.236C113.486 196.685 113.747 195.99 113.747 195.15C113.747 194.31 113.486 193.619 112.963 193.078C112.441 192.527 111.783 192.252 110.989 192.252C110.205 192.252 109.566 192.527 109.071 193.078C108.586 193.619 108.343 194.31 108.343 195.15C108.343 195.999 108.591 196.695 109.085 197.236C109.58 197.777 110.215 198.048 110.989 198.048ZM122.155 190.488C123.144 189.508 124.362 189.018 125.809 189.018C127.256 189.018 128.469 189.508 129.449 190.488C130.438 191.459 130.933 192.663 130.933 194.1C130.933 195.537 130.438 196.746 129.449 197.726C128.469 198.697 127.256 199.182 125.809 199.182C124.362 199.182 123.144 198.697 122.155 197.726C121.175 196.746 120.685 195.537 120.685 194.1C120.685 192.663 121.175 191.459 122.155 190.488ZM127.755 192.084C127.242 191.552 126.593 191.286 125.809 191.286C125.025 191.286 124.376 191.552 123.863 192.084C123.35 192.607 123.093 193.279 123.093 194.1C123.093 194.921 123.35 195.598 123.863 196.13C124.376 196.653 125.025 196.914 125.809 196.914C126.593 196.914 127.242 196.653 127.755 196.13C128.268 195.598 128.525 194.921 128.525 194.1C128.525 193.279 128.268 192.607 127.755 192.084ZM135.112 196.76H138.668V199H131.976V196.76L135.406 193.54H132.186V191.3H138.542V193.54L135.112 196.76ZM140.892 192.28C141.676 191.505 142.628 191.118 143.748 191.118C144.868 191.118 145.82 191.505 146.604 192.28C147.388 193.045 147.78 194.002 147.78 195.15C147.78 196.307 147.393 197.269 146.618 198.034C145.844 198.799 144.887 199.182 143.748 199.182C142.619 199.182 141.662 198.799 140.878 198.034C140.104 197.259 139.716 196.298 139.716 195.15C139.716 194.002 140.108 193.045 140.892 192.28ZM144.91 193.876C144.602 193.549 144.215 193.386 143.748 193.386C143.282 193.386 142.894 193.549 142.586 193.876C142.278 194.203 142.124 194.627 142.124 195.15C142.124 195.682 142.278 196.111 142.586 196.438C142.894 196.755 143.282 196.914 143.748 196.914C144.215 196.914 144.602 196.755 144.91 196.438C145.218 196.111 145.372 195.682 145.372 195.15C145.372 194.627 145.218 194.203 144.91 193.876ZM153.65 191.118C154.518 191.118 155.199 191.393 155.694 191.944C156.188 192.495 156.436 193.241 156.436 194.184V199H154.056V194.716C154.056 194.268 153.967 193.937 153.79 193.722C153.612 193.498 153.295 193.386 152.838 193.386C151.895 193.386 151.424 193.895 151.424 194.912V199H149.044V191.3H151.424V192.168C151.993 191.468 152.735 191.118 153.65 191.118ZM166.808 191.3H169.51V199H167.13V196.704L167.256 194.618L164.666 199H161.964V191.3H164.344V193.596L164.218 195.654L166.808 191.3ZM172.837 191.3H178.745V199H176.365V193.54H174.867L174.475 195.976C174.13 198.113 173.159 199.182 171.563 199.182C171.264 199.182 170.905 199.14 170.485 199.056V196.914C170.765 196.951 170.956 196.97 171.059 196.97C171.386 196.97 171.624 196.886 171.773 196.718C171.932 196.541 172.048 196.214 172.123 195.738L172.837 191.3ZM184.991 191.3H187.693V199H185.313V196.704L185.439 194.618L182.849 199H180.147V191.3H182.527V193.596L182.401 195.654L184.991 191.3ZM204.038 189.2H206.474L204.108 199H201.182L200.328 195.458L199.824 192L199.586 191.986L199.096 195.458L198.242 199H195.302L192.936 189.2H195.386L196.506 193.89L196.8 196.172L197.094 193.89L198.214 189.2H201.196L202.316 193.89L202.624 196.228L202.918 193.89L204.038 189.2ZM208.708 187.66C209.128 187.66 209.474 187.791 209.744 188.052C210.015 188.304 210.15 188.626 210.15 189.018C210.15 189.419 210.015 189.751 209.744 190.012C209.474 190.264 209.128 190.39 208.708 190.39C208.298 190.39 207.952 190.259 207.672 189.998C207.402 189.737 207.266 189.41 207.266 189.018C207.266 188.626 207.402 188.304 207.672 188.052C207.952 187.791 208.298 187.66 208.708 187.66ZM207.518 199V191.3H209.898V199H207.518ZM211.292 199V188.22H213.672V199H211.292ZM220.721 188.22H223.101V199H220.721V198.174C220.161 198.846 219.433 199.182 218.537 199.182C217.548 199.182 216.722 198.804 216.059 198.048C215.397 197.292 215.065 196.326 215.065 195.15C215.065 193.974 215.397 193.008 216.059 192.252C216.731 191.496 217.553 191.118 218.523 191.118C219.447 191.118 220.18 191.468 220.721 192.168V188.22ZM217.935 196.438C218.243 196.755 218.631 196.914 219.097 196.914C219.564 196.914 219.951 196.755 220.259 196.438C220.567 196.111 220.721 195.682 220.721 195.15C220.721 194.627 220.567 194.203 220.259 193.876C219.951 193.549 219.564 193.386 219.097 193.386C218.631 193.386 218.243 193.549 217.935 193.876C217.627 194.203 217.473 194.627 217.473 195.15C217.473 195.682 217.627 196.111 217.935 196.438ZM229.077 191.118C230.047 191.118 230.864 191.496 231.527 192.252C232.199 193.008 232.535 193.974 232.535 195.15C232.535 196.326 232.203 197.292 231.541 198.048C230.878 198.804 230.052 199.182 229.063 199.182C228.167 199.182 227.439 198.846 226.879 198.174V199H224.499V188.22H226.879V192.168C227.42 191.468 228.153 191.118 229.077 191.118ZM227.341 196.438C227.649 196.755 228.036 196.914 228.503 196.914C228.969 196.914 229.357 196.755 229.665 196.438C229.973 196.111 230.127 195.682 230.127 195.15C230.127 194.627 229.973 194.203 229.665 193.876C229.357 193.549 228.969 193.386 228.503 193.386C228.036 193.386 227.649 193.549 227.341 193.876C227.033 194.203 226.879 194.627 226.879 195.15C226.879 195.682 227.033 196.111 227.341 196.438ZM237.716 191.118C238.976 191.118 239.984 191.557 240.74 192.434C241.496 193.302 241.813 194.375 241.692 195.654H236.078C236.134 196.214 236.316 196.639 236.624 196.928C236.941 197.208 237.324 197.348 237.772 197.348C238.098 197.348 238.383 197.273 238.626 197.124C238.868 196.965 239.036 196.751 239.13 196.48H241.58C241.328 197.385 240.852 198.062 240.152 198.51C239.461 198.958 238.668 199.182 237.772 199.182C236.558 199.182 235.569 198.799 234.804 198.034C234.038 197.269 233.656 196.307 233.656 195.15C233.656 194.002 234.034 193.045 234.79 192.28C235.555 191.505 236.53 191.118 237.716 191.118ZM237.702 192.952C236.89 192.952 236.372 193.372 236.148 194.212H239.214C239.13 193.829 238.957 193.526 238.696 193.302C238.444 193.069 238.112 192.952 237.702 192.952ZM247.466 191.118C247.644 191.118 247.788 191.132 247.9 191.16V193.61C247.695 193.591 247.536 193.582 247.424 193.582C247.116 193.582 246.841 193.61 246.598 193.666C246.365 193.722 246.136 193.825 245.912 193.974C245.688 194.114 245.516 194.329 245.394 194.618C245.282 194.898 245.226 195.248 245.226 195.668V199H242.846V191.3H245.226V192.49C245.693 191.575 246.44 191.118 247.466 191.118ZM253.496 191.118C253.673 191.118 253.818 191.132 253.93 191.16V193.61C253.724 193.591 253.566 193.582 253.454 193.582C253.146 193.582 252.87 193.61 252.628 193.666C252.394 193.722 252.166 193.825 251.942 193.974C251.718 194.114 251.545 194.329 251.424 194.618C251.312 194.898 251.256 195.248 251.256 195.668V199H248.876V191.3H251.256V192.49C251.722 191.575 252.469 191.118 253.496 191.118ZM256.095 187.66C256.515 187.66 256.86 187.791 257.131 188.052C257.402 188.304 257.537 188.626 257.537 189.018C257.537 189.419 257.402 189.751 257.131 190.012C256.86 190.264 256.515 190.39 256.095 190.39C255.684 190.39 255.339 190.259 255.059 189.998C254.788 189.737 254.653 189.41 254.653 189.018C254.653 188.626 254.788 188.304 255.059 188.052C255.339 187.791 255.684 187.66 256.095 187.66ZM254.905 199V191.3H257.285V199H254.905ZM262.599 191.118C263.859 191.118 264.867 191.557 265.623 192.434C266.379 193.302 266.696 194.375 266.575 195.654H260.961C261.017 196.214 261.199 196.639 261.507 196.928C261.824 197.208 262.207 197.348 262.655 197.348C262.981 197.348 263.266 197.273 263.509 197.124C263.751 196.965 263.919 196.751 264.013 196.48H266.463C266.211 197.385 265.735 198.062 265.035 198.51C264.344 198.958 263.551 199.182 262.655 199.182C261.441 199.182 260.452 198.799 259.687 198.034C258.921 197.269 258.539 196.307 258.539 195.15C258.539 194.002 258.917 193.045 259.673 192.28C260.438 191.505 261.413 191.118 262.599 191.118ZM262.585 192.952C261.773 192.952 261.255 193.372 261.031 194.212H264.097C264.013 193.829 263.84 193.526 263.579 193.302C263.327 193.069 262.995 192.952 262.585 192.952ZM271.271 199.182C270.226 199.182 269.349 198.949 268.639 198.482C267.939 198.015 267.519 197.376 267.379 196.564H269.787C269.918 197.115 270.422 197.39 271.299 197.39C271.999 197.39 272.349 197.213 272.349 196.858C272.349 196.709 272.261 196.601 272.083 196.536C271.906 196.461 271.477 196.349 270.795 196.2C269.666 195.957 268.868 195.659 268.401 195.304C267.935 194.949 267.701 194.441 267.701 193.778C267.701 192.947 268.014 192.299 268.639 191.832C269.274 191.365 270.147 191.132 271.257 191.132C273.311 191.132 274.468 191.935 274.729 193.54H272.321C272.209 193.129 271.822 192.924 271.159 192.924C270.459 192.924 270.109 193.106 270.109 193.47C270.109 193.591 270.161 193.675 270.263 193.722C270.375 193.759 270.646 193.825 271.075 193.918C271.159 193.937 271.22 193.951 271.257 193.96C272.536 194.24 273.446 194.553 273.987 194.898C274.529 195.234 274.799 195.775 274.799 196.522C274.799 197.381 274.468 198.039 273.805 198.496C273.152 198.953 272.307 199.182 271.271 199.182ZM276.673 196.83C276.953 196.569 277.298 196.438 277.709 196.438C278.12 196.438 278.46 196.569 278.731 196.83C279.011 197.082 279.151 197.409 279.151 197.81C279.151 198.211 279.011 198.543 278.731 198.804C278.46 199.056 278.12 199.182 277.709 199.182C277.298 199.182 276.953 199.056 276.673 198.804C276.402 198.543 276.267 198.211 276.267 197.81C276.267 197.409 276.402 197.082 276.673 196.83ZM28.306 210.046C29.7433 210.046 30.9287 210.527 31.862 211.488C32.7953 212.44 33.262 213.644 33.262 215.1C33.262 216.556 32.7953 217.765 31.862 218.726C30.9287 219.678 29.7433 220.154 28.306 220.154C27.186 220.154 26.2013 219.855 25.352 219.258C24.5027 218.661 23.924 217.867 23.616 216.878H24.862C25.142 217.541 25.59 218.068 26.206 218.46C26.8313 218.852 27.536 219.048 28.32 219.048C29.328 219.048 30.1773 218.731 30.868 218.096C31.5587 217.452 31.96 216.626 32.072 215.618H27.564V214.512H32.058C31.9273 213.523 31.5167 212.715 30.826 212.09C30.1447 211.465 29.3047 211.152 28.306 211.152C27.522 211.152 26.822 211.348 26.206 211.74C25.59 212.132 25.142 212.659 24.862 213.322H23.616C23.924 212.333 24.498 211.539 25.338 210.942C26.1873 210.345 27.1767 210.046 28.306 210.046ZM40.9476 212.3V213.392H38.2876V220H37.1256V213.392H34.4656V212.3H38.2876H40.9476ZM45.7505 212.146C46.8612 212.146 47.7992 212.529 48.5645 213.294C49.3392 214.05 49.7265 215.002 49.7265 216.15C49.7265 217.298 49.3439 218.255 48.5785 219.02C47.8132 219.776 46.8705 220.154 45.7505 220.154C44.6399 220.154 43.7019 219.771 42.9365 219.006C42.1712 218.241 41.7885 217.289 41.7885 216.15C41.7885 215.011 42.1712 214.059 42.9365 213.294C43.7112 212.529 44.6492 212.146 45.7505 212.146ZM47.7385 214.078C47.1972 213.527 46.5345 213.252 45.7505 213.252C44.9665 213.252 44.3039 213.527 43.7625 214.078C43.2305 214.619 42.9645 215.31 42.9645 216.15C42.9645 216.99 43.2305 217.685 43.7625 218.236C44.3039 218.777 44.9665 219.048 45.7505 219.048C46.5439 219.048 47.2065 218.777 47.7385 218.236C48.2799 217.685 48.5505 216.99 48.5505 216.15C48.5505 215.31 48.2799 214.619 47.7385 214.078ZM59.6627 212.426C60.6894 212.426 61.5387 212.776 62.2107 213.476C62.8827 214.167 63.2187 215.067 63.2187 216.178C63.2187 217.354 62.8454 218.311 62.0987 219.048C61.3614 219.785 60.4327 220.154 59.3127 220.154C58.1834 220.154 57.2454 219.767 56.4987 218.992C55.7521 218.217 55.3741 217.116 55.3647 215.688C55.3647 214.577 55.4674 213.63 55.6727 212.846C55.8781 212.053 56.1581 211.413 56.5127 210.928C56.8674 210.443 57.3434 210.06 57.9407 209.78C58.5474 209.5 59.1867 209.313 59.8587 209.22C60.5307 209.117 61.3474 209.066 62.3087 209.066V210.158C61.3007 210.158 60.4747 210.214 59.8307 210.326C59.1961 210.429 58.6267 210.629 58.1227 210.928C57.6281 211.227 57.2594 211.647 57.0167 212.188C56.7834 212.729 56.6341 213.429 56.5687 214.288C56.8487 213.691 57.2687 213.233 57.8287 212.916C58.3887 212.589 59.0001 212.426 59.6627 212.426ZM57.3107 218.348C57.8241 218.88 58.4774 219.146 59.2707 219.146C60.0641 219.146 60.7267 218.88 61.2587 218.348C61.7907 217.807 62.0567 217.102 62.0567 216.234C62.0567 215.403 61.8047 214.731 61.3007 214.218C60.8061 213.695 60.1714 213.434 59.3967 213.434C58.6127 213.434 57.9407 213.695 57.3807 214.218C56.8207 214.731 56.5407 215.399 56.5407 216.22C56.5407 217.097 56.7974 217.807 57.3107 218.348ZM70.0501 212.3H71.2961L66.1021 223.5H64.8561L66.9001 219.062L63.7781 212.3H65.0241L67.5161 217.816L70.0501 212.3ZM78.9817 218.908H80.3817V222.058H79.2197V220H77.8197H71.9537V222.058H70.7917V218.908H72.1077C72.5277 218.619 72.8404 217.811 73.0457 216.486L73.7177 212.3H78.9817V218.908ZM73.4097 218.908H77.8197V213.392H74.7117L74.2077 216.514C74.0211 217.671 73.7551 218.469 73.4097 218.908ZM85.0975 212.146C86.2922 212.146 87.2442 212.552 87.9535 213.364C88.6629 214.176 88.9942 215.221 88.9475 216.5H82.3535C82.4095 217.293 82.6942 217.919 83.2075 218.376C83.7209 218.833 84.3695 219.062 85.1535 219.062C86.3015 219.062 87.1042 218.614 87.5615 217.718H88.7655C88.4482 218.511 87.9675 219.118 87.3235 219.538C86.6795 219.949 85.9422 220.154 85.1115 220.154C83.9635 220.154 83.0162 219.785 82.2695 219.048C81.5322 218.301 81.1635 217.345 81.1635 216.178C81.1635 215.011 81.5322 214.05 82.2695 213.294C83.0069 212.529 83.9495 212.146 85.0975 212.146ZM85.0975 213.238C84.4069 213.238 83.8189 213.439 83.3335 213.84C82.8575 214.241 82.5495 214.764 82.4095 215.408H87.6875C87.5569 214.755 87.2629 214.232 86.8055 213.84C86.3482 213.439 85.7789 213.238 85.0975 213.238ZM96.2093 212.3V213.392H93.5493V220H92.3873V213.392H89.7273V212.3H93.5493H96.2093ZM105.456 212.146C106.566 212.146 107.504 212.529 108.27 213.294C109.044 214.05 109.432 215.002 109.432 216.15C109.432 217.298 109.049 218.255 108.284 219.02C107.518 219.776 106.576 220.154 105.456 220.154C104.345 220.154 103.407 219.771 102.642 219.006C101.876 218.241 101.494 217.289 101.494 216.15C101.494 215.011 101.876 214.059 102.642 213.294C103.416 212.529 104.354 212.146 105.456 212.146ZM107.444 214.078C106.902 213.527 106.24 213.252 105.456 213.252C104.672 213.252 104.009 213.527 103.468 214.078C102.936 214.619 102.67 215.31 102.67 216.15C102.67 216.99 102.936 217.685 103.468 218.236C104.009 218.777 104.672 219.048 105.456 219.048C106.249 219.048 106.912 218.777 107.444 218.236C107.985 217.685 108.256 216.99 108.256 216.15C108.256 215.31 107.985 214.619 107.444 214.078ZM116.207 215.926C116.655 216.075 116.986 216.323 117.201 216.668C117.425 217.004 117.537 217.396 117.537 217.844C117.537 218.544 117.247 219.104 116.669 219.524C116.099 219.944 115.315 220.154 114.317 220.154C112.179 220.154 110.943 219.272 110.607 217.508H111.783C112.035 218.665 112.865 219.244 114.275 219.244C114.975 219.244 115.497 219.109 115.843 218.838C116.188 218.567 116.361 218.208 116.361 217.76C116.361 216.901 115.824 216.472 114.751 216.472H113.197V215.548H114.429C115.549 215.548 116.109 215.17 116.109 214.414C116.109 214.013 115.95 213.686 115.633 213.434C115.325 213.173 114.835 213.042 114.163 213.042C112.987 213.042 112.273 213.485 112.021 214.372H110.845C111.003 213.672 111.363 213.126 111.923 212.734C112.483 212.342 113.239 212.146 114.191 212.146C115.161 212.146 115.917 212.351 116.459 212.762C117.009 213.163 117.285 213.691 117.285 214.344C117.285 215.1 116.925 215.627 116.207 215.926ZM125.045 212.3H126.207V220H125.045V216.612H120.313V220H119.151V212.3H120.313V215.506H125.045V212.3ZM134.542 212.3H135.704V220H134.542V218.446C134.234 218.978 133.823 219.398 133.31 219.706C132.806 220.005 132.227 220.154 131.574 220.154C130.529 220.154 129.665 219.781 128.984 219.034C128.312 218.278 127.976 217.317 127.976 216.15C127.976 214.983 128.312 214.027 128.984 213.28C129.665 212.524 130.529 212.146 131.574 212.146C132.227 212.146 132.811 212.3 133.324 212.608C133.837 212.916 134.243 213.341 134.542 213.882V212.3ZM131.798 219.048C132.591 219.048 133.249 218.777 133.772 218.236C134.295 217.685 134.556 216.99 134.556 216.15C134.556 215.31 134.295 214.619 133.772 214.078C133.249 213.527 132.591 213.252 131.798 213.252C131.014 213.252 130.375 213.527 129.88 214.078C129.395 214.619 129.152 215.31 129.152 216.15C129.152 216.999 129.399 217.695 129.894 218.236C130.389 218.777 131.023 219.048 131.798 219.048ZM142.756 212.3H143.918V220H142.756V217.214C142.084 217.503 141.328 217.648 140.488 217.648C138.491 217.648 137.492 216.701 137.492 214.806V212.3H138.654V214.54C138.654 215.268 138.808 215.795 139.116 216.122C139.434 216.439 139.956 216.598 140.684 216.598C141.58 216.598 142.271 216.449 142.756 216.15V212.3ZM152.247 212.3H153.409V220H152.247V218.446C151.939 218.978 151.528 219.398 151.015 219.706C150.511 220.005 149.932 220.154 149.279 220.154C148.234 220.154 147.37 219.781 146.689 219.034C146.017 218.278 145.681 217.317 145.681 216.15C145.681 214.983 146.017 214.027 146.689 213.28C147.37 212.524 148.234 212.146 149.279 212.146C149.932 212.146 150.516 212.3 151.029 212.608C151.542 212.916 151.948 213.341 152.247 213.882V212.3ZM149.503 219.048C150.296 219.048 150.954 218.777 151.477 218.236C152 217.685 152.261 216.99 152.261 216.15C152.261 215.31 152 214.619 151.477 214.078C150.954 213.527 150.296 213.252 149.503 213.252C148.719 213.252 148.08 213.527 147.585 214.078C147.1 214.619 146.857 215.31 146.857 216.15C146.857 216.999 147.104 217.695 147.599 218.236C148.094 218.777 148.728 219.048 149.503 219.048ZM161.287 212.3V213.392H158.627V220H157.465V213.392H154.805V212.3H158.627H161.287ZM166.336 214.848C167.214 214.848 167.886 215.063 168.352 215.492C168.819 215.912 169.052 216.542 169.052 217.382C169.052 218.213 168.81 218.857 168.324 219.314C167.839 219.771 167.158 220 166.28 220H162.682V212.3H163.844V214.848H166.336ZM166.252 218.894C167.335 218.894 167.876 218.39 167.876 217.382C167.876 216.906 167.755 216.537 167.512 216.276C167.279 216.015 166.868 215.884 166.28 215.884H163.844V218.894H166.252ZM172.988 219.412C173.006 219.692 172.619 220.691 171.826 222.408H171L171.924 220.126C171.55 220.033 171.364 219.785 171.364 219.384C171.364 219.151 171.438 218.959 171.588 218.81C171.746 218.661 171.942 218.586 172.176 218.586C172.381 218.586 172.563 218.651 172.722 218.782C172.89 218.913 172.978 219.123 172.988 219.412ZM184.442 212.3H185.604V220H184.442V217.214C183.77 217.503 183.014 217.648 182.174 217.648C180.177 217.648 179.178 216.701 179.178 214.806V212.3H180.34V214.54C180.34 215.268 180.494 215.795 180.802 216.122C181.119 216.439 181.642 216.598 182.37 216.598C183.266 216.598 183.957 216.449 184.442 216.15V212.3ZM193.485 212.3V213.392H190.825V220H189.663V213.392H187.003V212.3H190.825H193.485ZM198.288 212.146C199.398 212.146 200.336 212.529 201.102 213.294C201.876 214.05 202.264 215.002 202.264 216.15C202.264 217.298 201.881 218.255 201.116 219.02C200.35 219.776 199.408 220.154 198.288 220.154C197.177 220.154 196.239 219.771 195.474 219.006C194.708 218.241 194.326 217.289 194.326 216.15C194.326 215.011 194.708 214.059 195.474 213.294C196.248 212.529 197.186 212.146 198.288 212.146ZM200.276 214.078C199.734 213.527 199.072 213.252 198.288 213.252C197.504 213.252 196.841 213.527 196.3 214.078C195.768 214.619 195.502 215.31 195.502 216.15C195.502 216.99 195.768 217.685 196.3 218.236C196.841 218.777 197.504 219.048 198.288 219.048C199.081 219.048 199.744 218.777 200.276 218.236C200.817 217.685 201.088 216.99 201.088 216.15C201.088 215.31 200.817 214.619 200.276 214.078ZM215.728 218.908H217.128V222.058H215.966V220H214.566H208.7V222.058H207.538V218.908H208.854C209.274 218.619 209.586 217.811 209.792 216.486L210.464 212.3H215.728V218.908ZM210.156 218.908H214.566V213.392H211.458L210.954 216.514C210.767 217.671 210.501 218.469 210.156 218.908ZM224.421 212.3H225.583V220H224.421V218.446C224.113 218.978 223.702 219.398 223.189 219.706C222.685 220.005 222.106 220.154 221.453 220.154C220.408 220.154 219.544 219.781 218.863 219.034C218.191 218.278 217.855 217.317 217.855 216.15C217.855 214.983 218.191 214.027 218.863 213.28C219.544 212.524 220.408 212.146 221.453 212.146C222.106 212.146 222.69 212.3 223.203 212.608C223.716 212.916 224.122 213.341 224.421 213.882V212.3ZM221.677 219.048C222.47 219.048 223.128 218.777 223.651 218.236C224.174 217.685 224.435 216.99 224.435 216.15C224.435 215.31 224.174 214.619 223.651 214.078C223.128 213.527 222.47 213.252 221.677 213.252C220.893 213.252 220.254 213.527 219.759 214.078C219.274 214.619 219.031 215.31 219.031 216.15C219.031 216.999 219.278 217.695 219.773 218.236C220.268 218.777 220.902 219.048 221.677 219.048ZM233.545 212.3H234.707V220H233.545V216.612H228.813V220H227.651V212.3H228.813V215.506H233.545V212.3ZM242.678 212.3H243.84V220H242.678V216.612H237.946V220H236.784V212.3H237.946V215.506H242.678V212.3ZM249.557 214.848C250.434 214.848 251.106 215.063 251.573 215.492C252.04 215.912 252.273 216.542 252.273 217.382C252.273 218.213 252.03 218.857 251.545 219.314C251.06 219.771 250.378 220 249.501 220H245.917V212.3H247.079V214.848H249.557ZM253.491 212.3H254.653V220H253.491V212.3ZM249.487 218.894C250.56 218.894 251.097 218.39 251.097 217.382C251.097 216.906 250.976 216.537 250.733 216.276C250.5 216.015 250.089 215.884 249.501 215.884H247.079V218.894H249.487ZM261.799 210.368C261.37 210.751 260.838 210.942 260.203 210.942C259.569 210.942 259.037 210.751 258.607 210.368C258.178 209.976 257.963 209.458 257.963 208.814V208.562H258.915V208.786C258.915 209.159 259.032 209.463 259.265 209.696C259.508 209.92 259.821 210.032 260.203 210.032C260.595 210.032 260.908 209.92 261.141 209.696C261.384 209.463 261.505 209.159 261.505 208.786V208.562H262.457V208.814C262.457 209.458 262.238 209.976 261.799 210.368ZM262.261 212.3H263.689V220H262.527V216.304L262.597 213.714L258.159 220H256.731V212.3H257.893V215.996L257.823 218.572L262.261 212.3ZM27.69 233.146C28.8007 233.146 29.7387 233.529 30.504 234.294C31.2787 235.05 31.666 236.002 31.666 237.15C31.666 238.298 31.2833 239.255 30.518 240.02C29.7527 240.776 28.81 241.154 27.69 241.154C26.5793 241.154 25.6413 240.771 24.876 240.006C24.1107 239.241 23.728 238.289 23.728 237.15C23.728 236.011 24.1107 235.059 24.876 234.294C25.6507 233.529 26.5887 233.146 27.69 233.146ZM29.678 235.078C29.1367 234.527 28.474 234.252 27.69 234.252C26.906 234.252 26.2433 234.527 25.702 235.078C25.17 235.619 24.904 236.31 24.904 237.15C24.904 237.99 25.17 238.685 25.702 239.236C26.2433 239.777 26.906 240.048 27.69 240.048C28.4833 240.048 29.146 239.777 29.678 239.236C30.2193 238.685 30.49 237.99 30.49 237.15C30.49 236.31 30.2193 235.619 29.678 235.078ZM38.9788 233.3V234.392H36.3188V241H35.1568V234.392H32.4968V233.3H36.3188H38.9788ZM45.1538 236.926C45.6018 237.075 45.9331 237.323 46.1478 237.668C46.3718 238.004 46.4838 238.396 46.4838 238.844C46.4838 239.544 46.1945 240.104 45.6158 240.524C45.0465 240.944 44.2625 241.154 43.2638 241.154C41.1265 241.154 39.8898 240.272 39.5538 238.508H40.7298C40.9818 239.665 41.8125 240.244 43.2218 240.244C43.9218 240.244 44.4445 240.109 44.7898 239.838C45.1351 239.567 45.3078 239.208 45.3078 238.76C45.3078 237.901 44.7711 237.472 43.6978 237.472H42.1438V236.548H43.3758C44.4958 236.548 45.0558 236.17 45.0558 235.414C45.0558 235.013 44.8971 234.686 44.5798 234.434C44.2718 234.173 43.7818 234.042 43.1098 234.042C41.9338 234.042 41.2198 234.485 40.9678 235.372H39.7918C39.9505 234.672 40.3098 234.126 40.8698 233.734C41.4298 233.342 42.1858 233.146 43.1378 233.146C44.1085 233.146 44.8645 233.351 45.4058 233.762C45.9565 234.163 46.2318 234.691 46.2318 235.344C46.2318 236.1 45.8725 236.627 45.1538 236.926ZM51.7385 235.848C52.6158 235.848 53.2878 236.063 53.7545 236.492C54.2212 236.912 54.4545 237.542 54.4545 238.382C54.4545 239.213 54.2118 239.857 53.7265 240.314C53.2412 240.771 52.5598 241 51.6825 241H48.0985V233.3H49.2605V235.848H51.7385ZM55.6725 233.3H56.8345V241H55.6725V233.3ZM51.6685 239.894C52.7418 239.894 53.2785 239.39 53.2785 238.382C53.2785 237.906 53.1572 237.537 52.9145 237.276C52.6812 237.015 52.2705 236.884 51.6825 236.884H49.2605V239.894H51.6685ZM63.925 236.898C64.9143 237.169 65.409 237.808 65.409 238.816C65.409 239.497 65.1803 240.034 64.723 240.426C64.2656 240.809 63.5936 241 62.707 241H58.913V233.3H62.357C64.149 233.3 65.045 233.953 65.045 235.26C65.045 235.969 64.6716 236.515 63.925 236.898ZM63.869 235.456C63.869 235.055 63.7523 234.751 63.519 234.546C63.2856 234.341 62.8703 234.238 62.273 234.238H60.075V236.59H62.245C63.3276 236.59 63.869 236.212 63.869 235.456ZM62.637 240.062C63.7103 240.062 64.247 239.614 64.247 238.718C64.247 237.878 63.701 237.458 62.609 237.458H60.075V240.062H62.637ZM76.8176 233.3H78.0636L72.8696 244.5H71.6236L73.6676 240.062L70.5456 233.3H71.7916L74.2836 238.816L76.8176 233.3ZM84.6098 233.3H85.7718V241H84.6098V238.214C83.9378 238.503 83.1818 238.648 82.3418 238.648C80.3445 238.648 79.3458 237.701 79.3458 235.806V233.3H80.5078V235.54C80.5078 236.268 80.6618 236.795 80.9698 237.122C81.2872 237.439 81.8098 237.598 82.5378 237.598C83.4338 237.598 84.1245 237.449 84.6098 237.15V233.3ZM94.1006 233.3H95.2626V241H94.1006V239.446C93.7926 239.978 93.382 240.398 92.8686 240.706C92.3646 241.005 91.786 241.154 91.1326 241.154C90.0873 241.154 89.224 240.781 88.5426 240.034C87.8706 239.278 87.5346 238.317 87.5346 237.15C87.5346 235.983 87.8706 235.027 88.5426 234.28C89.224 233.524 90.0873 233.146 91.1326 233.146C91.786 233.146 92.3693 233.3 92.8826 233.608C93.396 233.916 93.802 234.341 94.1006 234.882V233.3ZM91.3566 240.048C92.15 240.048 92.808 239.777 93.3306 239.236C93.8533 238.685 94.1146 237.99 94.1146 237.15C94.1146 236.31 93.8533 235.619 93.3306 235.078C92.808 234.527 92.15 234.252 91.3566 234.252C90.5726 234.252 89.9333 234.527 89.4386 235.078C88.9533 235.619 88.7106 236.31 88.7106 237.15C88.7106 237.999 88.958 238.695 89.4526 239.236C89.9473 239.777 90.582 240.048 91.3566 240.048ZM100.999 241.154C99.8696 241.154 98.9223 240.776 98.1569 240.02C97.4009 239.255 97.0229 238.298 97.0229 237.15C97.0229 236.002 97.4009 235.05 98.1569 234.294C98.9223 233.529 99.8696 233.146 100.999 233.146C101.914 233.146 102.716 233.403 103.407 233.916C104.098 234.429 104.541 235.12 104.737 235.988H103.533C103.356 235.447 103.038 235.017 102.581 234.7C102.124 234.383 101.596 234.224 100.999 234.224C100.187 234.224 99.5149 234.499 98.9829 235.05C98.4603 235.601 98.1989 236.301 98.1989 237.15C98.1989 237.999 98.4603 238.699 98.9829 239.25C99.5149 239.801 100.187 240.076 100.999 240.076C101.596 240.076 102.119 239.917 102.567 239.6C103.024 239.283 103.346 238.853 103.533 238.312H104.737C104.532 239.189 104.084 239.885 103.393 240.398C102.702 240.902 101.904 241.154 100.999 241.154ZM111.918 233.3V234.392H109.258V241H108.096V234.392H105.436V233.3H109.258H111.918ZM118.325 236.898C119.315 237.169 119.809 237.808 119.809 238.816C119.809 239.497 119.581 240.034 119.123 240.426C118.666 240.809 117.994 241 117.107 241H113.313V233.3H116.757C118.549 233.3 119.445 233.953 119.445 235.26C119.445 235.969 119.072 236.515 118.325 236.898ZM118.269 235.456C118.269 235.055 118.153 234.751 117.919 234.546C117.686 234.341 117.271 234.238 116.673 234.238H114.475V236.59H116.645C117.728 236.59 118.269 236.212 118.269 235.456ZM117.037 240.062C118.111 240.062 118.647 239.614 118.647 238.718C118.647 237.878 118.101 237.458 117.009 237.458H114.475V240.062H117.037ZM126.857 233.3H128.103L122.909 244.5H121.663L123.707 240.062L120.585 233.3H121.831L124.323 238.816L126.857 233.3ZM132.676 233.146C133.87 233.146 134.822 233.552 135.532 234.364C136.241 235.176 136.572 236.221 136.526 237.5H129.932C129.988 238.293 130.272 238.919 130.786 239.376C131.299 239.833 131.948 240.062 132.732 240.062C133.88 240.062 134.682 239.614 135.14 238.718H136.344C136.026 239.511 135.546 240.118 134.902 240.538C134.258 240.949 133.52 241.154 132.69 241.154C131.542 241.154 130.594 240.785 129.848 240.048C129.11 239.301 128.742 238.345 128.742 237.178C128.742 236.011 129.11 235.05 129.848 234.294C130.585 233.529 131.528 233.146 132.676 233.146ZM132.676 234.238C131.985 234.238 131.397 234.439 130.912 234.84C130.436 235.241 130.128 235.764 129.988 236.408H135.266C135.135 235.755 134.841 235.232 134.384 234.84C133.926 234.439 133.357 234.238 132.676 234.238ZM143.787 233.3V234.392H141.127V241H139.965V234.392H137.305V233.3H141.127H143.787ZM154.392 236.898C155.381 237.169 155.876 237.808 155.876 238.816C155.876 239.497 155.647 240.034 155.19 240.426C154.732 240.809 154.06 241 153.174 241H149.38V233.3H152.824C154.616 233.3 155.512 233.953 155.512 235.26C155.512 235.969 155.138 236.515 154.392 236.898ZM154.336 235.456C154.336 235.055 154.219 234.751 153.986 234.546C153.752 234.341 153.337 234.238 152.74 234.238H150.542V236.59H152.712C153.794 236.59 154.336 236.212 154.336 235.456ZM153.104 240.062C154.177 240.062 154.714 239.614 154.714 238.718C154.714 237.878 154.168 237.458 153.076 237.458H150.542V240.062H153.104ZM167.942 233.3H169.104V241H167.942V239.446C167.634 239.978 167.224 240.398 166.71 240.706C166.206 241.005 165.628 241.154 164.974 241.154C163.929 241.154 163.066 240.781 162.384 240.034C161.712 239.278 161.376 238.317 161.376 237.15C161.376 235.983 161.712 235.027 162.384 234.28C163.066 233.524 163.929 233.146 164.974 233.146C165.628 233.146 166.211 233.3 166.724 233.608C167.238 233.916 167.644 234.341 167.942 234.882V233.3ZM165.198 240.048C165.992 240.048 166.65 239.777 167.172 239.236C167.695 238.685 167.956 237.99 167.956 237.15C167.956 236.31 167.695 235.619 167.172 235.078C166.65 234.527 165.992 234.252 165.198 234.252C164.414 234.252 163.775 234.527 163.28 235.078C162.795 235.619 162.552 236.31 162.552 237.15C162.552 237.999 162.8 238.695 163.294 239.236C163.789 239.777 164.424 240.048 165.198 240.048ZM177.977 241H176.451L172.335 237.29V241H171.173V233.3H172.335V236.73L176.087 233.3H177.613L173.567 236.954L177.977 241ZM186.166 239.908H187.566V243.058H186.404V241H185.004H179.754H179.376V233.3H180.538V239.908H185.004V233.3H186.166V239.908ZM194.49 233.3H195.918V241H194.756V237.304L194.826 234.714L190.388 241H188.96V233.3H190.122V236.996L190.052 239.572L194.49 233.3ZM203.5 233.3H204.928V241H203.766V237.304L203.836 234.714L199.398 241H197.97V233.3H199.132V236.996L199.062 239.572L203.5 233.3ZM207.399 239.81C207.558 239.661 207.754 239.586 207.987 239.586C208.221 239.586 208.412 239.661 208.561 239.81C208.72 239.959 208.799 240.146 208.799 240.37C208.799 240.594 208.72 240.781 208.561 240.93C208.412 241.079 208.221 241.154 207.987 241.154C207.754 241.154 207.558 241.079 207.399 240.93C207.25 240.781 207.175 240.594 207.175 240.37C207.175 240.146 207.25 239.959 207.399 239.81Z" fill="black"/>
<circle cx="151" cy="23" r="21" fill="#685BC7"/>
<path d="M150.322 25.21V19.78C149.402 22.62 148.792 24.43 148.492 25.21H150.322ZM145.702 29.02V25.63C147.682 20.21 149.352 15.51 150.712 11.53H154.222V25.21H156.292V29.02H154.222V34H150.322V29.02H145.702Z" fill="white"/>
</svg>
