<svg width="285" height="301" viewBox="0 0 285 301" fill="none" xmlns="http://www.w3.org/2000/svg">
<path d="M225.84 80.4893C212.541 77.5785 198.57 81.8547 183.993 93.3079C176.891 98.8565 168.4 107.748 163.417 114.824C163.293 115.007 162.661 113.043 162.026 110.407C157.839 92.9334 150.334 76.3151 141.485 65.0347C136.603 58.7964 129.792 52.8811 123.587 49.4961C119.853 47.4364 112.788 45.1095 108.59 44.5573C95.1518 42.7501 78.7985 46.7846 69.304 54.2595C65.0641 57.6212 62.388 60.6996 59.6416 65.4473C57.5529 68.9746 55.1328 76.1289 54.45 80.7259C50.7539 105.247 58.9683 138.544 82.0596 192.867C86.9141 204.237 91.2439 213.998 102.575 238.997C107.514 249.916 112.095 260.079 112.763 261.544L113.926 264.226L115.947 263.231C118.899 261.84 132.454 254.266 139.724 249.954C179.992 226.205 212.807 201.598 233.726 179.525C261.425 150.263 269.361 124.999 257.232 104.463C250.447 92.9363 237.467 83.0411 225.84 80.4893Z" fill="#FF6720"/>
<path d="M102.886 166.938C101.668 167.414 100.789 166.747 100.161 165.139L91.7413 143.605C91.1127 141.997 91.149 141.084 92.5131 140.551C93.8773 140.017 94.6883 140.655 95.2979 142.214L97.7932 148.597L103.201 146.482L100.668 140.002C99.2772 136.446 97.0332 132.717 90.9919 135.079L89.7251 135.575C84.7557 137.518 84.5384 141.703 85.9861 145.405L94.6339 167.524C96.0626 171.178 98.8425 174.697 104.397 172.526L105.615 172.05C110.925 169.973 110.649 165.532 109.125 161.634L105.849 153.254L100.441 155.369L103.736 163.797C104.308 165.259 104.201 166.424 102.886 166.938Z" fill="white"/>
<path d="M121.694 165.763C126.566 163.858 127.355 159.843 125.355 154.727L114.269 126.372L108.666 128.563L119.885 157.259C120.514 158.866 120.408 160.031 119.092 160.546C117.874 161.022 116.938 160.208 116.329 158.649L105.109 129.953L99.5066 132.144L110.593 160.499C112.631 165.712 115.847 168.049 120.719 166.144L121.694 165.763Z" fill="white"/>
<path d="M123.638 128.382L125.1 127.81C126.756 127.163 127.402 127.809 128.012 129.368L129.993 134.435C130.621 136.043 130.515 137.207 129.005 137.798L127.543 138.369L123.638 128.382ZM129.562 143.534L130.975 142.981C132.729 142.296 133.288 142.863 133.916 144.471L138.183 155.385C138.945 157.333 139.485 157.852 139.881 158.147L145.338 156.014L145.243 155.77C144.789 155.329 144.23 154.761 143.659 153.3L138.687 140.584C137.735 138.148 136.185 137.631 134.757 137.571C135.56 136.751 136.516 135.03 135.335 132.009L132.821 125.578C131.24 121.534 128.779 120.699 125.125 122.128L116.209 125.613L130.381 161.861L135.886 159.709L129.562 143.534Z" fill="white"/>
<path d="M132.528 119.233L146.7 155.481L158.929 150.7L156.738 145.097L150.015 147.726L138.034 117.081L132.528 119.233Z" fill="white"/>
<path d="M114.437 217.745L119.943 215.593L113.714 199.662L119.268 197.49L117.116 191.985L111.562 194.156L107.828 184.607L114.844 181.864L112.787 176.602L100.266 181.498L114.437 217.745Z" fill="white"/>
<path d="M121.635 178.816L123.097 178.244C124.753 177.597 125.399 178.243 126.009 179.802L127.99 184.869C128.618 186.476 128.512 187.641 127.002 188.232L125.54 188.803L121.635 178.816ZM127.559 193.968L128.972 193.415C130.726 192.729 131.285 193.297 131.914 194.905L136.18 205.818C136.942 207.767 137.482 208.286 137.878 208.581L143.335 206.447L143.24 206.204C142.787 205.763 142.228 205.195 141.656 203.734L136.685 191.018C135.732 188.582 134.182 188.064 132.754 188.005C133.557 187.185 134.513 185.464 133.332 182.443L130.818 176.012C129.237 171.968 126.776 171.133 123.122 172.562L114.206 176.047L128.378 212.295L133.883 210.143L127.559 193.968Z" fill="white"/>
<path d="M136.031 167.515L130.525 169.667L144.697 205.915L150.203 203.762L136.031 167.515Z" fill="white"/>
<path d="M138.09 166.709L152.262 202.957L165.076 197.947L162.923 192.442L155.615 195.299L151.52 184.824L157.025 182.672L154.873 177.167L149.367 179.319L145.653 169.819L152.669 167.076L150.611 161.814L138.09 166.709Z" fill="white"/>
<path d="M152.316 161.147L166.488 197.395L171.457 195.452L163.305 174.6L176.719 193.395L181.202 191.643L167.03 155.395L162.012 157.357L169.612 176.796L157.286 159.204L152.316 161.147Z" fill="white"/>
<path d="M183.236 190.847L191.664 187.552C196.195 185.781 196.766 182.356 195.033 177.922L186.404 155.852C184.727 151.565 182.218 149.457 177.492 151.304L169.064 154.6L183.236 190.847ZM176.493 157.368L178.052 156.758C179.416 156.225 180.238 156.746 181.057 158.841L189.038 179.255C189.8 181.204 189.656 182.271 187.999 182.919L186.684 183.433L176.493 157.368Z" fill="white"/>
<path d="M185.621 148.126L199.793 184.374L212.022 179.593L209.831 173.99L203.108 176.619L191.126 145.974L185.621 148.126Z" fill="white"/>
<path d="M214.009 178.816L219.515 176.663L213.629 161.609L210.166 138.53L205.197 140.473L208.037 154.921L200.227 142.416L194.868 144.511L208.104 163.713L214.009 178.816Z" fill="white"/>
<path d="M169.653 86.3294C171.664 85.2112 172.467 82.6326 171.416 80.6523C171.262 80.3615 170.475 79.4001 169.667 78.5142C163.286 71.4936 159.135 63.0136 157.581 53.8457C156.124 45.2777 156.844 37.0707 159.779 28.8721C160.584 26.6026 160.682 26.0232 160.4 24.9723C159.815 22.7674 157.638 21.4057 155.395 21.8439C154.366 22.0503 154.083 22.2382 152.325 23.8532C147.183 28.5766 141.57 31.9058 134.807 34.2393C132.305 35.1103 127.222 36.2135 124.439 36.5099C116.887 37.2866 109.764 36.4053 102.534 33.8067C99.7405 32.807 98.7341 32.8303 97.2964 33.9047C96.158 34.7524 95.5141 36.0487 95.5085 37.5027C95.4935 38.6728 95.915 39.4695 97.3252 40.9849C102.675 46.7235 106.329 53.136 108.618 60.8107C109.184 62.6858 110.071 67.2835 110.297 69.4175C111.026 76.7264 110.151 83.9877 107.689 90.865C106.884 93.1345 106.847 93.249 106.855 94.0573C106.838 96.4066 109.212 98.4552 111.627 98.1612C112.663 98.0486 113.442 97.6064 114.651 96.4588C123.327 88.2398 134.741 83.5323 146.881 83.157C152.722 82.9855 158.905 83.9839 164.698 86.061C165.838 86.4636 167.027 86.8203 167.332 86.8546C168.084 86.9299 168.926 86.7372 169.653 86.3294Z" fill="white"/>
</svg>
