<svg width="304" height="328" viewBox="0 0 304 328" fill="none" xmlns="http://www.w3.org/2000/svg">
<mask id="path-1-inside-1_259_130" fill="white">
<path fill-rule="evenodd" clip-rule="evenodd" d="M151.4 50C166.312 50 178.4 37.9117 178.4 23C178.4 22.6652 178.394 22.3318 178.382 22H293.4C298.923 22 303.4 26.4772 303.4 32V318C303.4 323.523 298.923 328 293.4 328H10.4004C4.87755 328 0.400391 323.523 0.400391 318L0.400391 32C0.400391 26.4772 4.87754 22 10.4004 22H124.419C124.406 22.3318 124.4 22.6652 124.4 23C124.4 37.9117 136.489 50 151.4 50Z"/>
</mask>
<path fill-rule="evenodd" clip-rule="evenodd" d="M151.4 50C166.312 50 178.4 37.9117 178.4 23C178.4 22.6652 178.394 22.3318 178.382 22H293.4C298.923 22 303.4 26.4772 303.4 32V318C303.4 323.523 298.923 328 293.4 328H10.4004C4.87755 328 0.400391 323.523 0.400391 318L0.400391 32C0.400391 26.4772 4.87754 22 10.4004 22H124.419C124.406 22.3318 124.4 22.6652 124.4 23C124.4 37.9117 136.489 50 151.4 50Z" fill="white"/>
<path d="M178.382 22V21H177.345L177.383 22.0364L178.382 22ZM124.419 22L125.418 22.0364L125.456 21H124.419V22ZM177.4 23C177.4 37.3594 165.76 49 151.4 49V51C166.864 51 179.4 38.464 179.4 23H177.4ZM177.383 22.0364C177.395 22.3561 177.4 22.6773 177.4 23H179.4C179.4 22.6531 179.394 22.3076 179.382 21.9636L177.383 22.0364ZM178.382 23H293.4V21H178.382V23ZM293.4 23C298.371 23 302.4 27.0294 302.4 32H304.4C304.4 25.9249 299.475 21 293.4 21V23ZM302.4 32V318H304.4V32H302.4ZM302.4 318C302.4 322.971 298.371 327 293.4 327V329C299.476 329 304.4 324.075 304.4 318H302.4ZM293.4 327H10.4004V329H293.4V327ZM10.4004 327C5.42984 327 1.40039 322.971 1.40039 318H-0.599609C-0.599609 324.075 4.32527 329 10.4004 329V327ZM1.40039 318L1.40039 32H-0.599609L-0.599609 318H1.40039ZM1.40039 32C1.40039 27.0294 5.42983 23 10.4004 23V21C4.32526 21 -0.599609 25.9249 -0.599609 32H1.40039ZM10.4004 23H124.419V21H10.4004V23ZM125.4 23C125.4 22.6773 125.406 22.3561 125.418 22.0364L123.419 21.9636C123.407 22.3076 123.4 22.6531 123.4 23H125.4ZM151.4 49C137.041 49 125.4 37.3594 125.4 23H123.4C123.4 38.464 135.936 51 151.4 51V49Z" fill="black" fill-opacity="0.15" mask="url(#path-1-inside-1_259_130)"/>
<path d="M26.3004 68.84C27.7137 67.44 29.4537 66.74 31.5204 66.74C33.5871 66.74 35.3204 67.44 36.7204 68.84C38.1337 70.2267 38.8404 71.9467 38.8404 74C38.8404 76.0533 38.1337 77.78 36.7204 79.18C35.3204 80.5667 33.5871 81.26 31.5204 81.26C29.4537 81.26 27.7137 80.5667 26.3004 79.18C24.9004 77.78 24.2004 76.0533 24.2004 74C24.2004 71.9467 24.9004 70.2267 26.3004 68.84ZM34.3004 71.12C33.5671 70.36 32.6404 69.98 31.5204 69.98C30.4004 69.98 29.4737 70.36 28.7404 71.12C28.0071 71.8667 27.6404 72.8267 27.6404 74C27.6404 75.1733 28.0071 76.14 28.7404 76.9C29.4737 77.6467 30.4004 78.02 31.5204 78.02C32.6404 78.02 33.5671 77.6467 34.3004 76.9C35.0337 76.14 35.4004 75.1733 35.4004 74C35.4004 72.8267 35.0337 71.8667 34.3004 71.12ZM46.1909 81.26C44.5242 81.26 43.1442 80.7133 42.0509 79.62C40.9709 78.5133 40.4309 77.14 40.4309 75.5C40.4309 73.86 40.9709 72.4933 42.0509 71.4C43.1442 70.2933 44.5309 69.74 46.2109 69.74C47.6375 69.74 48.8775 70.1533 49.9309 70.98C50.9842 71.7933 51.5909 72.9133 51.7509 74.34H48.2509C48.0109 73.3667 47.3309 72.88 46.2109 72.88C45.4775 72.88 44.9042 73.12 44.4909 73.6C44.0775 74.08 43.8709 74.7133 43.8709 75.5C43.8709 76.2867 44.0775 76.92 44.4909 77.4C44.9175 77.88 45.4842 78.12 46.1909 78.12C46.6842 78.12 47.1175 78 47.4909 77.76C47.8775 77.5067 48.1309 77.1333 48.2509 76.64H51.7509C51.5775 78.0933 50.9575 79.2267 49.8909 80.04C48.8375 80.8533 47.6042 81.26 46.1909 81.26ZM62.5457 70V73.2H59.3457V81H55.9457V73.2H52.7457V70H59.3457H62.5457ZM71.8312 70H75.2312L75.2112 81H71.8112V79.82C71.0245 80.78 69.9912 81.26 68.7112 81.26C67.2978 81.26 66.1178 80.72 65.1712 79.64C64.2245 78.56 63.7512 77.18 63.7512 75.5C63.7512 73.82 64.2245 72.44 65.1712 71.36C66.1312 70.28 67.3045 69.74 68.6912 69.74C70.0112 69.74 71.0578 70.24 71.8312 71.24V70ZM67.8512 77.34C68.2912 77.7933 68.8445 78.02 69.5112 78.02C70.1778 78.02 70.7312 77.7933 71.1712 77.34C71.6112 76.8733 71.8312 76.26 71.8312 75.5C71.8312 74.7533 71.6112 74.1467 71.1712 73.68C70.7312 73.2133 70.1778 72.98 69.5112 72.98C68.8445 72.98 68.2912 73.2133 67.8512 73.68C67.4112 74.1467 67.1912 74.7533 67.1912 75.5C67.1912 76.26 67.4112 76.8733 67.8512 77.34ZM85.3724 75.02C86.6391 75.42 87.2724 76.3467 87.2724 77.8C87.2724 78.92 86.8924 79.7333 86.1324 80.24C85.3724 80.7467 84.3991 81 83.2124 81H77.2324V70H82.7324C83.2924 70 83.7858 70.04 84.2124 70.12C84.6524 70.1867 85.0724 70.3133 85.4724 70.5C85.8724 70.6867 86.1791 70.9733 86.3924 71.36C86.6058 71.7333 86.7124 72.2 86.7124 72.76C86.7124 73.2933 86.5991 73.7267 86.3724 74.06C86.1458 74.3933 85.8124 74.7133 85.3724 75.02ZM83.2724 73.44C83.2724 73.1467 83.2058 72.94 83.0724 72.82C82.9524 72.7 82.7391 72.64 82.4324 72.64H80.6324V74.2H82.4524C82.7591 74.2 82.9724 74.1467 83.0924 74.04C83.2124 73.92 83.2724 73.72 83.2724 73.44ZM82.9524 78.36C83.2724 78.36 83.4991 78.3 83.6324 78.18C83.7658 78.0467 83.8324 77.8133 83.8324 77.48C83.8324 77.1467 83.7658 76.92 83.6324 76.8C83.4991 76.6667 83.2724 76.6 82.9524 76.6H80.6324V78.36H82.9524ZM91.7307 70H100.171V81H96.7707V73.2H94.6307L94.0707 76.68C93.5774 79.7333 92.1907 81.26 89.9107 81.26C89.484 81.26 88.9707 81.2 88.3707 81.08V78.02C88.7707 78.0733 89.044 78.1 89.1907 78.1C89.6574 78.1 89.9974 77.98 90.2107 77.74C90.4374 77.4867 90.604 77.02 90.7107 76.34L91.7307 70ZM106.374 70H112.214V81H108.814V77.38H107.994L105.734 81H101.574L104.434 77C102.954 76.4667 102.214 75.4133 102.214 73.84C102.214 73.1467 102.34 72.54 102.594 72.02C102.847 71.4867 103.187 71.0867 103.614 70.82C104.04 70.54 104.48 70.3333 104.934 70.2C105.4 70.0667 105.88 70 106.374 70ZM106.594 73.04C105.967 73.04 105.654 73.2867 105.654 73.78C105.654 74.3267 105.967 74.6 106.594 74.6H108.814V73.04H106.594ZM119.605 68.88C118.672 68.88 117.865 68.5867 117.185 68C116.518 67.4133 116.185 66.62 116.185 65.62V65H118.825V65.54C118.825 65.78 118.898 65.9733 119.045 66.12C119.192 66.2667 119.378 66.34 119.605 66.34C119.832 66.34 120.012 66.2667 120.145 66.12C120.292 65.9733 120.365 65.78 120.365 65.54V65H123.005V65.62C123.005 66.62 122.665 67.4133 121.985 68C121.318 68.5867 120.525 68.88 119.605 68.88ZM121.125 70H124.985V81H121.585V77.72L121.765 74.74L118.065 81H114.205V70H117.605V73.28L117.425 76.22L121.125 70ZM25.8804 99.4C27.0004 98.2933 28.3604 97.74 29.9604 97.74C31.5604 97.74 32.9204 98.2933 34.0404 99.4C35.1604 100.493 35.7204 101.86 35.7204 103.5C35.7204 105.153 35.1671 106.527 34.0604 107.62C32.9537 108.713 31.5871 109.26 29.9604 109.26C28.3471 109.26 26.9804 108.713 25.8604 107.62C24.7537 106.513 24.2004 105.14 24.2004 103.5C24.2004 101.86 24.7604 100.493 25.8804 99.4ZM31.6204 101.68C31.1804 101.213 30.6271 100.98 29.9604 100.98C29.2937 100.98 28.7404 101.213 28.3004 101.68C27.8604 102.147 27.6404 102.753 27.6404 103.5C27.6404 104.26 27.8604 104.873 28.3004 105.34C28.7404 105.793 29.2937 106.02 29.9604 106.02C30.6271 106.02 31.1804 105.793 31.6204 105.34C32.0604 104.873 32.2804 104.26 32.2804 103.5C32.2804 102.753 32.0604 102.147 31.6204 101.68ZM46.7254 98V101.2H43.5254V109H40.1254V101.2H36.9254V98H43.5254H46.7254ZM56.6109 103.2C57.6909 103.667 58.2309 104.533 58.2309 105.8C58.2309 106.947 57.7709 107.813 56.8509 108.4C55.9309 108.973 54.7109 109.26 53.1909 109.26C50.0309 109.26 48.2109 107.92 47.7309 105.24H51.1709C51.2509 105.773 51.4375 106.147 51.7309 106.36C52.0375 106.573 52.4975 106.68 53.1109 106.68C53.7109 106.68 54.1375 106.593 54.3909 106.42C54.6575 106.247 54.7909 105.967 54.7909 105.58C54.7909 105.273 54.6975 105.047 54.5109 104.9C54.3242 104.753 53.9909 104.68 53.5109 104.68H51.8309V102.1H53.2709C53.7109 102.1 54.0175 102.033 54.1909 101.9C54.3642 101.767 54.4509 101.553 54.4509 101.26C54.4509 100.927 54.3375 100.68 54.1109 100.52C53.8842 100.347 53.5042 100.26 52.9709 100.26C51.9975 100.26 51.4575 100.66 51.3509 101.46H47.9109C48.3242 98.98 50.0242 97.74 53.0109 97.74C54.4509 97.74 55.6242 98.02 56.5309 98.58C57.4375 99.14 57.8909 99.9467 57.8909 101C57.8909 101.96 57.4642 102.693 56.6109 103.2ZM65.7677 101.04C66.2744 101.04 66.7477 101.1 67.1877 101.22C67.6277 101.34 68.0544 101.54 68.4677 101.82C68.8944 102.087 69.2277 102.487 69.4677 103.02C69.7077 103.553 69.8277 104.187 69.8277 104.92C69.8277 105.653 69.7011 106.3 69.4477 106.86C69.1944 107.407 68.8544 107.833 68.4277 108.14C68.0011 108.433 67.5544 108.653 67.0877 108.8C66.6344 108.933 66.1611 109 65.6677 109H59.9277V98H63.3277V101.04H65.7677ZM71.1877 98H74.5877V109H71.1877V98ZM65.5477 105.76C66.1077 105.76 66.3877 105.48 66.3877 104.92C66.3877 104.32 66.1077 104.02 65.5477 104.02H63.3277V105.76H65.5477ZM84.7279 103.02C85.9946 103.42 86.6279 104.347 86.6279 105.8C86.6279 106.92 86.2479 107.733 85.4879 108.24C84.7279 108.747 83.7546 109 82.5679 109H76.5879V98H82.0879C82.6479 98 83.1412 98.04 83.5679 98.12C84.0079 98.1867 84.4279 98.3133 84.8279 98.5C85.2279 98.6867 85.5346 98.9733 85.7479 99.36C85.9612 99.7333 86.0679 100.2 86.0679 100.76C86.0679 101.293 85.9546 101.727 85.7279 102.06C85.5012 102.393 85.1679 102.713 84.7279 103.02ZM82.6279 101.44C82.6279 101.147 82.5612 100.94 82.4279 100.82C82.3079 100.7 82.0946 100.64 81.7879 100.64H79.9879V102.2H81.8079C82.1146 102.2 82.3279 102.147 82.4479 102.04C82.5679 101.92 82.6279 101.72 82.6279 101.44ZM82.3079 106.36C82.6279 106.36 82.8546 106.3 82.9879 106.18C83.1212 106.047 83.1879 105.813 83.1879 105.48C83.1879 105.147 83.1212 104.92 82.9879 104.8C82.8546 104.667 82.6279 104.6 82.3079 104.6H79.9879V106.36H82.3079ZM95.8023 99.4C96.9223 98.2933 98.2823 97.74 99.8823 97.74C101.482 97.74 102.842 98.2933 103.962 99.4C105.082 100.493 105.642 101.86 105.642 103.5C105.642 105.153 105.089 106.527 103.982 107.62C102.876 108.713 101.509 109.26 99.8823 109.26C98.2689 109.26 96.9023 108.713 95.7823 107.62C94.6756 106.513 94.1223 105.14 94.1223 103.5C94.1223 101.86 94.6823 100.493 95.8023 99.4ZM101.542 101.68C101.102 101.213 100.549 100.98 99.8823 100.98C99.2156 100.98 98.6623 101.213 98.2223 101.68C97.7823 102.147 97.5623 102.753 97.5623 103.5C97.5623 104.26 97.7823 104.873 98.2223 105.34C98.6623 105.793 99.2156 106.02 99.8823 106.02C100.549 106.02 101.102 105.793 101.542 105.34C101.982 104.873 102.202 104.26 102.202 103.5C102.202 102.753 101.982 102.147 101.542 101.68ZM122.643 98V101.2H119.443V109H116.043V101.2H112.843V98H119.443H122.643ZM125.529 99.4C126.649 98.2933 128.009 97.74 129.609 97.74C131.209 97.74 132.569 98.2933 133.689 99.4C134.809 100.493 135.369 101.86 135.369 103.5C135.369 105.153 134.815 106.527 133.709 107.62C132.602 108.713 131.235 109.26 129.609 109.26C127.995 109.26 126.629 108.713 125.509 107.62C124.402 106.513 123.849 105.14 123.849 103.5C123.849 101.86 124.409 100.493 125.529 99.4ZM131.269 101.68C130.829 101.213 130.275 100.98 129.609 100.98C128.942 100.98 128.389 101.213 127.949 101.68C127.509 102.147 127.289 102.753 127.289 103.5C127.289 104.26 127.509 104.873 127.949 105.34C128.389 105.793 128.942 106.02 129.609 106.02C130.275 106.02 130.829 105.793 131.269 105.34C131.709 104.873 131.929 104.26 131.929 103.5C131.929 102.753 131.709 102.147 131.269 101.68ZM145.314 103.02C146.58 103.42 147.214 104.347 147.214 105.8C147.214 106.92 146.834 107.733 146.074 108.24C145.314 108.747 144.34 109 143.154 109H137.174V98H142.674C143.234 98 143.727 98.04 144.154 98.12C144.594 98.1867 145.014 98.3133 145.414 98.5C145.814 98.6867 146.12 98.9733 146.334 99.36C146.547 99.7333 146.654 100.2 146.654 100.76C146.654 101.293 146.54 101.727 146.314 102.06C146.087 102.393 145.754 102.713 145.314 103.02ZM143.214 101.44C143.214 101.147 143.147 100.94 143.014 100.82C142.894 100.7 142.68 100.64 142.374 100.64H140.574V102.2H142.394C142.7 102.2 142.914 102.147 143.034 102.04C143.154 101.92 143.214 101.72 143.214 101.44ZM142.894 106.36C143.214 106.36 143.44 106.3 143.574 106.18C143.707 106.047 143.774 105.813 143.774 105.48C143.774 105.147 143.707 104.92 143.574 104.8C143.44 104.667 143.214 104.6 142.894 104.6H140.574V106.36H142.894ZM156.792 98H160.192L160.172 109H156.772V107.82C155.985 108.78 154.952 109.26 153.672 109.26C152.259 109.26 151.079 108.72 150.132 107.64C149.185 106.56 148.712 105.18 148.712 103.5C148.712 101.82 149.185 100.44 150.132 99.36C151.092 98.28 152.265 97.74 153.652 97.74C154.972 97.74 156.019 98.24 156.792 99.24V98ZM152.812 105.34C153.252 105.793 153.805 106.02 154.472 106.02C155.139 106.02 155.692 105.793 156.132 105.34C156.572 104.873 156.792 104.26 156.792 103.5C156.792 102.753 156.572 102.147 156.132 101.68C155.692 101.213 155.139 100.98 154.472 100.98C153.805 100.98 153.252 101.213 152.812 101.68C152.372 102.147 152.152 102.753 152.152 103.5C152.152 104.26 152.372 104.873 152.812 105.34ZM168.833 97.74C170.22 97.74 171.387 98.28 172.333 99.36C173.293 100.44 173.773 101.82 173.773 103.5C173.773 105.18 173.3 106.56 172.353 107.64C171.407 108.72 170.227 109.26 168.813 109.26C167.533 109.26 166.493 108.78 165.693 107.82V114H162.293V98H165.693V99.24C166.467 98.24 167.513 97.74 168.833 97.74ZM166.353 105.34C166.793 105.793 167.347 106.02 168.013 106.02C168.68 106.02 169.233 105.793 169.673 105.34C170.113 104.873 170.333 104.26 170.333 103.5C170.333 102.753 170.113 102.147 169.673 101.68C169.233 101.213 168.68 100.98 168.013 100.98C167.347 100.98 166.793 101.213 166.353 101.68C165.913 102.147 165.693 102.753 165.693 103.5C165.693 104.26 165.913 104.873 166.353 105.34ZM181.172 97.74C182.972 97.74 184.412 98.3667 185.492 99.62C186.572 100.86 187.026 102.393 186.852 104.22H178.832C178.912 105.02 179.172 105.627 179.612 106.04C180.066 106.44 180.612 106.64 181.252 106.64C181.719 106.64 182.126 106.533 182.472 106.32C182.819 106.093 183.059 105.787 183.192 105.4H186.692C186.332 106.693 185.652 107.66 184.652 108.3C183.666 108.94 182.532 109.26 181.252 109.26C179.519 109.26 178.106 108.713 177.012 107.62C175.919 106.527 175.372 105.153 175.372 103.5C175.372 101.86 175.912 100.493 176.992 99.4C178.086 98.2933 179.479 97.74 181.172 97.74ZM181.152 100.36C179.992 100.36 179.252 100.96 178.932 102.16H183.312C183.192 101.613 182.946 101.18 182.572 100.86C182.212 100.527 181.739 100.36 181.152 100.36Z" fill="black"/>
<path d="M31.4784 126.2H32.6404V136H31.4784V131.492H25.7944V136H24.6324V126.2H25.7944V130.386H31.4784V126.2ZM41.167 128.3H42.329V136H41.167V134.446C40.859 134.978 40.4484 135.398 39.935 135.706C39.431 136.005 38.8524 136.154 38.199 136.154C37.1537 136.154 36.2904 135.781 35.609 135.034C34.937 134.278 34.601 133.317 34.601 132.15C34.601 130.983 34.937 130.027 35.609 129.28C36.2904 128.524 37.1537 128.146 38.199 128.146C38.8524 128.146 39.4357 128.3 39.949 128.608C40.4624 128.916 40.8684 129.341 41.167 129.882V128.3ZM38.423 135.048C39.2164 135.048 39.8744 134.777 40.397 134.236C40.9197 133.685 41.181 132.99 41.181 132.15C41.181 131.31 40.9197 130.619 40.397 130.078C39.8744 129.527 39.2164 129.252 38.423 129.252C37.639 129.252 36.9997 129.527 36.505 130.078C36.0197 130.619 35.777 131.31 35.777 132.15C35.777 132.999 36.0244 133.695 36.519 134.236C37.0137 134.777 37.6484 135.048 38.423 135.048ZM51.3833 128.3V136H50.2213V129.392H45.5593V136H44.3973V128.3H45.5593H51.3833ZM58.9781 128.3H60.4061V136H59.2441V132.304L59.3141 129.714L54.8761 136H53.4481V128.3H54.6101V131.996L54.5401 134.572L58.9781 128.3ZM71.4179 128.3H72.5799V136H71.4179H66.9379H62.9899H62.4579V128.3H63.6199V134.908H66.9379V128.3H68.0999V134.908H71.4179V128.3ZM80.1695 128.3H81.5975V136H80.4355V132.304L80.5055 129.714L76.0675 136H74.6395V128.3H75.8015V131.996L75.7315 134.572L80.1695 128.3ZM91.5145 136.154C90.3852 136.154 89.4379 135.776 88.6725 135.02C87.9165 134.255 87.5385 133.298 87.5385 132.15C87.5385 131.002 87.9165 130.05 88.6725 129.294C89.4379 128.529 90.3852 128.146 91.5145 128.146C92.4292 128.146 93.2319 128.403 93.9225 128.916C94.6132 129.429 95.0565 130.12 95.2525 130.988H94.0485C93.8712 130.447 93.5539 130.017 93.0965 129.7C92.6392 129.383 92.1119 129.224 91.5145 129.224C90.7025 129.224 90.0305 129.499 89.4985 130.05C88.9759 130.601 88.7145 131.301 88.7145 132.15C88.7145 132.999 88.9759 133.699 89.4985 134.25C90.0305 134.801 90.7025 135.076 91.5145 135.076C92.1119 135.076 92.6345 134.917 93.0825 134.6C93.5399 134.283 93.8619 133.853 94.0485 133.312H95.2525C95.0472 134.189 94.5992 134.885 93.9085 135.398C93.2179 135.902 92.4199 136.154 91.5145 136.154ZM101.882 131.898C102.871 132.169 103.366 132.808 103.366 133.816C103.366 134.497 103.137 135.034 102.68 135.426C102.223 135.809 101.551 136 100.664 136H96.87V128.3H100.314C102.106 128.3 103.002 128.953 103.002 130.26C103.002 130.969 102.629 131.515 101.882 131.898ZM101.826 130.456C101.826 130.055 101.709 129.751 101.476 129.546C101.243 129.341 100.827 129.238 100.23 129.238H98.032V131.59H100.202C101.285 131.59 101.826 131.212 101.826 130.456ZM100.594 135.062C101.667 135.062 102.204 134.614 102.204 133.718C102.204 132.878 101.658 132.458 100.566 132.458H98.032V135.062H100.594ZM108.631 128.146C109.742 128.146 110.68 128.529 111.445 129.294C112.22 130.05 112.607 131.002 112.607 132.15C112.607 133.298 112.225 134.255 111.459 135.02C110.694 135.776 109.751 136.154 108.631 136.154C107.521 136.154 106.583 135.771 105.817 135.006C105.052 134.241 104.669 133.289 104.669 132.15C104.669 131.011 105.052 130.059 105.817 129.294C106.592 128.529 107.53 128.146 108.631 128.146ZM110.619 130.078C110.078 129.527 109.415 129.252 108.631 129.252C107.847 129.252 107.185 129.527 106.643 130.078C106.111 130.619 105.845 131.31 105.845 132.15C105.845 132.99 106.111 133.685 106.643 134.236C107.185 134.777 107.847 135.048 108.631 135.048C109.425 135.048 110.087 134.777 110.619 134.236C111.161 133.685 111.431 132.99 111.431 132.15C111.431 131.31 111.161 130.619 110.619 130.078ZM119.424 126.368C118.995 126.751 118.463 126.942 117.828 126.942C117.194 126.942 116.662 126.751 116.232 126.368C115.803 125.976 115.588 125.458 115.588 124.814V124.562H116.54V124.786C116.54 125.159 116.657 125.463 116.89 125.696C117.133 125.92 117.446 126.032 117.828 126.032C118.22 126.032 118.533 125.92 118.766 125.696C119.009 125.463 119.13 125.159 119.13 124.786V124.562H120.082V124.814C120.082 125.458 119.863 125.976 119.424 126.368ZM119.886 128.3H121.314V136H120.152V132.304L120.222 129.714L115.784 136H114.356V128.3H115.518V131.996L115.448 134.572L119.886 128.3ZM133.163 128.3H134.409L129.215 139.5H127.969L130.013 135.062L126.891 128.3H128.137L130.629 133.816L133.163 128.3ZM141.701 128.3H142.863V136H141.701V132.612H136.969V136H135.807V128.3H136.969V131.506H141.701V128.3ZM150.47 128.3H151.898V136H150.736V132.304L150.806 129.714L146.368 136H144.94V128.3H146.102V131.996L146.032 134.572L150.47 128.3ZM160.754 136H159.228L155.112 132.29V136H153.95V128.3H155.112V131.73L158.864 128.3H160.39L156.344 131.954L160.754 136ZM167.673 128.3H168.835V136H167.673V134.446C167.365 134.978 166.954 135.398 166.441 135.706C165.937 136.005 165.358 136.154 164.705 136.154C163.66 136.154 162.796 135.781 162.115 135.034C161.443 134.278 161.107 133.317 161.107 132.15C161.107 130.983 161.443 130.027 162.115 129.28C162.796 128.524 163.66 128.146 164.705 128.146C165.358 128.146 165.942 128.3 166.455 128.608C166.968 128.916 167.374 129.341 167.673 129.882V128.3ZM164.929 135.048C165.722 135.048 166.38 134.777 166.903 134.236C167.426 133.685 167.687 132.99 167.687 132.15C167.687 131.31 167.426 130.619 166.903 130.078C166.38 129.527 165.722 129.252 164.929 129.252C164.145 129.252 163.506 129.527 163.011 130.078C162.526 130.619 162.283 131.31 162.283 132.15C162.283 132.999 162.53 133.695 163.025 134.236C163.52 134.777 164.154 135.048 164.929 135.048ZM172.643 128.3H177.879V136H176.717V129.392H173.623L173.049 133.004C172.862 134.133 172.578 134.941 172.195 135.426C171.822 135.911 171.322 136.154 170.697 136.154C170.473 136.154 170.263 136.14 170.067 136.112V135.048C170.235 135.067 170.37 135.076 170.473 135.076C170.874 135.076 171.178 134.927 171.383 134.628C171.588 134.32 171.761 133.755 171.901 132.934L172.643 128.3ZM183.608 130.848C184.485 130.848 185.157 131.063 185.624 131.492C186.091 131.912 186.324 132.542 186.324 133.382C186.324 134.213 186.081 134.857 185.596 135.314C185.111 135.771 184.429 136 183.552 136H179.954V128.3H181.116V130.848H183.608ZM183.524 134.894C184.607 134.894 185.148 134.39 185.148 133.382C185.148 132.906 185.027 132.537 184.784 132.276C184.551 132.015 184.14 131.884 183.552 131.884H181.116V134.894H183.524ZM193.969 128.3H195.131V136H193.969V132.612H189.237V136H188.075V128.3H189.237V131.506H193.969V128.3ZM200.848 130.848C201.725 130.848 202.397 131.063 202.864 131.492C203.331 131.912 203.564 132.542 203.564 133.382C203.564 134.213 203.321 134.857 202.836 135.314C202.351 135.771 201.669 136 200.792 136H197.208V128.3H198.37V130.848H200.848ZM204.782 128.3H205.944V136H204.782V128.3ZM200.778 134.894C201.851 134.894 202.388 134.39 202.388 133.382C202.388 132.906 202.267 132.537 202.024 132.276C201.791 132.015 201.38 131.884 200.792 131.884H198.37V134.894H200.778ZM213.09 126.368C212.661 126.751 212.129 126.942 211.494 126.942C210.86 126.942 210.328 126.751 209.898 126.368C209.469 125.976 209.254 125.458 209.254 124.814V124.562H210.206V124.786C210.206 125.159 210.323 125.463 210.556 125.696C210.799 125.92 211.112 126.032 211.494 126.032C211.886 126.032 212.199 125.92 212.432 125.696C212.675 125.463 212.796 125.159 212.796 124.786V124.562H213.748V124.814C213.748 125.458 213.529 125.976 213.09 126.368ZM213.552 128.3H214.98V136H213.818V132.304L213.888 129.714L209.45 136H208.022V128.3H209.184V131.996L209.114 134.572L213.552 128.3ZM228.033 136H226.507L222.391 132.29V136H221.229V128.3H222.391V131.73L226.143 128.3H227.669L223.623 131.954L228.033 136ZM232.348 128.146C233.459 128.146 234.397 128.529 235.162 129.294C235.937 130.05 236.324 131.002 236.324 132.15C236.324 133.298 235.942 134.255 235.176 135.02C234.411 135.776 233.468 136.154 232.348 136.154C231.238 136.154 230.3 135.771 229.534 135.006C228.769 134.241 228.386 133.289 228.386 132.15C228.386 131.011 228.769 130.059 229.534 129.294C230.309 128.529 231.247 128.146 232.348 128.146ZM234.336 130.078C233.795 129.527 233.132 129.252 232.348 129.252C231.564 129.252 230.902 129.527 230.36 130.078C229.828 130.619 229.562 131.31 229.562 132.15C229.562 132.99 229.828 133.685 230.36 134.236C230.902 134.777 231.564 135.048 232.348 135.048C233.142 135.048 233.804 134.777 234.336 134.236C234.878 133.685 235.148 132.99 235.148 132.15C235.148 131.31 234.878 130.619 234.336 130.078ZM244.976 134.908H246.376V138.058H245.214V136H243.814H237.948V138.058H236.786V134.908H238.102C238.522 134.619 238.835 133.811 239.04 132.486L239.712 128.3H244.976V134.908ZM239.404 134.908H243.814V129.392H240.706L240.202 132.514C240.015 133.671 239.749 134.469 239.404 134.908ZM249.964 135.412C249.983 135.692 249.595 136.691 248.802 138.408H247.976L248.9 136.126C248.527 136.033 248.34 135.785 248.34 135.384C248.34 135.151 248.415 134.959 248.564 134.81C248.723 134.661 248.919 134.586 249.152 134.586C249.357 134.586 249.539 134.651 249.698 134.782C249.866 134.913 249.955 135.123 249.964 135.412ZM31.4224 149.3V157H30.2604V150.392H25.5984V157H24.4364V149.3H25.5984H31.4224ZM37.1412 149.146C38.2518 149.146 39.1898 149.529 39.9552 150.294C40.7298 151.05 41.1172 152.002 41.1172 153.15C41.1172 154.298 40.7345 155.255 39.9692 156.02C39.2038 156.776 38.2612 157.154 37.1412 157.154C36.0305 157.154 35.0925 156.771 34.3272 156.006C33.5618 155.241 33.1792 154.289 33.1792 153.15C33.1792 152.011 33.5618 151.059 34.3272 150.294C35.1018 149.529 36.0398 149.146 37.1412 149.146ZM39.1292 151.078C38.5878 150.527 37.9252 150.252 37.1412 150.252C36.3572 150.252 35.6945 150.527 35.1532 151.078C34.6212 151.619 34.3552 152.31 34.3552 153.15C34.3552 153.99 34.6212 154.685 35.1532 155.236C35.6945 155.777 36.3572 156.048 37.1412 156.048C37.9345 156.048 38.5972 155.777 39.1292 155.236C39.6705 154.685 39.9412 153.99 39.9412 153.15C39.9412 152.31 39.6705 151.619 39.1292 151.078ZM44.2916 149.3H49.5276V157H48.3656V150.392H45.2716L44.6976 154.004C44.5109 155.133 44.2262 155.941 43.8436 156.426C43.4702 156.911 42.9709 157.154 42.3456 157.154C42.1216 157.154 41.9116 157.14 41.7156 157.112V156.048C41.8836 156.067 42.0189 156.076 42.1216 156.076C42.5229 156.076 42.8262 155.927 43.0316 155.628C43.2369 155.32 43.4096 154.755 43.5496 153.934L44.2916 149.3ZM57.2024 149.3H58.4484L53.2544 160.5H52.0084L54.0524 156.062L50.9304 149.3H52.1764L54.6684 154.816L57.2024 149.3ZM64.9946 149.3H66.1566V157H64.9946V154.214C64.3226 154.503 63.5666 154.648 62.7266 154.648C60.7293 154.648 59.7306 153.701 59.7306 151.806V149.3H60.8926V151.54C60.8926 152.268 61.0466 152.795 61.3546 153.122C61.6719 153.439 62.1946 153.598 62.9226 153.598C63.8186 153.598 64.5093 153.449 64.9946 153.15V149.3ZM71.8534 149.146C73.0481 149.146 74.0001 149.552 74.7094 150.364C75.4187 151.176 75.7501 152.221 75.7034 153.5H69.1094C69.1654 154.293 69.4501 154.919 69.9634 155.376C70.4767 155.833 71.1254 156.062 71.9094 156.062C73.0574 156.062 73.8601 155.614 74.3174 154.718H75.5214C75.2041 155.511 74.7234 156.118 74.0794 156.538C73.4354 156.949 72.6981 157.154 71.8674 157.154C70.7194 157.154 69.7721 156.785 69.0254 156.048C68.2881 155.301 67.9194 154.345 67.9194 153.178C67.9194 152.011 68.2881 151.05 69.0254 150.294C69.7627 149.529 70.7054 149.146 71.8534 149.146ZM71.8534 150.238C71.1627 150.238 70.5747 150.439 70.0894 150.84C69.6134 151.241 69.3054 151.764 69.1654 152.408H74.4434C74.3127 151.755 74.0187 151.232 73.5614 150.84C73.1041 150.439 72.5347 150.238 71.8534 150.238ZM83.2952 149.3H84.4572V157H83.2952V153.612H78.5632V157H77.4012V149.3H78.5632V152.506H83.2952V149.3ZM92.428 149.3H93.59V157H92.428V153.612H87.696V157H86.534V149.3H87.696V152.506H92.428V149.3ZM99.3069 151.848C100.184 151.848 100.856 152.063 101.323 152.492C101.79 152.912 102.023 153.542 102.023 154.382C102.023 155.213 101.78 155.857 101.295 156.314C100.81 156.771 100.128 157 99.2509 157H95.6669V149.3H96.8289V151.848H99.3069ZM103.241 149.3H104.403V157H103.241V149.3ZM99.2369 155.894C100.31 155.894 100.847 155.39 100.847 154.382C100.847 153.906 100.726 153.537 100.483 153.276C100.25 153.015 99.8389 152.884 99.2509 152.884H96.8289V155.894H99.2369ZM111.549 147.368C111.12 147.751 110.588 147.942 109.953 147.942C109.319 147.942 108.787 147.751 108.357 147.368C107.928 146.976 107.713 146.458 107.713 145.814V145.562H108.665V145.786C108.665 146.159 108.782 146.463 109.015 146.696C109.258 146.92 109.571 147.032 109.953 147.032C110.345 147.032 110.658 146.92 110.891 146.696C111.134 146.463 111.255 146.159 111.255 145.786V145.562H112.207V145.814C112.207 146.458 111.988 146.976 111.549 147.368ZM112.011 149.3H113.439V157H112.277V153.304L112.347 150.714L107.909 157H106.481V149.3H107.643V152.996L107.573 155.572L112.011 149.3ZM126.674 149.3V157H125.512V150.392H120.85V157H119.688V149.3H120.85H126.674ZM132.939 149.146C133.984 149.146 134.843 149.524 135.515 150.28C136.196 151.027 136.537 151.983 136.537 153.15C136.537 154.317 136.196 155.278 135.515 156.034C134.834 156.781 133.97 157.154 132.925 157.154C132.272 157.154 131.688 157.005 131.175 156.706C130.671 156.398 130.27 155.978 129.971 155.446V160.5H128.809V149.3H129.971V150.882C130.27 150.341 130.676 149.916 131.189 149.608C131.702 149.3 132.286 149.146 132.939 149.146ZM132.715 156.048C133.49 156.048 134.124 155.777 134.619 155.236C135.114 154.695 135.361 153.999 135.361 153.15C135.361 152.31 135.114 151.619 134.619 151.078C134.124 150.527 133.49 150.252 132.715 150.252C131.922 150.252 131.264 150.527 130.741 151.078C130.218 151.619 129.957 152.31 129.957 153.15C129.957 153.99 130.218 154.685 130.741 155.236C131.264 155.777 131.922 156.048 132.715 156.048ZM143.826 149.3H145.254V157H144.092V153.304L144.162 150.714L139.724 157H138.296V149.3H139.458V152.996L139.388 155.572L143.826 149.3ZM155.703 149.146C156.748 149.146 157.607 149.524 158.279 150.28C158.96 151.027 159.301 151.983 159.301 153.15C159.301 154.317 158.96 155.278 158.279 156.034C157.597 156.781 156.734 157.154 155.689 157.154C155.035 157.154 154.452 157.005 153.939 156.706C153.435 156.398 153.033 155.978 152.735 155.446V160.5H151.573V149.3H152.735V150.882C153.033 150.341 153.439 149.916 153.953 149.608C154.466 149.3 155.049 149.146 155.703 149.146ZM155.479 156.048C156.253 156.048 156.888 155.777 157.383 155.236C157.877 154.695 158.125 153.999 158.125 153.15C158.125 152.31 157.877 151.619 157.383 151.078C156.888 150.527 156.253 150.252 155.479 150.252C154.685 150.252 154.027 150.527 153.505 151.078C152.982 151.619 152.721 152.31 152.721 153.15C152.721 153.99 152.982 154.685 153.505 155.236C154.027 155.777 154.685 156.048 155.479 156.048ZM164.685 149.146C165.88 149.146 166.832 149.552 167.541 150.364C168.251 151.176 168.582 152.221 168.535 153.5H161.941C161.997 154.293 162.282 154.919 162.795 155.376C163.309 155.833 163.957 156.062 164.741 156.062C165.889 156.062 166.692 155.614 167.149 154.718H168.353C168.036 155.511 167.555 156.118 166.911 156.538C166.267 156.949 165.53 157.154 164.699 157.154C163.551 157.154 162.604 156.785 161.857 156.048C161.12 155.301 160.751 154.345 160.751 153.178C160.751 152.011 161.12 151.05 161.857 150.294C162.595 149.529 163.537 149.146 164.685 149.146ZM164.685 150.238C163.995 150.238 163.407 150.439 162.921 150.84C162.445 151.241 162.137 151.764 161.997 152.408H167.275C167.145 151.755 166.851 151.232 166.393 150.84C165.936 150.439 165.367 150.238 164.685 150.238ZM175.245 149.3V150.392H171.395V157H170.233V149.3H175.245ZM182.175 149.3H183.603V157H182.441V153.304L182.511 150.714L178.073 157H176.645V149.3H177.807V152.996L177.737 155.572L182.175 149.3ZM189.323 157.154C188.194 157.154 187.246 156.776 186.481 156.02C185.725 155.255 185.347 154.298 185.347 153.15C185.347 152.002 185.725 151.05 186.481 150.294C187.246 149.529 188.194 149.146 189.323 149.146C190.238 149.146 191.04 149.403 191.731 149.916C192.422 150.429 192.865 151.12 193.061 151.988H191.857C191.68 151.447 191.362 151.017 190.905 150.7C190.448 150.383 189.92 150.224 189.323 150.224C188.511 150.224 187.839 150.499 187.307 151.05C186.784 151.601 186.523 152.301 186.523 153.15C186.523 153.999 186.784 154.699 187.307 155.25C187.839 155.801 188.511 156.076 189.323 156.076C189.92 156.076 190.443 155.917 190.891 155.6C191.348 155.283 191.67 154.853 191.857 154.312H193.061C192.856 155.189 192.408 155.885 191.717 156.398C191.026 156.902 190.228 157.154 189.323 157.154ZM200.242 149.3V150.392H197.582V157H196.42V150.392H193.76V149.3H197.582H200.242ZM205.838 149.146C206.883 149.146 207.742 149.524 208.414 150.28C209.095 151.027 209.436 151.983 209.436 153.15C209.436 154.317 209.095 155.278 208.414 156.034C207.732 156.781 206.869 157.154 205.824 157.154C205.17 157.154 204.587 157.005 204.074 156.706C203.57 156.398 203.168 155.978 202.87 155.446V160.5H201.708V149.3H202.87V150.882C203.168 150.341 203.574 149.916 204.088 149.608C204.601 149.3 205.184 149.146 205.838 149.146ZM205.614 156.048C206.388 156.048 207.023 155.777 207.518 155.236C208.012 154.695 208.26 153.999 208.26 153.15C208.26 152.31 208.012 151.619 207.518 151.078C207.023 150.527 206.388 150.252 205.614 150.252C204.82 150.252 204.162 150.527 203.64 151.078C203.117 151.619 202.856 152.31 202.856 153.15C202.856 153.99 203.117 154.685 203.64 155.236C204.162 155.777 204.82 156.048 205.614 156.048ZM217.452 149.3H218.614V157H217.452V155.446C217.144 155.978 216.734 156.398 216.22 156.706C215.716 157.005 215.138 157.154 214.484 157.154C213.439 157.154 212.576 156.781 211.894 156.034C211.222 155.278 210.886 154.317 210.886 153.15C210.886 151.983 211.222 151.027 211.894 150.28C212.576 149.524 213.439 149.146 214.484 149.146C215.138 149.146 215.721 149.3 216.234 149.608C216.748 149.916 217.154 150.341 217.452 150.882V149.3ZM214.708 156.048C215.502 156.048 216.16 155.777 216.682 155.236C217.205 154.685 217.466 153.99 217.466 153.15C217.466 152.31 217.205 151.619 216.682 151.078C216.16 150.527 215.502 150.252 214.708 150.252C213.924 150.252 213.285 150.527 212.79 151.078C212.305 151.619 212.062 152.31 212.062 153.15C212.062 153.999 212.31 154.695 212.804 155.236C213.299 155.777 213.934 156.048 214.708 156.048ZM227.472 155.908H228.872V159.058H227.71V157H226.31H221.06H220.682V149.3H221.844V155.908H226.31V149.3H227.472V155.908ZM235.796 149.3H237.224V157H236.062V153.304L236.132 150.714L231.694 157H230.266V149.3H231.428V152.996L231.358 155.572L235.796 149.3ZM244.806 149.3H246.234V157H245.072V153.304L245.142 150.714L240.704 157H239.276V149.3H240.438V152.996L240.368 155.572L244.806 149.3ZM250.47 156.412C250.489 156.692 250.101 157.691 249.308 159.408H248.482L249.406 157.126C249.033 157.033 248.846 156.785 248.846 156.384C248.846 156.151 248.921 155.959 249.07 155.81C249.229 155.661 249.425 155.586 249.658 155.586C249.863 155.586 250.045 155.651 250.204 155.782C250.372 155.913 250.461 156.123 250.47 156.412ZM260.93 149.426C261.957 149.426 262.806 149.776 263.478 150.476C264.15 151.167 264.486 152.067 264.486 153.178C264.486 154.354 264.113 155.311 263.366 156.048C262.629 156.785 261.7 157.154 260.58 157.154C259.451 157.154 258.513 156.767 257.766 155.992C257.02 155.217 256.642 154.116 256.632 152.688C256.632 151.577 256.735 150.63 256.94 149.846C257.146 149.053 257.426 148.413 257.78 147.928C258.135 147.443 258.611 147.06 259.208 146.78C259.815 146.5 260.454 146.313 261.126 146.22C261.798 146.117 262.615 146.066 263.576 146.066V147.158C262.568 147.158 261.742 147.214 261.098 147.326C260.464 147.429 259.894 147.629 259.39 147.928C258.896 148.227 258.527 148.647 258.284 149.188C258.051 149.729 257.902 150.429 257.836 151.288C258.116 150.691 258.536 150.233 259.096 149.916C259.656 149.589 260.268 149.426 260.93 149.426ZM258.578 155.348C259.092 155.88 259.745 156.146 260.538 156.146C261.332 156.146 261.994 155.88 262.526 155.348C263.058 154.807 263.324 154.102 263.324 153.234C263.324 152.403 263.072 151.731 262.568 151.218C262.074 150.695 261.439 150.434 260.664 150.434C259.88 150.434 259.208 150.695 258.648 151.218C258.088 151.731 257.808 152.399 257.808 153.22C257.808 154.097 258.065 154.807 258.578 155.348ZM269.877 149.146C271.072 149.146 272.024 149.552 272.733 150.364C273.442 151.176 273.774 152.221 273.727 153.5H267.133C267.189 154.293 267.474 154.919 267.987 155.376C268.5 155.833 269.149 156.062 269.933 156.062C271.081 156.062 271.884 155.614 272.341 154.718H273.545C273.228 155.511 272.747 156.118 272.103 156.538C271.459 156.949 270.722 157.154 269.891 157.154C268.743 157.154 267.796 156.785 267.049 156.048C266.312 155.301 265.943 154.345 265.943 153.178C265.943 152.011 266.312 151.05 267.049 150.294C267.786 149.529 268.729 149.146 269.877 149.146ZM269.877 150.238C269.186 150.238 268.598 150.439 268.113 150.84C267.637 151.241 267.329 151.764 267.189 152.408H272.467C272.336 151.755 272.042 151.232 271.585 150.84C271.128 150.439 270.558 150.238 269.877 150.238ZM280.451 152.926C280.899 153.075 281.23 153.323 281.445 153.668C281.669 154.004 281.781 154.396 281.781 154.844C281.781 155.544 281.491 156.104 280.913 156.524C280.343 156.944 279.559 157.154 278.561 157.154C276.423 157.154 275.187 156.272 274.851 154.508H276.027C276.279 155.665 277.109 156.244 278.519 156.244C279.219 156.244 279.741 156.109 280.087 155.838C280.432 155.567 280.605 155.208 280.605 154.76C280.605 153.901 280.068 153.472 278.995 153.472H277.441V152.548H278.673C279.793 152.548 280.353 152.17 280.353 151.414C280.353 151.013 280.194 150.686 279.877 150.434C279.569 150.173 279.079 150.042 278.407 150.042C277.231 150.042 276.517 150.485 276.265 151.372H275.089C275.247 150.672 275.607 150.126 276.167 149.734C276.727 149.342 277.483 149.146 278.435 149.146C279.405 149.146 280.161 149.351 280.703 149.762C281.253 150.163 281.529 150.691 281.529 151.344C281.529 152.1 281.169 152.627 280.451 152.926ZM31.4224 170.3V178H30.2604V171.392H25.5984V178H24.4364V170.3H25.5984H31.4224ZM37.6872 170.146C38.7325 170.146 39.5912 170.524 40.2632 171.28C40.9445 172.027 41.2852 172.983 41.2852 174.15C41.2852 175.317 40.9445 176.278 40.2632 177.034C39.5818 177.781 38.7185 178.154 37.6732 178.154C37.0198 178.154 36.4365 178.005 35.9232 177.706C35.4192 177.398 35.0178 176.978 34.7192 176.446V181.5H33.5572V170.3H34.7192V171.882C35.0178 171.341 35.4238 170.916 35.9372 170.608C36.4505 170.3 37.0338 170.146 37.6872 170.146ZM37.4632 177.048C38.2378 177.048 38.8725 176.777 39.3672 176.236C39.8618 175.695 40.1092 174.999 40.1092 174.15C40.1092 173.31 39.8618 172.619 39.3672 172.078C38.8725 171.527 38.2378 171.252 37.4632 171.252C36.6698 171.252 36.0118 171.527 35.4892 172.078C34.9665 172.619 34.7052 173.31 34.7052 174.15C34.7052 174.99 34.9665 175.685 35.4892 176.236C36.0118 176.777 36.6698 177.048 37.4632 177.048ZM46.6978 170.146C47.8085 170.146 48.7465 170.529 49.5118 171.294C50.2865 172.05 50.6738 173.002 50.6738 174.15C50.6738 175.298 50.2911 176.255 49.5258 177.02C48.7605 177.776 47.8178 178.154 46.6978 178.154C45.5871 178.154 44.6491 177.771 43.8838 177.006C43.1185 176.241 42.7358 175.289 42.7358 174.15C42.7358 173.011 43.1185 172.059 43.8838 171.294C44.6585 170.529 45.5965 170.146 46.6978 170.146ZM48.6858 172.078C48.1445 171.527 47.4818 171.252 46.6978 171.252C45.9138 171.252 45.2511 171.527 44.7098 172.078C44.1778 172.619 43.9118 173.31 43.9118 174.15C43.9118 174.99 44.1778 175.685 44.7098 176.236C45.2511 176.777 45.9138 177.048 46.6978 177.048C47.4911 177.048 48.1538 176.777 48.6858 176.236C49.2271 175.685 49.4978 174.99 49.4978 174.15C49.4978 173.31 49.2271 172.619 48.6858 172.078ZM56.4127 170.426C57.4394 170.426 58.2887 170.776 58.9607 171.476C59.6327 172.167 59.9687 173.067 59.9687 174.178C59.9687 175.354 59.5954 176.311 58.8487 177.048C58.1114 177.785 57.1827 178.154 56.0627 178.154C54.9334 178.154 53.9954 177.767 53.2487 176.992C52.5021 176.217 52.1241 175.116 52.1147 173.688C52.1147 172.577 52.2174 171.63 52.4227 170.846C52.6281 170.053 52.9081 169.413 53.2627 168.928C53.6174 168.443 54.0934 168.06 54.6907 167.78C55.2974 167.5 55.9367 167.313 56.6087 167.22C57.2807 167.117 58.0974 167.066 59.0587 167.066V168.158C58.0507 168.158 57.2247 168.214 56.5807 168.326C55.9461 168.429 55.3767 168.629 54.8727 168.928C54.3781 169.227 54.0094 169.647 53.7667 170.188C53.5334 170.729 53.3841 171.429 53.3187 172.288C53.5987 171.691 54.0187 171.233 54.5787 170.916C55.1387 170.589 55.7501 170.426 56.4127 170.426ZM54.0607 176.348C54.5741 176.88 55.2274 177.146 56.0207 177.146C56.8141 177.146 57.4767 176.88 58.0087 176.348C58.5407 175.807 58.8067 175.102 58.8067 174.234C58.8067 173.403 58.5547 172.731 58.0507 172.218C57.5561 171.695 56.9214 171.434 56.1467 171.434C55.3627 171.434 54.6907 171.695 54.1307 172.218C53.5707 172.731 53.2907 173.399 53.2907 174.22C53.2907 175.097 53.5474 175.807 54.0607 176.348ZM65.3593 170.146C66.5539 170.146 67.5059 170.552 68.2153 171.364C68.9246 172.176 69.2559 173.221 69.2093 174.5H62.6153C62.6713 175.293 62.9559 175.919 63.4693 176.376C63.9826 176.833 64.6313 177.062 65.4153 177.062C66.5633 177.062 67.3659 176.614 67.8233 175.718H69.0273C68.7099 176.511 68.2293 177.118 67.5853 177.538C66.9413 177.949 66.2039 178.154 65.3733 178.154C64.2253 178.154 63.2779 177.785 62.5313 177.048C61.7939 176.301 61.4253 175.345 61.4253 174.178C61.4253 173.011 61.7939 172.05 62.5313 171.294C63.2686 170.529 64.2113 170.146 65.3593 170.146ZM65.3593 171.238C64.6686 171.238 64.0806 171.439 63.5953 171.84C63.1193 172.241 62.8113 172.764 62.6713 173.408H67.9493C67.8186 172.755 67.5246 172.232 67.0673 171.84C66.6099 171.439 66.0406 171.238 65.3593 171.238ZM72.565 170.3H77.801V178H76.639V171.392H73.545L72.971 175.004C72.7843 176.133 72.4997 176.941 72.117 177.426C71.7437 177.911 71.2443 178.154 70.619 178.154C70.395 178.154 70.185 178.14 69.989 178.112V177.048C70.157 177.067 70.2923 177.076 70.395 177.076C70.7963 177.076 71.0997 176.927 71.305 176.628C71.5103 176.32 71.683 175.755 71.823 174.934L72.565 170.3ZM83.5298 170.146C84.6405 170.146 85.5785 170.529 86.3438 171.294C87.1185 172.05 87.5058 173.002 87.5058 174.15C87.5058 175.298 87.1232 176.255 86.3578 177.02C85.5925 177.776 84.6498 178.154 83.5298 178.154C82.4192 178.154 81.4812 177.771 80.7158 177.006C79.9505 176.241 79.5678 175.289 79.5678 174.15C79.5678 173.011 79.9505 172.059 80.7158 171.294C81.4905 170.529 82.4285 170.146 83.5298 170.146ZM85.5178 172.078C84.9765 171.527 84.3138 171.252 83.5298 171.252C82.7458 171.252 82.0832 171.527 81.5418 172.078C81.0098 172.619 80.7438 173.31 80.7438 174.15C80.7438 174.99 81.0098 175.685 81.5418 176.236C82.0832 176.777 82.7458 177.048 83.5298 177.048C84.3232 177.048 84.9858 176.777 85.5178 176.236C86.0592 175.685 86.3298 174.99 86.3298 174.15C86.3298 173.31 86.0592 172.619 85.5178 172.078ZM94.2668 173.898C95.2561 174.169 95.7508 174.808 95.7508 175.816C95.7508 176.497 95.5221 177.034 95.0648 177.426C94.6074 177.809 93.9354 178 93.0488 178H89.2548V170.3H92.6988C94.4908 170.3 95.3868 170.953 95.3868 172.26C95.3868 172.969 95.0134 173.515 94.2668 173.898ZM94.2108 172.456C94.2108 172.055 94.0941 171.751 93.8608 171.546C93.6274 171.341 93.2121 171.238 92.6148 171.238H90.4168V173.59H92.5868C93.6694 173.59 94.2108 173.212 94.2108 172.456ZM92.9788 177.062C94.0521 177.062 94.5888 176.614 94.5888 175.718C94.5888 174.878 94.0428 174.458 92.9508 174.458H90.4168V177.062H92.9788ZM106.571 173.898C107.561 174.169 108.055 174.808 108.055 175.816C108.055 176.497 107.827 177.034 107.369 177.426C106.912 177.809 106.24 178 105.353 178H101.559V170.3H105.003C106.795 170.3 107.691 170.953 107.691 172.26C107.691 172.969 107.318 173.515 106.571 173.898ZM106.515 172.456C106.515 172.055 106.399 171.751 106.165 171.546C105.932 171.341 105.517 171.238 104.919 171.238H102.721V173.59H104.891C105.974 173.59 106.515 173.212 106.515 172.456ZM105.283 177.062C106.357 177.062 106.893 176.614 106.893 175.718C106.893 174.878 106.347 174.458 105.255 174.458H102.721V177.062H105.283ZM117.518 170.146C118.629 170.146 119.567 170.529 120.332 171.294C121.107 172.05 121.494 173.002 121.494 174.15C121.494 175.298 121.111 176.255 120.346 177.02C119.581 177.776 118.638 178.154 117.518 178.154C116.407 178.154 115.469 177.771 114.704 177.006C113.939 176.241 113.556 175.289 113.556 174.15C113.556 173.011 113.939 172.059 114.704 171.294C115.479 170.529 116.417 170.146 117.518 170.146ZM119.506 172.078C118.965 171.527 118.302 171.252 117.518 171.252C116.734 171.252 116.071 171.527 115.53 172.078C114.998 172.619 114.732 173.31 114.732 174.15C114.732 174.99 114.998 175.685 115.53 176.236C116.071 176.777 116.734 177.048 117.518 177.048C118.311 177.048 118.974 176.777 119.506 176.236C120.047 175.685 120.318 174.99 120.318 174.15C120.318 173.31 120.047 172.619 119.506 172.078ZM128.807 170.3V171.392H126.147V178H124.985V171.392H122.325V170.3H126.147H128.807ZM134.982 173.926C135.43 174.075 135.761 174.323 135.976 174.668C136.2 175.004 136.312 175.396 136.312 175.844C136.312 176.544 136.023 177.104 135.444 177.524C134.875 177.944 134.091 178.154 133.092 178.154C130.955 178.154 129.718 177.272 129.382 175.508H130.558C130.81 176.665 131.641 177.244 133.05 177.244C133.75 177.244 134.273 177.109 134.618 176.838C134.963 176.567 135.136 176.208 135.136 175.76C135.136 174.901 134.599 174.472 133.526 174.472H131.972V173.548H133.204C134.324 173.548 134.884 173.17 134.884 172.414C134.884 172.013 134.725 171.686 134.408 171.434C134.1 171.173 133.61 171.042 132.938 171.042C131.762 171.042 131.048 171.485 130.796 172.372H129.62C129.779 171.672 130.138 171.126 130.698 170.734C131.258 170.342 132.014 170.146 132.966 170.146C133.937 170.146 134.693 170.351 135.234 170.762C135.785 171.163 136.06 171.691 136.06 172.344C136.06 173.1 135.701 173.627 134.982 173.926ZM141.567 172.848C142.444 172.848 143.116 173.063 143.583 173.492C144.049 173.912 144.283 174.542 144.283 175.382C144.283 176.213 144.04 176.857 143.555 177.314C143.069 177.771 142.388 178 141.511 178H137.927V170.3H139.089V172.848H141.567ZM145.501 170.3H146.663V178H145.501V170.3ZM141.497 176.894C142.57 176.894 143.107 176.39 143.107 175.382C143.107 174.906 142.985 174.537 142.743 174.276C142.509 174.015 142.099 173.884 141.511 173.884H139.089V176.894H141.497ZM153.753 173.898C154.742 174.169 155.237 174.808 155.237 175.816C155.237 176.497 155.008 177.034 154.551 177.426C154.094 177.809 153.422 178 152.535 178H148.741V170.3H152.185C153.977 170.3 154.873 170.953 154.873 172.26C154.873 172.969 154.5 173.515 153.753 173.898ZM153.697 172.456C153.697 172.055 153.58 171.751 153.347 171.546C153.114 171.341 152.698 171.238 152.101 171.238H149.903V173.59H152.073C153.156 173.59 153.697 173.212 153.697 172.456ZM152.465 177.062C153.538 177.062 154.075 176.614 154.075 175.718C154.075 174.878 153.529 174.458 152.437 174.458H149.903V177.062H152.465ZM160.42 170.146C161.614 170.146 162.566 170.552 163.276 171.364C163.985 172.176 164.316 173.221 164.27 174.5H157.676C157.732 175.293 158.016 175.919 158.53 176.376C159.043 176.833 159.692 177.062 160.476 177.062C161.624 177.062 162.426 176.614 162.884 175.718H164.088C163.77 176.511 163.29 177.118 162.646 177.538C162.002 177.949 161.264 178.154 160.434 178.154C159.286 178.154 158.338 177.785 157.592 177.048C156.854 176.301 156.486 175.345 156.486 174.178C156.486 173.011 156.854 172.05 157.592 171.294C158.329 170.529 159.272 170.146 160.42 170.146ZM160.42 171.238C159.729 171.238 159.141 171.439 158.656 171.84C158.18 172.241 157.872 172.764 157.732 173.408H163.01C162.879 172.755 162.585 172.232 162.128 171.84C161.67 171.439 161.101 171.238 160.42 171.238ZM173.819 170.146C174.93 170.146 175.868 170.529 176.633 171.294C177.408 172.05 177.795 173.002 177.795 174.15C177.795 175.298 177.412 176.255 176.647 177.02C175.882 177.776 174.939 178.154 173.819 178.154C172.708 178.154 171.77 177.771 171.005 177.006C170.24 176.241 169.857 175.289 169.857 174.15C169.857 173.011 170.24 172.059 171.005 171.294C171.78 170.529 172.718 170.146 173.819 170.146ZM175.807 172.078C175.266 171.527 174.603 171.252 173.819 171.252C173.035 171.252 172.372 171.527 171.831 172.078C171.299 172.619 171.033 173.31 171.033 174.15C171.033 174.99 171.299 175.685 171.831 176.236C172.372 176.777 173.035 177.048 173.819 177.048C174.612 177.048 175.275 176.777 175.807 176.236C176.348 175.685 176.619 174.99 176.619 174.15C176.619 173.31 176.348 172.619 175.807 172.078ZM190.545 178H189.019L184.903 174.29V178H183.741V170.3H184.903V173.73L188.655 170.3H190.181L186.135 173.954L190.545 178ZM197.38 170.3H198.626L193.432 181.5H192.186L194.23 177.062L191.108 170.3H192.354L194.846 175.816L197.38 170.3ZM207.01 170.3V178H205.848V171.392H201.186V178H200.024V170.3H201.186H207.01ZM210.979 170.3H216.215V178H215.053V171.392H211.959L211.385 175.004C211.198 176.133 210.914 176.941 210.531 177.426C210.158 177.911 209.658 178.154 209.033 178.154C208.809 178.154 208.599 178.14 208.403 178.112V177.048C208.571 177.067 208.706 177.076 208.809 177.076C209.21 177.076 209.514 176.927 209.719 176.628C209.924 176.32 210.097 175.755 210.237 174.934L210.979 170.3ZM221.916 170.146C223.111 170.146 224.063 170.552 224.772 171.364C225.481 172.176 225.813 173.221 225.766 174.5H219.172C219.228 175.293 219.513 175.919 220.026 176.376C220.539 176.833 221.188 177.062 221.972 177.062C223.12 177.062 223.923 176.614 224.38 175.718H225.584C225.267 176.511 224.786 177.118 224.142 177.538C223.498 177.949 222.761 178.154 221.93 178.154C220.782 178.154 219.835 177.785 219.088 177.048C218.351 176.301 217.982 175.345 217.982 174.178C217.982 173.011 218.351 172.05 219.088 171.294C219.825 170.529 220.768 170.146 221.916 170.146ZM221.916 171.238C221.225 171.238 220.637 171.439 220.152 171.84C219.676 172.241 219.368 172.764 219.228 173.408H224.506C224.375 172.755 224.081 172.232 223.624 171.84C223.167 171.439 222.597 171.238 221.916 171.238ZM233.358 170.3H234.52V178H233.358V174.612H228.626V178H227.464V170.3H228.626V173.506H233.358V170.3ZM242.491 170.3H243.653V178H242.491V174.612H237.759V178H236.597V170.3H237.759V173.506H242.491V170.3ZM249.383 170.146C250.494 170.146 251.432 170.529 252.197 171.294C252.972 172.05 253.359 173.002 253.359 174.15C253.359 175.298 252.977 176.255 252.211 177.02C251.446 177.776 250.503 178.154 249.383 178.154C248.273 178.154 247.335 177.771 246.569 177.006C245.804 176.241 245.421 175.289 245.421 174.15C245.421 173.011 245.804 172.059 246.569 171.294C247.344 170.529 248.282 170.146 249.383 170.146ZM251.371 172.078C250.83 171.527 250.167 171.252 249.383 171.252C248.599 171.252 247.937 171.527 247.395 172.078C246.863 172.619 246.597 173.31 246.597 174.15C246.597 174.99 246.863 175.685 247.395 176.236C247.937 176.777 248.599 177.048 249.383 177.048C250.177 177.048 250.839 176.777 251.371 176.236C251.913 175.685 252.183 174.99 252.183 174.15C252.183 173.31 251.913 172.619 251.371 172.078ZM261.66 170.3H263.088V178H261.926V174.304L261.996 171.588L259.112 175.662H259.07L256.186 171.588L256.27 174.304V178H255.108V170.3H256.536L259.098 173.884L261.66 170.3ZM31.4224 191.3V199H30.2604V192.392H25.5984V199H24.4364V191.3H25.5984H31.4224ZM37.6872 191.146C38.7325 191.146 39.5912 191.524 40.2632 192.28C40.9445 193.027 41.2852 193.983 41.2852 195.15C41.2852 196.317 40.9445 197.278 40.2632 198.034C39.5818 198.781 38.7185 199.154 37.6732 199.154C37.0198 199.154 36.4365 199.005 35.9232 198.706C35.4192 198.398 35.0178 197.978 34.7192 197.446V202.5H33.5572V191.3H34.7192V192.882C35.0178 192.341 35.4238 191.916 35.9372 191.608C36.4505 191.3 37.0338 191.146 37.6872 191.146ZM37.4632 198.048C38.2378 198.048 38.8725 197.777 39.3672 197.236C39.8618 196.695 40.1092 195.999 40.1092 195.15C40.1092 194.31 39.8618 193.619 39.3672 193.078C38.8725 192.527 38.2378 192.252 37.4632 192.252C36.6698 192.252 36.0118 192.527 35.4892 193.078C34.9665 193.619 34.7052 194.31 34.7052 195.15C34.7052 195.99 34.9665 196.685 35.4892 197.236C36.0118 197.777 36.6698 198.048 37.4632 198.048ZM46.6978 191.146C47.8085 191.146 48.7465 191.529 49.5118 192.294C50.2865 193.05 50.6738 194.002 50.6738 195.15C50.6738 196.298 50.2911 197.255 49.5258 198.02C48.7605 198.776 47.8178 199.154 46.6978 199.154C45.5871 199.154 44.6491 198.771 43.8838 198.006C43.1185 197.241 42.7358 196.289 42.7358 195.15C42.7358 194.011 43.1185 193.059 43.8838 192.294C44.6585 191.529 45.5965 191.146 46.6978 191.146ZM48.6858 193.078C48.1445 192.527 47.4818 192.252 46.6978 192.252C45.9138 192.252 45.2511 192.527 44.7098 193.078C44.1778 193.619 43.9118 194.31 43.9118 195.15C43.9118 195.99 44.1778 196.685 44.7098 197.236C45.2511 197.777 45.9138 198.048 46.6978 198.048C47.4911 198.048 48.1538 197.777 48.6858 197.236C49.2271 196.685 49.4978 195.99 49.4978 195.15C49.4978 194.31 49.2271 193.619 48.6858 193.078ZM59.3255 197.908H60.7255V201.058H59.5635V199H58.1635H52.2975V201.058H51.1355V197.908H52.4515C52.8715 197.619 53.1842 196.811 53.3895 195.486L54.0615 191.3H59.3255V197.908ZM53.7535 197.908H58.1635V192.392H55.0555L54.5515 195.514C54.3648 196.671 54.0988 197.469 53.7535 197.908ZM67.5657 191.3H68.8117L63.6177 202.5H62.3717L64.4157 198.062L61.2937 191.3H62.5397L65.0317 196.816L67.5657 191.3ZM77.0138 199H75.4878L71.3718 195.29V199H70.2098V191.3H71.3718V194.73L75.1238 191.3H76.6498L72.6038 194.954L77.0138 199ZM84.223 191.3V192.392H81.563V199H80.401V192.392H77.741V191.3H81.563H84.223ZM88.9979 191.146C90.1926 191.146 91.1446 191.552 91.8539 192.364C92.5633 193.176 92.8946 194.221 92.8479 195.5H86.2539C86.3099 196.293 86.5946 196.919 87.1079 197.376C87.6213 197.833 88.2699 198.062 89.0539 198.062C90.2019 198.062 91.0046 197.614 91.4619 196.718H92.6659C92.3486 197.511 91.8679 198.118 91.2239 198.538C90.5799 198.949 89.8426 199.154 89.0119 199.154C87.8639 199.154 86.9166 198.785 86.1699 198.048C85.4326 197.301 85.0639 196.345 85.0639 195.178C85.0639 194.011 85.4326 193.05 86.1699 192.294C86.9073 191.529 87.8499 191.146 88.9979 191.146ZM88.9979 192.238C88.3073 192.238 87.7193 192.439 87.2339 192.84C86.7579 193.241 86.4499 193.764 86.3099 194.408H91.5879C91.4573 193.755 91.1633 193.232 90.7059 192.84C90.2486 192.439 89.6793 192.238 88.9979 192.238ZM104.637 191.3H105.799V199H104.637V195.612H99.905V199H98.743V191.3H99.905V194.506H104.637V191.3ZM114.134 191.3H115.296V199H114.134V197.446C113.826 197.978 113.415 198.398 112.902 198.706C112.398 199.005 111.819 199.154 111.166 199.154C110.121 199.154 109.257 198.781 108.576 198.034C107.904 197.278 107.568 196.317 107.568 195.15C107.568 193.983 107.904 193.027 108.576 192.28C109.257 191.524 110.121 191.146 111.166 191.146C111.819 191.146 112.403 191.3 112.916 191.608C113.429 191.916 113.835 192.341 114.134 192.882V191.3ZM111.39 198.048C112.183 198.048 112.841 197.777 113.364 197.236C113.887 196.685 114.148 195.99 114.148 195.15C114.148 194.31 113.887 193.619 113.364 193.078C112.841 192.527 112.183 192.252 111.39 192.252C110.606 192.252 109.967 192.527 109.472 193.078C108.987 193.619 108.744 194.31 108.744 195.15C108.744 195.999 108.991 196.695 109.486 197.236C109.981 197.777 110.615 198.048 111.39 198.048ZM122.555 190.488C123.545 189.508 124.763 189.018 126.209 189.018C127.656 189.018 128.869 189.508 129.849 190.488C130.839 191.459 131.333 192.663 131.333 194.1C131.333 195.537 130.839 196.746 129.849 197.726C128.869 198.697 127.656 199.182 126.209 199.182C124.763 199.182 123.545 198.697 122.555 197.726C121.575 196.746 121.085 195.537 121.085 194.1C121.085 192.663 121.575 191.459 122.555 190.488ZM128.155 192.084C127.642 191.552 126.993 191.286 126.209 191.286C125.425 191.286 124.777 191.552 124.263 192.084C123.75 192.607 123.493 193.279 123.493 194.1C123.493 194.921 123.75 195.598 124.263 196.13C124.777 196.653 125.425 196.914 126.209 196.914C126.993 196.914 127.642 196.653 128.155 196.13C128.669 195.598 128.925 194.921 128.925 194.1C128.925 193.279 128.669 192.607 128.155 192.084ZM135.513 196.76H139.069V199H132.377V196.76L135.807 193.54H132.587V191.3H138.943V193.54L135.513 196.76ZM141.293 192.28C142.077 191.505 143.029 191.118 144.149 191.118C145.269 191.118 146.221 191.505 147.005 192.28C147.789 193.045 148.181 194.002 148.181 195.15C148.181 196.307 147.793 197.269 147.019 198.034C146.244 198.799 145.287 199.182 144.149 199.182C143.019 199.182 142.063 198.799 141.279 198.034C140.504 197.259 140.117 196.298 140.117 195.15C140.117 194.002 140.509 193.045 141.293 192.28ZM145.311 193.876C145.003 193.549 144.615 193.386 144.149 193.386C143.682 193.386 143.295 193.549 142.987 193.876C142.679 194.203 142.525 194.627 142.525 195.15C142.525 195.682 142.679 196.111 142.987 196.438C143.295 196.755 143.682 196.914 144.149 196.914C144.615 196.914 145.003 196.755 145.311 196.438C145.619 196.111 145.773 195.682 145.773 195.15C145.773 194.627 145.619 194.203 145.311 193.876ZM154.05 191.118C154.918 191.118 155.599 191.393 156.094 191.944C156.589 192.495 156.836 193.241 156.836 194.184V199H154.456V194.716C154.456 194.268 154.367 193.937 154.19 193.722C154.013 193.498 153.695 193.386 153.238 193.386C152.295 193.386 151.824 193.895 151.824 194.912V199H149.444V191.3H151.824V192.168C152.393 191.468 153.135 191.118 154.05 191.118ZM160.183 196.438C160.556 196.438 160.892 196.555 161.191 196.788C161.489 197.012 161.639 197.395 161.639 197.936C161.639 198.477 161.079 199.635 159.959 201.408H158.447L159.581 199.07C159.03 198.874 158.755 198.463 158.755 197.838C158.755 197.427 158.89 197.091 159.161 196.83C159.431 196.569 159.772 196.438 160.183 196.438ZM171.144 189.2H175.512V199H173.132V195.78H172.278L170.08 199H167.168L169.66 195.5C168.41 195.005 167.784 194.002 167.784 192.49C167.784 191.463 168.083 190.661 168.68 190.082C169.278 189.494 170.099 189.2 171.144 189.2ZM171.41 191.468C170.598 191.468 170.192 191.832 170.192 192.56C170.192 193.269 170.598 193.624 171.41 193.624H173.132V191.468H171.41ZM182.448 191.3H184.828V199H182.448V196.214H179.578V199H177.198V191.3H179.578V193.974H182.448V191.3ZM194.285 196.76H195.685V200.89H193.305V199H188.181V200.89H185.801V196.76H187.201C187.379 196.583 187.509 196.242 187.593 195.738L188.307 191.3H194.285V196.76ZM189.679 196.76H191.905V193.54H190.337L189.959 195.864C189.913 196.181 189.819 196.48 189.679 196.76ZM200.45 191.118C201.71 191.118 202.718 191.557 203.474 192.434C204.23 193.302 204.547 194.375 204.426 195.654H198.812C198.868 196.214 199.05 196.639 199.358 196.928C199.675 197.208 200.058 197.348 200.506 197.348C200.833 197.348 201.117 197.273 201.36 197.124C201.603 196.965 201.771 196.751 201.864 196.48H204.314C204.062 197.385 203.586 198.062 202.886 198.51C202.195 198.958 201.402 199.182 200.506 199.182C199.293 199.182 198.303 198.799 197.538 198.034C196.773 197.269 196.39 196.307 196.39 195.15C196.39 194.002 196.768 193.045 197.524 192.28C198.289 191.505 199.265 191.118 200.45 191.118ZM200.436 192.952C199.624 192.952 199.106 193.372 198.882 194.212H201.948C201.864 193.829 201.691 193.526 201.43 193.302C201.178 193.069 200.847 192.952 200.436 192.952ZM213.687 199H210.677L207.961 195.836V199H205.581V191.3H207.961V194.366L210.495 191.3H213.505L210.215 194.968L213.687 199ZM217.58 199.182C216.414 199.182 215.448 198.799 214.682 198.034C213.926 197.259 213.548 196.298 213.548 195.15C213.548 194.002 213.926 193.045 214.682 192.28C215.448 191.505 216.418 191.118 217.594 191.118C218.593 191.118 219.461 191.407 220.198 191.986C220.936 192.555 221.36 193.339 221.472 194.338H219.022C218.854 193.657 218.378 193.316 217.594 193.316C217.081 193.316 216.68 193.484 216.39 193.82C216.101 194.156 215.956 194.599 215.956 195.15C215.956 195.701 216.101 196.144 216.39 196.48C216.689 196.816 217.086 196.984 217.58 196.984C217.926 196.984 218.229 196.9 218.49 196.732C218.761 196.555 218.938 196.293 219.022 195.948H221.472C221.351 196.965 220.917 197.759 220.17 198.328C219.433 198.897 218.57 199.182 217.58 199.182ZM223.275 196.83C223.555 196.569 223.9 196.438 224.311 196.438C224.721 196.438 225.062 196.569 225.333 196.83C225.613 197.082 225.753 197.409 225.753 197.81C225.753 198.211 225.613 198.543 225.333 198.804C225.062 199.056 224.721 199.182 224.311 199.182C223.9 199.182 223.555 199.056 223.275 198.804C223.004 198.543 222.869 198.211 222.869 197.81C222.869 197.409 223.004 197.082 223.275 196.83ZM234.821 189.2H237.523V199H235.143V192.532L232.693 196.27H232.469L230.019 192.532V199H227.639V189.2H230.341L232.581 192.56L234.821 189.2ZM244.716 191.3H247.096L247.082 199H244.702V198.174C244.151 198.846 243.428 199.182 242.532 199.182C241.543 199.182 240.717 198.804 240.054 198.048C239.391 197.292 239.06 196.326 239.06 195.15C239.06 193.974 239.391 193.008 240.054 192.252C240.726 191.496 241.547 191.118 242.518 191.118C243.442 191.118 244.175 191.468 244.716 192.168V191.3ZM241.93 196.438C242.238 196.755 242.625 196.914 243.092 196.914C243.559 196.914 243.946 196.755 244.254 196.438C244.562 196.111 244.716 195.682 244.716 195.15C244.716 194.627 244.562 194.203 244.254 193.876C243.946 193.549 243.559 193.386 243.092 193.386C242.625 193.386 242.238 193.549 241.93 193.876C241.622 194.203 241.468 194.627 241.468 195.15C241.468 195.682 241.622 196.111 241.93 196.438ZM253.145 191.118C254.116 191.118 254.932 191.496 255.595 192.252C256.267 193.008 256.603 193.974 256.603 195.15C256.603 196.326 256.272 197.292 255.609 198.048C254.946 198.804 254.12 199.182 253.131 199.182C252.235 199.182 251.507 198.846 250.947 198.174V202.5H248.567V191.3H250.947V192.168C251.488 191.468 252.221 191.118 253.145 191.118ZM251.409 196.438C251.717 196.755 252.104 196.914 252.571 196.914C253.038 196.914 253.425 196.755 253.733 196.438C254.041 196.111 254.195 195.682 254.195 195.15C254.195 194.627 254.041 194.203 253.733 193.876C253.425 193.549 253.038 193.386 252.571 193.386C252.104 193.386 251.717 193.549 251.409 193.876C251.101 194.203 250.947 194.627 250.947 195.15C250.947 195.682 251.101 196.111 251.409 196.438ZM265.968 199H262.958L260.242 195.836V199H257.862V191.3H260.242V194.366L262.776 191.3H265.786L262.496 194.968L265.968 199ZM269.89 191.118C271.15 191.118 272.158 191.557 272.914 192.434C273.67 193.302 273.987 194.375 273.866 195.654H268.252C268.308 196.214 268.49 196.639 268.798 196.928C269.115 197.208 269.498 197.348 269.946 197.348C270.272 197.348 270.557 197.273 270.8 197.124C271.042 196.965 271.21 196.751 271.304 196.48H273.754C273.502 197.385 273.026 198.062 272.326 198.51C271.635 198.958 270.842 199.182 269.946 199.182C268.732 199.182 267.743 198.799 266.978 198.034C266.212 197.269 265.83 196.307 265.83 195.15C265.83 194.002 266.208 193.045 266.964 192.28C267.729 191.505 268.704 191.118 269.89 191.118ZM269.876 192.952C269.064 192.952 268.546 193.372 268.322 194.212H271.388C271.304 193.829 271.131 193.526 270.87 193.302C270.618 193.069 270.286 192.952 269.876 192.952ZM281.46 191.3V193.54H279.22V199H276.84V193.54H274.6V191.3H279.22H281.46ZM28.9444 212.3H31.6464V220H29.2664V217.704L29.3924 215.618L26.8024 220H24.1004V212.3H26.4804V214.596L26.3544 216.654L28.9444 212.3ZM34.9738 212.3H40.8818V220H38.5018V214.54H37.0038L36.6118 216.976C36.2665 219.113 35.2958 220.182 33.6998 220.182C33.4011 220.182 33.0418 220.14 32.6218 220.056V217.914C32.9018 217.951 33.0931 217.97 33.1958 217.97C33.5225 217.97 33.7605 217.886 33.9098 217.718C34.0685 217.541 34.1851 217.214 34.2598 216.738L34.9738 212.3ZM47.128 212.3H49.83V220H47.45V217.704L47.576 215.618L44.986 220H42.284V212.3H44.664V214.596L44.538 216.654L47.128 212.3ZM66.1747 210.2H68.6107L66.2447 220H63.3187L62.4647 216.458L61.9607 213L61.7227 212.986L61.2327 216.458L60.3787 220H57.4387L55.0727 210.2H57.5227L58.6427 214.89L58.9367 217.172L59.2307 214.89L60.3507 210.2H63.3327L64.4527 214.89L64.7607 217.228L65.0547 214.89L66.1747 210.2ZM70.8451 208.66C71.2651 208.66 71.6104 208.791 71.8811 209.052C72.1517 209.304 72.2871 209.626 72.2871 210.018C72.2871 210.419 72.1517 210.751 71.8811 211.012C71.6104 211.264 71.2651 211.39 70.8451 211.39C70.4344 211.39 70.0891 211.259 69.8091 210.998C69.5384 210.737 69.4031 210.41 69.4031 210.018C69.4031 209.626 69.5384 209.304 69.8091 209.052C70.0891 208.791 70.4344 208.66 70.8451 208.66ZM69.6551 220V212.3H72.0351V220H69.6551ZM73.4285 220V209.22H75.8085V220H73.4285ZM82.858 209.22H85.238V220H82.858V219.174C82.298 219.846 81.57 220.182 80.674 220.182C79.6846 220.182 78.8586 219.804 78.196 219.048C77.5333 218.292 77.202 217.326 77.202 216.15C77.202 214.974 77.5333 214.008 78.196 213.252C78.868 212.496 79.6893 212.118 80.66 212.118C81.584 212.118 82.3166 212.468 82.858 213.168V209.22ZM80.072 217.438C80.38 217.755 80.7673 217.914 81.234 217.914C81.7006 217.914 82.088 217.755 82.396 217.438C82.704 217.111 82.858 216.682 82.858 216.15C82.858 215.627 82.704 215.203 82.396 214.876C82.088 214.549 81.7006 214.386 81.234 214.386C80.7673 214.386 80.38 214.549 80.072 214.876C79.764 215.203 79.61 215.627 79.61 216.15C79.61 216.682 79.764 217.111 80.072 217.438ZM91.2135 212.118C92.1842 212.118 93.0009 212.496 93.6635 213.252C94.3355 214.008 94.6715 214.974 94.6715 216.15C94.6715 217.326 94.3402 218.292 93.6775 219.048C93.0149 219.804 92.1889 220.182 91.1995 220.182C90.3035 220.182 89.5755 219.846 89.0155 219.174V220H86.6355V209.22H89.0155V213.168C89.5569 212.468 90.2895 212.118 91.2135 212.118ZM89.4775 217.438C89.7855 217.755 90.1729 217.914 90.6395 217.914C91.1062 217.914 91.4935 217.755 91.8015 217.438C92.1095 217.111 92.2635 216.682 92.2635 216.15C92.2635 215.627 92.1095 215.203 91.8015 214.876C91.4935 214.549 91.1062 214.386 90.6395 214.386C90.1729 214.386 89.7855 214.549 89.4775 214.876C89.1695 215.203 89.0155 215.627 89.0155 216.15C89.0155 216.682 89.1695 217.111 89.4775 217.438ZM99.8524 212.118C101.112 212.118 102.12 212.557 102.876 213.434C103.632 214.302 103.95 215.375 103.828 216.654H98.2144C98.2704 217.214 98.4524 217.639 98.7604 217.928C99.0778 218.208 99.4604 218.348 99.9084 218.348C100.235 218.348 100.52 218.273 100.762 218.124C101.005 217.965 101.173 217.751 101.266 217.48H103.716C103.464 218.385 102.988 219.062 102.288 219.51C101.598 219.958 100.804 220.182 99.9084 220.182C98.6951 220.182 97.7058 219.799 96.9404 219.034C96.1751 218.269 95.7924 217.307 95.7924 216.15C95.7924 215.002 96.1704 214.045 96.9264 213.28C97.6918 212.505 98.6671 212.118 99.8524 212.118ZM99.8384 213.952C99.0264 213.952 98.5084 214.372 98.2844 215.212H101.35C101.266 214.829 101.094 214.526 100.832 214.302C100.58 214.069 100.249 213.952 99.8384 213.952ZM109.603 212.118C109.781 212.118 109.925 212.132 110.037 212.16V214.61C109.832 214.591 109.673 214.582 109.561 214.582C109.253 214.582 108.978 214.61 108.735 214.666C108.502 214.722 108.273 214.825 108.049 214.974C107.825 215.114 107.653 215.329 107.531 215.618C107.419 215.898 107.363 216.248 107.363 216.668V220H104.983V212.3H107.363V213.49C107.83 212.575 108.577 212.118 109.603 212.118ZM115.633 212.118C115.81 212.118 115.955 212.132 116.067 212.16V214.61C115.861 214.591 115.703 214.582 115.591 214.582C115.283 214.582 115.007 214.61 114.765 214.666C114.531 214.722 114.303 214.825 114.079 214.974C113.855 215.114 113.682 215.329 113.561 215.618C113.449 215.898 113.393 216.248 113.393 216.668V220H111.013V212.3H113.393V213.49C113.859 212.575 114.606 212.118 115.633 212.118ZM118.232 208.66C118.652 208.66 118.997 208.791 119.268 209.052C119.538 209.304 119.674 209.626 119.674 210.018C119.674 210.419 119.538 210.751 119.268 211.012C118.997 211.264 118.652 211.39 118.232 211.39C117.821 211.39 117.476 211.259 117.196 210.998C116.925 210.737 116.79 210.41 116.79 210.018C116.79 209.626 116.925 209.304 117.196 209.052C117.476 208.791 117.821 208.66 118.232 208.66ZM117.042 220V212.3H119.422V220H117.042ZM124.735 212.118C125.995 212.118 127.003 212.557 127.759 213.434C128.515 214.302 128.833 215.375 128.711 216.654H123.097C123.153 217.214 123.335 217.639 123.643 217.928C123.961 218.208 124.343 218.348 124.791 218.348C125.118 218.348 125.403 218.273 125.645 218.124C125.888 217.965 126.056 217.751 126.149 217.48H128.599C128.347 218.385 127.871 219.062 127.171 219.51C126.481 219.958 125.687 220.182 124.791 220.182C123.578 220.182 122.589 219.799 121.823 219.034C121.058 218.269 120.675 217.307 120.675 216.15C120.675 215.002 121.053 214.045 121.809 213.28C122.575 212.505 123.55 212.118 124.735 212.118ZM124.721 213.952C123.909 213.952 123.391 214.372 123.167 215.212H126.233C126.149 214.829 125.977 214.526 125.715 214.302C125.463 214.069 125.132 213.952 124.721 213.952ZM133.408 220.182C132.363 220.182 131.485 219.949 130.776 219.482C130.076 219.015 129.656 218.376 129.516 217.564H131.924C132.055 218.115 132.559 218.39 133.436 218.39C134.136 218.39 134.486 218.213 134.486 217.858C134.486 217.709 134.397 217.601 134.22 217.536C134.043 217.461 133.613 217.349 132.932 217.2C131.803 216.957 131.005 216.659 130.538 216.304C130.071 215.949 129.838 215.441 129.838 214.778C129.838 213.947 130.151 213.299 130.776 212.832C131.411 212.365 132.283 212.132 133.394 212.132C135.447 212.132 136.605 212.935 136.866 214.54H134.458C134.346 214.129 133.959 213.924 133.296 213.924C132.596 213.924 132.246 214.106 132.246 214.47C132.246 214.591 132.297 214.675 132.4 214.722C132.512 214.759 132.783 214.825 133.212 214.918C133.296 214.937 133.357 214.951 133.394 214.96C134.673 215.24 135.583 215.553 136.124 215.898C136.665 216.234 136.936 216.775 136.936 217.522C136.936 218.381 136.605 219.039 135.942 219.496C135.289 219.953 134.444 220.182 133.408 220.182ZM138.81 217.83C139.09 217.569 139.435 217.438 139.846 217.438C140.256 217.438 140.597 217.569 140.868 217.83C141.148 218.082 141.288 218.409 141.288 218.81C141.288 219.211 141.148 219.543 140.868 219.804C140.597 220.056 140.256 220.182 139.846 220.182C139.435 220.182 139.09 220.056 138.81 219.804C138.539 219.543 138.404 219.211 138.404 218.81C138.404 218.409 138.539 218.082 138.81 217.83ZM151.767 210.046C153.204 210.046 154.39 210.527 155.323 211.488C156.256 212.44 156.723 213.644 156.723 215.1C156.723 216.556 156.256 217.765 155.323 218.726C154.39 219.678 153.204 220.154 151.767 220.154C150.647 220.154 149.662 219.855 148.813 219.258C147.964 218.661 147.385 217.867 147.077 216.878H148.323C148.603 217.541 149.051 218.068 149.667 218.46C150.292 218.852 150.997 219.048 151.781 219.048C152.789 219.048 153.638 218.731 154.329 218.096C155.02 217.452 155.421 216.626 155.533 215.618H151.025V214.512H155.519C155.388 213.523 154.978 212.715 154.287 212.09C153.606 211.465 152.766 211.152 151.767 211.152C150.983 211.152 150.283 211.348 149.667 211.74C149.051 212.132 148.603 212.659 148.323 213.322H147.077C147.385 212.333 147.959 211.539 148.799 210.942C149.648 210.345 150.638 210.046 151.767 210.046ZM164.409 212.3V213.392H161.749V220H160.587V213.392H157.927V212.3H161.749H164.409ZM169.211 212.146C170.322 212.146 171.26 212.529 172.025 213.294C172.8 214.05 173.187 215.002 173.187 216.15C173.187 217.298 172.805 218.255 172.039 219.02C171.274 219.776 170.331 220.154 169.211 220.154C168.101 220.154 167.163 219.771 166.397 219.006C165.632 218.241 165.249 217.289 165.249 216.15C165.249 215.011 165.632 214.059 166.397 213.294C167.172 212.529 168.11 212.146 169.211 212.146ZM171.199 214.078C170.658 213.527 169.995 213.252 169.211 213.252C168.427 213.252 167.765 213.527 167.223 214.078C166.691 214.619 166.425 215.31 166.425 216.15C166.425 216.99 166.691 217.685 167.223 218.236C167.765 218.777 168.427 219.048 169.211 219.048C170.005 219.048 170.667 218.777 171.199 218.236C171.741 217.685 172.011 216.99 172.011 216.15C172.011 215.31 171.741 214.619 171.199 214.078ZM183.124 212.426C184.15 212.426 185 212.776 185.672 213.476C186.344 214.167 186.68 215.067 186.68 216.178C186.68 217.354 186.306 218.311 185.56 219.048C184.822 219.785 183.894 220.154 182.774 220.154C181.644 220.154 180.706 219.767 179.96 218.992C179.213 218.217 178.835 217.116 178.826 215.688C178.826 214.577 178.928 213.63 179.134 212.846C179.339 212.053 179.619 211.413 179.974 210.928C180.328 210.443 180.804 210.06 181.402 209.78C182.008 209.5 182.648 209.313 183.32 209.22C183.992 209.117 184.808 209.066 185.77 209.066V210.158C184.762 210.158 183.936 210.214 183.292 210.326C182.657 210.429 182.088 210.629 181.584 210.928C181.089 211.227 180.72 211.647 180.478 212.188C180.244 212.729 180.095 213.429 180.03 214.288C180.31 213.691 180.73 213.233 181.29 212.916C181.85 212.589 182.461 212.426 183.124 212.426ZM180.772 218.348C181.285 218.88 181.938 219.146 182.732 219.146C183.525 219.146 184.188 218.88 184.72 218.348C185.252 217.807 185.518 217.102 185.518 216.234C185.518 215.403 185.266 214.731 184.762 214.218C184.267 213.695 183.632 213.434 182.858 213.434C182.074 213.434 181.402 213.695 180.842 214.218C180.282 214.731 180.002 215.399 180.002 216.22C180.002 217.097 180.258 217.807 180.772 218.348ZM193.511 212.3H194.757L189.563 223.5H188.317L190.361 219.062L187.239 212.3H188.485L190.977 217.816L193.511 212.3ZM202.443 218.908H203.843V222.058H202.681V220H201.281H195.415V222.058H194.253V218.908H195.569C195.989 218.619 196.301 217.811 196.507 216.486L197.179 212.3H202.443V218.908ZM196.871 218.908H201.281V213.392H198.173L197.669 216.514C197.482 217.671 197.216 218.469 196.871 218.908ZM208.558 212.146C209.753 212.146 210.705 212.552 211.414 213.364C212.124 214.176 212.455 215.221 212.408 216.5H205.814C205.87 217.293 206.155 217.919 206.668 218.376C207.182 218.833 207.83 219.062 208.614 219.062C209.762 219.062 210.565 218.614 211.022 217.718H212.226C211.909 218.511 211.428 219.118 210.784 219.538C210.14 219.949 209.403 220.154 208.572 220.154C207.424 220.154 206.477 219.785 205.73 219.048C204.993 218.301 204.624 217.345 204.624 216.178C204.624 215.011 204.993 214.05 205.73 213.294C206.468 212.529 207.41 212.146 208.558 212.146ZM208.558 213.238C207.868 213.238 207.28 213.439 206.794 213.84C206.318 214.241 206.01 214.764 205.87 215.408H211.148C211.018 214.755 210.724 214.232 210.266 213.84C209.809 213.439 209.24 213.238 208.558 213.238ZM219.67 212.3V213.392H217.01V220H215.848V213.392H213.188V212.3H217.01H219.67ZM28.0904 233.146C29.2011 233.146 30.1391 233.529 30.9044 234.294C31.6791 235.05 32.0664 236.002 32.0664 237.15C32.0664 238.298 31.6837 239.255 30.9184 240.02C30.1531 240.776 29.2104 241.154 28.0904 241.154C26.9797 241.154 26.0417 240.771 25.2764 240.006C24.5111 239.241 24.1284 238.289 24.1284 237.15C24.1284 236.011 24.5111 235.059 25.2764 234.294C26.0511 233.529 26.9891 233.146 28.0904 233.146ZM30.0784 235.078C29.5371 234.527 28.8744 234.252 28.0904 234.252C27.3064 234.252 26.6437 234.527 26.1024 235.078C25.5704 235.619 25.3044 236.31 25.3044 237.15C25.3044 237.99 25.5704 238.685 26.1024 239.236C26.6437 239.777 27.3064 240.048 28.0904 240.048C28.8837 240.048 29.5464 239.777 30.0784 239.236C30.6197 238.685 30.8904 237.99 30.8904 237.15C30.8904 236.31 30.6197 235.619 30.0784 235.078ZM38.8413 236.926C39.2893 237.075 39.6206 237.323 39.8353 237.668C40.0593 238.004 40.1713 238.396 40.1713 238.844C40.1713 239.544 39.882 240.104 39.3033 240.524C38.734 240.944 37.95 241.154 36.9513 241.154C34.814 241.154 33.5773 240.272 33.2413 238.508H34.4173C34.6693 239.665 35.5 240.244 36.9093 240.244C37.6093 240.244 38.132 240.109 38.4773 239.838C38.8226 239.567 38.9953 239.208 38.9953 238.76C38.9953 237.901 38.4586 237.472 37.3853 237.472H35.8313V236.548H37.0633C38.1833 236.548 38.7433 236.17 38.7433 235.414C38.7433 235.013 38.5846 234.686 38.2673 234.434C37.9593 234.173 37.4693 234.042 36.7973 234.042C35.6213 234.042 34.9073 234.485 34.6553 235.372H33.4793C33.638 234.672 33.9973 234.126 34.5573 233.734C35.1173 233.342 35.8733 233.146 36.8253 233.146C37.796 233.146 38.552 233.351 39.0933 233.762C39.644 234.163 39.9193 234.691 39.9193 235.344C39.9193 236.1 39.56 236.627 38.8413 236.926ZM47.68 233.3H48.842V241H47.68V237.612H42.948V241H41.786V233.3H42.948V236.506H47.68V233.3ZM57.1768 233.3H58.3388V241H57.1768V239.446C56.8688 239.978 56.4581 240.398 55.9448 240.706C55.4408 241.005 54.8621 241.154 54.2088 241.154C53.1635 241.154 52.3001 240.781 51.6188 240.034C50.9468 239.278 50.6108 238.317 50.6108 237.15C50.6108 235.983 50.9468 235.027 51.6188 234.28C52.3001 233.524 53.1635 233.146 54.2088 233.146C54.8621 233.146 55.4455 233.3 55.9588 233.608C56.4721 233.916 56.8781 234.341 57.1768 234.882V233.3ZM54.4328 240.048C55.2261 240.048 55.8841 239.777 56.4068 239.236C56.9295 238.685 57.1908 237.99 57.1908 237.15C57.1908 236.31 56.9295 235.619 56.4068 235.078C55.8841 234.527 55.2261 234.252 54.4328 234.252C53.6488 234.252 53.0095 234.527 52.5148 235.078C52.0295 235.619 51.7868 236.31 51.7868 237.15C51.7868 237.999 52.0341 238.695 52.5288 239.236C53.0235 239.777 53.6581 240.048 54.4328 240.048ZM65.3911 233.3H66.5531V241H65.3911V238.214C64.7191 238.503 63.9631 238.648 63.1231 238.648C61.1258 238.648 60.1271 237.701 60.1271 235.806V233.3H61.2891V235.54C61.2891 236.268 61.4431 236.795 61.7511 237.122C62.0684 237.439 62.5911 237.598 63.3191 237.598C64.2151 237.598 64.9058 237.449 65.3911 237.15V233.3ZM74.8819 233.3H76.0439V241H74.8819V239.446C74.5739 239.978 74.1632 240.398 73.6499 240.706C73.1459 241.005 72.5672 241.154 71.9139 241.154C70.8686 241.154 70.0052 240.781 69.3239 240.034C68.6519 239.278 68.3159 238.317 68.3159 237.15C68.3159 235.983 68.6519 235.027 69.3239 234.28C70.0052 233.524 70.8686 233.146 71.9139 233.146C72.5672 233.146 73.1506 233.3 73.6639 233.608C74.1772 233.916 74.5832 234.341 74.8819 234.882V233.3ZM72.1379 240.048C72.9312 240.048 73.5892 239.777 74.1119 239.236C74.6346 238.685 74.8959 237.99 74.8959 237.15C74.8959 236.31 74.6346 235.619 74.1119 235.078C73.5892 234.527 72.9312 234.252 72.1379 234.252C71.3539 234.252 70.7146 234.527 70.2199 235.078C69.7346 235.619 69.4919 236.31 69.4919 237.15C69.4919 237.999 69.7392 238.695 70.2339 239.236C70.7286 239.777 71.3632 240.048 72.1379 240.048ZM83.9222 233.3V234.392H81.2622V241H80.1002V234.392H77.4402V233.3H81.2622H83.9222ZM88.9713 235.848C89.8486 235.848 90.5206 236.063 90.9873 236.492C91.4539 236.912 91.6873 237.542 91.6873 238.382C91.6873 239.213 91.4446 239.857 90.9593 240.314C90.4739 240.771 89.7926 241 88.9153 241H85.3173V233.3H86.4793V235.848H88.9713ZM88.8873 239.894C89.9699 239.894 90.5113 239.39 90.5113 238.382C90.5113 237.906 90.3899 237.537 90.1473 237.276C89.9139 237.015 89.5033 236.884 88.9153 236.884H86.4793V239.894H88.8873ZM95.6223 240.412C95.641 240.692 95.2537 241.691 94.4603 243.408H93.6343L94.5583 241.126C94.185 241.033 93.9983 240.785 93.9983 240.384C93.9983 240.151 94.073 239.959 94.2223 239.81C94.381 239.661 94.577 239.586 94.8103 239.586C95.0157 239.586 95.1977 239.651 95.3563 239.782C95.5243 239.913 95.613 240.123 95.6223 240.412ZM107.077 233.3H108.239V241H107.077V238.214C106.405 238.503 105.649 238.648 104.809 238.648C102.811 238.648 101.813 237.701 101.813 235.806V233.3H102.975V235.54C102.975 236.268 103.129 236.795 103.437 237.122C103.754 237.439 104.277 237.598 105.005 237.598C105.901 237.598 106.591 237.449 107.077 237.15V233.3ZM116.119 233.3V234.392H113.459V241H112.297V234.392H109.637V233.3H113.459H116.119ZM120.922 233.146C122.033 233.146 122.971 233.529 123.736 234.294C124.511 235.05 124.898 236.002 124.898 237.15C124.898 238.298 124.516 239.255 123.75 240.02C122.985 240.776 122.042 241.154 120.922 241.154C119.812 241.154 118.874 240.771 118.108 240.006C117.343 239.241 116.96 238.289 116.96 237.15C116.96 236.011 117.343 235.059 118.108 234.294C118.883 233.529 119.821 233.146 120.922 233.146ZM122.91 235.078C122.369 234.527 121.706 234.252 120.922 234.252C120.138 234.252 119.476 234.527 118.934 235.078C118.402 235.619 118.136 236.31 118.136 237.15C118.136 237.99 118.402 238.685 118.934 239.236C119.476 239.777 120.138 240.048 120.922 240.048C121.716 240.048 122.378 239.777 122.91 239.236C123.452 238.685 123.722 237.99 123.722 237.15C123.722 236.31 123.452 235.619 122.91 235.078ZM138.363 239.908H139.763V243.058H138.601V241H137.201H131.335V243.058H130.173V239.908H131.489C131.909 239.619 132.221 238.811 132.427 237.486L133.099 233.3H138.363V239.908ZM132.791 239.908H137.201V234.392H134.093L133.589 237.514C133.402 238.671 133.136 239.469 132.791 239.908ZM147.056 233.3H148.218V241H147.056V239.446C146.748 239.978 146.337 240.398 145.824 240.706C145.32 241.005 144.741 241.154 144.088 241.154C143.042 241.154 142.179 240.781 141.498 240.034C140.826 239.278 140.49 238.317 140.49 237.15C140.49 235.983 140.826 235.027 141.498 234.28C142.179 233.524 143.042 233.146 144.088 233.146C144.741 233.146 145.324 233.3 145.838 233.608C146.351 233.916 146.757 234.341 147.056 234.882V233.3ZM144.312 240.048C145.105 240.048 145.763 239.777 146.286 239.236C146.808 238.685 147.07 237.99 147.07 237.15C147.07 236.31 146.808 235.619 146.286 235.078C145.763 234.527 145.105 234.252 144.312 234.252C143.528 234.252 142.888 234.527 142.394 235.078C141.908 235.619 141.666 236.31 141.666 237.15C141.666 237.999 141.913 238.695 142.408 239.236C142.902 239.777 143.537 240.048 144.312 240.048ZM156.18 233.3H157.342V241H156.18V237.612H151.448V241H150.286V233.3H151.448V236.506H156.18V233.3ZM165.313 233.3H166.475V241H165.313V237.612H160.581V241H159.419V233.3H160.581V236.506H165.313V233.3ZM172.192 235.848C173.069 235.848 173.741 236.063 174.208 236.492C174.674 236.912 174.908 237.542 174.908 238.382C174.908 239.213 174.665 239.857 174.18 240.314C173.694 240.771 173.013 241 172.136 241H168.552V233.3H169.714V235.848H172.192ZM176.126 233.3H177.288V241H176.126V233.3ZM172.122 239.894C173.195 239.894 173.732 239.39 173.732 238.382C173.732 237.906 173.61 237.537 173.368 237.276C173.134 237.015 172.724 236.884 172.136 236.884H169.714V239.894H172.122ZM184.434 231.368C184.005 231.751 183.473 231.942 182.838 231.942C182.203 231.942 181.671 231.751 181.242 231.368C180.813 230.976 180.598 230.458 180.598 229.814V229.562H181.55V229.786C181.55 230.159 181.667 230.463 181.9 230.696C182.143 230.92 182.455 231.032 182.838 231.032C183.23 231.032 183.543 230.92 183.776 230.696C184.019 230.463 184.14 230.159 184.14 229.786V229.562H185.092V229.814C185.092 230.458 184.873 230.976 184.434 231.368ZM184.896 233.3H186.324V241H185.162V237.304L185.232 234.714L180.794 241H179.366V233.3H180.528V236.996L180.458 239.572L184.896 233.3ZM196.227 233.146C197.338 233.146 198.276 233.529 199.041 234.294C199.816 235.05 200.203 236.002 200.203 237.15C200.203 238.298 199.82 239.255 199.055 240.02C198.29 240.776 197.347 241.154 196.227 241.154C195.116 241.154 194.178 240.771 193.413 240.006C192.648 239.241 192.265 238.289 192.265 237.15C192.265 236.011 192.648 235.059 193.413 234.294C194.188 233.529 195.126 233.146 196.227 233.146ZM198.215 235.078C197.674 234.527 197.011 234.252 196.227 234.252C195.443 234.252 194.78 234.527 194.239 235.078C193.707 235.619 193.441 236.31 193.441 237.15C193.441 237.99 193.707 238.685 194.239 239.236C194.78 239.777 195.443 240.048 196.227 240.048C197.02 240.048 197.683 239.777 198.215 239.236C198.756 238.685 199.027 237.99 199.027 237.15C199.027 236.31 198.756 235.619 198.215 235.078ZM207.516 233.3V234.392H204.856V241H203.694V234.392H201.034V233.3H204.856H207.516ZM213.691 236.926C214.139 237.075 214.47 237.323 214.685 237.668C214.909 238.004 215.021 238.396 215.021 238.844C215.021 239.544 214.732 240.104 214.153 240.524C213.584 240.944 212.8 241.154 211.801 241.154C209.664 241.154 208.427 240.272 208.091 238.508H209.267C209.519 239.665 210.35 240.244 211.759 240.244C212.459 240.244 212.982 240.109 213.327 239.838C213.672 239.567 213.845 239.208 213.845 238.76C213.845 237.901 213.308 237.472 212.235 237.472H210.681V236.548H211.913C213.033 236.548 213.593 236.17 213.593 235.414C213.593 235.013 213.434 234.686 213.117 234.434C212.809 234.173 212.319 234.042 211.647 234.042C210.471 234.042 209.757 234.485 209.505 235.372H208.329C208.488 234.672 208.847 234.126 209.407 233.734C209.967 233.342 210.723 233.146 211.675 233.146C212.646 233.146 213.402 233.351 213.943 233.762C214.494 234.163 214.769 234.691 214.769 235.344C214.769 236.1 214.41 236.627 213.691 236.926ZM220.276 235.848C221.153 235.848 221.825 236.063 222.292 236.492C222.758 236.912 222.992 237.542 222.992 238.382C222.992 239.213 222.749 239.857 222.264 240.314C221.778 240.771 221.097 241 220.22 241H216.636V233.3H217.798V235.848H220.276ZM224.21 233.3H225.372V241H224.21V233.3ZM220.206 239.894C221.279 239.894 221.816 239.39 221.816 238.382C221.816 237.906 221.694 237.537 221.452 237.276C221.218 237.015 220.808 236.884 220.22 236.884H217.798V239.894H220.206ZM232.462 236.898C233.451 237.169 233.946 237.808 233.946 238.816C233.946 239.497 233.717 240.034 233.26 240.426C232.803 240.809 232.131 241 231.244 241H227.45V233.3H230.894C232.686 233.3 233.582 233.953 233.582 235.26C233.582 235.969 233.209 236.515 232.462 236.898ZM232.406 235.456C232.406 235.055 232.289 234.751 232.056 234.546C231.823 234.341 231.407 234.238 230.81 234.238H228.612V236.59H230.782C231.865 236.59 232.406 236.212 232.406 235.456ZM231.174 240.062C232.247 240.062 232.784 239.614 232.784 238.718C232.784 237.878 232.238 237.458 231.146 237.458H228.612V240.062H231.174ZM30.0364 254.3H31.2824L26.0884 265.5H24.8424L26.8864 261.062L23.7644 254.3H25.0104L27.5024 259.816L30.0364 254.3ZM37.8286 254.3H38.9906V262H37.8286V259.214C37.1566 259.503 36.4006 259.648 35.5606 259.648C33.5633 259.648 32.5646 258.701 32.5646 256.806V254.3H33.7266V256.54C33.7266 257.268 33.8806 257.795 34.1886 258.122C34.5059 258.439 35.0286 258.598 35.7566 258.598C36.6526 258.598 37.3433 258.449 37.8286 258.15V254.3ZM47.3194 254.3H48.4814V262H47.3194V260.446C47.0114 260.978 46.6007 261.398 46.0874 261.706C45.5834 262.005 45.0047 262.154 44.3514 262.154C43.3061 262.154 42.4427 261.781 41.7614 261.034C41.0894 260.278 40.7534 259.317 40.7534 258.15C40.7534 256.983 41.0894 256.027 41.7614 255.28C42.4427 254.524 43.3061 254.146 44.3514 254.146C45.0047 254.146 45.5881 254.3 46.1014 254.608C46.6147 254.916 47.0207 255.341 47.3194 255.882V254.3ZM44.5754 261.048C45.3687 261.048 46.0267 260.777 46.5494 260.236C47.0721 259.685 47.3334 258.99 47.3334 258.15C47.3334 257.31 47.0721 256.619 46.5494 256.078C46.0267 255.527 45.3687 255.252 44.5754 255.252C43.7914 255.252 43.1521 255.527 42.6574 256.078C42.1721 256.619 41.9294 257.31 41.9294 258.15C41.9294 258.999 42.1767 259.695 42.6714 260.236C43.1661 260.777 43.8007 261.048 44.5754 261.048ZM54.2177 262.154C53.0883 262.154 52.141 261.776 51.3757 261.02C50.6197 260.255 50.2417 259.298 50.2417 258.15C50.2417 257.002 50.6197 256.05 51.3757 255.294C52.141 254.529 53.0883 254.146 54.2177 254.146C55.1323 254.146 55.935 254.403 56.6257 254.916C57.3163 255.429 57.7597 256.12 57.9557 256.988H56.7517C56.5743 256.447 56.257 256.017 55.7997 255.7C55.3423 255.383 54.815 255.224 54.2177 255.224C53.4057 255.224 52.7337 255.499 52.2017 256.05C51.679 256.601 51.4177 257.301 51.4177 258.15C51.4177 258.999 51.679 259.699 52.2017 260.25C52.7337 260.801 53.4057 261.076 54.2177 261.076C54.815 261.076 55.3377 260.917 55.7857 260.6C56.243 260.283 56.565 259.853 56.7517 259.312H57.9557C57.7503 260.189 57.3023 260.885 56.6117 261.398C55.921 261.902 55.123 262.154 54.2177 262.154ZM65.137 254.3V255.392H62.477V262H61.315V255.392H58.655V254.3H62.477H65.137ZM71.5441 257.898C72.5334 258.169 73.0281 258.808 73.0281 259.816C73.0281 260.497 72.7994 261.034 72.3421 261.426C71.8848 261.809 71.2128 262 70.3261 262H66.5321V254.3H69.9761C71.7681 254.3 72.6641 254.953 72.6641 256.26C72.6641 256.969 72.2908 257.515 71.5441 257.898ZM71.4881 256.456C71.4881 256.055 71.3714 255.751 71.1381 255.546C70.9048 255.341 70.4894 255.238 69.8921 255.238H67.6941V257.59H69.8641C70.9468 257.59 71.4881 257.212 71.4881 256.456ZM70.2561 261.062C71.3294 261.062 71.8661 260.614 71.8661 259.718C71.8661 258.878 71.3201 258.458 70.2281 258.458H67.6941V261.062H70.2561ZM80.0755 254.3H81.3215L76.1275 265.5H74.8815L76.9255 261.062L73.8035 254.3H75.0495L77.5415 259.816L80.0755 254.3ZM85.8944 254.146C87.0891 254.146 88.0411 254.552 88.7504 255.364C89.4598 256.176 89.7911 257.221 89.7444 258.5H83.1504C83.2064 259.293 83.4911 259.919 84.0044 260.376C84.5178 260.833 85.1664 261.062 85.9504 261.062C87.0984 261.062 87.9011 260.614 88.3584 259.718H89.5624C89.2451 260.511 88.7644 261.118 88.1204 261.538C87.4764 261.949 86.7391 262.154 85.9084 262.154C84.7604 262.154 83.8131 261.785 83.0664 261.048C82.3291 260.301 81.9604 259.345 81.9604 258.178C81.9604 257.011 82.3291 256.05 83.0664 255.294C83.8038 254.529 84.7464 254.146 85.8944 254.146ZM85.8944 255.238C85.2038 255.238 84.6158 255.439 84.1304 255.84C83.6544 256.241 83.3464 256.764 83.2064 257.408H88.4844C88.3538 256.755 88.0598 256.232 87.6024 255.84C87.1451 255.439 86.5758 255.238 85.8944 255.238ZM97.0062 254.3V255.392H94.3462V262H93.1842V255.392H90.5242V254.3H94.3462H97.0062ZM107.611 257.898C108.6 258.169 109.095 258.808 109.095 259.816C109.095 260.497 108.866 261.034 108.409 261.426C107.951 261.809 107.279 262 106.393 262H102.599V254.3H106.043C107.835 254.3 108.731 254.953 108.731 256.26C108.731 256.969 108.357 257.515 107.611 257.898ZM107.555 256.456C107.555 256.055 107.438 255.751 107.205 255.546C106.971 255.341 106.556 255.238 105.959 255.238H103.761V257.59H105.931C107.013 257.59 107.555 257.212 107.555 256.456ZM106.323 261.062C107.396 261.062 107.933 260.614 107.933 259.718C107.933 258.878 107.387 258.458 106.295 258.458H103.761V261.062H106.323ZM121.161 254.3H122.323V262H121.161V260.446C120.853 260.978 120.443 261.398 119.929 261.706C119.425 262.005 118.847 262.154 118.193 262.154C117.148 262.154 116.285 261.781 115.603 261.034C114.931 260.278 114.595 259.317 114.595 258.15C114.595 256.983 114.931 256.027 115.603 255.28C116.285 254.524 117.148 254.146 118.193 254.146C118.847 254.146 119.43 254.3 119.943 254.608C120.457 254.916 120.863 255.341 121.161 255.882V254.3ZM118.417 261.048C119.211 261.048 119.869 260.777 120.391 260.236C120.914 259.685 121.175 258.99 121.175 258.15C121.175 257.31 120.914 256.619 120.391 256.078C119.869 255.527 119.211 255.252 118.417 255.252C117.633 255.252 116.994 255.527 116.499 256.078C116.014 256.619 115.771 257.31 115.771 258.15C115.771 258.999 116.019 259.695 116.513 260.236C117.008 260.777 117.643 261.048 118.417 261.048ZM131.195 262H129.669L125.553 258.29V262H124.391V254.3H125.553V257.73L129.305 254.3H130.831L126.785 257.954L131.195 262ZM139.385 260.908H140.785V264.058H139.623V262H138.223H132.973H132.595V254.3H133.757V260.908H138.223V254.3H139.385V260.908ZM147.709 254.3H149.137V262H147.975V258.304L148.045 255.714L143.607 262H142.179V254.3H143.341V257.996L143.271 260.572L147.709 254.3ZM156.718 254.3H158.146V262H156.984V258.304L157.054 255.714L152.616 262H151.188V254.3H152.35V257.996L152.28 260.572L156.718 254.3ZM160.618 260.81C160.777 260.661 160.973 260.586 161.206 260.586C161.439 260.586 161.631 260.661 161.78 260.81C161.939 260.959 162.018 261.146 162.018 261.37C162.018 261.594 161.939 261.781 161.78 261.93C161.631 262.079 161.439 262.154 161.206 262.154C160.973 262.154 160.777 262.079 160.618 261.93C160.469 261.781 160.394 261.594 160.394 261.37C160.394 261.146 160.469 260.959 160.618 260.81Z" fill="black"/>
<circle cx="151.4" cy="23" r="21" fill="#685BC7"/>
<path d="M150.723 25.21V19.78C149.803 22.62 149.193 24.43 148.893 25.21H150.723ZM146.103 29.02V25.63C148.083 20.21 149.753 15.51 151.113 11.53H154.623V25.21H156.693V29.02H154.623V34H150.723V29.02H146.103Z" fill="white"/>
</svg>
