<svg width="105" height="32" viewBox="0 0 105 32" fill="none" xmlns="http://www.w3.org/2000/svg">
<path d="M44.5 2.99965L44.737 4.48081L44.5 2.99965ZM101.854 24.4928C102.679 24.5734 103.412 23.9703 103.493 23.1458L104.806 9.70976C104.886 8.88526 104.283 8.15156 103.459 8.071C102.634 7.99044 101.9 8.59352 101.82 9.41803L100.653 21.3612L88.7099 20.1942C87.8854 20.1137 87.1517 20.7168 87.0711 21.5413C86.9906 22.3658 87.5937 23.0994 88.4182 23.18L101.854 24.4928ZM2.00004 30.9999C3.46274 31.3323 3.4625 31.3334 3.46228 31.3343C3.46224 31.3345 3.46204 31.3354 3.46194 31.3358C3.46175 31.3366 3.46164 31.3371 3.4616 31.3373C3.46152 31.3376 3.46175 31.3367 3.46229 31.3344C3.46338 31.3299 3.46574 31.3201 3.46948 31.3054C3.47696 31.2759 3.48993 31.2264 3.50921 31.1579C3.5478 31.0208 3.61162 30.8081 3.70726 30.5287C3.89855 29.97 4.21689 29.1454 4.71467 28.1277C5.7098 26.0933 7.42267 23.2855 10.275 20.283C15.9627 14.296 26.2772 7.43456 44.737 4.48081L44.263 1.51849C25.2229 4.56509 14.2873 11.7038 8.10002 18.2168C5.01488 21.4643 3.13401 24.5316 2.01977 26.8096C1.46286 27.9482 1.09761 28.8892 0.868984 29.557C0.75466 29.891 0.674445 30.1567 0.621473 30.3449C0.594986 30.439 0.575303 30.5137 0.561568 30.5678C0.5547 30.5949 0.549318 30.6168 0.545316 30.6335C0.543314 30.6418 0.541658 30.6488 0.540333 30.6545C0.53967 30.6573 0.53909 30.6598 0.538592 30.662C0.538343 30.6631 0.538028 30.6645 0.537904 30.665C0.537611 30.6663 0.537337 30.6675 2.00004 30.9999ZM44.737 4.48081C62.4633 1.64445 76.4899 6.5243 86.1034 12.1189C90.9142 14.9185 94.615 17.8952 97.1083 20.1671C98.3543 21.3024 99.2967 22.2598 99.9234 22.9283C100.237 23.2624 100.471 23.5241 100.624 23.6995C100.701 23.7872 100.758 23.8533 100.794 23.896C100.812 23.9174 100.825 23.9329 100.833 23.9424C100.837 23.9471 100.84 23.9503 100.841 23.952C100.842 23.9529 100.842 23.9533 100.842 23.9534C100.842 23.9534 100.842 23.9532 100.842 23.9532C100.842 23.9528 100.841 23.9524 102 22.9999C103.159 22.0474 103.158 22.0468 103.158 22.046C103.157 22.0457 103.157 22.0448 103.156 22.0441C103.155 22.0426 103.153 22.0407 103.151 22.0384C103.148 22.0338 103.143 22.0277 103.136 22.0201C103.123 22.0048 103.105 21.9834 103.082 21.9561C103.036 21.9015 102.969 21.8234 102.882 21.7235C102.707 21.5237 102.45 21.2366 102.112 20.8765C101.437 20.1563 100.439 19.1429 99.1289 17.9496C96.5109 15.5642 92.6406 12.4522 87.6123 9.52596C77.5476 3.6688 62.8243 -1.45148 44.263 1.51849L44.737 4.48081Z" fill="black"/>
</svg>
