<svg width="29" height="30" viewBox="0 0 29 30" fill="none" xmlns="http://www.w3.org/2000/svg">
<circle cx="14.4474" cy="14.4474" r="14.4474" fill="white"/>
<path fill-rule="evenodd" clip-rule="evenodd" d="M14.3349 0.0974121C14.4377 0.0974121 14.5406 0.0974121 14.6434 0.0974121C14.6893 2.13435 14.8039 4.16736 14.9875 6.19643C15.1104 7.39139 15.3912 8.54631 15.8299 9.66124C15.8348 9.72629 15.8586 9.78166 15.9011 9.82736C15.9685 9.93057 16.0239 10.0413 16.0672 10.1596C16.0809 10.2268 16.1126 10.2822 16.1621 10.3257C16.3722 10.6705 16.6016 11.0027 16.8503 11.3225C16.8641 11.3758 16.8957 11.4154 16.9452 11.4411C16.961 11.4411 16.9689 11.449 16.9689 11.4648C17.0147 11.5503 17.078 11.6215 17.1588 11.6784C17.2537 11.7655 17.3486 11.8525 17.4435 11.9395C17.4831 12.0265 17.5464 12.0898 17.6334 12.1293C17.9948 12.4353 18.3824 12.7042 18.7961 12.9362C18.8254 12.9907 18.8729 13.0223 18.9385 13.0311C19.0553 13.0777 19.166 13.1331 19.2707 13.1972C19.3106 13.233 19.3581 13.2568 19.4131 13.2684C20.5335 13.7134 21.6963 13.9942 22.9014 14.1109C23.651 14.1964 24.4023 14.2597 25.1558 14.3008C26.4367 14.3662 27.7181 14.4176 29 14.455C29 14.5579 29 14.6607 29 14.7635C26.9386 14.7931 24.8819 14.9078 22.8302 15.1076C21.6221 15.2297 20.4593 15.5185 19.3419 15.9738C19.1668 16.0375 19.0086 16.1245 18.8673 16.2349C17.6476 16.9024 16.7143 17.8516 16.0672 19.0827C15.9966 19.1443 15.9491 19.2234 15.9248 19.32C15.4659 20.3802 15.1693 21.4876 15.035 22.6424C14.9231 23.5175 14.844 24.3957 14.7977 25.2766C14.7329 26.5498 14.6815 27.8233 14.6434 29.0974C14.5485 29.0974 14.4536 29.0974 14.3587 29.0974C14.3654 29.0521 14.3575 29.0125 14.3349 28.9788C14.3009 27.6965 14.2495 26.415 14.1807 25.1342C14.1235 23.9871 13.997 22.848 13.801 21.7169C13.657 20.957 13.4395 20.2213 13.1484 19.5099C13.1368 19.4548 13.113 19.4074 13.0772 19.3675C12.7038 18.6358 12.2371 17.9713 11.6772 17.374C11.6124 17.2854 11.5333 17.2142 11.4399 17.1604C11.4161 17.1525 11.4003 17.1367 11.3924 17.113C11.3589 17.0557 11.3115 17.0161 11.25 16.9943C10.7751 16.6223 10.2689 16.2979 9.73132 16.0213C9.68562 15.9788 9.63026 15.955 9.56522 15.9501C8.51173 15.5285 7.42015 15.2556 6.29049 15.1314C5.74582 15.065 5.20003 15.0097 4.65313 14.9653C3.14317 14.875 1.63238 14.8078 0.120717 14.7635C0.0870524 14.741 0.0475025 14.7331 0.00206755 14.7398C-0.00417965 14.6425 0.00373031 14.5476 0.0257974 14.455C1.53657 14.4056 3.04737 14.3383 4.55821 14.2533C5.17675 14.2057 5.79373 14.1424 6.40914 14.0635C7.55207 13.9339 8.65154 13.6452 9.70759 13.1972C9.83225 13.1666 9.94297 13.1112 10.0398 13.0311C10.3799 12.8295 10.7121 12.6159 11.0365 12.3904C11.0898 12.3766 11.1294 12.345 11.1551 12.2954C11.2085 12.2817 11.248 12.25 11.2738 12.2005C11.2738 12.1847 11.2817 12.1768 11.2975 12.1768C11.367 12.147 11.4223 12.0995 11.4636 12.0344C11.4715 12.0107 11.4873 11.9948 11.5111 11.9869C11.6534 11.892 11.7721 11.7734 11.867 11.631C11.8749 11.6072 11.8907 11.5914 11.9145 11.5835C11.9796 11.5422 12.027 11.4868 12.0569 11.4174C12.0569 11.4016 12.0648 11.3936 12.0806 11.3936C12.1301 11.3679 12.1617 11.3284 12.1755 11.275C12.4228 10.9463 12.6522 10.6061 12.8637 10.2545C12.9675 10.1102 13.0466 9.952 13.101 9.7799C13.1048 9.74067 13.1206 9.70904 13.1484 9.68497C13.191 9.63927 13.2147 9.5839 13.2196 9.51885C13.3277 9.22619 13.4305 8.93351 13.5281 8.64078C13.5619 8.59296 13.5777 8.5376 13.5756 8.47466C13.8485 7.35944 14.0265 6.22823 14.1095 5.08105C14.2261 3.42169 14.3012 1.76048 14.3349 0.0974121Z" fill="black"/>
</svg>
