<svg width="29" height="30" viewBox="0 0 29 30" fill="none" xmlns="http://www.w3.org/2000/svg">
<circle cx="14.4474" cy="15.3499" r="14.4474" fill="black"/>
<path fill-rule="evenodd" clip-rule="evenodd" d="M14.3349 1C14.4377 1 14.5406 1 14.6434 1C14.6893 3.03694 14.8039 5.06994 14.9875 7.09902C15.1104 8.29397 15.3912 9.4489 15.8299 10.5638C15.8348 10.6289 15.8586 10.6842 15.9011 10.73C15.9685 10.8332 16.0239 10.9439 16.0672 11.0622C16.0809 11.1294 16.1126 11.1847 16.1621 11.2283C16.3722 11.5731 16.6016 11.9053 16.8503 12.225C16.8641 12.2784 16.8957 12.318 16.9452 12.3437C16.961 12.3437 16.9689 12.3516 16.9689 12.3674C17.0147 12.4529 17.078 12.5241 17.1588 12.581C17.2537 12.668 17.3486 12.755 17.4435 12.8421C17.4831 12.9291 17.5464 12.9924 17.6334 13.0319C17.9948 13.3379 18.3824 13.6068 18.7961 13.8388C18.8254 13.8933 18.8729 13.9249 18.9385 13.9337C19.0553 13.9803 19.166 14.0357 19.2707 14.0998C19.3106 14.1356 19.3581 14.1594 19.4131 14.171C20.5335 14.616 21.6963 14.8968 22.9014 15.0135C23.651 15.099 24.4023 15.1623 25.1558 15.2034C26.4367 15.2688 27.7181 15.3202 29 15.3576C29 15.4604 29 15.5633 29 15.6661C26.9386 15.6956 24.8819 15.8103 22.8302 16.0102C21.6221 16.1323 20.4593 16.4211 19.3419 16.8764C19.1668 16.9401 19.0086 17.0271 18.8673 17.1375C17.6476 17.805 16.7143 18.7542 16.0672 19.9853C15.9966 20.0469 15.9491 20.126 15.9248 20.2226C15.4659 21.2827 15.1693 22.3902 15.035 23.545C14.9231 24.4201 14.844 25.2983 14.7977 26.1792C14.7329 27.4524 14.6815 28.7259 14.6434 30C14.5485 30 14.4536 30 14.3587 30C14.3654 29.9547 14.3575 29.915 14.3349 29.8813C14.3009 28.5991 14.2495 27.3176 14.1807 26.0368C14.1235 24.8896 13.997 23.7506 13.801 22.6195C13.657 21.8595 13.4395 21.1239 13.1484 20.4124C13.1368 20.3574 13.113 20.3099 13.0772 20.27C12.7038 19.5384 12.2371 18.8739 11.6772 18.2766C11.6124 18.188 11.5333 18.1168 11.4399 18.063C11.4161 18.0551 11.4003 18.0393 11.3924 18.0155C11.3589 17.9583 11.3115 17.9187 11.25 17.8969C10.7751 17.5249 10.2689 17.2005 9.73132 16.9239C9.68562 16.8813 9.63026 16.8576 9.56522 16.8527C8.51173 16.4311 7.42015 16.1582 6.29049 16.034C5.74582 15.9676 5.20003 15.9122 4.65313 15.8678C3.14317 15.7776 1.63238 15.7104 0.120717 15.6661C0.0870524 15.6436 0.0475025 15.6356 0.00206755 15.6424C-0.00417965 15.5451 0.00373031 15.4502 0.0257974 15.3576C1.53657 15.3082 3.04737 15.2409 4.55821 15.1559C5.17675 15.1083 5.79373 15.045 6.40914 14.966C7.55207 14.8365 8.65154 14.5478 9.70759 14.0998C9.83225 14.0692 9.94297 14.0138 10.0398 13.9337C10.3799 13.732 10.7121 13.5185 11.0365 13.293C11.0898 13.2792 11.1294 13.2476 11.1551 13.198C11.2085 13.1843 11.248 13.1526 11.2738 13.1031C11.2738 13.0873 11.2817 13.0794 11.2975 13.0794C11.367 13.0495 11.4223 13.0021 11.4636 12.937C11.4715 12.9133 11.4873 12.8974 11.5111 12.8895C11.6534 12.7946 11.7721 12.6759 11.867 12.5336C11.8749 12.5098 11.8907 12.494 11.9145 12.4861C11.9796 12.4448 12.027 12.3894 12.0569 12.32C12.0569 12.3041 12.0648 12.2962 12.0806 12.2962C12.1301 12.2705 12.1617 12.231 12.1755 12.1776C12.4228 11.8488 12.6522 11.5087 12.8637 11.1571C12.9675 11.0128 13.0466 10.8546 13.101 10.6825C13.1048 10.6433 13.1206 10.6116 13.1484 10.5876C13.191 10.5419 13.2147 10.4865 13.2196 10.4214C13.3277 10.1288 13.4305 9.8361 13.5281 9.54337C13.5619 9.49555 13.5777 9.44019 13.5756 9.37725C13.8485 8.26203 14.0265 7.13082 14.1095 5.98363C14.2261 4.32427 14.3012 2.66307 14.3349 1Z" fill="#FDFDFD"/>
</svg>
