<svg width="30" height="30" viewBox="0 0 30 30" fill="none" xmlns="http://www.w3.org/2000/svg">
<circle cx="15.2368" cy="15.3499" r="14.4474" fill="black"/>
<path fill-rule="evenodd" clip-rule="evenodd" d="M12.0364 10.1474C14.6748 9.95088 17.3252 9.95088 19.9636 10.1474L21.7359 10.2793C22.723 10.3529 23.5306 11.0571 23.6938 11.9867C24.1021 14.3128 24.1021 16.6872 23.6938 19.0133C23.5306 19.9429 22.723 20.6471 21.7359 20.7207L19.9636 20.8526C17.3252 21.0491 14.6748 21.0491 12.0364 20.8526L10.2641 20.7207C9.27698 20.6471 8.4694 19.9429 8.30622 19.0133C7.89793 16.6872 7.89793 14.3128 8.30622 11.9867C8.4694 11.0571 9.27698 10.3529 10.2641 10.2793L12.0364 10.1474ZM14.4181 17.3597V13.6403C14.4181 13.4647 14.6193 13.3563 14.7774 13.4466L18.0337 15.3063C18.1873 15.394 18.1873 15.606 18.0337 15.6937L14.7774 17.5534C14.6193 17.6437 14.4181 17.5353 14.4181 17.3597Z" fill="white"/>
</svg>
