<svg width="29" height="30" viewBox="0 0 29 30" fill="none" xmlns="http://www.w3.org/2000/svg">
<circle cx="14.4474" cy="15.3499" r="14.4474" fill="black"/>
<path fill-rule="evenodd" clip-rule="evenodd" d="M14.8471 19.5776C14.8471 19.5776 15.1249 19.5476 15.2672 19.3992C15.3975 19.2633 15.393 19.0067 15.393 19.0067C15.393 19.0067 15.3756 17.8086 15.9486 17.6317C16.5134 17.4578 17.2385 18.7903 18.008 19.3027C18.5893 19.6902 19.0305 19.6054 19.0305 19.6054L21.0868 19.5776C21.0868 19.5776 22.162 19.5133 21.6523 18.6924C21.6101 18.6251 21.3549 18.0849 20.1238 16.9753C18.834 15.8138 19.0071 16.0016 20.5597 13.9922C21.5055 12.7685 21.8834 12.0215 21.7652 11.702C21.653 11.3965 20.9573 11.4776 20.9573 11.4776L18.6427 11.4915C18.6427 11.4915 18.471 11.4689 18.3438 11.5427C18.2196 11.615 18.139 11.7839 18.139 11.7839C18.139 11.7839 17.773 12.7305 17.2844 13.5361C16.2536 15.2348 15.8417 15.3248 15.6731 15.2195C15.2808 14.9732 15.3786 14.2312 15.3786 13.7042C15.3786 12.0573 15.6362 11.3709 14.8779 11.1933C14.6264 11.1341 14.4412 11.0953 13.7974 11.0887C12.9714 11.0807 12.2727 11.0917 11.8766 11.2795C11.6131 11.4045 11.4098 11.6838 11.534 11.6998C11.6869 11.7196 12.0333 11.7905 12.217 12.0332C12.4542 12.3468 12.4459 13.05 12.4459 13.05C12.4459 13.05 12.5822 14.9885 12.1274 15.229C11.8157 15.3942 11.388 15.0572 10.4686 13.5156C9.99802 12.7261 9.64262 11.8533 9.64262 11.8533C9.64262 11.8533 9.5741 11.6903 9.45137 11.6026C9.30304 11.4966 9.09598 11.4637 9.09598 11.4637L6.89659 11.4776C6.89659 11.4776 6.56604 11.4864 6.44481 11.626C6.33714 11.7495 6.43653 12.0061 6.43653 12.0061C6.43653 12.0061 8.15854 15.9176 10.1087 17.889C11.897 19.696 13.9269 19.5776 13.9269 19.5776H14.8471Z" fill="white"/>
</svg>
