<svg width="29" height="29" viewBox="0 0 29 29" fill="none" xmlns="http://www.w3.org/2000/svg">
<circle cx="14.4474" cy="14.4474" r="14.4474" fill="white"/>
<path fill-rule="evenodd" clip-rule="evenodd" d="M14.8471 18.675C14.8471 18.675 15.1249 18.645 15.2672 18.4966C15.3975 18.3607 15.393 18.1041 15.393 18.1041C15.393 18.1041 15.3756 16.906 15.9486 16.7291C16.5134 16.5552 17.2385 17.8877 18.008 18.4002C18.5893 18.7876 19.0305 18.7028 19.0305 18.7028L21.0868 18.675C21.0868 18.675 22.162 18.6107 21.6523 17.7898C21.6101 17.7225 21.3549 17.1823 20.1238 16.0727C18.834 14.9112 19.0071 15.0991 20.5597 13.0896C21.5055 11.8659 21.8834 11.1189 21.7652 10.7994C21.653 10.4939 20.9573 10.575 20.9573 10.575L18.6427 10.5889C18.6427 10.5889 18.471 10.5663 18.3438 10.6401C18.2196 10.7125 18.139 10.8813 18.139 10.8813C18.139 10.8813 17.773 11.8279 17.2844 12.6335C16.2536 14.3323 15.8417 14.4222 15.6731 14.3169C15.2808 14.0706 15.3786 13.3286 15.3786 12.8016C15.3786 11.1547 15.6362 10.4683 14.8779 10.2907C14.6264 10.2315 14.4412 10.1927 13.7974 10.1862C12.9714 10.1781 12.2727 10.1891 11.8766 10.3769C11.6131 10.5019 11.4098 10.7812 11.534 10.7973C11.6869 10.817 12.0333 10.8879 12.217 11.1306C12.4542 11.4442 12.4459 12.1474 12.4459 12.1474C12.4459 12.1474 12.5822 14.0859 12.1274 14.3264C11.8157 14.4916 11.388 14.1546 10.4686 12.613C9.99802 11.8235 9.64262 10.9508 9.64262 10.9508C9.64262 10.9508 9.5741 10.7877 9.45137 10.7C9.30304 10.594 9.09598 10.5611 9.09598 10.5611L6.89659 10.575C6.89659 10.575 6.56604 10.5838 6.44481 10.7234C6.33714 10.847 6.43653 11.1035 6.43653 11.1035C6.43653 11.1035 8.15854 15.015 10.1087 16.9864C11.897 18.7934 13.9269 18.675 13.9269 18.675H14.8471Z" fill="black"/>
</svg>
