<svg width="30" height="29" viewBox="0 0 30 29" fill="none" xmlns="http://www.w3.org/2000/svg">
<circle cx="15.2368" cy="14.4474" r="14.4474" fill="white"/>
<path fill-rule="evenodd" clip-rule="evenodd" d="M12.0364 9.24477C14.6748 9.04829 17.3252 9.04829 19.9636 9.24477L21.7359 9.37675C22.723 9.45027 23.5306 10.1545 23.6938 11.0842C24.1021 13.4102 24.1021 15.7846 23.6938 18.1107C23.5306 19.0403 22.723 19.7446 21.7359 19.8181L19.9636 19.9501C17.3252 20.1465 14.6748 20.1465 12.0364 19.9501L10.2641 19.8181C9.27698 19.7446 8.4694 19.0403 8.30622 18.1107C7.89793 15.7846 7.89793 13.4102 8.30622 11.0842C8.4694 10.1545 9.27698 9.45027 10.2641 9.37675L12.0364 9.24477ZM14.4181 16.4572V12.7377C14.4181 12.5621 14.6193 12.4537 14.7774 12.544L18.0337 14.4037C18.1873 14.4915 18.1873 14.7034 18.0337 14.7911L14.7774 16.6508C14.6193 16.7412 14.4181 16.6327 14.4181 16.4572Z" fill="black"/>
</svg>
